%TF.GenerationSoftware,KiCad,Pcbnew,9.0.0*%
%TF.CreationDate,2025-03-16T19:50:11+02:00*%
%TF.ProjectId,TVP5147M1_decoder,54565035-3134-4374-9d31-5f6465636f64,rev?*%
%TF.SameCoordinates,Original*%
%TF.FileFunction,Legend,Top*%
%TF.FilePolarity,Positive*%
%FSLAX46Y46*%
G04 Gerber Fmt 4.6, Leading zero omitted, Abs format (unit mm)*
G04 Created by KiCad (PCBNEW 9.0.0) date 2025-03-16 19:50:11*
%MOMM*%
%LPD*%
G01*
G04 APERTURE LIST*
%ADD10C,0.150000*%
%ADD11C,0.100000*%
%ADD12C,0.120000*%
%ADD13C,0.000000*%
%ADD14C,0.152400*%
G04 APERTURE END LIST*
D10*
X141908333Y-69759580D02*
X141860714Y-69807200D01*
X141860714Y-69807200D02*
X141717857Y-69854819D01*
X141717857Y-69854819D02*
X141622619Y-69854819D01*
X141622619Y-69854819D02*
X141479762Y-69807200D01*
X141479762Y-69807200D02*
X141384524Y-69711961D01*
X141384524Y-69711961D02*
X141336905Y-69616723D01*
X141336905Y-69616723D02*
X141289286Y-69426247D01*
X141289286Y-69426247D02*
X141289286Y-69283390D01*
X141289286Y-69283390D02*
X141336905Y-69092914D01*
X141336905Y-69092914D02*
X141384524Y-68997676D01*
X141384524Y-68997676D02*
X141479762Y-68902438D01*
X141479762Y-68902438D02*
X141622619Y-68854819D01*
X141622619Y-68854819D02*
X141717857Y-68854819D01*
X141717857Y-68854819D02*
X141860714Y-68902438D01*
X141860714Y-68902438D02*
X141908333Y-68950057D01*
X142289286Y-68950057D02*
X142336905Y-68902438D01*
X142336905Y-68902438D02*
X142432143Y-68854819D01*
X142432143Y-68854819D02*
X142670238Y-68854819D01*
X142670238Y-68854819D02*
X142765476Y-68902438D01*
X142765476Y-68902438D02*
X142813095Y-68950057D01*
X142813095Y-68950057D02*
X142860714Y-69045295D01*
X142860714Y-69045295D02*
X142860714Y-69140533D01*
X142860714Y-69140533D02*
X142813095Y-69283390D01*
X142813095Y-69283390D02*
X142241667Y-69854819D01*
X142241667Y-69854819D02*
X142860714Y-69854819D01*
X146914819Y-73408094D02*
X145914819Y-73408094D01*
X145914819Y-73408094D02*
X145914819Y-73169999D01*
X145914819Y-73169999D02*
X145962438Y-73027142D01*
X145962438Y-73027142D02*
X146057676Y-72931904D01*
X146057676Y-72931904D02*
X146152914Y-72884285D01*
X146152914Y-72884285D02*
X146343390Y-72836666D01*
X146343390Y-72836666D02*
X146486247Y-72836666D01*
X146486247Y-72836666D02*
X146676723Y-72884285D01*
X146676723Y-72884285D02*
X146771961Y-72931904D01*
X146771961Y-72931904D02*
X146867200Y-73027142D01*
X146867200Y-73027142D02*
X146914819Y-73169999D01*
X146914819Y-73169999D02*
X146914819Y-73408094D01*
X146914819Y-71884285D02*
X146914819Y-72455713D01*
X146914819Y-72169999D02*
X145914819Y-72169999D01*
X145914819Y-72169999D02*
X146057676Y-72265237D01*
X146057676Y-72265237D02*
X146152914Y-72360475D01*
X146152914Y-72360475D02*
X146200533Y-72455713D01*
X127117150Y-70359580D02*
X127069531Y-70407200D01*
X127069531Y-70407200D02*
X126926674Y-70454819D01*
X126926674Y-70454819D02*
X126831436Y-70454819D01*
X126831436Y-70454819D02*
X126688579Y-70407200D01*
X126688579Y-70407200D02*
X126593341Y-70311961D01*
X126593341Y-70311961D02*
X126545722Y-70216723D01*
X126545722Y-70216723D02*
X126498103Y-70026247D01*
X126498103Y-70026247D02*
X126498103Y-69883390D01*
X126498103Y-69883390D02*
X126545722Y-69692914D01*
X126545722Y-69692914D02*
X126593341Y-69597676D01*
X126593341Y-69597676D02*
X126688579Y-69502438D01*
X126688579Y-69502438D02*
X126831436Y-69454819D01*
X126831436Y-69454819D02*
X126926674Y-69454819D01*
X126926674Y-69454819D02*
X127069531Y-69502438D01*
X127069531Y-69502438D02*
X127117150Y-69550057D01*
X127450484Y-69454819D02*
X128069531Y-69454819D01*
X128069531Y-69454819D02*
X127736198Y-69835771D01*
X127736198Y-69835771D02*
X127879055Y-69835771D01*
X127879055Y-69835771D02*
X127974293Y-69883390D01*
X127974293Y-69883390D02*
X128021912Y-69931009D01*
X128021912Y-69931009D02*
X128069531Y-70026247D01*
X128069531Y-70026247D02*
X128069531Y-70264342D01*
X128069531Y-70264342D02*
X128021912Y-70359580D01*
X128021912Y-70359580D02*
X127974293Y-70407200D01*
X127974293Y-70407200D02*
X127879055Y-70454819D01*
X127879055Y-70454819D02*
X127593341Y-70454819D01*
X127593341Y-70454819D02*
X127498103Y-70407200D01*
X127498103Y-70407200D02*
X127450484Y-70359580D01*
X128402865Y-69454819D02*
X129069531Y-69454819D01*
X129069531Y-69454819D02*
X128640960Y-70454819D01*
X115838095Y-84254819D02*
X115838095Y-85064342D01*
X115838095Y-85064342D02*
X115885714Y-85159580D01*
X115885714Y-85159580D02*
X115933333Y-85207200D01*
X115933333Y-85207200D02*
X116028571Y-85254819D01*
X116028571Y-85254819D02*
X116219047Y-85254819D01*
X116219047Y-85254819D02*
X116314285Y-85207200D01*
X116314285Y-85207200D02*
X116361904Y-85159580D01*
X116361904Y-85159580D02*
X116409523Y-85064342D01*
X116409523Y-85064342D02*
X116409523Y-84254819D01*
X116838095Y-84350057D02*
X116885714Y-84302438D01*
X116885714Y-84302438D02*
X116980952Y-84254819D01*
X116980952Y-84254819D02*
X117219047Y-84254819D01*
X117219047Y-84254819D02*
X117314285Y-84302438D01*
X117314285Y-84302438D02*
X117361904Y-84350057D01*
X117361904Y-84350057D02*
X117409523Y-84445295D01*
X117409523Y-84445295D02*
X117409523Y-84540533D01*
X117409523Y-84540533D02*
X117361904Y-84683390D01*
X117361904Y-84683390D02*
X116790476Y-85254819D01*
X116790476Y-85254819D02*
X117409523Y-85254819D01*
X118400000Y-84054819D02*
X118400000Y-84292914D01*
X118161905Y-84197676D02*
X118400000Y-84292914D01*
X118400000Y-84292914D02*
X118638095Y-84197676D01*
X118257143Y-84483390D02*
X118400000Y-84292914D01*
X118400000Y-84292914D02*
X118542857Y-84483390D01*
X117800000Y-84854819D02*
X117800000Y-85092914D01*
X117561905Y-84997676D02*
X117800000Y-85092914D01*
X117800000Y-85092914D02*
X118038095Y-84997676D01*
X117657143Y-85283390D02*
X117800000Y-85092914D01*
X117800000Y-85092914D02*
X117942857Y-85283390D01*
X136331009Y-77833333D02*
X136331009Y-78166666D01*
X136854819Y-78166666D02*
X135854819Y-78166666D01*
X135854819Y-78166666D02*
X135854819Y-77690476D01*
X136331009Y-76976190D02*
X136378628Y-76833333D01*
X136378628Y-76833333D02*
X136426247Y-76785714D01*
X136426247Y-76785714D02*
X136521485Y-76738095D01*
X136521485Y-76738095D02*
X136664342Y-76738095D01*
X136664342Y-76738095D02*
X136759580Y-76785714D01*
X136759580Y-76785714D02*
X136807200Y-76833333D01*
X136807200Y-76833333D02*
X136854819Y-76928571D01*
X136854819Y-76928571D02*
X136854819Y-77309523D01*
X136854819Y-77309523D02*
X135854819Y-77309523D01*
X135854819Y-77309523D02*
X135854819Y-76976190D01*
X135854819Y-76976190D02*
X135902438Y-76880952D01*
X135902438Y-76880952D02*
X135950057Y-76833333D01*
X135950057Y-76833333D02*
X136045295Y-76785714D01*
X136045295Y-76785714D02*
X136140533Y-76785714D01*
X136140533Y-76785714D02*
X136235771Y-76833333D01*
X136235771Y-76833333D02*
X136283390Y-76880952D01*
X136283390Y-76880952D02*
X136331009Y-76976190D01*
X136331009Y-76976190D02*
X136331009Y-77309523D01*
X135950057Y-76357142D02*
X135902438Y-76309523D01*
X135902438Y-76309523D02*
X135854819Y-76214285D01*
X135854819Y-76214285D02*
X135854819Y-75976190D01*
X135854819Y-75976190D02*
X135902438Y-75880952D01*
X135902438Y-75880952D02*
X135950057Y-75833333D01*
X135950057Y-75833333D02*
X136045295Y-75785714D01*
X136045295Y-75785714D02*
X136140533Y-75785714D01*
X136140533Y-75785714D02*
X136283390Y-75833333D01*
X136283390Y-75833333D02*
X136854819Y-76404761D01*
X136854819Y-76404761D02*
X136854819Y-75785714D01*
X121682142Y-81684819D02*
X121348809Y-81208628D01*
X121110714Y-81684819D02*
X121110714Y-80684819D01*
X121110714Y-80684819D02*
X121491666Y-80684819D01*
X121491666Y-80684819D02*
X121586904Y-80732438D01*
X121586904Y-80732438D02*
X121634523Y-80780057D01*
X121634523Y-80780057D02*
X121682142Y-80875295D01*
X121682142Y-80875295D02*
X121682142Y-81018152D01*
X121682142Y-81018152D02*
X121634523Y-81113390D01*
X121634523Y-81113390D02*
X121586904Y-81161009D01*
X121586904Y-81161009D02*
X121491666Y-81208628D01*
X121491666Y-81208628D02*
X121110714Y-81208628D01*
X122634523Y-81684819D02*
X122063095Y-81684819D01*
X122348809Y-81684819D02*
X122348809Y-80684819D01*
X122348809Y-80684819D02*
X122253571Y-80827676D01*
X122253571Y-80827676D02*
X122158333Y-80922914D01*
X122158333Y-80922914D02*
X122063095Y-80970533D01*
X123539285Y-80684819D02*
X123063095Y-80684819D01*
X123063095Y-80684819D02*
X123015476Y-81161009D01*
X123015476Y-81161009D02*
X123063095Y-81113390D01*
X123063095Y-81113390D02*
X123158333Y-81065771D01*
X123158333Y-81065771D02*
X123396428Y-81065771D01*
X123396428Y-81065771D02*
X123491666Y-81113390D01*
X123491666Y-81113390D02*
X123539285Y-81161009D01*
X123539285Y-81161009D02*
X123586904Y-81256247D01*
X123586904Y-81256247D02*
X123586904Y-81494342D01*
X123586904Y-81494342D02*
X123539285Y-81589580D01*
X123539285Y-81589580D02*
X123491666Y-81637200D01*
X123491666Y-81637200D02*
X123396428Y-81684819D01*
X123396428Y-81684819D02*
X123158333Y-81684819D01*
X123158333Y-81684819D02*
X123063095Y-81637200D01*
X123063095Y-81637200D02*
X123015476Y-81589580D01*
X139170833Y-86159580D02*
X139123214Y-86207200D01*
X139123214Y-86207200D02*
X138980357Y-86254819D01*
X138980357Y-86254819D02*
X138885119Y-86254819D01*
X138885119Y-86254819D02*
X138742262Y-86207200D01*
X138742262Y-86207200D02*
X138647024Y-86111961D01*
X138647024Y-86111961D02*
X138599405Y-86016723D01*
X138599405Y-86016723D02*
X138551786Y-85826247D01*
X138551786Y-85826247D02*
X138551786Y-85683390D01*
X138551786Y-85683390D02*
X138599405Y-85492914D01*
X138599405Y-85492914D02*
X138647024Y-85397676D01*
X138647024Y-85397676D02*
X138742262Y-85302438D01*
X138742262Y-85302438D02*
X138885119Y-85254819D01*
X138885119Y-85254819D02*
X138980357Y-85254819D01*
X138980357Y-85254819D02*
X139123214Y-85302438D01*
X139123214Y-85302438D02*
X139170833Y-85350057D01*
X139504167Y-85254819D02*
X140170833Y-85254819D01*
X140170833Y-85254819D02*
X139742262Y-86254819D01*
X114609580Y-68175180D02*
X114657200Y-68222799D01*
X114657200Y-68222799D02*
X114704819Y-68365656D01*
X114704819Y-68365656D02*
X114704819Y-68460894D01*
X114704819Y-68460894D02*
X114657200Y-68603751D01*
X114657200Y-68603751D02*
X114561961Y-68698989D01*
X114561961Y-68698989D02*
X114466723Y-68746608D01*
X114466723Y-68746608D02*
X114276247Y-68794227D01*
X114276247Y-68794227D02*
X114133390Y-68794227D01*
X114133390Y-68794227D02*
X113942914Y-68746608D01*
X113942914Y-68746608D02*
X113847676Y-68698989D01*
X113847676Y-68698989D02*
X113752438Y-68603751D01*
X113752438Y-68603751D02*
X113704819Y-68460894D01*
X113704819Y-68460894D02*
X113704819Y-68365656D01*
X113704819Y-68365656D02*
X113752438Y-68222799D01*
X113752438Y-68222799D02*
X113800057Y-68175180D01*
X114704819Y-67222799D02*
X114704819Y-67794227D01*
X114704819Y-67508513D02*
X113704819Y-67508513D01*
X113704819Y-67508513D02*
X113847676Y-67603751D01*
X113847676Y-67603751D02*
X113942914Y-67698989D01*
X113942914Y-67698989D02*
X113990533Y-67794227D01*
X113704819Y-66603751D02*
X113704819Y-66508513D01*
X113704819Y-66508513D02*
X113752438Y-66413275D01*
X113752438Y-66413275D02*
X113800057Y-66365656D01*
X113800057Y-66365656D02*
X113895295Y-66318037D01*
X113895295Y-66318037D02*
X114085771Y-66270418D01*
X114085771Y-66270418D02*
X114323866Y-66270418D01*
X114323866Y-66270418D02*
X114514342Y-66318037D01*
X114514342Y-66318037D02*
X114609580Y-66365656D01*
X114609580Y-66365656D02*
X114657200Y-66413275D01*
X114657200Y-66413275D02*
X114704819Y-66508513D01*
X114704819Y-66508513D02*
X114704819Y-66603751D01*
X114704819Y-66603751D02*
X114657200Y-66698989D01*
X114657200Y-66698989D02*
X114609580Y-66746608D01*
X114609580Y-66746608D02*
X114514342Y-66794227D01*
X114514342Y-66794227D02*
X114323866Y-66841846D01*
X114323866Y-66841846D02*
X114085771Y-66841846D01*
X114085771Y-66841846D02*
X113895295Y-66794227D01*
X113895295Y-66794227D02*
X113800057Y-66746608D01*
X113800057Y-66746608D02*
X113752438Y-66698989D01*
X113752438Y-66698989D02*
X113704819Y-66603751D01*
D11*
X105962180Y-102571428D02*
X106009800Y-102619047D01*
X106009800Y-102619047D02*
X106057419Y-102761904D01*
X106057419Y-102761904D02*
X106057419Y-102857142D01*
X106057419Y-102857142D02*
X106009800Y-102999999D01*
X106009800Y-102999999D02*
X105914561Y-103095237D01*
X105914561Y-103095237D02*
X105819323Y-103142856D01*
X105819323Y-103142856D02*
X105628847Y-103190475D01*
X105628847Y-103190475D02*
X105485990Y-103190475D01*
X105485990Y-103190475D02*
X105295514Y-103142856D01*
X105295514Y-103142856D02*
X105200276Y-103095237D01*
X105200276Y-103095237D02*
X105105038Y-102999999D01*
X105105038Y-102999999D02*
X105057419Y-102857142D01*
X105057419Y-102857142D02*
X105057419Y-102761904D01*
X105057419Y-102761904D02*
X105105038Y-102619047D01*
X105105038Y-102619047D02*
X105152657Y-102571428D01*
X105057419Y-102285713D02*
X106057419Y-101952380D01*
X106057419Y-101952380D02*
X105057419Y-101619047D01*
X105533609Y-100952380D02*
X105581228Y-100809523D01*
X105581228Y-100809523D02*
X105628847Y-100761904D01*
X105628847Y-100761904D02*
X105724085Y-100714285D01*
X105724085Y-100714285D02*
X105866942Y-100714285D01*
X105866942Y-100714285D02*
X105962180Y-100761904D01*
X105962180Y-100761904D02*
X106009800Y-100809523D01*
X106009800Y-100809523D02*
X106057419Y-100904761D01*
X106057419Y-100904761D02*
X106057419Y-101285713D01*
X106057419Y-101285713D02*
X105057419Y-101285713D01*
X105057419Y-101285713D02*
X105057419Y-100952380D01*
X105057419Y-100952380D02*
X105105038Y-100857142D01*
X105105038Y-100857142D02*
X105152657Y-100809523D01*
X105152657Y-100809523D02*
X105247895Y-100761904D01*
X105247895Y-100761904D02*
X105343133Y-100761904D01*
X105343133Y-100761904D02*
X105438371Y-100809523D01*
X105438371Y-100809523D02*
X105485990Y-100857142D01*
X105485990Y-100857142D02*
X105533609Y-100952380D01*
X105533609Y-100952380D02*
X105533609Y-101285713D01*
X106009800Y-100333332D02*
X106057419Y-100190475D01*
X106057419Y-100190475D02*
X106057419Y-99952380D01*
X106057419Y-99952380D02*
X106009800Y-99857142D01*
X106009800Y-99857142D02*
X105962180Y-99809523D01*
X105962180Y-99809523D02*
X105866942Y-99761904D01*
X105866942Y-99761904D02*
X105771704Y-99761904D01*
X105771704Y-99761904D02*
X105676466Y-99809523D01*
X105676466Y-99809523D02*
X105628847Y-99857142D01*
X105628847Y-99857142D02*
X105581228Y-99952380D01*
X105581228Y-99952380D02*
X105533609Y-100142856D01*
X105533609Y-100142856D02*
X105485990Y-100238094D01*
X105485990Y-100238094D02*
X105438371Y-100285713D01*
X105438371Y-100285713D02*
X105343133Y-100333332D01*
X105343133Y-100333332D02*
X105247895Y-100333332D01*
X105247895Y-100333332D02*
X105152657Y-100285713D01*
X105152657Y-100285713D02*
X105105038Y-100238094D01*
X105105038Y-100238094D02*
X105057419Y-100142856D01*
X105057419Y-100142856D02*
X105057419Y-99904761D01*
X105057419Y-99904761D02*
X105105038Y-99761904D01*
X105152657Y-99380951D02*
X105105038Y-99333332D01*
X105105038Y-99333332D02*
X105057419Y-99238094D01*
X105057419Y-99238094D02*
X105057419Y-98999999D01*
X105057419Y-98999999D02*
X105105038Y-98904761D01*
X105105038Y-98904761D02*
X105152657Y-98857142D01*
X105152657Y-98857142D02*
X105247895Y-98809523D01*
X105247895Y-98809523D02*
X105343133Y-98809523D01*
X105343133Y-98809523D02*
X105485990Y-98857142D01*
X105485990Y-98857142D02*
X106057419Y-99428570D01*
X106057419Y-99428570D02*
X106057419Y-98809523D01*
D10*
X143758333Y-66824819D02*
X143425000Y-66348628D01*
X143186905Y-66824819D02*
X143186905Y-65824819D01*
X143186905Y-65824819D02*
X143567857Y-65824819D01*
X143567857Y-65824819D02*
X143663095Y-65872438D01*
X143663095Y-65872438D02*
X143710714Y-65920057D01*
X143710714Y-65920057D02*
X143758333Y-66015295D01*
X143758333Y-66015295D02*
X143758333Y-66158152D01*
X143758333Y-66158152D02*
X143710714Y-66253390D01*
X143710714Y-66253390D02*
X143663095Y-66301009D01*
X143663095Y-66301009D02*
X143567857Y-66348628D01*
X143567857Y-66348628D02*
X143186905Y-66348628D01*
X144615476Y-65824819D02*
X144425000Y-65824819D01*
X144425000Y-65824819D02*
X144329762Y-65872438D01*
X144329762Y-65872438D02*
X144282143Y-65920057D01*
X144282143Y-65920057D02*
X144186905Y-66062914D01*
X144186905Y-66062914D02*
X144139286Y-66253390D01*
X144139286Y-66253390D02*
X144139286Y-66634342D01*
X144139286Y-66634342D02*
X144186905Y-66729580D01*
X144186905Y-66729580D02*
X144234524Y-66777200D01*
X144234524Y-66777200D02*
X144329762Y-66824819D01*
X144329762Y-66824819D02*
X144520238Y-66824819D01*
X144520238Y-66824819D02*
X144615476Y-66777200D01*
X144615476Y-66777200D02*
X144663095Y-66729580D01*
X144663095Y-66729580D02*
X144710714Y-66634342D01*
X144710714Y-66634342D02*
X144710714Y-66396247D01*
X144710714Y-66396247D02*
X144663095Y-66301009D01*
X144663095Y-66301009D02*
X144615476Y-66253390D01*
X144615476Y-66253390D02*
X144520238Y-66205771D01*
X144520238Y-66205771D02*
X144329762Y-66205771D01*
X144329762Y-66205771D02*
X144234524Y-66253390D01*
X144234524Y-66253390D02*
X144186905Y-66301009D01*
X144186905Y-66301009D02*
X144139286Y-66396247D01*
X133054819Y-105666666D02*
X132578628Y-105999999D01*
X133054819Y-106238094D02*
X132054819Y-106238094D01*
X132054819Y-106238094D02*
X132054819Y-105857142D01*
X132054819Y-105857142D02*
X132102438Y-105761904D01*
X132102438Y-105761904D02*
X132150057Y-105714285D01*
X132150057Y-105714285D02*
X132245295Y-105666666D01*
X132245295Y-105666666D02*
X132388152Y-105666666D01*
X132388152Y-105666666D02*
X132483390Y-105714285D01*
X132483390Y-105714285D02*
X132531009Y-105761904D01*
X132531009Y-105761904D02*
X132578628Y-105857142D01*
X132578628Y-105857142D02*
X132578628Y-106238094D01*
X132531009Y-104904761D02*
X132578628Y-104761904D01*
X132578628Y-104761904D02*
X132626247Y-104714285D01*
X132626247Y-104714285D02*
X132721485Y-104666666D01*
X132721485Y-104666666D02*
X132864342Y-104666666D01*
X132864342Y-104666666D02*
X132959580Y-104714285D01*
X132959580Y-104714285D02*
X133007200Y-104761904D01*
X133007200Y-104761904D02*
X133054819Y-104857142D01*
X133054819Y-104857142D02*
X133054819Y-105238094D01*
X133054819Y-105238094D02*
X132054819Y-105238094D01*
X132054819Y-105238094D02*
X132054819Y-104904761D01*
X132054819Y-104904761D02*
X132102438Y-104809523D01*
X132102438Y-104809523D02*
X132150057Y-104761904D01*
X132150057Y-104761904D02*
X132245295Y-104714285D01*
X132245295Y-104714285D02*
X132340533Y-104714285D01*
X132340533Y-104714285D02*
X132435771Y-104761904D01*
X132435771Y-104761904D02*
X132483390Y-104809523D01*
X132483390Y-104809523D02*
X132531009Y-104904761D01*
X132531009Y-104904761D02*
X132531009Y-105238094D01*
X132483390Y-104095237D02*
X132435771Y-104190475D01*
X132435771Y-104190475D02*
X132388152Y-104238094D01*
X132388152Y-104238094D02*
X132292914Y-104285713D01*
X132292914Y-104285713D02*
X132245295Y-104285713D01*
X132245295Y-104285713D02*
X132150057Y-104238094D01*
X132150057Y-104238094D02*
X132102438Y-104190475D01*
X132102438Y-104190475D02*
X132054819Y-104095237D01*
X132054819Y-104095237D02*
X132054819Y-103904761D01*
X132054819Y-103904761D02*
X132102438Y-103809523D01*
X132102438Y-103809523D02*
X132150057Y-103761904D01*
X132150057Y-103761904D02*
X132245295Y-103714285D01*
X132245295Y-103714285D02*
X132292914Y-103714285D01*
X132292914Y-103714285D02*
X132388152Y-103761904D01*
X132388152Y-103761904D02*
X132435771Y-103809523D01*
X132435771Y-103809523D02*
X132483390Y-103904761D01*
X132483390Y-103904761D02*
X132483390Y-104095237D01*
X132483390Y-104095237D02*
X132531009Y-104190475D01*
X132531009Y-104190475D02*
X132578628Y-104238094D01*
X132578628Y-104238094D02*
X132673866Y-104285713D01*
X132673866Y-104285713D02*
X132864342Y-104285713D01*
X132864342Y-104285713D02*
X132959580Y-104238094D01*
X132959580Y-104238094D02*
X133007200Y-104190475D01*
X133007200Y-104190475D02*
X133054819Y-104095237D01*
X133054819Y-104095237D02*
X133054819Y-103904761D01*
X133054819Y-103904761D02*
X133007200Y-103809523D01*
X133007200Y-103809523D02*
X132959580Y-103761904D01*
X132959580Y-103761904D02*
X132864342Y-103714285D01*
X132864342Y-103714285D02*
X132673866Y-103714285D01*
X132673866Y-103714285D02*
X132578628Y-103761904D01*
X132578628Y-103761904D02*
X132531009Y-103809523D01*
X132531009Y-103809523D02*
X132483390Y-103904761D01*
X132954819Y-78333333D02*
X133669104Y-78333333D01*
X133669104Y-78333333D02*
X133811961Y-78380952D01*
X133811961Y-78380952D02*
X133907200Y-78476190D01*
X133907200Y-78476190D02*
X133954819Y-78619047D01*
X133954819Y-78619047D02*
X133954819Y-78714285D01*
X132954819Y-77428571D02*
X132954819Y-77619047D01*
X132954819Y-77619047D02*
X133002438Y-77714285D01*
X133002438Y-77714285D02*
X133050057Y-77761904D01*
X133050057Y-77761904D02*
X133192914Y-77857142D01*
X133192914Y-77857142D02*
X133383390Y-77904761D01*
X133383390Y-77904761D02*
X133764342Y-77904761D01*
X133764342Y-77904761D02*
X133859580Y-77857142D01*
X133859580Y-77857142D02*
X133907200Y-77809523D01*
X133907200Y-77809523D02*
X133954819Y-77714285D01*
X133954819Y-77714285D02*
X133954819Y-77523809D01*
X133954819Y-77523809D02*
X133907200Y-77428571D01*
X133907200Y-77428571D02*
X133859580Y-77380952D01*
X133859580Y-77380952D02*
X133764342Y-77333333D01*
X133764342Y-77333333D02*
X133526247Y-77333333D01*
X133526247Y-77333333D02*
X133431009Y-77380952D01*
X133431009Y-77380952D02*
X133383390Y-77428571D01*
X133383390Y-77428571D02*
X133335771Y-77523809D01*
X133335771Y-77523809D02*
X133335771Y-77714285D01*
X133335771Y-77714285D02*
X133383390Y-77809523D01*
X133383390Y-77809523D02*
X133431009Y-77857142D01*
X133431009Y-77857142D02*
X133526247Y-77904761D01*
X144784819Y-79103333D02*
X145499104Y-79103333D01*
X145499104Y-79103333D02*
X145641961Y-79150952D01*
X145641961Y-79150952D02*
X145737200Y-79246190D01*
X145737200Y-79246190D02*
X145784819Y-79389047D01*
X145784819Y-79389047D02*
X145784819Y-79484285D01*
X144784819Y-78150952D02*
X144784819Y-78627142D01*
X144784819Y-78627142D02*
X145261009Y-78674761D01*
X145261009Y-78674761D02*
X145213390Y-78627142D01*
X145213390Y-78627142D02*
X145165771Y-78531904D01*
X145165771Y-78531904D02*
X145165771Y-78293809D01*
X145165771Y-78293809D02*
X145213390Y-78198571D01*
X145213390Y-78198571D02*
X145261009Y-78150952D01*
X145261009Y-78150952D02*
X145356247Y-78103333D01*
X145356247Y-78103333D02*
X145594342Y-78103333D01*
X145594342Y-78103333D02*
X145689580Y-78150952D01*
X145689580Y-78150952D02*
X145737200Y-78198571D01*
X145737200Y-78198571D02*
X145784819Y-78293809D01*
X145784819Y-78293809D02*
X145784819Y-78531904D01*
X145784819Y-78531904D02*
X145737200Y-78627142D01*
X145737200Y-78627142D02*
X145689580Y-78674761D01*
X120033333Y-104654819D02*
X119700000Y-104178628D01*
X119461905Y-104654819D02*
X119461905Y-103654819D01*
X119461905Y-103654819D02*
X119842857Y-103654819D01*
X119842857Y-103654819D02*
X119938095Y-103702438D01*
X119938095Y-103702438D02*
X119985714Y-103750057D01*
X119985714Y-103750057D02*
X120033333Y-103845295D01*
X120033333Y-103845295D02*
X120033333Y-103988152D01*
X120033333Y-103988152D02*
X119985714Y-104083390D01*
X119985714Y-104083390D02*
X119938095Y-104131009D01*
X119938095Y-104131009D02*
X119842857Y-104178628D01*
X119842857Y-104178628D02*
X119461905Y-104178628D01*
X120985714Y-104654819D02*
X120414286Y-104654819D01*
X120700000Y-104654819D02*
X120700000Y-103654819D01*
X120700000Y-103654819D02*
X120604762Y-103797676D01*
X120604762Y-103797676D02*
X120509524Y-103892914D01*
X120509524Y-103892914D02*
X120414286Y-103940533D01*
X143959580Y-64166666D02*
X144007200Y-64214285D01*
X144007200Y-64214285D02*
X144054819Y-64357142D01*
X144054819Y-64357142D02*
X144054819Y-64452380D01*
X144054819Y-64452380D02*
X144007200Y-64595237D01*
X144007200Y-64595237D02*
X143911961Y-64690475D01*
X143911961Y-64690475D02*
X143816723Y-64738094D01*
X143816723Y-64738094D02*
X143626247Y-64785713D01*
X143626247Y-64785713D02*
X143483390Y-64785713D01*
X143483390Y-64785713D02*
X143292914Y-64738094D01*
X143292914Y-64738094D02*
X143197676Y-64690475D01*
X143197676Y-64690475D02*
X143102438Y-64595237D01*
X143102438Y-64595237D02*
X143054819Y-64452380D01*
X143054819Y-64452380D02*
X143054819Y-64357142D01*
X143054819Y-64357142D02*
X143102438Y-64214285D01*
X143102438Y-64214285D02*
X143150057Y-64166666D01*
X143054819Y-63261904D02*
X143054819Y-63738094D01*
X143054819Y-63738094D02*
X143531009Y-63785713D01*
X143531009Y-63785713D02*
X143483390Y-63738094D01*
X143483390Y-63738094D02*
X143435771Y-63642856D01*
X143435771Y-63642856D02*
X143435771Y-63404761D01*
X143435771Y-63404761D02*
X143483390Y-63309523D01*
X143483390Y-63309523D02*
X143531009Y-63261904D01*
X143531009Y-63261904D02*
X143626247Y-63214285D01*
X143626247Y-63214285D02*
X143864342Y-63214285D01*
X143864342Y-63214285D02*
X143959580Y-63261904D01*
X143959580Y-63261904D02*
X144007200Y-63309523D01*
X144007200Y-63309523D02*
X144054819Y-63404761D01*
X144054819Y-63404761D02*
X144054819Y-63642856D01*
X144054819Y-63642856D02*
X144007200Y-63738094D01*
X144007200Y-63738094D02*
X143959580Y-63785713D01*
X106633333Y-80824819D02*
X106300000Y-80348628D01*
X106061905Y-80824819D02*
X106061905Y-79824819D01*
X106061905Y-79824819D02*
X106442857Y-79824819D01*
X106442857Y-79824819D02*
X106538095Y-79872438D01*
X106538095Y-79872438D02*
X106585714Y-79920057D01*
X106585714Y-79920057D02*
X106633333Y-80015295D01*
X106633333Y-80015295D02*
X106633333Y-80158152D01*
X106633333Y-80158152D02*
X106585714Y-80253390D01*
X106585714Y-80253390D02*
X106538095Y-80301009D01*
X106538095Y-80301009D02*
X106442857Y-80348628D01*
X106442857Y-80348628D02*
X106061905Y-80348628D01*
X107538095Y-79824819D02*
X107061905Y-79824819D01*
X107061905Y-79824819D02*
X107014286Y-80301009D01*
X107014286Y-80301009D02*
X107061905Y-80253390D01*
X107061905Y-80253390D02*
X107157143Y-80205771D01*
X107157143Y-80205771D02*
X107395238Y-80205771D01*
X107395238Y-80205771D02*
X107490476Y-80253390D01*
X107490476Y-80253390D02*
X107538095Y-80301009D01*
X107538095Y-80301009D02*
X107585714Y-80396247D01*
X107585714Y-80396247D02*
X107585714Y-80634342D01*
X107585714Y-80634342D02*
X107538095Y-80729580D01*
X107538095Y-80729580D02*
X107490476Y-80777200D01*
X107490476Y-80777200D02*
X107395238Y-80824819D01*
X107395238Y-80824819D02*
X107157143Y-80824819D01*
X107157143Y-80824819D02*
X107061905Y-80777200D01*
X107061905Y-80777200D02*
X107014286Y-80729580D01*
X143936666Y-84384819D02*
X143936666Y-85099104D01*
X143936666Y-85099104D02*
X143889047Y-85241961D01*
X143889047Y-85241961D02*
X143793809Y-85337200D01*
X143793809Y-85337200D02*
X143650952Y-85384819D01*
X143650952Y-85384819D02*
X143555714Y-85384819D01*
X144841428Y-84718152D02*
X144841428Y-85384819D01*
X144603333Y-84337200D02*
X144365238Y-85051485D01*
X144365238Y-85051485D02*
X144984285Y-85051485D01*
X134454819Y-83704666D02*
X133978628Y-84037999D01*
X134454819Y-84276094D02*
X133454819Y-84276094D01*
X133454819Y-84276094D02*
X133454819Y-83895142D01*
X133454819Y-83895142D02*
X133502438Y-83799904D01*
X133502438Y-83799904D02*
X133550057Y-83752285D01*
X133550057Y-83752285D02*
X133645295Y-83704666D01*
X133645295Y-83704666D02*
X133788152Y-83704666D01*
X133788152Y-83704666D02*
X133883390Y-83752285D01*
X133883390Y-83752285D02*
X133931009Y-83799904D01*
X133931009Y-83799904D02*
X133978628Y-83895142D01*
X133978628Y-83895142D02*
X133978628Y-84276094D01*
X133788152Y-82847523D02*
X134454819Y-82847523D01*
X133407200Y-83085618D02*
X134121485Y-83323713D01*
X134121485Y-83323713D02*
X134121485Y-82704666D01*
X106633333Y-93924819D02*
X106300000Y-93448628D01*
X106061905Y-93924819D02*
X106061905Y-92924819D01*
X106061905Y-92924819D02*
X106442857Y-92924819D01*
X106442857Y-92924819D02*
X106538095Y-92972438D01*
X106538095Y-92972438D02*
X106585714Y-93020057D01*
X106585714Y-93020057D02*
X106633333Y-93115295D01*
X106633333Y-93115295D02*
X106633333Y-93258152D01*
X106633333Y-93258152D02*
X106585714Y-93353390D01*
X106585714Y-93353390D02*
X106538095Y-93401009D01*
X106538095Y-93401009D02*
X106442857Y-93448628D01*
X106442857Y-93448628D02*
X106061905Y-93448628D01*
X107204762Y-93353390D02*
X107109524Y-93305771D01*
X107109524Y-93305771D02*
X107061905Y-93258152D01*
X107061905Y-93258152D02*
X107014286Y-93162914D01*
X107014286Y-93162914D02*
X107014286Y-93115295D01*
X107014286Y-93115295D02*
X107061905Y-93020057D01*
X107061905Y-93020057D02*
X107109524Y-92972438D01*
X107109524Y-92972438D02*
X107204762Y-92924819D01*
X107204762Y-92924819D02*
X107395238Y-92924819D01*
X107395238Y-92924819D02*
X107490476Y-92972438D01*
X107490476Y-92972438D02*
X107538095Y-93020057D01*
X107538095Y-93020057D02*
X107585714Y-93115295D01*
X107585714Y-93115295D02*
X107585714Y-93162914D01*
X107585714Y-93162914D02*
X107538095Y-93258152D01*
X107538095Y-93258152D02*
X107490476Y-93305771D01*
X107490476Y-93305771D02*
X107395238Y-93353390D01*
X107395238Y-93353390D02*
X107204762Y-93353390D01*
X107204762Y-93353390D02*
X107109524Y-93401009D01*
X107109524Y-93401009D02*
X107061905Y-93448628D01*
X107061905Y-93448628D02*
X107014286Y-93543866D01*
X107014286Y-93543866D02*
X107014286Y-93734342D01*
X107014286Y-93734342D02*
X107061905Y-93829580D01*
X107061905Y-93829580D02*
X107109524Y-93877200D01*
X107109524Y-93877200D02*
X107204762Y-93924819D01*
X107204762Y-93924819D02*
X107395238Y-93924819D01*
X107395238Y-93924819D02*
X107490476Y-93877200D01*
X107490476Y-93877200D02*
X107538095Y-93829580D01*
X107538095Y-93829580D02*
X107585714Y-93734342D01*
X107585714Y-93734342D02*
X107585714Y-93543866D01*
X107585714Y-93543866D02*
X107538095Y-93448628D01*
X107538095Y-93448628D02*
X107490476Y-93401009D01*
X107490476Y-93401009D02*
X107395238Y-93353390D01*
X142831666Y-103054819D02*
X142831666Y-103769104D01*
X142831666Y-103769104D02*
X142784047Y-103911961D01*
X142784047Y-103911961D02*
X142688809Y-104007200D01*
X142688809Y-104007200D02*
X142545952Y-104054819D01*
X142545952Y-104054819D02*
X142450714Y-104054819D01*
X143212619Y-103054819D02*
X143831666Y-103054819D01*
X143831666Y-103054819D02*
X143498333Y-103435771D01*
X143498333Y-103435771D02*
X143641190Y-103435771D01*
X143641190Y-103435771D02*
X143736428Y-103483390D01*
X143736428Y-103483390D02*
X143784047Y-103531009D01*
X143784047Y-103531009D02*
X143831666Y-103626247D01*
X143831666Y-103626247D02*
X143831666Y-103864342D01*
X143831666Y-103864342D02*
X143784047Y-103959580D01*
X143784047Y-103959580D02*
X143736428Y-104007200D01*
X143736428Y-104007200D02*
X143641190Y-104054819D01*
X143641190Y-104054819D02*
X143355476Y-104054819D01*
X143355476Y-104054819D02*
X143260238Y-104007200D01*
X143260238Y-104007200D02*
X143212619Y-103959580D01*
X121638095Y-67554819D02*
X121638095Y-68364342D01*
X121638095Y-68364342D02*
X121685714Y-68459580D01*
X121685714Y-68459580D02*
X121733333Y-68507200D01*
X121733333Y-68507200D02*
X121828571Y-68554819D01*
X121828571Y-68554819D02*
X122019047Y-68554819D01*
X122019047Y-68554819D02*
X122114285Y-68507200D01*
X122114285Y-68507200D02*
X122161904Y-68459580D01*
X122161904Y-68459580D02*
X122209523Y-68364342D01*
X122209523Y-68364342D02*
X122209523Y-67554819D01*
X123209523Y-68554819D02*
X122638095Y-68554819D01*
X122923809Y-68554819D02*
X122923809Y-67554819D01*
X122923809Y-67554819D02*
X122828571Y-67697676D01*
X122828571Y-67697676D02*
X122733333Y-67792914D01*
X122733333Y-67792914D02*
X122638095Y-67840533D01*
X106157142Y-98389580D02*
X106109523Y-98437200D01*
X106109523Y-98437200D02*
X105966666Y-98484819D01*
X105966666Y-98484819D02*
X105871428Y-98484819D01*
X105871428Y-98484819D02*
X105728571Y-98437200D01*
X105728571Y-98437200D02*
X105633333Y-98341961D01*
X105633333Y-98341961D02*
X105585714Y-98246723D01*
X105585714Y-98246723D02*
X105538095Y-98056247D01*
X105538095Y-98056247D02*
X105538095Y-97913390D01*
X105538095Y-97913390D02*
X105585714Y-97722914D01*
X105585714Y-97722914D02*
X105633333Y-97627676D01*
X105633333Y-97627676D02*
X105728571Y-97532438D01*
X105728571Y-97532438D02*
X105871428Y-97484819D01*
X105871428Y-97484819D02*
X105966666Y-97484819D01*
X105966666Y-97484819D02*
X106109523Y-97532438D01*
X106109523Y-97532438D02*
X106157142Y-97580057D01*
X106490476Y-97484819D02*
X107109523Y-97484819D01*
X107109523Y-97484819D02*
X106776190Y-97865771D01*
X106776190Y-97865771D02*
X106919047Y-97865771D01*
X106919047Y-97865771D02*
X107014285Y-97913390D01*
X107014285Y-97913390D02*
X107061904Y-97961009D01*
X107061904Y-97961009D02*
X107109523Y-98056247D01*
X107109523Y-98056247D02*
X107109523Y-98294342D01*
X107109523Y-98294342D02*
X107061904Y-98389580D01*
X107061904Y-98389580D02*
X107014285Y-98437200D01*
X107014285Y-98437200D02*
X106919047Y-98484819D01*
X106919047Y-98484819D02*
X106633333Y-98484819D01*
X106633333Y-98484819D02*
X106538095Y-98437200D01*
X106538095Y-98437200D02*
X106490476Y-98389580D01*
X107728571Y-97484819D02*
X107823809Y-97484819D01*
X107823809Y-97484819D02*
X107919047Y-97532438D01*
X107919047Y-97532438D02*
X107966666Y-97580057D01*
X107966666Y-97580057D02*
X108014285Y-97675295D01*
X108014285Y-97675295D02*
X108061904Y-97865771D01*
X108061904Y-97865771D02*
X108061904Y-98103866D01*
X108061904Y-98103866D02*
X108014285Y-98294342D01*
X108014285Y-98294342D02*
X107966666Y-98389580D01*
X107966666Y-98389580D02*
X107919047Y-98437200D01*
X107919047Y-98437200D02*
X107823809Y-98484819D01*
X107823809Y-98484819D02*
X107728571Y-98484819D01*
X107728571Y-98484819D02*
X107633333Y-98437200D01*
X107633333Y-98437200D02*
X107585714Y-98389580D01*
X107585714Y-98389580D02*
X107538095Y-98294342D01*
X107538095Y-98294342D02*
X107490476Y-98103866D01*
X107490476Y-98103866D02*
X107490476Y-97865771D01*
X107490476Y-97865771D02*
X107538095Y-97675295D01*
X107538095Y-97675295D02*
X107585714Y-97580057D01*
X107585714Y-97580057D02*
X107633333Y-97532438D01*
X107633333Y-97532438D02*
X107728571Y-97484819D01*
X131058333Y-83054819D02*
X130725000Y-82578628D01*
X130486905Y-83054819D02*
X130486905Y-82054819D01*
X130486905Y-82054819D02*
X130867857Y-82054819D01*
X130867857Y-82054819D02*
X130963095Y-82102438D01*
X130963095Y-82102438D02*
X131010714Y-82150057D01*
X131010714Y-82150057D02*
X131058333Y-82245295D01*
X131058333Y-82245295D02*
X131058333Y-82388152D01*
X131058333Y-82388152D02*
X131010714Y-82483390D01*
X131010714Y-82483390D02*
X130963095Y-82531009D01*
X130963095Y-82531009D02*
X130867857Y-82578628D01*
X130867857Y-82578628D02*
X130486905Y-82578628D01*
X131391667Y-82054819D02*
X132010714Y-82054819D01*
X132010714Y-82054819D02*
X131677381Y-82435771D01*
X131677381Y-82435771D02*
X131820238Y-82435771D01*
X131820238Y-82435771D02*
X131915476Y-82483390D01*
X131915476Y-82483390D02*
X131963095Y-82531009D01*
X131963095Y-82531009D02*
X132010714Y-82626247D01*
X132010714Y-82626247D02*
X132010714Y-82864342D01*
X132010714Y-82864342D02*
X131963095Y-82959580D01*
X131963095Y-82959580D02*
X131915476Y-83007200D01*
X131915476Y-83007200D02*
X131820238Y-83054819D01*
X131820238Y-83054819D02*
X131534524Y-83054819D01*
X131534524Y-83054819D02*
X131439286Y-83007200D01*
X131439286Y-83007200D02*
X131391667Y-82959580D01*
X120033333Y-106254819D02*
X119700000Y-105778628D01*
X119461905Y-106254819D02*
X119461905Y-105254819D01*
X119461905Y-105254819D02*
X119842857Y-105254819D01*
X119842857Y-105254819D02*
X119938095Y-105302438D01*
X119938095Y-105302438D02*
X119985714Y-105350057D01*
X119985714Y-105350057D02*
X120033333Y-105445295D01*
X120033333Y-105445295D02*
X120033333Y-105588152D01*
X120033333Y-105588152D02*
X119985714Y-105683390D01*
X119985714Y-105683390D02*
X119938095Y-105731009D01*
X119938095Y-105731009D02*
X119842857Y-105778628D01*
X119842857Y-105778628D02*
X119461905Y-105778628D01*
X120414286Y-105350057D02*
X120461905Y-105302438D01*
X120461905Y-105302438D02*
X120557143Y-105254819D01*
X120557143Y-105254819D02*
X120795238Y-105254819D01*
X120795238Y-105254819D02*
X120890476Y-105302438D01*
X120890476Y-105302438D02*
X120938095Y-105350057D01*
X120938095Y-105350057D02*
X120985714Y-105445295D01*
X120985714Y-105445295D02*
X120985714Y-105540533D01*
X120985714Y-105540533D02*
X120938095Y-105683390D01*
X120938095Y-105683390D02*
X120366667Y-106254819D01*
X120366667Y-106254819D02*
X120985714Y-106254819D01*
X137584819Y-110128333D02*
X138299104Y-110128333D01*
X138299104Y-110128333D02*
X138441961Y-110175952D01*
X138441961Y-110175952D02*
X138537200Y-110271190D01*
X138537200Y-110271190D02*
X138584819Y-110414047D01*
X138584819Y-110414047D02*
X138584819Y-110509285D01*
X137680057Y-109699761D02*
X137632438Y-109652142D01*
X137632438Y-109652142D02*
X137584819Y-109556904D01*
X137584819Y-109556904D02*
X137584819Y-109318809D01*
X137584819Y-109318809D02*
X137632438Y-109223571D01*
X137632438Y-109223571D02*
X137680057Y-109175952D01*
X137680057Y-109175952D02*
X137775295Y-109128333D01*
X137775295Y-109128333D02*
X137870533Y-109128333D01*
X137870533Y-109128333D02*
X138013390Y-109175952D01*
X138013390Y-109175952D02*
X138584819Y-109747380D01*
X138584819Y-109747380D02*
X138584819Y-109128333D01*
X128159580Y-64620399D02*
X128207200Y-64668018D01*
X128207200Y-64668018D02*
X128254819Y-64810875D01*
X128254819Y-64810875D02*
X128254819Y-64906113D01*
X128254819Y-64906113D02*
X128207200Y-65048970D01*
X128207200Y-65048970D02*
X128111961Y-65144208D01*
X128111961Y-65144208D02*
X128016723Y-65191827D01*
X128016723Y-65191827D02*
X127826247Y-65239446D01*
X127826247Y-65239446D02*
X127683390Y-65239446D01*
X127683390Y-65239446D02*
X127492914Y-65191827D01*
X127492914Y-65191827D02*
X127397676Y-65144208D01*
X127397676Y-65144208D02*
X127302438Y-65048970D01*
X127302438Y-65048970D02*
X127254819Y-64906113D01*
X127254819Y-64906113D02*
X127254819Y-64810875D01*
X127254819Y-64810875D02*
X127302438Y-64668018D01*
X127302438Y-64668018D02*
X127350057Y-64620399D01*
X127588152Y-63763256D02*
X128254819Y-63763256D01*
X127207200Y-64001351D02*
X127921485Y-64239446D01*
X127921485Y-64239446D02*
X127921485Y-63620399D01*
X122133809Y-77303628D02*
X122133809Y-77779819D01*
X121800476Y-76779819D02*
X122133809Y-77303628D01*
X122133809Y-77303628D02*
X122467142Y-76779819D01*
X123324285Y-77779819D02*
X122752857Y-77779819D01*
X123038571Y-77779819D02*
X123038571Y-76779819D01*
X123038571Y-76779819D02*
X122943333Y-76922676D01*
X122943333Y-76922676D02*
X122848095Y-77017914D01*
X122848095Y-77017914D02*
X122752857Y-77065533D01*
X105857142Y-85589580D02*
X105809523Y-85637200D01*
X105809523Y-85637200D02*
X105666666Y-85684819D01*
X105666666Y-85684819D02*
X105571428Y-85684819D01*
X105571428Y-85684819D02*
X105428571Y-85637200D01*
X105428571Y-85637200D02*
X105333333Y-85541961D01*
X105333333Y-85541961D02*
X105285714Y-85446723D01*
X105285714Y-85446723D02*
X105238095Y-85256247D01*
X105238095Y-85256247D02*
X105238095Y-85113390D01*
X105238095Y-85113390D02*
X105285714Y-84922914D01*
X105285714Y-84922914D02*
X105333333Y-84827676D01*
X105333333Y-84827676D02*
X105428571Y-84732438D01*
X105428571Y-84732438D02*
X105571428Y-84684819D01*
X105571428Y-84684819D02*
X105666666Y-84684819D01*
X105666666Y-84684819D02*
X105809523Y-84732438D01*
X105809523Y-84732438D02*
X105857142Y-84780057D01*
X106238095Y-84780057D02*
X106285714Y-84732438D01*
X106285714Y-84732438D02*
X106380952Y-84684819D01*
X106380952Y-84684819D02*
X106619047Y-84684819D01*
X106619047Y-84684819D02*
X106714285Y-84732438D01*
X106714285Y-84732438D02*
X106761904Y-84780057D01*
X106761904Y-84780057D02*
X106809523Y-84875295D01*
X106809523Y-84875295D02*
X106809523Y-84970533D01*
X106809523Y-84970533D02*
X106761904Y-85113390D01*
X106761904Y-85113390D02*
X106190476Y-85684819D01*
X106190476Y-85684819D02*
X106809523Y-85684819D01*
X107142857Y-84684819D02*
X107809523Y-84684819D01*
X107809523Y-84684819D02*
X107380952Y-85684819D01*
X116917150Y-70559580D02*
X116869531Y-70607200D01*
X116869531Y-70607200D02*
X116726674Y-70654819D01*
X116726674Y-70654819D02*
X116631436Y-70654819D01*
X116631436Y-70654819D02*
X116488579Y-70607200D01*
X116488579Y-70607200D02*
X116393341Y-70511961D01*
X116393341Y-70511961D02*
X116345722Y-70416723D01*
X116345722Y-70416723D02*
X116298103Y-70226247D01*
X116298103Y-70226247D02*
X116298103Y-70083390D01*
X116298103Y-70083390D02*
X116345722Y-69892914D01*
X116345722Y-69892914D02*
X116393341Y-69797676D01*
X116393341Y-69797676D02*
X116488579Y-69702438D01*
X116488579Y-69702438D02*
X116631436Y-69654819D01*
X116631436Y-69654819D02*
X116726674Y-69654819D01*
X116726674Y-69654819D02*
X116869531Y-69702438D01*
X116869531Y-69702438D02*
X116917150Y-69750057D01*
X117250484Y-69654819D02*
X117869531Y-69654819D01*
X117869531Y-69654819D02*
X117536198Y-70035771D01*
X117536198Y-70035771D02*
X117679055Y-70035771D01*
X117679055Y-70035771D02*
X117774293Y-70083390D01*
X117774293Y-70083390D02*
X117821912Y-70131009D01*
X117821912Y-70131009D02*
X117869531Y-70226247D01*
X117869531Y-70226247D02*
X117869531Y-70464342D01*
X117869531Y-70464342D02*
X117821912Y-70559580D01*
X117821912Y-70559580D02*
X117774293Y-70607200D01*
X117774293Y-70607200D02*
X117679055Y-70654819D01*
X117679055Y-70654819D02*
X117393341Y-70654819D01*
X117393341Y-70654819D02*
X117298103Y-70607200D01*
X117298103Y-70607200D02*
X117250484Y-70559580D01*
X118440960Y-70083390D02*
X118345722Y-70035771D01*
X118345722Y-70035771D02*
X118298103Y-69988152D01*
X118298103Y-69988152D02*
X118250484Y-69892914D01*
X118250484Y-69892914D02*
X118250484Y-69845295D01*
X118250484Y-69845295D02*
X118298103Y-69750057D01*
X118298103Y-69750057D02*
X118345722Y-69702438D01*
X118345722Y-69702438D02*
X118440960Y-69654819D01*
X118440960Y-69654819D02*
X118631436Y-69654819D01*
X118631436Y-69654819D02*
X118726674Y-69702438D01*
X118726674Y-69702438D02*
X118774293Y-69750057D01*
X118774293Y-69750057D02*
X118821912Y-69845295D01*
X118821912Y-69845295D02*
X118821912Y-69892914D01*
X118821912Y-69892914D02*
X118774293Y-69988152D01*
X118774293Y-69988152D02*
X118726674Y-70035771D01*
X118726674Y-70035771D02*
X118631436Y-70083390D01*
X118631436Y-70083390D02*
X118440960Y-70083390D01*
X118440960Y-70083390D02*
X118345722Y-70131009D01*
X118345722Y-70131009D02*
X118298103Y-70178628D01*
X118298103Y-70178628D02*
X118250484Y-70273866D01*
X118250484Y-70273866D02*
X118250484Y-70464342D01*
X118250484Y-70464342D02*
X118298103Y-70559580D01*
X118298103Y-70559580D02*
X118345722Y-70607200D01*
X118345722Y-70607200D02*
X118440960Y-70654819D01*
X118440960Y-70654819D02*
X118631436Y-70654819D01*
X118631436Y-70654819D02*
X118726674Y-70607200D01*
X118726674Y-70607200D02*
X118774293Y-70559580D01*
X118774293Y-70559580D02*
X118821912Y-70464342D01*
X118821912Y-70464342D02*
X118821912Y-70273866D01*
X118821912Y-70273866D02*
X118774293Y-70178628D01*
X118774293Y-70178628D02*
X118726674Y-70131009D01*
X118726674Y-70131009D02*
X118631436Y-70083390D01*
D11*
X106162180Y-90071428D02*
X106209800Y-90119047D01*
X106209800Y-90119047D02*
X106257419Y-90261904D01*
X106257419Y-90261904D02*
X106257419Y-90357142D01*
X106257419Y-90357142D02*
X106209800Y-90499999D01*
X106209800Y-90499999D02*
X106114561Y-90595237D01*
X106114561Y-90595237D02*
X106019323Y-90642856D01*
X106019323Y-90642856D02*
X105828847Y-90690475D01*
X105828847Y-90690475D02*
X105685990Y-90690475D01*
X105685990Y-90690475D02*
X105495514Y-90642856D01*
X105495514Y-90642856D02*
X105400276Y-90595237D01*
X105400276Y-90595237D02*
X105305038Y-90499999D01*
X105305038Y-90499999D02*
X105257419Y-90357142D01*
X105257419Y-90357142D02*
X105257419Y-90261904D01*
X105257419Y-90261904D02*
X105305038Y-90119047D01*
X105305038Y-90119047D02*
X105352657Y-90071428D01*
X105257419Y-89785713D02*
X106257419Y-89452380D01*
X106257419Y-89452380D02*
X105257419Y-89119047D01*
X105733609Y-88452380D02*
X105781228Y-88309523D01*
X105781228Y-88309523D02*
X105828847Y-88261904D01*
X105828847Y-88261904D02*
X105924085Y-88214285D01*
X105924085Y-88214285D02*
X106066942Y-88214285D01*
X106066942Y-88214285D02*
X106162180Y-88261904D01*
X106162180Y-88261904D02*
X106209800Y-88309523D01*
X106209800Y-88309523D02*
X106257419Y-88404761D01*
X106257419Y-88404761D02*
X106257419Y-88785713D01*
X106257419Y-88785713D02*
X105257419Y-88785713D01*
X105257419Y-88785713D02*
X105257419Y-88452380D01*
X105257419Y-88452380D02*
X105305038Y-88357142D01*
X105305038Y-88357142D02*
X105352657Y-88309523D01*
X105352657Y-88309523D02*
X105447895Y-88261904D01*
X105447895Y-88261904D02*
X105543133Y-88261904D01*
X105543133Y-88261904D02*
X105638371Y-88309523D01*
X105638371Y-88309523D02*
X105685990Y-88357142D01*
X105685990Y-88357142D02*
X105733609Y-88452380D01*
X105733609Y-88452380D02*
X105733609Y-88785713D01*
X106209800Y-87833332D02*
X106257419Y-87690475D01*
X106257419Y-87690475D02*
X106257419Y-87452380D01*
X106257419Y-87452380D02*
X106209800Y-87357142D01*
X106209800Y-87357142D02*
X106162180Y-87309523D01*
X106162180Y-87309523D02*
X106066942Y-87261904D01*
X106066942Y-87261904D02*
X105971704Y-87261904D01*
X105971704Y-87261904D02*
X105876466Y-87309523D01*
X105876466Y-87309523D02*
X105828847Y-87357142D01*
X105828847Y-87357142D02*
X105781228Y-87452380D01*
X105781228Y-87452380D02*
X105733609Y-87642856D01*
X105733609Y-87642856D02*
X105685990Y-87738094D01*
X105685990Y-87738094D02*
X105638371Y-87785713D01*
X105638371Y-87785713D02*
X105543133Y-87833332D01*
X105543133Y-87833332D02*
X105447895Y-87833332D01*
X105447895Y-87833332D02*
X105352657Y-87785713D01*
X105352657Y-87785713D02*
X105305038Y-87738094D01*
X105305038Y-87738094D02*
X105257419Y-87642856D01*
X105257419Y-87642856D02*
X105257419Y-87404761D01*
X105257419Y-87404761D02*
X105305038Y-87261904D01*
X106257419Y-86309523D02*
X106257419Y-86880951D01*
X106257419Y-86595237D02*
X105257419Y-86595237D01*
X105257419Y-86595237D02*
X105400276Y-86690475D01*
X105400276Y-86690475D02*
X105495514Y-86785713D01*
X105495514Y-86785713D02*
X105543133Y-86880951D01*
D10*
X118854819Y-110333333D02*
X119569104Y-110333333D01*
X119569104Y-110333333D02*
X119711961Y-110380952D01*
X119711961Y-110380952D02*
X119807200Y-110476190D01*
X119807200Y-110476190D02*
X119854819Y-110619047D01*
X119854819Y-110619047D02*
X119854819Y-110714285D01*
X119854819Y-109333333D02*
X119854819Y-109904761D01*
X119854819Y-109619047D02*
X118854819Y-109619047D01*
X118854819Y-109619047D02*
X118997676Y-109714285D01*
X118997676Y-109714285D02*
X119092914Y-109809523D01*
X119092914Y-109809523D02*
X119140533Y-109904761D01*
X134925009Y-70113333D02*
X134925009Y-70446666D01*
X135448819Y-70446666D02*
X134448819Y-70446666D01*
X134448819Y-70446666D02*
X134448819Y-69970476D01*
X134925009Y-69256190D02*
X134972628Y-69113333D01*
X134972628Y-69113333D02*
X135020247Y-69065714D01*
X135020247Y-69065714D02*
X135115485Y-69018095D01*
X135115485Y-69018095D02*
X135258342Y-69018095D01*
X135258342Y-69018095D02*
X135353580Y-69065714D01*
X135353580Y-69065714D02*
X135401200Y-69113333D01*
X135401200Y-69113333D02*
X135448819Y-69208571D01*
X135448819Y-69208571D02*
X135448819Y-69589523D01*
X135448819Y-69589523D02*
X134448819Y-69589523D01*
X134448819Y-69589523D02*
X134448819Y-69256190D01*
X134448819Y-69256190D02*
X134496438Y-69160952D01*
X134496438Y-69160952D02*
X134544057Y-69113333D01*
X134544057Y-69113333D02*
X134639295Y-69065714D01*
X134639295Y-69065714D02*
X134734533Y-69065714D01*
X134734533Y-69065714D02*
X134829771Y-69113333D01*
X134829771Y-69113333D02*
X134877390Y-69160952D01*
X134877390Y-69160952D02*
X134925009Y-69256190D01*
X134925009Y-69256190D02*
X134925009Y-69589523D01*
X134782152Y-68160952D02*
X135448819Y-68160952D01*
X134401200Y-68399047D02*
X135115485Y-68637142D01*
X135115485Y-68637142D02*
X135115485Y-68018095D01*
D12*
%TO.C,C2*%
X138991233Y-69290000D02*
X139283767Y-69290000D01*
X138991233Y-70310000D02*
X139283767Y-70310000D01*
%TO.C,D1*%
X144736000Y-71110000D02*
X144580000Y-71110000D01*
X142420000Y-71110000D02*
X142264000Y-71110000D01*
X144735516Y-71110000D02*
G75*
G02*
X144580061Y-74341397I-1235516J-1560000D01*
G01*
X144580000Y-71629039D02*
G75*
G02*
X144580049Y-73710910I-1080000J-1040961D01*
G01*
X142419951Y-73710910D02*
G75*
G02*
X142420000Y-71629039I1080049J1040910D01*
G01*
X142419939Y-74341397D02*
G75*
G02*
X142264484Y-71110000I1080061J1671397D01*
G01*
%TO.C,C37*%
X124556275Y-70710000D02*
X124263741Y-70710000D01*
X124556275Y-69690000D02*
X124263741Y-69690000D01*
D13*
%TO.C,U2*%
G36*
X133407298Y-92067849D02*
G01*
X133153298Y-92067849D01*
X133153298Y-91686848D01*
X133407298Y-91686848D01*
X133407298Y-92067849D01*
G37*
G36*
X133407298Y-87067848D02*
G01*
X133153298Y-87067848D01*
X133153298Y-86686848D01*
X133407298Y-86686848D01*
X133407298Y-87067848D01*
G37*
G36*
X130190500Y-99784648D02*
G01*
X129809500Y-99784648D01*
X129809500Y-99530648D01*
X130190500Y-99530648D01*
X130190500Y-99784648D01*
G37*
G36*
X125690499Y-83724050D02*
G01*
X125309498Y-83724050D01*
X125309498Y-83470050D01*
X125690499Y-83470050D01*
X125690499Y-83724050D01*
G37*
G36*
X125190500Y-99784648D02*
G01*
X124809499Y-99784648D01*
X124809499Y-99530648D01*
X125190500Y-99530648D01*
X125190500Y-99784648D01*
G37*
G36*
X120690498Y-83724050D02*
G01*
X120309498Y-83724050D01*
X120309498Y-83470050D01*
X120690498Y-83470050D01*
X120690498Y-83724050D01*
G37*
G36*
X117346700Y-96567850D02*
G01*
X117092700Y-96567850D01*
X117092700Y-96186850D01*
X117346700Y-96186850D01*
X117346700Y-96567850D01*
G37*
G36*
X117346700Y-91567850D02*
G01*
X117092700Y-91567850D01*
X117092700Y-91186849D01*
X117346700Y-91186849D01*
X117346700Y-91567850D01*
G37*
D14*
X131472999Y-97850349D02*
X131472999Y-96849790D01*
X131472999Y-86404908D02*
X131472999Y-85404349D01*
X131472999Y-85404349D02*
X130472440Y-85404349D01*
X130472440Y-97850349D02*
X131472999Y-97850349D01*
X120027558Y-85404349D02*
X119026999Y-85404349D01*
X119026999Y-97850349D02*
X120027558Y-97850349D01*
X119026999Y-96849790D02*
X119026999Y-97850349D01*
X119026999Y-85404349D02*
X119026999Y-86404908D01*
D11*
%TO.C,FB2*%
X141050000Y-80180000D02*
X140550000Y-80180000D01*
X140550000Y-73980000D01*
X141050000Y-73980000D01*
X141050000Y-80180000D01*
G36*
X141050000Y-80180000D02*
G01*
X140550000Y-80180000D01*
X140550000Y-73980000D01*
X141050000Y-73980000D01*
X141050000Y-80180000D01*
G37*
X137850000Y-80180000D02*
X137350000Y-80180000D01*
X137350000Y-73980000D01*
X137850000Y-73980000D01*
X137850000Y-80180000D01*
G36*
X137850000Y-80180000D02*
G01*
X137350000Y-80180000D01*
X137350000Y-73980000D01*
X137850000Y-73980000D01*
X137850000Y-80180000D01*
G37*
D12*
X141050000Y-73980000D02*
X137350000Y-73980000D01*
X137350000Y-80180000D01*
X141050000Y-80180000D01*
X141050000Y-73980000D01*
X139199998Y-78693941D02*
X139200000Y-81017000D01*
X139199998Y-78693941D02*
X139200000Y-73143000D01*
%TO.C,R15*%
X123976000Y-80498500D02*
X123976000Y-79101500D01*
X123976000Y-79101500D02*
X120674000Y-79101500D01*
X120674000Y-80498500D02*
X123976000Y-80498500D01*
X120674000Y-79101500D02*
X120674000Y-80498500D01*
%TO.C,C7*%
X139191233Y-84910000D02*
X139483767Y-84910000D01*
X139191233Y-83890000D02*
X139483767Y-83890000D01*
%TO.C,C10*%
X113120000Y-67532323D02*
G75*
G02*
X102880000Y-67532323I-5120000J0D01*
G01*
X102880000Y-67532323D02*
G75*
G02*
X113120000Y-67532323I5120000J0D01*
G01*
X113080000Y-67612323D02*
X102920000Y-67612323D01*
X113080000Y-67572323D02*
X102920000Y-67572323D01*
X113080000Y-67532323D02*
X102920000Y-67532323D01*
X113079000Y-67652323D02*
X102921000Y-67652323D01*
X113078000Y-67692323D02*
X102922000Y-67692323D01*
X113077000Y-67732323D02*
X102923000Y-67732323D01*
X113075000Y-67772323D02*
X102925000Y-67772323D01*
X113073000Y-67812323D02*
X102927000Y-67812323D01*
X113070000Y-67852323D02*
X102930000Y-67852323D01*
X113068000Y-67892323D02*
X102932000Y-67892323D01*
X113065000Y-67932323D02*
X102935000Y-67932323D01*
X113062000Y-67972323D02*
X102938000Y-67972323D01*
X113058000Y-68012323D02*
X102942000Y-68012323D01*
X113054000Y-68052323D02*
X102946000Y-68052323D01*
X113050000Y-68092323D02*
X102950000Y-68092323D01*
X113045000Y-68132323D02*
X102955000Y-68132323D01*
X113040000Y-68172323D02*
X102960000Y-68172323D01*
X113035000Y-68212323D02*
X102965000Y-68212323D01*
X113030000Y-68253323D02*
X102970000Y-68253323D01*
X113024000Y-68293323D02*
X102976000Y-68293323D01*
X113018000Y-68333323D02*
X102982000Y-68333323D01*
X113011000Y-68373323D02*
X102989000Y-68373323D01*
X113004000Y-68413323D02*
X102996000Y-68413323D01*
X112997000Y-68453323D02*
X103003000Y-68453323D01*
X112990000Y-68493323D02*
X103010000Y-68493323D01*
X112982000Y-68533323D02*
X103018000Y-68533323D01*
X112974000Y-68573323D02*
X103026000Y-68573323D01*
X112965000Y-68613323D02*
X103035000Y-68613323D01*
X112956000Y-68653323D02*
X103044000Y-68653323D01*
X112947000Y-68693323D02*
X103053000Y-68693323D01*
X112938000Y-68733323D02*
X103062000Y-68733323D01*
X112928000Y-68773323D02*
X103072000Y-68773323D01*
X112918000Y-68813323D02*
X109241000Y-68813323D01*
X112907000Y-68853323D02*
X109241000Y-68853323D01*
X112897000Y-68893323D02*
X109241000Y-68893323D01*
X112885000Y-68933323D02*
X109241000Y-68933323D01*
X112874000Y-68973323D02*
X109241000Y-68973323D01*
X112862000Y-69013323D02*
X109241000Y-69013323D01*
X112850000Y-69053323D02*
X109241000Y-69053323D01*
X112837000Y-69093323D02*
X109241000Y-69093323D01*
X112824000Y-69133323D02*
X109241000Y-69133323D01*
X112811000Y-69173323D02*
X109241000Y-69173323D01*
X112797000Y-69213323D02*
X109241000Y-69213323D01*
X112783000Y-69253323D02*
X109241000Y-69253323D01*
X112768000Y-69293323D02*
X109241000Y-69293323D01*
X112754000Y-69333323D02*
X109241000Y-69333323D01*
X112738000Y-69373323D02*
X109241000Y-69373323D01*
X112723000Y-69413323D02*
X109241000Y-69413323D01*
X112707000Y-69453323D02*
X109241000Y-69453323D01*
X112690000Y-69493323D02*
X109241000Y-69493323D01*
X112674000Y-69533323D02*
X109241000Y-69533323D01*
X112657000Y-69573323D02*
X109241000Y-69573323D01*
X112639000Y-69613323D02*
X109241000Y-69613323D01*
X112621000Y-69653323D02*
X109241000Y-69653323D01*
X112603000Y-69693323D02*
X109241000Y-69693323D01*
X112584000Y-69733323D02*
X109241000Y-69733323D01*
X112564000Y-69773323D02*
X109241000Y-69773323D01*
X112545000Y-69813323D02*
X109241000Y-69813323D01*
X112525000Y-69853323D02*
X109241000Y-69853323D01*
X112504000Y-69893323D02*
X109241000Y-69893323D01*
X112483000Y-69933323D02*
X109241000Y-69933323D01*
X112462000Y-69973323D02*
X109241000Y-69973323D01*
X112440000Y-70013323D02*
X109241000Y-70013323D01*
X112417000Y-70053323D02*
X109241000Y-70053323D01*
X112395000Y-70093323D02*
X109241000Y-70093323D01*
X112371000Y-70133323D02*
X109241000Y-70133323D01*
X112347000Y-70173323D02*
X109241000Y-70173323D01*
X112323000Y-70213323D02*
X109241000Y-70213323D01*
X112298000Y-70253323D02*
X109241000Y-70253323D01*
X112273000Y-70293323D02*
X109241000Y-70293323D01*
X112247000Y-70333323D02*
X109241000Y-70333323D01*
X112221000Y-70373323D02*
X109241000Y-70373323D01*
X112194000Y-70413323D02*
X109241000Y-70413323D01*
X112166000Y-70453323D02*
X109241000Y-70453323D01*
X112138000Y-70493323D02*
X109241000Y-70493323D01*
X112110000Y-70533323D02*
X109241000Y-70533323D01*
X112080000Y-70573323D02*
X109241000Y-70573323D01*
X112050000Y-70613323D02*
X109241000Y-70613323D01*
X112020000Y-70653323D02*
X109241000Y-70653323D01*
X111989000Y-70693323D02*
X109241000Y-70693323D01*
X111957000Y-70733323D02*
X109241000Y-70733323D01*
X111925000Y-70773323D02*
X109241000Y-70773323D01*
X111892000Y-70813323D02*
X109241000Y-70813323D01*
X111858000Y-70853323D02*
X109241000Y-70853323D01*
X111824000Y-70893323D02*
X109241000Y-70893323D01*
X111789000Y-70933323D02*
X109241000Y-70933323D01*
X111753000Y-70973323D02*
X109241000Y-70973323D01*
X111716000Y-71013323D02*
X109241000Y-71013323D01*
X111679000Y-71053323D02*
X109241000Y-71053323D01*
X111640000Y-71093323D02*
X109241000Y-71093323D01*
X111601000Y-71133323D02*
X109241000Y-71133323D01*
X111561000Y-71173323D02*
X109241000Y-71173323D01*
X111520000Y-71213323D02*
X109241000Y-71213323D01*
X111478000Y-71253323D02*
X109241000Y-71253323D01*
X111436000Y-71293323D02*
X104564000Y-71293323D01*
X111392000Y-71333323D02*
X104608000Y-71333323D01*
X111375000Y-62552677D02*
X110375000Y-62552677D01*
X111347000Y-71373323D02*
X104653000Y-71373323D01*
X111301000Y-71413323D02*
X104699000Y-71413323D01*
X111254000Y-71453323D02*
X104746000Y-71453323D01*
X111206000Y-71493323D02*
X104794000Y-71493323D01*
X111156000Y-71533323D02*
X104844000Y-71533323D01*
X111106000Y-71573323D02*
X104894000Y-71573323D01*
X111054000Y-71613323D02*
X104946000Y-71613323D01*
X111000000Y-71653323D02*
X105000000Y-71653323D01*
X110945000Y-71693323D02*
X105055000Y-71693323D01*
X110889000Y-71733323D02*
X105111000Y-71733323D01*
X110875000Y-62052677D02*
X110875000Y-63052677D01*
X110830000Y-71773323D02*
X105170000Y-71773323D01*
X110770000Y-71813323D02*
X105230000Y-71813323D01*
X110709000Y-71853323D02*
X105291000Y-71853323D01*
X110645000Y-71893323D02*
X105355000Y-71893323D01*
X110579000Y-71933323D02*
X105421000Y-71933323D01*
X110510000Y-71973323D02*
X105490000Y-71973323D01*
X110439000Y-72013323D02*
X105561000Y-72013323D01*
X110365000Y-72053323D02*
X105635000Y-72053323D01*
X110289000Y-72093323D02*
X105711000Y-72093323D01*
X110209000Y-72133323D02*
X105791000Y-72133323D01*
X110125000Y-72173323D02*
X105875000Y-72173323D01*
X110037000Y-72213323D02*
X105963000Y-72213323D01*
X109944000Y-72253323D02*
X106056000Y-72253323D01*
X109846000Y-72293323D02*
X106154000Y-72293323D01*
X109742000Y-72333323D02*
X106258000Y-72333323D01*
X109630000Y-72373323D02*
X106370000Y-72373323D01*
X109510000Y-72413323D02*
X106490000Y-72413323D01*
X109378000Y-72453323D02*
X106622000Y-72453323D01*
X109230000Y-72493323D02*
X106770000Y-72493323D01*
X109062000Y-72533323D02*
X106938000Y-72533323D01*
X108862000Y-72573323D02*
X107138000Y-72573323D01*
X108599000Y-72613323D02*
X107401000Y-72613323D01*
X106759000Y-71253323D02*
X104522000Y-71253323D01*
X106759000Y-71213323D02*
X104480000Y-71213323D01*
X106759000Y-71173323D02*
X104439000Y-71173323D01*
X106759000Y-71133323D02*
X104399000Y-71133323D01*
X106759000Y-71093323D02*
X104360000Y-71093323D01*
X106759000Y-71053323D02*
X104321000Y-71053323D01*
X106759000Y-71013323D02*
X104284000Y-71013323D01*
X106759000Y-70973323D02*
X104247000Y-70973323D01*
X106759000Y-70933323D02*
X104211000Y-70933323D01*
X106759000Y-70893323D02*
X104176000Y-70893323D01*
X106759000Y-70853323D02*
X104142000Y-70853323D01*
X106759000Y-70813323D02*
X104108000Y-70813323D01*
X106759000Y-70773323D02*
X104075000Y-70773323D01*
X106759000Y-70733323D02*
X104043000Y-70733323D01*
X106759000Y-70693323D02*
X104011000Y-70693323D01*
X106759000Y-70653323D02*
X103980000Y-70653323D01*
X106759000Y-70613323D02*
X103950000Y-70613323D01*
X106759000Y-70573323D02*
X103920000Y-70573323D01*
X106759000Y-70533323D02*
X103890000Y-70533323D01*
X106759000Y-70493323D02*
X103862000Y-70493323D01*
X106759000Y-70453323D02*
X103834000Y-70453323D01*
X106759000Y-70413323D02*
X103806000Y-70413323D01*
X106759000Y-70373323D02*
X103779000Y-70373323D01*
X106759000Y-70333323D02*
X103753000Y-70333323D01*
X106759000Y-70293323D02*
X103727000Y-70293323D01*
X106759000Y-70253323D02*
X103702000Y-70253323D01*
X106759000Y-70213323D02*
X103677000Y-70213323D01*
X106759000Y-70173323D02*
X103653000Y-70173323D01*
X106759000Y-70133323D02*
X103629000Y-70133323D01*
X106759000Y-70093323D02*
X103605000Y-70093323D01*
X106759000Y-70053323D02*
X103583000Y-70053323D01*
X106759000Y-70013323D02*
X103560000Y-70013323D01*
X106759000Y-69973323D02*
X103538000Y-69973323D01*
X106759000Y-69933323D02*
X103517000Y-69933323D01*
X106759000Y-69893323D02*
X103496000Y-69893323D01*
X106759000Y-69853323D02*
X103475000Y-69853323D01*
X106759000Y-69813323D02*
X103455000Y-69813323D01*
X106759000Y-69773323D02*
X103436000Y-69773323D01*
X106759000Y-69733323D02*
X103416000Y-69733323D01*
X106759000Y-69693323D02*
X103397000Y-69693323D01*
X106759000Y-69653323D02*
X103379000Y-69653323D01*
X106759000Y-69613323D02*
X103361000Y-69613323D01*
X106759000Y-69573323D02*
X103343000Y-69573323D01*
X106759000Y-69533323D02*
X103326000Y-69533323D01*
X106759000Y-69493323D02*
X103310000Y-69493323D01*
X106759000Y-69453323D02*
X103293000Y-69453323D01*
X106759000Y-69413323D02*
X103277000Y-69413323D01*
X106759000Y-69373323D02*
X103262000Y-69373323D01*
X106759000Y-69333323D02*
X103246000Y-69333323D01*
X106759000Y-69293323D02*
X103232000Y-69293323D01*
X106759000Y-69253323D02*
X103217000Y-69253323D01*
X106759000Y-69213323D02*
X103203000Y-69213323D01*
X106759000Y-69173323D02*
X103189000Y-69173323D01*
X106759000Y-69133323D02*
X103176000Y-69133323D01*
X106759000Y-69093323D02*
X103163000Y-69093323D01*
X106759000Y-69053323D02*
X103150000Y-69053323D01*
X106759000Y-69013323D02*
X103138000Y-69013323D01*
X106759000Y-68973323D02*
X103126000Y-68973323D01*
X106759000Y-68933323D02*
X103115000Y-68933323D01*
X106759000Y-68893323D02*
X103103000Y-68893323D01*
X106759000Y-68853323D02*
X103093000Y-68853323D01*
X106759000Y-68813323D02*
X103082000Y-68813323D01*
D11*
%TO.C,CVBS2*%
X104900000Y-102800000D02*
X104900000Y-92000000D01*
X104900000Y-102800000D02*
X93900000Y-102800000D01*
X104900000Y-92000000D02*
X104900000Y-90700000D01*
X104900000Y-90700000D02*
X93900000Y-90700000D01*
D12*
%TO.C,R6*%
X145576000Y-68498500D02*
X145576000Y-67101500D01*
X145576000Y-67101500D02*
X142274000Y-67101500D01*
X142274000Y-68498500D02*
X145576000Y-68498500D01*
X142274000Y-67101500D02*
X142274000Y-68498500D01*
%TO.C,RB8*%
X131698500Y-106651000D02*
X131698500Y-103349000D01*
X131698500Y-103349000D02*
X130301500Y-103349000D01*
X130301500Y-106651000D02*
X131698500Y-106651000D01*
X130301500Y-103349000D02*
X130301500Y-106651000D01*
%TO.C,J6*%
X132330000Y-77270000D02*
X132330000Y-78600000D01*
X131000000Y-77270000D02*
X132330000Y-77270000D01*
X129730000Y-79930000D02*
X124590000Y-79930000D01*
X129730000Y-77270000D02*
X129730000Y-79930000D01*
X129730000Y-77270000D02*
X124590000Y-77270000D01*
X124590000Y-77270000D02*
X124590000Y-79930000D01*
%TO.C,J5*%
X144330000Y-81370000D02*
X141670000Y-81370000D01*
X144330000Y-78770000D02*
X144330000Y-81370000D01*
X144330000Y-76170000D02*
X144330000Y-77500000D01*
X143000000Y-76170000D02*
X144330000Y-76170000D01*
X141730000Y-78770000D02*
X144330000Y-78770000D01*
X141730000Y-76170000D02*
X141730000Y-78770000D01*
X141730000Y-76170000D02*
X141670000Y-76170000D01*
X141670000Y-76170000D02*
X141670000Y-81370000D01*
%TO.C,R1*%
X124851000Y-104898500D02*
X124851000Y-103501500D01*
X124851000Y-103501500D02*
X121549000Y-103501500D01*
X121549000Y-104898500D02*
X124851000Y-104898500D01*
X121549000Y-103501500D02*
X121549000Y-104898500D01*
%TO.C,C5*%
X142920000Y-63902651D02*
G75*
G02*
X134680000Y-63902651I-4120000J0D01*
G01*
X134680000Y-63902651D02*
G75*
G02*
X142920000Y-63902651I4120000J0D01*
G01*
X139840000Y-63181651D02*
X142817000Y-63181651D01*
X139840000Y-63141651D02*
X142810000Y-63141651D01*
X139840000Y-63101651D02*
X142802000Y-63101651D01*
X139840000Y-63061651D02*
X142794000Y-63061651D01*
X139840000Y-63021651D02*
X142785000Y-63021651D01*
X139840000Y-62981651D02*
X142776000Y-62981651D01*
X139840000Y-62941651D02*
X142767000Y-62941651D01*
X139840000Y-62901651D02*
X142757000Y-62901651D01*
X139840000Y-62861651D02*
X142747000Y-62861651D01*
X139840000Y-62821651D02*
X142736000Y-62821651D01*
X139840000Y-62781651D02*
X142725000Y-62781651D01*
X139840000Y-62741651D02*
X142714000Y-62741651D01*
X139840000Y-62701651D02*
X142702000Y-62701651D01*
X139840000Y-62661651D02*
X142689000Y-62661651D01*
X139840000Y-62621651D02*
X142677000Y-62621651D01*
X139840000Y-62581651D02*
X142663000Y-62581651D01*
X139840000Y-62541651D02*
X142650000Y-62541651D01*
X139840000Y-62501651D02*
X142635000Y-62501651D01*
X139840000Y-62461651D02*
X142621000Y-62461651D01*
X139840000Y-62421651D02*
X142605000Y-62421651D01*
X139840000Y-62381651D02*
X142590000Y-62381651D01*
X139840000Y-62341651D02*
X142574000Y-62341651D01*
X139840000Y-62301651D02*
X142557000Y-62301651D01*
X139840000Y-62261651D02*
X142540000Y-62261651D01*
X139840000Y-62221651D02*
X142522000Y-62221651D01*
X139840000Y-62181651D02*
X142504000Y-62181651D01*
X139840000Y-62141651D02*
X142486000Y-62141651D01*
X139840000Y-62101651D02*
X142466000Y-62101651D01*
X139840000Y-62061651D02*
X142447000Y-62061651D01*
X139840000Y-62021651D02*
X142427000Y-62021651D01*
X139840000Y-61981651D02*
X142406000Y-61981651D01*
X139840000Y-61941651D02*
X142384000Y-61941651D01*
X139840000Y-61901651D02*
X142362000Y-61901651D01*
X139840000Y-61861651D02*
X142340000Y-61861651D01*
X139840000Y-61821651D02*
X142317000Y-61821651D01*
X139840000Y-61781651D02*
X142293000Y-61781651D01*
X139840000Y-61741651D02*
X142269000Y-61741651D01*
X139840000Y-61701651D02*
X142244000Y-61701651D01*
X139840000Y-61661651D02*
X142218000Y-61661651D01*
X139840000Y-61621651D02*
X142192000Y-61621651D01*
X139840000Y-61581651D02*
X142165000Y-61581651D01*
X139840000Y-61541651D02*
X142138000Y-61541651D01*
X139840000Y-61501651D02*
X142109000Y-61501651D01*
X139840000Y-61461651D02*
X142080000Y-61461651D01*
X139840000Y-61421651D02*
X142050000Y-61421651D01*
X139840000Y-61381651D02*
X142020000Y-61381651D01*
X139840000Y-61341651D02*
X141989000Y-61341651D01*
X139840000Y-61301651D02*
X141956000Y-61301651D01*
X139840000Y-61261651D02*
X141924000Y-61261651D01*
X139840000Y-61221651D02*
X141890000Y-61221651D01*
X139840000Y-61181651D02*
X141855000Y-61181651D01*
X139840000Y-61141651D02*
X141819000Y-61141651D01*
X138267000Y-59821651D02*
X139333000Y-59821651D01*
X138032000Y-59861651D02*
X139568000Y-59861651D01*
X137852000Y-59901651D02*
X139748000Y-59901651D01*
X137702000Y-59941651D02*
X139898000Y-59941651D01*
X137571000Y-59981651D02*
X140029000Y-59981651D01*
X137454000Y-60021651D02*
X140146000Y-60021651D01*
X137347000Y-60061651D02*
X140253000Y-60061651D01*
X137248000Y-60101651D02*
X140352000Y-60101651D01*
X137155000Y-60141651D02*
X140445000Y-60141651D01*
X137069000Y-60181651D02*
X140531000Y-60181651D01*
X136987000Y-60221651D02*
X140613000Y-60221651D01*
X136910000Y-60261651D02*
X140690000Y-60261651D01*
X136836000Y-60301651D02*
X140764000Y-60301651D01*
X136766000Y-60341651D02*
X140834000Y-60341651D01*
X136698000Y-60381651D02*
X140902000Y-60381651D01*
X136634000Y-60421651D02*
X140966000Y-60421651D01*
X136572000Y-60461651D02*
X141028000Y-60461651D01*
X136513000Y-60501651D02*
X141087000Y-60501651D01*
X136485000Y-68312349D02*
X136485000Y-67512349D01*
X136455000Y-60541651D02*
X141145000Y-60541651D01*
X136400000Y-60581651D02*
X141200000Y-60581651D01*
X136346000Y-60621651D02*
X141254000Y-60621651D01*
X136295000Y-60661651D02*
X141305000Y-60661651D01*
X136244000Y-60701651D02*
X141356000Y-60701651D01*
X136196000Y-60741651D02*
X141404000Y-60741651D01*
X136149000Y-60781651D02*
X141451000Y-60781651D01*
X136103000Y-60821651D02*
X141497000Y-60821651D01*
X136085000Y-67912349D02*
X136885000Y-67912349D01*
X136059000Y-60861651D02*
X141541000Y-60861651D01*
X136016000Y-60901651D02*
X141584000Y-60901651D01*
X135974000Y-60941651D02*
X141626000Y-60941651D01*
X135933000Y-60981651D02*
X141667000Y-60981651D01*
X135893000Y-61021651D02*
X141707000Y-61021651D01*
X135855000Y-61061651D02*
X141745000Y-61061651D01*
X135817000Y-61101651D02*
X141783000Y-61101651D01*
X135781000Y-61141651D02*
X137760000Y-61141651D01*
X135745000Y-61181651D02*
X137760000Y-61181651D01*
X135710000Y-61221651D02*
X137760000Y-61221651D01*
X135676000Y-61261651D02*
X137760000Y-61261651D01*
X135644000Y-61301651D02*
X137760000Y-61301651D01*
X135611000Y-61341651D02*
X137760000Y-61341651D01*
X135580000Y-61381651D02*
X137760000Y-61381651D01*
X135550000Y-61421651D02*
X137760000Y-61421651D01*
X135520000Y-61461651D02*
X137760000Y-61461651D01*
X135491000Y-61501651D02*
X137760000Y-61501651D01*
X135462000Y-61541651D02*
X137760000Y-61541651D01*
X135435000Y-61581651D02*
X137760000Y-61581651D01*
X135408000Y-61621651D02*
X137760000Y-61621651D01*
X135382000Y-61661651D02*
X137760000Y-61661651D01*
X135356000Y-61701651D02*
X137760000Y-61701651D01*
X135331000Y-61741651D02*
X137760000Y-61741651D01*
X135307000Y-61781651D02*
X137760000Y-61781651D01*
X135283000Y-61821651D02*
X137760000Y-61821651D01*
X135260000Y-61861651D02*
X137760000Y-61861651D01*
X135238000Y-61901651D02*
X137760000Y-61901651D01*
X135216000Y-61941651D02*
X137760000Y-61941651D01*
X135194000Y-61981651D02*
X137760000Y-61981651D01*
X135173000Y-62021651D02*
X137760000Y-62021651D01*
X135153000Y-62061651D02*
X137760000Y-62061651D01*
X135134000Y-62101651D02*
X137760000Y-62101651D01*
X135114000Y-62141651D02*
X137760000Y-62141651D01*
X135096000Y-62181651D02*
X137760000Y-62181651D01*
X135078000Y-62221651D02*
X137760000Y-62221651D01*
X135060000Y-62261651D02*
X137760000Y-62261651D01*
X135043000Y-62301651D02*
X137760000Y-62301651D01*
X135026000Y-62341651D02*
X137760000Y-62341651D01*
X135010000Y-62381651D02*
X137760000Y-62381651D01*
X134995000Y-62421651D02*
X137760000Y-62421651D01*
X134979000Y-62461651D02*
X137760000Y-62461651D01*
X134965000Y-62501651D02*
X137760000Y-62501651D01*
X134950000Y-62541651D02*
X137760000Y-62541651D01*
X134937000Y-62581651D02*
X137760000Y-62581651D01*
X134923000Y-62621651D02*
X137760000Y-62621651D01*
X134911000Y-62661651D02*
X137760000Y-62661651D01*
X134898000Y-62701651D02*
X137760000Y-62701651D01*
X134886000Y-62741651D02*
X137760000Y-62741651D01*
X134875000Y-62781651D02*
X137760000Y-62781651D01*
X134864000Y-62821651D02*
X137760000Y-62821651D01*
X134853000Y-62861651D02*
X137760000Y-62861651D01*
X134843000Y-62901651D02*
X137760000Y-62901651D01*
X134833000Y-62941651D02*
X137760000Y-62941651D01*
X134824000Y-62981651D02*
X137760000Y-62981651D01*
X134815000Y-63021651D02*
X137760000Y-63021651D01*
X134806000Y-63061651D02*
X137760000Y-63061651D01*
X134798000Y-63101651D02*
X137760000Y-63101651D01*
X134790000Y-63141651D02*
X137760000Y-63141651D01*
X134783000Y-63181651D02*
X137760000Y-63181651D01*
X134776000Y-63222651D02*
X142824000Y-63222651D01*
X134770000Y-63262651D02*
X142830000Y-63262651D01*
X134763000Y-63302651D02*
X142837000Y-63302651D01*
X134758000Y-63342651D02*
X142842000Y-63342651D01*
X134752000Y-63382651D02*
X142848000Y-63382651D01*
X134748000Y-63422651D02*
X142852000Y-63422651D01*
X134743000Y-63462651D02*
X142857000Y-63462651D01*
X134739000Y-63502651D02*
X142861000Y-63502651D01*
X134735000Y-63542651D02*
X142865000Y-63542651D01*
X134732000Y-63582651D02*
X142868000Y-63582651D01*
X134729000Y-63622651D02*
X142871000Y-63622651D01*
X134726000Y-63662651D02*
X142874000Y-63662651D01*
X134724000Y-63702651D02*
X142876000Y-63702651D01*
X134723000Y-63742651D02*
X142877000Y-63742651D01*
X134721000Y-63782651D02*
X142879000Y-63782651D01*
X134720000Y-63902651D02*
X142880000Y-63902651D01*
X134720000Y-63862651D02*
X142880000Y-63862651D01*
X134720000Y-63822651D02*
X142880000Y-63822651D01*
%TO.C,R5*%
X108451000Y-82498500D02*
X108451000Y-81101500D01*
X108451000Y-81101500D02*
X105149000Y-81101500D01*
X105149000Y-82498500D02*
X108451000Y-82498500D01*
X105149000Y-81101500D02*
X105149000Y-82498500D01*
%TO.C,J4*%
X146870000Y-85930000D02*
X146870000Y-98750000D01*
X144270000Y-88530000D02*
X144270000Y-85930000D01*
X144270000Y-85930000D02*
X146870000Y-85930000D01*
X141670000Y-98750000D02*
X146870000Y-98750000D01*
X141670000Y-88530000D02*
X144270000Y-88530000D01*
X141670000Y-88530000D02*
X141670000Y-98750000D01*
X141670000Y-87260000D02*
X141670000Y-85930000D01*
X141670000Y-85930000D02*
X143000000Y-85930000D01*
%TO.C,R4*%
X134698500Y-82276000D02*
X134698500Y-78974000D01*
X134698500Y-78974000D02*
X133301500Y-78974000D01*
X133301500Y-82276000D02*
X134698500Y-82276000D01*
X133301500Y-78974000D02*
X133301500Y-82276000D01*
%TO.C,R8*%
X108451000Y-95598500D02*
X108451000Y-94201500D01*
X108451000Y-94201500D02*
X105149000Y-94201500D01*
X105149000Y-95598500D02*
X108451000Y-95598500D01*
X105149000Y-94201500D02*
X105149000Y-95598500D01*
%TO.C,J3*%
X146095000Y-99870000D02*
X146095000Y-102530000D01*
X143495000Y-102470000D02*
X143495000Y-99870000D01*
X143495000Y-99870000D02*
X146095000Y-99870000D01*
X140895000Y-102530000D02*
X146095000Y-102530000D01*
X140895000Y-102470000D02*
X143495000Y-102470000D01*
X140895000Y-102470000D02*
X140895000Y-102530000D01*
X140895000Y-101200000D02*
X140895000Y-99870000D01*
X140895000Y-99870000D02*
X142225000Y-99870000D01*
%TO.C,U1*%
X125770000Y-67240000D02*
X125290000Y-67240000D01*
X125530000Y-66910000D01*
X125770000Y-67240000D01*
G36*
X125770000Y-67240000D02*
G01*
X125290000Y-67240000D01*
X125530000Y-66910000D01*
X125770000Y-67240000D01*
G37*
X124250000Y-67010000D02*
X120490000Y-67010000D01*
X124250000Y-60190000D02*
X120490000Y-60190000D01*
X120490000Y-67010000D02*
X120490000Y-65750000D01*
X120490000Y-60190000D02*
X120490000Y-61450000D01*
%TO.C,C30*%
X106946267Y-97110000D02*
X106653733Y-97110000D01*
X106946267Y-96090000D02*
X106653733Y-96090000D01*
%TO.C,R3*%
X130176000Y-83298500D02*
X130176000Y-81901500D01*
X130176000Y-81901500D02*
X126874000Y-81901500D01*
X126874000Y-83298500D02*
X130176000Y-83298500D01*
X126874000Y-81901500D02*
X126874000Y-83298500D01*
%TO.C,R2*%
X124926000Y-106498500D02*
X124926000Y-105101500D01*
X124926000Y-105101500D02*
X121624000Y-105101500D01*
X121624000Y-106498500D02*
X124926000Y-106498500D01*
X121624000Y-105101500D02*
X121624000Y-106498500D01*
%TO.C,J2*%
X137130000Y-112395000D02*
X134470000Y-112395000D01*
X137130000Y-109795000D02*
X137130000Y-112395000D01*
X137130000Y-107195000D02*
X137130000Y-108525000D01*
X135800000Y-107195000D02*
X137130000Y-107195000D01*
X134530000Y-109795000D02*
X137130000Y-109795000D01*
X134530000Y-107195000D02*
X134530000Y-109795000D01*
X134530000Y-107195000D02*
X134470000Y-107195000D01*
X134470000Y-107195000D02*
X134470000Y-112395000D01*
%TO.C,C4*%
X129710000Y-64453733D02*
X129710000Y-64746267D01*
X128690000Y-64453733D02*
X128690000Y-64746267D01*
%TO.C,Y1*%
X125735000Y-71275000D02*
G75*
G02*
X125735000Y-76325000I0J-2525000D01*
G01*
X119485000Y-76325000D02*
G75*
G02*
X119485000Y-71275000I0J2525000D01*
G01*
X125735000Y-76325000D02*
X119485000Y-76325000D01*
X125735000Y-71275000D02*
X119485000Y-71275000D01*
%TO.C,C27*%
X106946267Y-84310000D02*
X106653733Y-84310000D01*
X106946267Y-83290000D02*
X106653733Y-83290000D01*
%TO.C,C38*%
X120883737Y-70710000D02*
X121176271Y-70710000D01*
X120883737Y-69690000D02*
X121176271Y-69690000D01*
D11*
%TO.C,CVBS1*%
X105000000Y-89850000D02*
X105000000Y-79050000D01*
X105000000Y-89850000D02*
X94000000Y-89850000D01*
X105000000Y-79050000D02*
X105000000Y-77750000D01*
X105000000Y-77750000D02*
X94000000Y-77750000D01*
D12*
%TO.C,J1*%
X133332000Y-112392000D02*
X120512000Y-112392000D01*
X133332000Y-109792000D02*
X133332000Y-112392000D01*
X133332000Y-107192000D02*
X133332000Y-108522000D01*
X132002000Y-107192000D02*
X133332000Y-107192000D01*
X130732000Y-109792000D02*
X133332000Y-109792000D01*
X130732000Y-107192000D02*
X130732000Y-109792000D01*
X130732000Y-107192000D02*
X120512000Y-107192000D01*
X120512000Y-107192000D02*
X120512000Y-112392000D01*
D11*
%TO.C,FB4*%
X134050000Y-72380000D02*
X133550000Y-72380000D01*
X133550000Y-66180000D01*
X134050000Y-66180000D01*
X134050000Y-72380000D01*
G36*
X134050000Y-72380000D02*
G01*
X133550000Y-72380000D01*
X133550000Y-66180000D01*
X134050000Y-66180000D01*
X134050000Y-72380000D01*
G37*
X130850000Y-72380000D02*
X130350000Y-72380000D01*
X130350000Y-66180000D01*
X130850000Y-66180000D01*
X130850000Y-72380000D01*
G36*
X130850000Y-72380000D02*
G01*
X130350000Y-72380000D01*
X130350000Y-66180000D01*
X130850000Y-66180000D01*
X130850000Y-72380000D01*
G37*
D12*
X134050000Y-66180000D02*
X130350000Y-66180000D01*
X130350000Y-72380000D01*
X134050000Y-72380000D01*
X134050000Y-66180000D01*
X132199998Y-70893941D02*
X132200000Y-73217000D01*
X132199998Y-70893941D02*
X132200000Y-65343000D01*
%TD*%
M02*
