%TF.GenerationSoftware,KiCad,Pcbnew,9.0.0*%
%TF.CreationDate,2025-03-16T19:50:11+02:00*%
%TF.ProjectId,TVP5147M1_decoder,54565035-3134-4374-9d31-5f6465636f64,rev?*%
%TF.SameCoordinates,Original*%
%TF.FileFunction,Soldermask,Bot*%
%TF.FilePolarity,Negative*%
%FSLAX46Y46*%
G04 Gerber Fmt 4.6, Leading zero omitted, Abs format (unit mm)*
G04 Created by KiCad (PCBNEW 9.0.0) date 2025-03-16 19:50:11*
%MOMM*%
%LPD*%
G01*
G04 APERTURE LIST*
G04 Aperture macros list*
%AMRoundRect*
0 Rectangle with rounded corners*
0 $1 Rounding radius*
0 $2 $3 $4 $5 $6 $7 $8 $9 X,Y pos of 4 corners*
0 Add a 4 corners polygon primitive as box body*
4,1,4,$2,$3,$4,$5,$6,$7,$8,$9,$2,$3,0*
0 Add four circle primitives for the rounded corners*
1,1,$1+$1,$2,$3*
1,1,$1+$1,$4,$5*
1,1,$1+$1,$6,$7*
1,1,$1+$1,$8,$9*
0 Add four rect primitives between the rounded corners*
20,1,$1+$1,$2,$3,$4,$5,0*
20,1,$1+$1,$4,$5,$6,$7,0*
20,1,$1+$1,$6,$7,$8,$9,0*
20,1,$1+$1,$8,$9,$2,$3,0*%
G04 Aperture macros list end*
%ADD10R,1.800000X1.800000*%
%ADD11C,1.800000*%
%ADD12RoundRect,0.250000X-0.412500X-0.650000X0.412500X-0.650000X0.412500X0.650000X-0.412500X0.650000X0*%
%ADD13RoundRect,0.237500X-0.300000X-0.237500X0.300000X-0.237500X0.300000X0.237500X-0.300000X0.237500X0*%
%ADD14RoundRect,0.250000X0.412500X0.650000X-0.412500X0.650000X-0.412500X-0.650000X0.412500X-0.650000X0*%
%ADD15RoundRect,0.237500X0.300000X0.237500X-0.300000X0.237500X-0.300000X-0.237500X0.300000X-0.237500X0*%
%ADD16C,1.600000*%
%ADD17RoundRect,0.250000X-0.650000X0.412500X-0.650000X-0.412500X0.650000X-0.412500X0.650000X0.412500X0*%
%ADD18RoundRect,0.237500X-0.237500X0.300000X-0.237500X-0.300000X0.237500X-0.300000X0.237500X0.300000X0*%
%ADD19RoundRect,0.250000X0.650000X-0.412500X0.650000X0.412500X-0.650000X0.412500X-0.650000X-0.412500X0*%
%ADD20C,1.016000*%
%ADD21C,2.000000*%
%ADD22R,2.000000X2.000000*%
%ADD23O,3.500000X2.000000*%
%ADD24O,2.000000X3.500000*%
%ADD25RoundRect,1.000000X0.000010X-0.000010X0.000010X0.000010X-0.000010X0.000010X-0.000010X-0.000010X0*%
%ADD26O,1.700000X1.700000*%
%ADD27R,1.700000X1.700000*%
%ADD28R,1.600000X1.600000*%
%ADD29C,1.500000*%
G04 APERTURE END LIST*
D10*
%TO.C,D1*%
X143500000Y-71400000D03*
D11*
X143500000Y-73940000D03*
%TD*%
D12*
%TO.C,C21*%
X131525000Y-86800000D03*
X128400000Y-86800000D03*
%TD*%
D13*
%TO.C,C1*%
X109462500Y-74400000D03*
X107737500Y-74400000D03*
%TD*%
D14*
%TO.C,C20*%
X121675000Y-96600000D03*
X124800000Y-96600000D03*
%TD*%
%TO.C,C13*%
X112875000Y-91200000D03*
X116000000Y-91200000D03*
%TD*%
D12*
%TO.C,C25*%
X135000000Y-84400000D03*
X131875000Y-84400000D03*
%TD*%
D15*
%TO.C,C3*%
X113275000Y-69000000D03*
X115000000Y-69000000D03*
%TD*%
D16*
%TO.C,FB3*%
X113800000Y-81080000D03*
X113800000Y-70920000D03*
%TD*%
D17*
%TO.C,C26*%
X116800000Y-96562500D03*
X116800000Y-93437500D03*
%TD*%
D14*
%TO.C,C11*%
X118275000Y-82400000D03*
X121400000Y-82400000D03*
%TD*%
D13*
%TO.C,C6*%
X109462500Y-89200000D03*
X107737500Y-89200000D03*
%TD*%
D15*
%TO.C,C8*%
X112737500Y-83000000D03*
X114462500Y-83000000D03*
%TD*%
D14*
%TO.C,C17*%
X112875000Y-88500000D03*
X116000000Y-88500000D03*
%TD*%
D17*
%TO.C,C18*%
X130200000Y-93725000D03*
X130200000Y-90600000D03*
%TD*%
D14*
%TO.C,C24*%
X129200000Y-97200000D03*
X132325000Y-97200000D03*
%TD*%
D12*
%TO.C,C19*%
X136762500Y-92800000D03*
X133637500Y-92800000D03*
%TD*%
D14*
%TO.C,C22*%
X119037500Y-101600000D03*
X122162500Y-101600000D03*
%TD*%
D18*
%TO.C,C15*%
X119800000Y-94262500D03*
X119800000Y-92537500D03*
%TD*%
D15*
%TO.C,C9*%
X131675000Y-72000000D03*
X133400000Y-72000000D03*
%TD*%
D14*
%TO.C,C14*%
X112875000Y-86000000D03*
X116000000Y-86000000D03*
%TD*%
D12*
%TO.C,C23*%
X133400000Y-100600000D03*
X130275000Y-100600000D03*
%TD*%
D16*
%TO.C,FB1*%
X108600000Y-86880000D03*
X108600000Y-76720000D03*
%TD*%
D12*
%TO.C,C12*%
X126125000Y-87000000D03*
X123000000Y-87000000D03*
%TD*%
D19*
%TO.C,C16*%
X120400000Y-87637500D03*
X120400000Y-90762500D03*
%TD*%
D20*
%TO.C,U2*%
X127612199Y-93989549D03*
X127612199Y-93202149D03*
X127612199Y-92414749D03*
X127612199Y-91627349D03*
X127612199Y-90839949D03*
X127612199Y-90052549D03*
X127612199Y-89265149D03*
X126824799Y-93989549D03*
X126824799Y-93202149D03*
X126824799Y-92414749D03*
X126824799Y-91627349D03*
X126824799Y-90839949D03*
X126824799Y-90052549D03*
X126824799Y-89265149D03*
X126037399Y-93989549D03*
X126037399Y-93202149D03*
X126037399Y-92414749D03*
X126037399Y-91627349D03*
X126037399Y-90839949D03*
X126037399Y-90052549D03*
X126037399Y-89265149D03*
X125249999Y-93989549D03*
X125249999Y-93202149D03*
X125249999Y-92414749D03*
X125249999Y-91627349D03*
X125249999Y-90839949D03*
X125249999Y-90052549D03*
X125249999Y-89265149D03*
X124462599Y-93989549D03*
X124462599Y-93202149D03*
X124462599Y-92414749D03*
X124462599Y-91627349D03*
X124462599Y-90839949D03*
X124462599Y-90052549D03*
X124462599Y-89265149D03*
X123675199Y-93989549D03*
X123675199Y-93202149D03*
X123675199Y-92414749D03*
X123675199Y-91627349D03*
X123675199Y-90839949D03*
X123675199Y-90052549D03*
X123675199Y-89265149D03*
X122887799Y-93989549D03*
X122887799Y-93202149D03*
X122887799Y-92414749D03*
X122887799Y-91627349D03*
X122887799Y-90839949D03*
X122887799Y-90052549D03*
X122887799Y-89265149D03*
%TD*%
D16*
%TO.C,FB2*%
X139200000Y-82160000D03*
X139200000Y-72000000D03*
%TD*%
D21*
%TO.C,C10*%
X108000000Y-70032323D03*
D22*
X108000000Y-65032323D03*
%TD*%
D23*
%TO.C,CVBS2*%
X101400000Y-91800000D03*
D24*
X96400000Y-96750000D03*
D23*
X101400000Y-101600000D03*
D25*
X101400000Y-96750000D03*
%TD*%
D26*
%TO.C,J6*%
X125920000Y-78600000D03*
X128460000Y-78600000D03*
D27*
X131000000Y-78600000D03*
%TD*%
D26*
%TO.C,J5*%
X143000000Y-80040000D03*
D27*
X143000000Y-77500000D03*
%TD*%
D16*
%TO.C,C5*%
X138800000Y-62152651D03*
D28*
X138800000Y-65652651D03*
%TD*%
D26*
%TO.C,J4*%
X145540000Y-97420000D03*
X143000000Y-97420000D03*
X145540000Y-94880000D03*
X143000000Y-94880000D03*
X145540000Y-92340000D03*
X143000000Y-92340000D03*
X145540000Y-89800000D03*
X143000000Y-89800000D03*
X145540000Y-87260000D03*
D27*
X143000000Y-87260000D03*
%TD*%
D26*
%TO.C,J3*%
X144765000Y-101200000D03*
D27*
X142225000Y-101200000D03*
%TD*%
D26*
%TO.C,J2*%
X135800000Y-111065000D03*
D27*
X135800000Y-108525000D03*
%TD*%
D29*
%TO.C,Y1*%
X120170000Y-73800000D03*
X125050000Y-73800000D03*
%TD*%
D23*
%TO.C,CVBS1*%
X101500000Y-78850000D03*
D24*
X96500000Y-83800000D03*
D23*
X101500000Y-88650000D03*
D25*
X101500000Y-83800000D03*
%TD*%
D26*
%TO.C,J1*%
X121842000Y-111062000D03*
X121842000Y-108522000D03*
X124382000Y-111062000D03*
X124382000Y-108522000D03*
X126922000Y-111062000D03*
X126922000Y-108522000D03*
X129462000Y-111062000D03*
X129462000Y-108522000D03*
X132002000Y-111062000D03*
D27*
X132002000Y-108522000D03*
%TD*%
D16*
%TO.C,FB4*%
X132200000Y-74360000D03*
X132200000Y-64200000D03*
%TD*%
M02*
