%TF.GenerationSoftware,KiCad,Pcbnew,9.0.0*%
%TF.CreationDate,2025-03-16T19:50:11+02:00*%
%TF.ProjectId,TVP5147M1_decoder,54565035-3134-4374-9d31-5f6465636f64,rev?*%
%TF.SameCoordinates,Original*%
%TF.FileFunction,Copper,L1,Top*%
%TF.FilePolarity,Positive*%
%FSLAX46Y46*%
G04 Gerber Fmt 4.6, Leading zero omitted, Abs format (unit mm)*
G04 Created by KiCad (PCBNEW 9.0.0) date 2025-03-16 19:50:11*
%MOMM*%
%LPD*%
G01*
G04 APERTURE LIST*
G04 Aperture macros list*
%AMRoundRect*
0 Rectangle with rounded corners*
0 $1 Rounding radius*
0 $2 $3 $4 $5 $6 $7 $8 $9 X,Y pos of 4 corners*
0 Add a 4 corners polygon primitive as box body*
4,1,4,$2,$3,$4,$5,$6,$7,$8,$9,$2,$3,0*
0 Add four circle primitives for the rounded corners*
1,1,$1+$1,$2,$3*
1,1,$1+$1,$4,$5*
1,1,$1+$1,$6,$7*
1,1,$1+$1,$8,$9*
0 Add four rect primitives between the rounded corners*
20,1,$1+$1,$2,$3,$4,$5,0*
20,1,$1+$1,$4,$5,$6,$7,0*
20,1,$1+$1,$6,$7,$8,$9,0*
20,1,$1+$1,$8,$9,$2,$3,0*%
G04 Aperture macros list end*
%TA.AperFunction,EtchedComponent*%
%ADD10C,0.000000*%
%TD*%
%TA.AperFunction,SMDPad,CuDef*%
%ADD11RoundRect,0.237500X-0.300000X-0.237500X0.300000X-0.237500X0.300000X0.237500X-0.300000X0.237500X0*%
%TD*%
%TA.AperFunction,ComponentPad*%
%ADD12R,1.800000X1.800000*%
%TD*%
%TA.AperFunction,ComponentPad*%
%ADD13C,1.800000*%
%TD*%
%TA.AperFunction,ComponentPad*%
%ADD14C,1.600000*%
%TD*%
%TA.AperFunction,SMDPad,CuDef*%
%ADD15RoundRect,0.237500X0.300000X0.237500X-0.300000X0.237500X-0.300000X-0.237500X0.300000X-0.237500X0*%
%TD*%
%TA.AperFunction,ComponentPad*%
%ADD16C,1.016000*%
%TD*%
%TA.AperFunction,SMDPad,CuDef*%
%ADD17R,6.223000X6.223000*%
%TD*%
%TA.AperFunction,SMDPad,CuDef*%
%ADD18R,0.279400X1.553299*%
%TD*%
%TA.AperFunction,SMDPad,CuDef*%
%ADD19R,1.553299X0.279400*%
%TD*%
%TA.AperFunction,SMDPad,CuDef*%
%ADD20RoundRect,0.237500X0.287500X0.237500X-0.287500X0.237500X-0.287500X-0.237500X0.287500X-0.237500X0*%
%TD*%
%TA.AperFunction,ComponentPad*%
%ADD21C,2.000000*%
%TD*%
%TA.AperFunction,ComponentPad*%
%ADD22R,2.000000X2.000000*%
%TD*%
%TA.AperFunction,ComponentPad*%
%ADD23O,3.500000X2.000000*%
%TD*%
%TA.AperFunction,ComponentPad*%
%ADD24O,2.000000X3.500000*%
%TD*%
%TA.AperFunction,ComponentPad*%
%ADD25RoundRect,1.000000X0.000010X-0.000010X0.000010X0.000010X-0.000010X0.000010X-0.000010X-0.000010X0*%
%TD*%
%TA.AperFunction,SMDPad,CuDef*%
%ADD26RoundRect,0.237500X-0.287500X-0.237500X0.287500X-0.237500X0.287500X0.237500X-0.287500X0.237500X0*%
%TD*%
%TA.AperFunction,SMDPad,CuDef*%
%ADD27RoundRect,0.237500X-0.237500X0.287500X-0.237500X-0.287500X0.237500X-0.287500X0.237500X0.287500X0*%
%TD*%
%TA.AperFunction,SMDPad,CuDef*%
%ADD28C,0.500000*%
%TD*%
%TA.AperFunction,ComponentPad*%
%ADD29O,1.700000X1.700000*%
%TD*%
%TA.AperFunction,ComponentPad*%
%ADD30R,1.700000X1.700000*%
%TD*%
%TA.AperFunction,ComponentPad*%
%ADD31R,1.600000X1.600000*%
%TD*%
%TA.AperFunction,SMDPad,CuDef*%
%ADD32RoundRect,0.237500X0.237500X-0.287500X0.237500X0.287500X-0.237500X0.287500X-0.237500X-0.287500X0*%
%TD*%
%TA.AperFunction,SMDPad,CuDef*%
%ADD33RoundRect,0.375000X0.625000X0.375000X-0.625000X0.375000X-0.625000X-0.375000X0.625000X-0.375000X0*%
%TD*%
%TA.AperFunction,SMDPad,CuDef*%
%ADD34RoundRect,0.500000X0.500000X1.400000X-0.500000X1.400000X-0.500000X-1.400000X0.500000X-1.400000X0*%
%TD*%
%TA.AperFunction,SMDPad,CuDef*%
%ADD35RoundRect,0.237500X-0.237500X0.300000X-0.237500X-0.300000X0.237500X-0.300000X0.237500X0.300000X0*%
%TD*%
%TA.AperFunction,ComponentPad*%
%ADD36C,1.500000*%
%TD*%
%TA.AperFunction,ViaPad*%
%ADD37C,0.600000*%
%TD*%
%TA.AperFunction,Conductor*%
%ADD38C,0.200000*%
%TD*%
%TA.AperFunction,Conductor*%
%ADD39C,0.500000*%
%TD*%
%TA.AperFunction,Conductor*%
%ADD40C,0.300000*%
%TD*%
G04 APERTURE END LIST*
D10*
%TA.AperFunction,EtchedComponent*%
%TO.C,NT1*%
G36*
X118450000Y-78900000D02*
G01*
X117950000Y-78900000D01*
X117950000Y-77900000D01*
X118450000Y-77900000D01*
X118450000Y-78900000D01*
G37*
%TD.AperFunction*%
%TD*%
D11*
%TO.P,C2,1*%
%TO.N,+3.3V*%
X138275000Y-69800000D03*
%TO.P,C2,2*%
%TO.N,GND*%
X140000000Y-69800000D03*
%TD*%
D12*
%TO.P,D1,1*%
%TO.N,Net-(D1-Pad1)*%
X143500000Y-71400000D03*
D13*
%TO.P,D1,2*%
%TO.N,+3.3V*%
X143500000Y-73940000D03*
%TD*%
D14*
%TO.P,FB3,2*%
%TO.N,A1.8VDD*%
X113800000Y-81080000D03*
%TO.P,FB3,1*%
%TO.N,+1.8V*%
X113800000Y-70920000D03*
%TD*%
%TO.P,FB1,2*%
%TO.N,A3.3VDD*%
X108600000Y-86880000D03*
%TO.P,FB1,1*%
%TO.N,+3.3V*%
X108600000Y-76720000D03*
%TD*%
D15*
%TO.P,C37,2*%
%TO.N,XGND*%
X123547508Y-70200000D03*
%TO.P,C37,1*%
%TO.N,XTAL1*%
X125272508Y-70200000D03*
%TD*%
D16*
%TO.P,U2,81,EPAD*%
%TO.N,GND*%
X127612199Y-93989549D03*
X127612199Y-93202149D03*
X127612199Y-92414749D03*
X127612199Y-91627349D03*
X127612199Y-90839949D03*
X127612199Y-90052549D03*
X127612199Y-89265149D03*
X126824799Y-93989549D03*
X126824799Y-93202149D03*
X126824799Y-92414749D03*
X126824799Y-91627349D03*
X126824799Y-90839949D03*
X126824799Y-90052549D03*
X126824799Y-89265149D03*
X126037399Y-93989549D03*
X126037399Y-93202149D03*
X126037399Y-92414749D03*
X126037399Y-91627349D03*
X126037399Y-90839949D03*
X126037399Y-90052549D03*
X126037399Y-89265149D03*
X125249999Y-93989549D03*
X125249999Y-93202149D03*
X125249999Y-92414749D03*
D17*
X125249999Y-91627349D03*
D16*
X125249999Y-91627349D03*
X125249999Y-90839949D03*
X125249999Y-90052549D03*
X125249999Y-89265149D03*
X124462599Y-93989549D03*
X124462599Y-93202149D03*
X124462599Y-92414749D03*
X124462599Y-91627349D03*
X124462599Y-90839949D03*
X124462599Y-90052549D03*
X124462599Y-89265149D03*
X123675199Y-93989549D03*
X123675199Y-93202149D03*
X123675199Y-92414749D03*
X123675199Y-91627349D03*
X123675199Y-90839949D03*
X123675199Y-90052549D03*
X123675199Y-89265149D03*
X122887799Y-93989549D03*
X122887799Y-93202149D03*
X122887799Y-92414749D03*
X122887799Y-91627349D03*
X122887799Y-90839949D03*
X122887799Y-90052549D03*
X122887799Y-89265149D03*
D18*
%TO.P,U2,80,VI_1_A*%
%TO.N,CVBS_VI_1_A*%
X120499998Y-84754698D03*
%TO.P,U2,79,CH1_A18GND*%
%TO.N,GND*%
X121000000Y-84754698D03*
%TO.P,U2,78,CH1_A18VDD*%
%TO.N,A1.8VDD*%
X121499999Y-84754698D03*
%TO.P,U2,77,PLL_A18GND*%
%TO.N,GND*%
X121999998Y-84754698D03*
%TO.P,U2,76,PLL_A18VDD*%
%TO.N,A1.8VDD*%
X122499999Y-84754698D03*
%TO.P,U2,75,XTAL2*%
%TO.N,XTAL2*%
X122999998Y-84754698D03*
%TO.P,U2,74,XTAL1*%
%TO.N,XTAL1*%
X123500000Y-84754698D03*
%TO.P,U2,73,VS/VBLK/GPIO*%
%TO.N,VS{slash}VBLK*%
X123999999Y-84754698D03*
%TO.P,U2,72,HS/CS/GPIO*%
%TO.N,HS{slash}CS*%
X124499998Y-84754698D03*
%TO.P,U2,71,FID/GPIO*%
%TO.N,FID*%
X124999999Y-84754698D03*
%TO.P,U2,70,C_0/GPIO0*%
%TO.N,unconnected-(U2-C_0{slash}GPIO0-Pad70)*%
X125499999Y-84754698D03*
%TO.P,U2,69,C_1/GPIO1*%
%TO.N,/C1*%
X126000000Y-84754698D03*
%TO.P,U2,68,DGND*%
%TO.N,GND*%
X126499999Y-84754698D03*
%TO.P,U2,67,DVDD*%
%TO.N,D1.8VDD*%
X126999998Y-84754698D03*
%TO.P,U2,66,C_2/GPIO2*%
%TO.N,unconnected-(U2-C_2{slash}GPIO2-Pad66)*%
X127500000Y-84754698D03*
%TO.P,U2,65,C_3/GPIO3*%
%TO.N,unconnected-(U2-C_3{slash}GPIO3-Pad65)*%
X127999999Y-84754698D03*
%TO.P,U2,64,C_4/GPIO4*%
%TO.N,unconnected-(U2-C_4{slash}GPIO4-Pad64)*%
X128500000Y-84754698D03*
%TO.P,U2,63,C_5/GPIO5*%
%TO.N,unconnected-(U2-C_5{slash}GPIO5-Pad63)*%
X128999999Y-84754698D03*
%TO.P,U2,62,IOGND*%
%TO.N,GND*%
X129499998Y-84754698D03*
%TO.P,U2,61,IOVDD*%
%TO.N,IO3.3VDD*%
X130000000Y-84754698D03*
D19*
%TO.P,U2,60,C_6/GPIO6*%
%TO.N,unconnected-(U2-C_6{slash}GPIO6-Pad60)*%
X132122650Y-86877348D03*
%TO.P,U2,59,C_7/GPIO7*%
%TO.N,unconnected-(U2-C_7{slash}GPIO7-Pad59)*%
X132122650Y-87377350D03*
%TO.P,U2,58,C_8/GPIO8*%
%TO.N,unconnected-(U2-C_8{slash}GPIO8-Pad58)*%
X132122650Y-87877349D03*
%TO.P,U2,57,C_9/GPIO9*%
%TO.N,unconnected-(U2-C_9{slash}GPIO9-Pad57)*%
X132122650Y-88377348D03*
%TO.P,U2,56,DGND*%
%TO.N,GND*%
X132122650Y-88877349D03*
%TO.P,U2,55,DVDD*%
%TO.N,D1.8VDD*%
X132122650Y-89377348D03*
%TO.P,U2,54,Y_0*%
%TO.N,Y0*%
X132122650Y-89877350D03*
%TO.P,U2,53,Y_1*%
%TO.N,Y1*%
X132122650Y-90377349D03*
%TO.P,U2,52,Y_2*%
%TO.N,Y2*%
X132122650Y-90877348D03*
%TO.P,U2,51,Y_3*%
%TO.N,Y3*%
X132122650Y-91377349D03*
%TO.P,U2,50,Y_4*%
%TO.N,Y4*%
X132122650Y-91877349D03*
%TO.P,U2,49,IOGND*%
%TO.N,GND*%
X132122650Y-92377350D03*
%TO.P,U2,48,IOVDD*%
%TO.N,IO3.3VDD*%
X132122650Y-92877349D03*
%TO.P,U2,47,Y_5*%
%TO.N,Y5*%
X132122650Y-93377348D03*
%TO.P,U2,46,Y_6*%
%TO.N,Y6*%
X132122650Y-93877350D03*
%TO.P,U2,45,Y_7*%
%TO.N,Y7*%
X132122650Y-94377349D03*
%TO.P,U2,44,Y_8*%
%TO.N,Y8*%
X132122650Y-94877350D03*
%TO.P,U2,43,Y_9*%
%TO.N,Y9*%
X132122650Y-95377349D03*
%TO.P,U2,42,DGND*%
%TO.N,GND*%
X132122650Y-95877348D03*
%TO.P,U2,41,DVDD*%
%TO.N,D1.8VDD*%
X132122650Y-96377350D03*
D18*
%TO.P,U2,40,DATACLK*%
%TO.N,DATACLK*%
X130000000Y-98500000D03*
%TO.P,U2,39,IOGND*%
%TO.N,GND*%
X129499998Y-98500000D03*
%TO.P,U2,38,IOVDD*%
%TO.N,IO3.3VDD*%
X128999999Y-98500000D03*
%TO.P,U2,37,GLCO/I2CA*%
%TO.N,GLCO{slash}I2CA*%
X128500000Y-98500000D03*
%TO.P,U2,36,AVID/GPIO*%
%TO.N,AVID*%
X127999999Y-98500000D03*
%TO.P,U2,35,GPIO*%
%TO.N,FSS*%
X127500000Y-98500000D03*
%TO.P,U2,34,RESETB*%
%TO.N,RESETB*%
X126999998Y-98500000D03*
%TO.P,U2,33,PWDN*%
%TO.N,PWDN*%
X126499999Y-98500000D03*
%TO.P,U2,32,DGND*%
%TO.N,GND*%
X126000000Y-98500000D03*
%TO.P,U2,31,DVDD*%
%TO.N,D1.8VDD*%
X125499999Y-98500000D03*
%TO.P,U2,30,INTREQ*%
%TO.N,INTREQ*%
X124999999Y-98500000D03*
%TO.P,U2,29,SDA*%
%TO.N,SDA*%
X124499998Y-98500000D03*
%TO.P,U2,28,SCL*%
%TO.N,SCL*%
X123999999Y-98500000D03*
%TO.P,U2,27,DGND*%
%TO.N,GND*%
X123500000Y-98500000D03*
%TO.P,U2,26,AGND*%
X122999998Y-98500000D03*
%TO.P,U2,25,A18VDD*%
%TO.N,A1.8VDD*%
X122499999Y-98500000D03*
%TO.P,U2,24,A18GND*%
%TO.N,GND*%
X121999998Y-98500000D03*
%TO.P,U2,23,VI_4_A*%
X121499999Y-98500000D03*
%TO.P,U2,22,NC*%
%TO.N,unconnected-(U2-NC-Pad22)*%
X121000000Y-98500000D03*
%TO.P,U2,21,NC*%
%TO.N,unconnected-(U2-NC-Pad21)*%
X120499998Y-98500000D03*
D19*
%TO.P,U2,20,NC*%
%TO.N,unconnected-(U2-NC-Pad20)*%
X118377348Y-96377350D03*
%TO.P,U2,19,NC*%
%TO.N,unconnected-(U2-NC-Pad19)*%
X118377348Y-95877348D03*
%TO.P,U2,18,VI_3_C*%
%TO.N,GND*%
X118377348Y-95377349D03*
%TO.P,U2,17,VI_3_B*%
X118377348Y-94877348D03*
%TO.P,U2,16,VI_3_A*%
X118377348Y-94377349D03*
%TO.P,U2,15,NC*%
%TO.N,unconnected-(U2-NC-Pad15)*%
X118377348Y-93877350D03*
%TO.P,U2,14,NC*%
%TO.N,unconnected-(U2-NC-Pad14)*%
X118377348Y-93377348D03*
%TO.P,U2,13,A18GND_REF*%
%TO.N,GND*%
X118377348Y-92877349D03*
%TO.P,U2,12,A18VDD_REF*%
%TO.N,A1.8VDD*%
X118377348Y-92377347D03*
%TO.P,U2,11,CH2_A18VDD*%
X118377348Y-91877349D03*
%TO.P,U2,10,CH2_A18GND*%
%TO.N,GND*%
X118377348Y-91377349D03*
%TO.P,U2,9,VI_2_C*%
X118377348Y-90877348D03*
%TO.P,U2,8,VI_2_B*%
%TO.N,CVBS_VI_2_B*%
X118377348Y-90377349D03*
%TO.P,U2,7,VI_2_A*%
%TO.N,GND*%
X118377348Y-89877350D03*
%TO.P,U2,6,CH2_A33GND*%
X118377348Y-89377348D03*
%TO.P,U2,5,CH2_A33VDD*%
%TO.N,A3.3VDD*%
X118377348Y-88877349D03*
%TO.P,U2,4,CH1_A33VDD*%
X118377348Y-88377348D03*
%TO.P,U2,3,CH1_A33GND*%
%TO.N,GND*%
X118377348Y-87877349D03*
%TO.P,U2,2,VI_1_C*%
X118377348Y-87377350D03*
%TO.P,U2,1,VI_1_B*%
X118377348Y-86877348D03*
%TD*%
D14*
%TO.P,FB2,2*%
%TO.N,IO3.3VDD*%
X139200000Y-82160000D03*
%TO.P,FB2,1*%
%TO.N,+3.3V*%
X139200000Y-72000000D03*
%TD*%
D20*
%TO.P,R15,2*%
%TO.N,XTAL2*%
X121450000Y-79800000D03*
%TO.P,R15,1*%
%TO.N,XTAL1*%
X123200000Y-79800000D03*
%TD*%
D11*
%TO.P,C7,2*%
%TO.N,GND*%
X140200000Y-84400000D03*
%TO.P,C7,1*%
%TO.N,IO3.3VDD*%
X138475000Y-84400000D03*
%TD*%
D21*
%TO.P,C10,2*%
%TO.N,GND*%
X108000000Y-70032323D03*
D22*
%TO.P,C10,1*%
%TO.N,+1.8V*%
X108000000Y-65032323D03*
%TD*%
D23*
%TO.P,CVBS2,2,Ext*%
%TO.N,GND*%
X101400000Y-91800000D03*
D24*
X96400000Y-96750000D03*
D23*
X101400000Y-101600000D03*
D25*
%TO.P,CVBS2,1,In*%
%TO.N,Net-(CVBS2-In)*%
X101400000Y-96750000D03*
%TD*%
D26*
%TO.P,R6,2*%
%TO.N,GND*%
X144800000Y-67800000D03*
%TO.P,R6,1*%
%TO.N,Net-(D1-Pad1)*%
X143050000Y-67800000D03*
%TD*%
D27*
%TO.P,RB8,2*%
%TO.N,GLCO{slash}I2CA*%
X131000000Y-105875000D03*
%TO.P,RB8,1*%
%TO.N,GND*%
X131000000Y-104125000D03*
%TD*%
D28*
%TO.P,NT1,2,2*%
%TO.N,GND*%
X118200000Y-78900000D03*
%TO.P,NT1,1,1*%
%TO.N,XGND*%
X118200000Y-77900000D03*
%TD*%
D29*
%TO.P,J6,3,Pin_3*%
%TO.N,VS{slash}VBLK*%
X125920000Y-78600000D03*
%TO.P,J6,2,Pin_2*%
%TO.N,HS{slash}CS*%
X128460000Y-78600000D03*
D30*
%TO.P,J6,1,Pin_1*%
%TO.N,FID*%
X131000000Y-78600000D03*
%TD*%
D29*
%TO.P,J5,2,Pin_2*%
%TO.N,GND*%
X143000000Y-80040000D03*
D30*
%TO.P,J5,1,Pin_1*%
%TO.N,+3.3V*%
X143000000Y-77500000D03*
%TD*%
D20*
%TO.P,R1,2*%
%TO.N,SCL*%
X122325000Y-104200000D03*
%TO.P,R1,1*%
%TO.N,IO3.3VDD*%
X124075000Y-104200000D03*
%TD*%
D14*
%TO.P,C5,2*%
%TO.N,GND*%
X138800000Y-62152651D03*
D31*
%TO.P,C5,1*%
%TO.N,+3.3V*%
X138800000Y-65652651D03*
%TD*%
D26*
%TO.P,R5,2*%
%TO.N,GND*%
X107675000Y-81800000D03*
%TO.P,R5,1*%
%TO.N,Net-(CVBS1-In)*%
X105925000Y-81800000D03*
%TD*%
D29*
%TO.P,J4,10,Pin_10*%
%TO.N,Y9*%
X145540000Y-97420000D03*
%TO.P,J4,9,Pin_9*%
%TO.N,Y8*%
X143000000Y-97420000D03*
%TO.P,J4,8,Pin_8*%
%TO.N,Y7*%
X145540000Y-94880000D03*
%TO.P,J4,7,Pin_7*%
%TO.N,Y6*%
X143000000Y-94880000D03*
%TO.P,J4,6,Pin_6*%
%TO.N,Y5*%
X145540000Y-92340000D03*
%TO.P,J4,5,Pin_5*%
%TO.N,Y4*%
X143000000Y-92340000D03*
%TO.P,J4,4,Pin_4*%
%TO.N,Y3*%
X145540000Y-89800000D03*
%TO.P,J4,3,Pin_3*%
%TO.N,Y2*%
X143000000Y-89800000D03*
%TO.P,J4,2,Pin_2*%
%TO.N,Y1*%
X145540000Y-87260000D03*
D30*
%TO.P,J4,1,Pin_1*%
%TO.N,Y0*%
X143000000Y-87260000D03*
%TD*%
D32*
%TO.P,R4,2*%
%TO.N,FID*%
X134000000Y-79750000D03*
%TO.P,R4,1*%
%TO.N,GND*%
X134000000Y-81500000D03*
%TD*%
D26*
%TO.P,R8,2*%
%TO.N,GND*%
X107675000Y-94900000D03*
%TO.P,R8,1*%
%TO.N,Net-(CVBS2-In)*%
X105925000Y-94900000D03*
%TD*%
D29*
%TO.P,J3,2,Pin_2*%
%TO.N,GND*%
X144765000Y-101200000D03*
D30*
%TO.P,J3,1,Pin_1*%
X142225000Y-101200000D03*
%TD*%
D33*
%TO.P,U1,3,VI*%
%TO.N,+3.3V*%
X125550000Y-61300000D03*
D34*
%TO.P,U1,2,VO*%
%TO.N,+1.8V*%
X119250000Y-63600000D03*
D33*
X125550000Y-63600000D03*
%TO.P,U1,1,GND*%
%TO.N,GND*%
X125550000Y-65900000D03*
%TD*%
D15*
%TO.P,C30,2*%
%TO.N,Net-(CVBS2-In)*%
X105937500Y-96600000D03*
%TO.P,C30,1*%
%TO.N,CVBS_VI_2_B*%
X107662500Y-96600000D03*
%TD*%
D20*
%TO.P,R3,2*%
%TO.N,/C1*%
X127650000Y-82600000D03*
%TO.P,R3,1*%
%TO.N,GND*%
X129400000Y-82600000D03*
%TD*%
D26*
%TO.P,R2,2*%
%TO.N,SDA*%
X124150000Y-105800000D03*
%TO.P,R2,1*%
%TO.N,IO3.3VDD*%
X122400000Y-105800000D03*
%TD*%
D29*
%TO.P,J2,2,Pin_2*%
%TO.N,GND*%
X135800000Y-111065000D03*
D30*
%TO.P,J2,1,Pin_1*%
X135800000Y-108525000D03*
%TD*%
D35*
%TO.P,C4,2*%
%TO.N,GND*%
X129200000Y-65462500D03*
%TO.P,C4,1*%
%TO.N,+1.8V*%
X129200000Y-63737500D03*
%TD*%
D36*
%TO.P,Y1,2,2*%
%TO.N,XTAL2*%
X120170000Y-73800000D03*
%TO.P,Y1,1,1*%
%TO.N,XTAL1*%
X125050000Y-73800000D03*
%TD*%
D15*
%TO.P,C27,2*%
%TO.N,Net-(CVBS1-In)*%
X105937500Y-83800000D03*
%TO.P,C27,1*%
%TO.N,CVBS_VI_1_A*%
X107662500Y-83800000D03*
%TD*%
D11*
%TO.P,C38,2*%
%TO.N,XGND*%
X121892504Y-70200000D03*
%TO.P,C38,1*%
%TO.N,XTAL2*%
X120167504Y-70200000D03*
%TD*%
D23*
%TO.P,CVBS1,2,Ext*%
%TO.N,GND*%
X101500000Y-78850000D03*
D24*
X96500000Y-83800000D03*
D23*
X101500000Y-88650000D03*
D25*
%TO.P,CVBS1,1,In*%
%TO.N,Net-(CVBS1-In)*%
X101500000Y-83800000D03*
%TD*%
D29*
%TO.P,J1,10,Pin_10*%
%TO.N,GND*%
X121842000Y-111062000D03*
%TO.P,J1,9,Pin_9*%
%TO.N,SCL*%
X121842000Y-108522000D03*
%TO.P,J1,8,Pin_8*%
%TO.N,INTREQ*%
X124382000Y-111062000D03*
%TO.P,J1,7,Pin_7*%
%TO.N,SDA*%
X124382000Y-108522000D03*
%TO.P,J1,6,Pin_6*%
%TO.N,RESETB*%
X126922000Y-111062000D03*
%TO.P,J1,5,Pin_5*%
%TO.N,PWDN*%
X126922000Y-108522000D03*
%TO.P,J1,4,Pin_4*%
%TO.N,AVID*%
X129462000Y-111062000D03*
%TO.P,J1,3,Pin_3*%
%TO.N,FSS*%
X129462000Y-108522000D03*
%TO.P,J1,2,Pin_2*%
%TO.N,DATACLK*%
X132002000Y-111062000D03*
D30*
%TO.P,J1,1,Pin_1*%
%TO.N,GLCO{slash}I2CA*%
X132002000Y-108522000D03*
%TD*%
D14*
%TO.P,FB4,2*%
%TO.N,D1.8VDD*%
X132200000Y-74360000D03*
%TO.P,FB4,1*%
%TO.N,+1.8V*%
X132200000Y-64200000D03*
%TD*%
D37*
%TO.N,XGND*%
X123547508Y-70200000D03*
X118200000Y-77900000D03*
X121892504Y-70200000D03*
%TO.N,D1.8VDD*%
X130200000Y-89400000D03*
X127500000Y-86800000D03*
X124800000Y-96600000D03*
X132262500Y-97200000D03*
%TO.N,A3.3VDD*%
X116000000Y-88500000D03*
X116000000Y-86000000D03*
%TO.N,A1.8VDD*%
X122807853Y-86028590D03*
X119800000Y-92537500D03*
X120400000Y-90762500D03*
X121400000Y-82400000D03*
X122000000Y-101500000D03*
X116800000Y-93437500D03*
X116000000Y-91200000D03*
%TO.N,+1.8V*%
X117000000Y-63600000D03*
X127500000Y-63600000D03*
%TO.N,IO3.3VDD*%
X133637500Y-92800000D03*
X124301000Y-103219825D03*
X130275000Y-100600000D03*
X138475000Y-84400000D03*
X131875000Y-84400000D03*
X123000000Y-106600000D03*
%TO.N,+3.3V*%
X127500000Y-61300000D03*
%TO.N,GND*%
X137000000Y-106000000D03*
X120200000Y-96200000D03*
X136400000Y-84800000D03*
X117600000Y-102200000D03*
X111000000Y-75000000D03*
X140000000Y-102000000D03*
X135000000Y-100000000D03*
X111400000Y-91800000D03*
X111400000Y-90800000D03*
X135000000Y-101000000D03*
X142500000Y-82500000D03*
X117000000Y-82800000D03*
X140525000Y-68600000D03*
X131000000Y-102500000D03*
X116400000Y-97800000D03*
X111400000Y-89500000D03*
X135000000Y-106000000D03*
X127500000Y-67000000D03*
X120000000Y-86000000D03*
X141400000Y-84400000D03*
X118200000Y-78900000D03*
X117200000Y-97800000D03*
X144500000Y-82500000D03*
X111400000Y-85000000D03*
X120200000Y-97000000D03*
X108800000Y-94900000D03*
X117600000Y-101400000D03*
X144800000Y-69000000D03*
X109000000Y-81800000D03*
X111000000Y-74000000D03*
X117000000Y-82000000D03*
X132000000Y-70500000D03*
X131000000Y-70500000D03*
X136400000Y-84000000D03*
X140000000Y-100500000D03*
X111600000Y-82400000D03*
X127500000Y-66000000D03*
X113500000Y-68000000D03*
X100595000Y-76031750D03*
X95515000Y-60791750D03*
X105675000Y-88731750D03*
X95515000Y-101431750D03*
X95515000Y-111591750D03*
X105675000Y-109051750D03*
X95515000Y-78571750D03*
X141235000Y-76031750D03*
X141235000Y-109051750D03*
X95515000Y-63331750D03*
X103135000Y-98891750D03*
X95515000Y-88731750D03*
X95515000Y-65871750D03*
X95515000Y-70951750D03*
X118375000Y-109051750D03*
X141235000Y-106511750D03*
X100595000Y-86191750D03*
X98055000Y-60791750D03*
X95515000Y-68411750D03*
X95515000Y-73491750D03*
X103135000Y-76031750D03*
X110755000Y-70951750D03*
X98055000Y-91271750D03*
X95515000Y-76031750D03*
X95515000Y-81111750D03*
X113295000Y-63331750D03*
X98055000Y-93811750D03*
X95515000Y-91271750D03*
X103135000Y-70951750D03*
X95515000Y-93811750D03*
X95515000Y-103971750D03*
X100595000Y-73491750D03*
X143775000Y-111591750D03*
X95515000Y-106511750D03*
X103135000Y-68411750D03*
X95515000Y-109051750D03*
X98055000Y-63331750D03*
X98055000Y-65871750D03*
X103135000Y-63331750D03*
X98055000Y-68411750D03*
X146315000Y-73491750D03*
X103135000Y-103971750D03*
X98055000Y-109051750D03*
X98055000Y-70951750D03*
X98055000Y-73491750D03*
X146315000Y-111591750D03*
X98055000Y-76031750D03*
X98055000Y-78571750D03*
X100595000Y-63331750D03*
X98055000Y-81111750D03*
X98055000Y-86191750D03*
X103135000Y-65871750D03*
X98055000Y-88731750D03*
X98055000Y-98891750D03*
X98055000Y-101431750D03*
X98055000Y-103971750D03*
X146315000Y-65871750D03*
X98055000Y-106511750D03*
X103135000Y-81111750D03*
X98055000Y-111591750D03*
X100595000Y-60791750D03*
X143775000Y-65871750D03*
X100595000Y-65871750D03*
X100595000Y-68411750D03*
X133615000Y-68411750D03*
X100595000Y-70951750D03*
X100595000Y-81111750D03*
X103135000Y-73491750D03*
X100595000Y-93811750D03*
X100595000Y-98891750D03*
X100595000Y-103971750D03*
X100595000Y-106511750D03*
X103135000Y-93811750D03*
X100595000Y-109051750D03*
X100595000Y-111591750D03*
X103135000Y-60791750D03*
X103135000Y-86191750D03*
X103135000Y-106511750D03*
X103135000Y-109051750D03*
X113295000Y-93811750D03*
X103135000Y-111591750D03*
X105675000Y-60791750D03*
X113295000Y-60791750D03*
X105675000Y-63331750D03*
X105675000Y-65871750D03*
X105675000Y-68411750D03*
X118375000Y-106511750D03*
X105675000Y-70951750D03*
X105675000Y-73491750D03*
X113295000Y-106511750D03*
X105675000Y-76031750D03*
X105675000Y-78571750D03*
X105675000Y-86191750D03*
X105675000Y-91271750D03*
X105675000Y-98891750D03*
X105675000Y-101431750D03*
X105675000Y-103971750D03*
X105675000Y-106511750D03*
X105675000Y-111591750D03*
X108215000Y-60791750D03*
X108215000Y-78571750D03*
X108215000Y-91271750D03*
X108215000Y-98891750D03*
X108215000Y-101431750D03*
X115835000Y-65871750D03*
X108215000Y-103971750D03*
X108215000Y-106511750D03*
X108215000Y-109051750D03*
X108215000Y-111591750D03*
X110755000Y-60791750D03*
X110755000Y-63331750D03*
X110755000Y-65871750D03*
X110755000Y-68411750D03*
X110755000Y-78571750D03*
X110755000Y-96351750D03*
X110755000Y-98891750D03*
X110755000Y-101431750D03*
X110755000Y-103971750D03*
X110755000Y-106511750D03*
X110755000Y-109051750D03*
X110755000Y-111591750D03*
X113295000Y-65871750D03*
X113295000Y-73491750D03*
X138695000Y-106511750D03*
X113295000Y-76031750D03*
X113295000Y-78571750D03*
X113295000Y-96351750D03*
X113295000Y-98891750D03*
X113295000Y-101431750D03*
X113295000Y-103971750D03*
X113295000Y-109051750D03*
X113295000Y-111591750D03*
X115835000Y-60791750D03*
X115835000Y-73491750D03*
X115835000Y-76031750D03*
X115835000Y-78571750D03*
X115835000Y-101431750D03*
X115835000Y-103971750D03*
X141235000Y-81111750D03*
X115835000Y-106511750D03*
X115835000Y-109051750D03*
X115835000Y-111591750D03*
X118375000Y-60791750D03*
X141235000Y-63331750D03*
X118375000Y-103971750D03*
X118375000Y-111591750D03*
X120915000Y-60791750D03*
X123455000Y-60791750D03*
X123455000Y-63331750D03*
X123455000Y-65871750D03*
X131075000Y-60791750D03*
X131075000Y-65871750D03*
X131075000Y-68411750D03*
X131000000Y-83000000D03*
X133615000Y-60791750D03*
X133615000Y-65871750D03*
X136155000Y-60791750D03*
X136155000Y-63331750D03*
X136155000Y-65871750D03*
X136155000Y-68411750D03*
X136155000Y-70951750D03*
X136155000Y-73491750D03*
X136155000Y-76031750D03*
X136155000Y-78571750D03*
X136155000Y-81111750D03*
X136155000Y-103971750D03*
X138695000Y-76031750D03*
X138695000Y-78571750D03*
X138695000Y-103971750D03*
X138695000Y-109051750D03*
X138695000Y-111591750D03*
X141235000Y-60791750D03*
X141235000Y-65871750D03*
X141235000Y-73491750D03*
X141235000Y-78571750D03*
X141235000Y-103971750D03*
X141235000Y-111591750D03*
X143775000Y-60791750D03*
X143775000Y-63331750D03*
X143775000Y-103971750D03*
X143775000Y-106511750D03*
X143775000Y-109051750D03*
X146315000Y-60791750D03*
X146315000Y-63331750D03*
X146315000Y-68411750D03*
X146315000Y-70951750D03*
X146315000Y-76031750D03*
X146315000Y-78571750D03*
X146315000Y-81111750D03*
X146315000Y-83651750D03*
X146315000Y-103971750D03*
X146315000Y-106511750D03*
X146315000Y-109051750D03*
X138695000Y-68411750D03*
%TD*%
D38*
%TO.N,Net-(D1-Pad1)*%
X143050000Y-67800000D02*
X143050000Y-70950000D01*
X143050000Y-70950000D02*
X143500000Y-71400000D01*
D39*
%TO.N,GND*%
X140000000Y-69125000D02*
X140525000Y-68600000D01*
X140000000Y-69800000D02*
X140000000Y-69125000D01*
%TO.N,+3.3V*%
X138275000Y-71075000D02*
X139200000Y-72000000D01*
X138275000Y-69800000D02*
X138275000Y-71075000D01*
D38*
%TO.N,Net-(D1-Pad1)*%
X143000000Y-67850000D02*
X143050000Y-67800000D01*
%TO.N,CVBS_VI_2_B*%
X107662500Y-96600000D02*
X108324943Y-96600000D01*
X108324943Y-96600000D02*
X114547594Y-90377349D01*
X114547594Y-90377349D02*
X118377348Y-90377349D01*
%TO.N,Net-(CVBS2-In)*%
X105837500Y-94987500D02*
X105925000Y-94900000D01*
X105687500Y-96750000D02*
X105837500Y-96900000D01*
X101400000Y-96750000D02*
X105687500Y-96750000D01*
X105837500Y-96900000D02*
X105837500Y-94987500D01*
%TO.N,/C1*%
X126600000Y-82600000D02*
X127650000Y-82600000D01*
X126000000Y-83200000D02*
X126600000Y-82600000D01*
X126000000Y-83200000D02*
X126000000Y-84754698D01*
%TO.N,FID*%
X128100000Y-81500000D02*
X131000000Y-78600000D01*
X127000000Y-81500000D02*
X128100000Y-81500000D01*
X134000000Y-79750000D02*
X132150000Y-79750000D01*
X124999999Y-83500001D02*
X127000000Y-81500000D01*
X132150000Y-79750000D02*
X131000000Y-78600000D01*
X124999999Y-84754698D02*
X124999999Y-83500001D01*
%TO.N,SCL*%
X121400000Y-108080000D02*
X121842000Y-108522000D01*
X124000000Y-102525000D02*
X122325000Y-104200000D01*
X124000000Y-98500000D02*
X124000000Y-102525000D01*
X121400000Y-105125000D02*
X121400000Y-108080000D01*
X122325000Y-104200000D02*
X121400000Y-105125000D01*
%TO.N,INTREQ*%
X125533000Y-100533000D02*
X125533000Y-109911000D01*
X125533000Y-109911000D02*
X124382000Y-111062000D01*
X124999999Y-99999999D02*
X125533000Y-100533000D01*
X124999999Y-98500000D02*
X124999999Y-99999999D01*
%TO.N,PWDN*%
X126499999Y-104067099D02*
X126922000Y-104489100D01*
X126922000Y-104489100D02*
X126922000Y-108522000D01*
X126499999Y-98500000D02*
X126499999Y-104067099D01*
%TO.N,GLCO{slash}I2CA*%
X128500000Y-100412557D02*
X128361500Y-100551057D01*
X128361500Y-100551057D02*
X128361500Y-103236500D01*
X132002000Y-106202000D02*
X132002000Y-108522000D01*
X128500000Y-98500000D02*
X128500000Y-100412557D01*
X131000000Y-105875000D02*
X132000000Y-105875000D01*
X132000000Y-106200000D02*
X132002000Y-106202000D01*
X128361500Y-103236500D02*
X131000000Y-105875000D01*
X132000000Y-105875000D02*
X132000000Y-106200000D01*
%TO.N,SDA*%
X124641602Y-101909052D02*
G75*
G02*
X124771301Y-101779402I129698J-48D01*
G01*
X124901000Y-103079353D02*
G75*
G02*
X125001000Y-102979400I100000J-47D01*
G01*
X125001000Y-102979353D02*
G75*
G03*
X125100953Y-102879353I0J99953D01*
G01*
X124771301Y-101779353D02*
G75*
G03*
X124900953Y-101649654I-1J129653D01*
G01*
X125101000Y-102479353D02*
G75*
G03*
X125001000Y-102379400I-100000J-47D01*
G01*
X124771301Y-102379353D02*
G75*
G02*
X124641647Y-102249654I-1J129653D01*
G01*
X124901000Y-105049000D02*
X124901000Y-103079353D01*
X124382000Y-107000000D02*
X124382000Y-108522000D01*
X124499999Y-100099999D02*
X124901000Y-100501000D01*
X124382000Y-107000000D02*
X124150000Y-106768000D01*
X124150000Y-106768000D02*
X124150000Y-105800000D01*
X125101000Y-102879353D02*
X125101000Y-102479353D01*
X124901000Y-101649654D02*
X124901000Y-100501000D01*
X124499999Y-100099999D02*
X124499999Y-98500000D01*
X124150000Y-105800000D02*
X124901000Y-105049000D01*
X124641602Y-102249654D02*
X124641602Y-101909052D01*
X124771301Y-102379353D02*
X125001000Y-102379353D01*
%TO.N,RESETB*%
X128200000Y-109784000D02*
X126922000Y-111062000D01*
X128200000Y-105200000D02*
X128200000Y-109784000D01*
X126999998Y-98500000D02*
X126999998Y-103999998D01*
X126999998Y-103999998D02*
X128200000Y-105200000D01*
%TO.N,DATACLK*%
X133375736Y-110009836D02*
G75*
G03*
X133054215Y-110009885I-160736J-160764D01*
G01*
X133697304Y-110009837D02*
G75*
G02*
X133375715Y-110009857I-160804J160737D01*
G01*
X133800000Y-109264000D02*
G75*
G03*
X133799985Y-109585585I160800J-160800D01*
G01*
X133800000Y-109585570D02*
G75*
G02*
X133800045Y-109907185I-160800J-160830D01*
G01*
X133800000Y-109264000D02*
X133800000Y-102300000D01*
X132951471Y-110112530D02*
X132515649Y-110548351D01*
X133800000Y-109907140D02*
X133697304Y-110009837D01*
X132515649Y-110548351D02*
X132002000Y-111062000D01*
X133054166Y-110009837D02*
X132951471Y-110112530D01*
X133800000Y-102300000D02*
X130000000Y-98500000D01*
%TO.N,HS{slash}CS*%
X128560378Y-80236597D02*
G75*
G03*
X128560369Y-79897194I-169678J169697D01*
G01*
X127487627Y-80012373D02*
G75*
G02*
X127827038Y-80012372I169706J-169707D01*
G01*
X128251300Y-79588107D02*
G75*
G02*
X128251298Y-79248694I169700J169707D01*
G01*
X128136115Y-80321450D02*
G75*
G03*
X128475526Y-80321451I169706J169707D01*
G01*
X128660000Y-78840000D02*
X128660000Y-78600000D01*
X128475526Y-80321450D02*
X128560378Y-80236597D01*
X124499998Y-83000002D02*
X127487627Y-80012373D01*
X128336155Y-79163844D02*
X128660000Y-78840000D01*
X127827038Y-80012373D02*
X128136115Y-80321450D01*
X124499998Y-84754698D02*
X124499998Y-83000002D01*
X128560378Y-79897185D02*
X128251300Y-79588107D01*
X128251300Y-79248696D02*
X128336155Y-79163844D01*
%TO.N,FSS*%
X127500000Y-98500000D02*
X127500000Y-103900000D01*
X127500000Y-103900000D02*
X129462000Y-105862000D01*
X129462000Y-105862000D02*
X129462000Y-108522000D01*
%TO.N,VS{slash}VBLK*%
X124364452Y-82276969D02*
G75*
G03*
X124505873Y-82276969I70710J70711D01*
G01*
X126350746Y-80260000D02*
G75*
G03*
X126590700Y-80020000I-46J240000D01*
G01*
X124824071Y-81958770D02*
G75*
G03*
X124824030Y-81817389I-70671J70670D01*
G01*
X126240000Y-79660000D02*
G75*
G02*
X126000000Y-79420000I0J240000D01*
G01*
X125007924Y-81152668D02*
G75*
G03*
X125347306Y-81152638I169676J169668D01*
G01*
X126000000Y-80500000D02*
G75*
G02*
X126240000Y-80260000I240000J0D01*
G01*
X124363935Y-81357211D02*
G75*
G02*
X124363930Y-81017794I169665J169711D01*
G01*
X126590746Y-79900000D02*
G75*
G03*
X126350746Y-79659954I-240046J0D01*
G01*
X124223031Y-82276969D02*
G75*
G02*
X124364452Y-82276968I70711J-70711D01*
G01*
X124448791Y-80932944D02*
G75*
G02*
X124788206Y-80932941I169709J-169656D01*
G01*
X126000000Y-79300000D02*
X126000000Y-79035210D01*
X124505873Y-82276969D02*
X124824071Y-81958770D01*
X124788201Y-80932945D02*
X125007924Y-81152668D01*
X123999999Y-84754698D02*
X123999999Y-82500001D01*
X126000000Y-78680000D02*
X125920000Y-78600000D01*
X124753362Y-81746638D02*
X124583657Y-81576933D01*
X126590746Y-80020000D02*
X126590746Y-79900000D01*
X126000000Y-79420000D02*
X126000000Y-79300000D01*
X124583657Y-81576933D02*
X124363935Y-81357211D01*
X126240000Y-80260000D02*
X126350746Y-80260000D01*
X123999999Y-82500001D02*
X124223031Y-82276969D01*
X125432187Y-81067814D02*
X126000000Y-80500000D01*
X126000000Y-79035210D02*
X126000000Y-78680000D01*
X124824071Y-81817348D02*
X124753360Y-81746637D01*
X124753360Y-81746637D02*
X124753362Y-81746638D01*
X124363935Y-81017799D02*
X124448791Y-80932944D01*
X126350746Y-79660000D02*
X126240000Y-79660000D01*
X125347336Y-81152667D02*
X125432187Y-81067814D01*
%TO.N,AVID*%
X127960500Y-103760500D02*
X127960500Y-98539499D01*
X129462000Y-111062000D02*
X130800000Y-109724000D01*
X130224000Y-106392134D02*
X130224000Y-106024000D01*
X130800000Y-109724000D02*
X130800000Y-106968134D01*
X130224000Y-106024000D02*
X127960500Y-103760500D01*
X130800000Y-106968134D02*
X130224000Y-106392134D01*
X127960500Y-98539499D02*
X127999999Y-98500000D01*
%TO.N,Y5*%
X143266398Y-93491000D02*
G75*
G03*
X143166400Y-93591000I2J-100000D01*
G01*
X140374760Y-93987049D02*
G75*
G02*
X140134760Y-94227060I-239960J-51D01*
G01*
X139774760Y-93641000D02*
G75*
G03*
X139534760Y-93401040I-239960J0D01*
G01*
X142566398Y-93591000D02*
G75*
G03*
X142466398Y-93491002I-99998J0D01*
G01*
X142666398Y-93691000D02*
G75*
G02*
X142566400Y-93591000I2J100000D01*
G01*
X140614760Y-93401000D02*
G75*
G03*
X140374800Y-93641000I40J-240000D01*
G01*
X143166398Y-93591000D02*
G75*
G02*
X143066398Y-93690998I-99998J0D01*
G01*
X140014760Y-94227049D02*
G75*
G02*
X139774851Y-93987049I40J239949D01*
G01*
X139774760Y-93987049D02*
X139774760Y-93641000D01*
X141264760Y-93401000D02*
X140614760Y-93401000D01*
X144389000Y-93491000D02*
X143266398Y-93491000D01*
X140374760Y-93641000D02*
X140374760Y-93987049D01*
X143066398Y-93691000D02*
X142666398Y-93691000D01*
X141354760Y-93491000D02*
X142466398Y-93491000D01*
X141354760Y-93491000D02*
X141264760Y-93401000D01*
X132146302Y-93401000D02*
X132122650Y-93377348D01*
X132146302Y-93401000D02*
X139534760Y-93401000D01*
X140134760Y-94227049D02*
X140014760Y-94227049D01*
X145540000Y-92340000D02*
X144389000Y-93491000D01*
%TO.N,Y6*%
X138655734Y-94116323D02*
G75*
G02*
X138316324Y-94116323I-169705J169703D01*
G01*
X141091658Y-93880000D02*
G75*
G03*
X140851700Y-94120000I42J-240000D01*
G01*
X140491658Y-95630000D02*
G75*
G02*
X140251700Y-95390000I42J240000D01*
G01*
X140251658Y-95120000D02*
G75*
G03*
X140011658Y-94880042I-239958J0D01*
G01*
X140851658Y-95390000D02*
G75*
G02*
X140611658Y-95629958I-239958J0D01*
G01*
X139221421Y-93890049D02*
G75*
G03*
X138882009Y-93890049I-169706J-169704D01*
G01*
X139306274Y-94314313D02*
G75*
G03*
X139306282Y-93974894I-169674J169713D01*
G01*
X139080000Y-94880000D02*
G75*
G02*
X139080006Y-94540594I169700J169700D01*
G01*
X141691658Y-94880000D02*
G75*
G02*
X141451700Y-94640000I42J240000D01*
G01*
X141451658Y-94120000D02*
G75*
G03*
X141211658Y-93880042I-239958J0D01*
G01*
X139080000Y-94880000D02*
X140011658Y-94880000D01*
X138077350Y-93877350D02*
X138316323Y-94116323D01*
X140851658Y-94120000D02*
X140851658Y-95390000D01*
X132122650Y-93877350D02*
X138077350Y-93877350D01*
X140251658Y-95390000D02*
X140251658Y-95120000D01*
X139306274Y-93974902D02*
X139221421Y-93890049D01*
X141211658Y-93880000D02*
X141091658Y-93880000D01*
X139080000Y-94540588D02*
X139306274Y-94314313D01*
X141451658Y-94640000D02*
X141451658Y-94120000D01*
X138882009Y-93890049D02*
X138655734Y-94116323D01*
X143000000Y-94880000D02*
X141691658Y-94880000D01*
X140611658Y-95630000D02*
X140491658Y-95630000D01*
%TO.N,Y1*%
X140722924Y-88411000D02*
G75*
G03*
X140962900Y-88171000I-24J240000D01*
G01*
X140962924Y-88103794D02*
G75*
G02*
X141202924Y-87863824I239976J-6D01*
G01*
X141562924Y-88171000D02*
G75*
G03*
X141802924Y-88410976I239976J0D01*
G01*
X141322924Y-87863794D02*
G75*
G02*
X141562906Y-88103794I-24J-240006D01*
G01*
X141802924Y-88411000D02*
X144389000Y-88411000D01*
X138845922Y-88411000D02*
X138834922Y-88400000D01*
X144389000Y-88411000D02*
X145540000Y-87260000D01*
X138834922Y-88400000D02*
X137200000Y-88400000D01*
X141202924Y-87863794D02*
X141322924Y-87863794D01*
X135222651Y-90377349D02*
X132122650Y-90377349D01*
X137200000Y-88400000D02*
X135222651Y-90377349D01*
X138845922Y-88411000D02*
X140722924Y-88411000D01*
X141562924Y-88103794D02*
X141562924Y-88171000D01*
X140962924Y-88171000D02*
X140962924Y-88103794D01*
%TO.N,Y0*%
X139296329Y-86528647D02*
G75*
G03*
X139056347Y-86768647I-29J-239953D01*
G01*
X139056329Y-87020000D02*
G75*
G02*
X138816329Y-87260029I-240029J0D01*
G01*
X141456329Y-87360000D02*
G75*
G02*
X141356329Y-87460029I-100029J0D01*
G01*
X140496329Y-86528650D02*
G75*
G03*
X140256350Y-86768650I-29J-239950D01*
G01*
X141556329Y-87260000D02*
G75*
G03*
X141456300Y-87360000I-29J-100000D01*
G01*
X140956329Y-87460000D02*
G75*
G02*
X140856300Y-87360000I-29J100000D01*
G01*
X139656329Y-86768647D02*
G75*
G03*
X139416329Y-86528571I-240029J47D01*
G01*
X139896329Y-87741348D02*
G75*
G02*
X139656252Y-87501348I-29J240048D01*
G01*
X140856329Y-86768650D02*
G75*
G03*
X140616329Y-86528571I-240029J50D01*
G01*
X140256329Y-87501348D02*
G75*
G02*
X140016329Y-87741329I-240029J48D01*
G01*
X136589943Y-87260000D02*
X138816329Y-87260000D01*
X140256329Y-86768650D02*
X140256329Y-87501348D01*
X140856329Y-87360000D02*
X140856329Y-86768650D01*
X139416329Y-86528647D02*
X139296329Y-86528647D01*
X140616329Y-86528650D02*
X140496329Y-86528650D01*
X139056329Y-86768647D02*
X139056329Y-87020000D01*
X140016329Y-87741348D02*
X139896329Y-87741348D01*
X133972593Y-89877350D02*
X132122650Y-89877350D01*
X141356329Y-87460000D02*
X140956329Y-87460000D01*
X136589943Y-87260000D02*
X133972593Y-89877350D01*
X143000000Y-87260000D02*
X141556329Y-87260000D01*
X139656329Y-87501348D02*
X139656329Y-86768647D01*
%TO.N,Y9*%
X144160000Y-98800000D02*
X145540000Y-97420000D01*
X134177349Y-95377349D02*
X137600000Y-98800000D01*
X132122650Y-95377349D02*
X134177349Y-95377349D01*
X137600000Y-98800000D02*
X144160000Y-98800000D01*
%TO.N,Y2*%
X141843090Y-89560000D02*
G75*
G03*
X142083090Y-89800010I240010J0D01*
G01*
X141004461Y-90277259D02*
G75*
G03*
X141243159Y-90038630I39J238659D01*
G01*
X141603090Y-88922157D02*
G75*
G02*
X141843143Y-89162157I10J-240043D01*
G01*
X141243090Y-89162157D02*
G75*
G02*
X141483090Y-88922190I240010J-43D01*
G01*
X139268090Y-89800000D02*
G75*
G02*
X139389900Y-89921789I10J-121800D01*
G01*
X140043090Y-89162157D02*
G75*
G02*
X140283090Y-88922190I240010J-43D01*
G01*
X139921301Y-90043578D02*
G75*
G03*
X140043078Y-89921789I-1J121778D01*
G01*
X140403090Y-88922157D02*
G75*
G02*
X140643143Y-89162157I10J-240043D01*
G01*
X140643090Y-90038630D02*
G75*
G03*
X140881719Y-90277210I238610J30D01*
G01*
X139389879Y-89921789D02*
G75*
G03*
X139511668Y-90043621I121821J-11D01*
G01*
X137800000Y-89800000D02*
X139268090Y-89800000D01*
X142083090Y-89800000D02*
X142203090Y-89800000D01*
X139511668Y-90043578D02*
X139921301Y-90043578D01*
X141843090Y-89162157D02*
X141843090Y-89560000D01*
X140643090Y-89162157D02*
X140643090Y-90038630D01*
X141243090Y-90038630D02*
X141243090Y-89162157D01*
X142894383Y-89800000D02*
X143000000Y-89800000D01*
X136722652Y-90877348D02*
X137800000Y-89800000D01*
X140881719Y-90277259D02*
X141004461Y-90277259D01*
X140283090Y-88922157D02*
X140403090Y-88922157D01*
X132122650Y-90877348D02*
X136722652Y-90877348D01*
X141483090Y-88922157D02*
X141603090Y-88922157D01*
X140043090Y-89921789D02*
X140043090Y-89162157D01*
X142203090Y-89800000D02*
X142894383Y-89800000D01*
%TO.N,Y7*%
X140628753Y-96407552D02*
G75*
G02*
X140388753Y-96647553I-239953J-48D01*
G01*
X140868753Y-96031000D02*
G75*
G03*
X140628800Y-96271000I47J-240000D01*
G01*
X140268753Y-96647552D02*
G75*
G02*
X140028848Y-96407552I47J239952D01*
G01*
X140028753Y-96271000D02*
G75*
G03*
X139788753Y-96031047I-239953J0D01*
G01*
X145540000Y-94880000D02*
X144389000Y-96031000D01*
X144389000Y-96031000D02*
X140868753Y-96031000D01*
X140388753Y-96647552D02*
X140268753Y-96647552D01*
X140028753Y-96407552D02*
X140028753Y-96271000D01*
X140628753Y-96271000D02*
X140628753Y-96407552D01*
X138631000Y-96031000D02*
X136977349Y-94377349D01*
X136977349Y-94377349D02*
X132122650Y-94377349D01*
X138631000Y-96031000D02*
X139788753Y-96031000D01*
%TO.N,Y3*%
X140745829Y-91377349D02*
G75*
G02*
X140505851Y-91137349I-29J239949D01*
G01*
X140145829Y-90506745D02*
G75*
G03*
X139905845Y-90746745I-29J-239955D01*
G01*
X140505829Y-90746745D02*
G75*
G03*
X140265829Y-90506671I-240029J45D01*
G01*
X139905829Y-91137349D02*
G75*
G02*
X139665829Y-91377429I-240029J-51D01*
G01*
X140265829Y-90506745D02*
X140145829Y-90506745D01*
X144389000Y-90951000D02*
X142523240Y-90951000D01*
X139905829Y-90746745D02*
X139905829Y-91137349D01*
X142096891Y-91377349D02*
X140745829Y-91377349D01*
X140505829Y-91137349D02*
X140505829Y-90746745D01*
X132122650Y-91377349D02*
X139665829Y-91377349D01*
X145540000Y-89800000D02*
X144389000Y-90951000D01*
X142523240Y-90951000D02*
X142096891Y-91377349D01*
%TO.N,Y4*%
X140956251Y-92814148D02*
G75*
G03*
X141196348Y-92574148I49J240048D01*
G01*
X139756251Y-92814151D02*
G75*
G03*
X139996251Y-92574151I49J239951D01*
G01*
X139396251Y-92574151D02*
G75*
G03*
X139636251Y-92814149I239949J-49D01*
G01*
X138196251Y-92574151D02*
G75*
G03*
X138436251Y-92814149I239949J-49D01*
G01*
X138796251Y-92117349D02*
G75*
G02*
X139036251Y-91877351I239949J49D01*
G01*
X141196251Y-92117349D02*
G75*
G02*
X141436251Y-91877351I239949J49D01*
G01*
X140356251Y-91877349D02*
G75*
G02*
X140596251Y-92117349I49J-239951D01*
G01*
X140596251Y-92574148D02*
G75*
G03*
X140836251Y-92814049I239949J48D01*
G01*
X139156251Y-91877349D02*
G75*
G02*
X139396251Y-92117349I49J-239951D01*
G01*
X138556251Y-92814151D02*
G75*
G03*
X138796251Y-92574151I49J239951D01*
G01*
X137956251Y-91877349D02*
G75*
G02*
X138196251Y-92117349I49J-239951D01*
G01*
X139996251Y-92117349D02*
G75*
G02*
X140236251Y-91877351I239949J49D01*
G01*
X132122650Y-91877349D02*
X137956251Y-91877349D01*
X138796251Y-92574151D02*
X138796251Y-92117349D01*
X139036251Y-91877349D02*
X139156251Y-91877349D01*
X138436251Y-92814151D02*
X138556251Y-92814151D01*
X139396251Y-92117349D02*
X139396251Y-92574151D01*
X140836251Y-92814148D02*
X140956251Y-92814148D01*
X140596251Y-92117349D02*
X140596251Y-92574148D01*
X141196251Y-92574148D02*
X141196251Y-92117349D01*
X140236251Y-91877349D02*
X140356251Y-91877349D01*
X142537349Y-91877349D02*
X143000000Y-92340000D01*
X139636251Y-92814151D02*
X139756251Y-92814151D01*
X138196251Y-92117349D02*
X138196251Y-92574151D01*
X139996251Y-92574151D02*
X139996251Y-92117349D01*
X141436251Y-91877349D02*
X142537349Y-91877349D01*
%TO.N,Y8*%
X141384967Y-97060000D02*
G75*
G03*
X141144967Y-96820033I-239967J0D01*
G01*
X139784967Y-97020000D02*
G75*
G03*
X139585000Y-97220000I33J-200000D01*
G01*
X141024967Y-96820000D02*
G75*
G03*
X140785000Y-97060000I33J-240000D01*
G01*
X137164821Y-95953077D02*
G75*
G03*
X137164871Y-96164773I105879J-105823D01*
G01*
X139584967Y-97220000D02*
G75*
G02*
X139384967Y-97419967I-199967J0D01*
G01*
X140424967Y-98370000D02*
G75*
G02*
X140185000Y-98130000I33J240000D01*
G01*
X141624967Y-97420000D02*
G75*
G02*
X141385000Y-97180000I33J240000D01*
G01*
X140184967Y-97220000D02*
G75*
G03*
X139984967Y-97020033I-199967J0D01*
G01*
X140784967Y-98130000D02*
G75*
G02*
X140544967Y-98369967I-239967J0D01*
G01*
X136528813Y-95528813D02*
G75*
G03*
X136740572Y-95528828I105887J105913D01*
G01*
X136740559Y-95528814D02*
G75*
G02*
X136952271Y-95528844I105841J-105886D01*
G01*
X137164821Y-95741331D02*
G75*
G02*
X137164817Y-95953073I-105821J-105869D01*
G01*
X140184967Y-98130000D02*
X140184967Y-97220000D01*
X137164822Y-96164823D02*
X138420000Y-97420000D01*
X139984967Y-97020000D02*
X139784967Y-97020000D01*
X135877350Y-94877350D02*
X136528813Y-95528813D01*
X141384967Y-97180000D02*
X141384967Y-97060000D01*
X132122650Y-94877350D02*
X135877350Y-94877350D01*
X141144967Y-96820000D02*
X141024967Y-96820000D01*
X140784967Y-97060000D02*
X140784967Y-98130000D01*
X138420000Y-97420000D02*
X139384967Y-97420000D01*
X141624967Y-97420000D02*
X143000000Y-97420000D01*
X136952303Y-95528813D02*
X137164821Y-95741331D01*
X140544967Y-98370000D02*
X140424967Y-98370000D01*
%TO.N,CVBS_VI_1_A*%
X107662500Y-83800000D02*
X119545300Y-83800000D01*
X119545300Y-83800000D02*
X120499998Y-84754698D01*
%TO.N,Net-(CVBS1-In)*%
X105937500Y-83800000D02*
X105937500Y-81812500D01*
X101500000Y-83800000D02*
X105725000Y-83800000D01*
X105937500Y-81812500D02*
X105925000Y-81800000D01*
%TO.N,XTAL2*%
X121450000Y-79800000D02*
X122999998Y-81349998D01*
X120207496Y-73762504D02*
X120170000Y-73800000D01*
X120170000Y-73800000D02*
X120170000Y-78520000D01*
X120170000Y-78520000D02*
X121450000Y-79800000D01*
X120207496Y-70200000D02*
X120207496Y-73762504D01*
X122999998Y-81349998D02*
X122999998Y-84754698D01*
%TO.N,XTAL1*%
X123500000Y-80100000D02*
X123500000Y-84754698D01*
X123200000Y-76800000D02*
X123200000Y-79800000D01*
X125050000Y-74950000D02*
X123200000Y-76800000D01*
X125050000Y-73800000D02*
X125050000Y-74950000D01*
X123200000Y-79800000D02*
X123500000Y-80100000D01*
X125050000Y-70600000D02*
X125050000Y-73800000D01*
D40*
%TO.N,D1.8VDD*%
X125499999Y-97299999D02*
X124800000Y-96600000D01*
X126999998Y-84754698D02*
X126999998Y-86299998D01*
D38*
X132262500Y-97200000D02*
X132262500Y-96517200D01*
D40*
X132122650Y-89377348D02*
X130222652Y-89377348D01*
D38*
X124800000Y-96600000D02*
X124875000Y-96600000D01*
D40*
X125499999Y-98500000D02*
X125499999Y-97299999D01*
X130222652Y-89377348D02*
X130200000Y-89400000D01*
X126999998Y-86299998D02*
X127500000Y-86800000D01*
D38*
X132262500Y-96517200D02*
X132122650Y-96377350D01*
%TO.N,A3.3VDD*%
X117000000Y-89000000D02*
X117122651Y-88877349D01*
X116500000Y-89000000D02*
X117000000Y-89000000D01*
X117122651Y-88877349D02*
X118377348Y-88877349D01*
X116000000Y-88500000D02*
X116500000Y-89000000D01*
X116000000Y-87018350D02*
X117358998Y-88377348D01*
X116000000Y-86000000D02*
X116000000Y-87018350D01*
X117358998Y-88377348D02*
X118377348Y-88377348D01*
D40*
%TO.N,A1.8VDD*%
X122499999Y-101000001D02*
X122499999Y-98500000D01*
X122499999Y-85720736D02*
X122499999Y-84754698D01*
X119639847Y-92377347D02*
X118377348Y-92377347D01*
X121499999Y-84754698D02*
X121499999Y-82499999D01*
X122000000Y-101500000D02*
X122499999Y-101000001D01*
X119800000Y-92537500D02*
X119639847Y-92377347D01*
X116000000Y-91200000D02*
X116677349Y-91877349D01*
X122807853Y-86028590D02*
X122499999Y-85720736D01*
X121499999Y-82499999D02*
X121400000Y-82400000D01*
X116677349Y-91877349D02*
X118377348Y-91877349D01*
D39*
%TO.N,+1.8V*%
X129200000Y-63737500D02*
X127637500Y-63737500D01*
X119250000Y-63600000D02*
X117000000Y-63600000D01*
X131737500Y-63737500D02*
X132200000Y-64200000D01*
X125550000Y-63600000D02*
X127500000Y-63600000D01*
X127637500Y-63737500D02*
X127500000Y-63600000D01*
X129200000Y-63737500D02*
X131737500Y-63737500D01*
D38*
%TO.N,IO3.3VDD*%
X130375000Y-84379698D02*
X130000000Y-84754698D01*
D39*
X122400000Y-106000000D02*
X123000000Y-106600000D01*
X124075000Y-104200000D02*
X124075000Y-103445825D01*
D38*
X130275000Y-100600000D02*
X130081649Y-100600000D01*
D40*
X133560151Y-92877349D02*
X132122650Y-92877349D01*
D38*
X130081649Y-100600000D02*
X128999999Y-99518350D01*
X128999999Y-99518350D02*
X128999999Y-98500000D01*
D39*
X124075000Y-103445825D02*
X124301000Y-103219825D01*
D38*
X131875000Y-84400000D02*
X130354698Y-84400000D01*
D40*
X133637500Y-92800000D02*
X133560151Y-92877349D01*
D38*
X130354698Y-84400000D02*
X130000000Y-84754698D01*
D39*
X122400000Y-105800000D02*
X122400000Y-106000000D01*
%TO.N,+3.3V*%
X127500000Y-61300000D02*
X125550000Y-61300000D01*
D38*
%TO.N,GND*%
X122337500Y-96600000D02*
X121675000Y-96600000D01*
X130200000Y-94600000D02*
X130200000Y-93281650D01*
X121499999Y-98500000D02*
X121499999Y-96775001D01*
X133522651Y-88877349D02*
X134000000Y-88400000D01*
X119277349Y-92877349D02*
X120000000Y-93600000D01*
X122999998Y-97262498D02*
X122337500Y-96600000D01*
X118377348Y-89377348D02*
X118377348Y-89877350D01*
D39*
X131000000Y-102500000D02*
X131000000Y-104125000D01*
D38*
X118454696Y-94800000D02*
X118377348Y-94877348D01*
X118377348Y-94377349D02*
X118377348Y-94877348D01*
X125925000Y-86762500D02*
X126499999Y-86187501D01*
X126000000Y-96600000D02*
X126200000Y-96400000D01*
X122712600Y-89877350D02*
X122887799Y-90052549D01*
D39*
X127400000Y-65900000D02*
X127500000Y-66000000D01*
D38*
X120635094Y-91377349D02*
X120885094Y-91627349D01*
X129499998Y-97499998D02*
X129499998Y-98500000D01*
X129400000Y-97000000D02*
X130522652Y-95877348D01*
X121999998Y-84754698D02*
X121999998Y-86600002D01*
X118377348Y-92877349D02*
X119277349Y-92877349D01*
D39*
X107675000Y-94900000D02*
X108800000Y-94900000D01*
D38*
X121000000Y-84754698D02*
X121000000Y-87037500D01*
X129000000Y-97000000D02*
X129499998Y-97499998D01*
X120885094Y-91627349D02*
X122887799Y-91627349D01*
X130200000Y-93281650D02*
X131104300Y-92377350D01*
X126000000Y-98500000D02*
X126000000Y-96600000D01*
X118399998Y-87400000D02*
X118377348Y-87377350D01*
X118377348Y-94877348D02*
X118377348Y-95377349D01*
X126499999Y-86187501D02*
X126499999Y-84754698D01*
X122999998Y-98500000D02*
X123500000Y-98500000D01*
X118377348Y-91377349D02*
X120635094Y-91377349D01*
X121499999Y-96775001D02*
X121675000Y-96600000D01*
X130526953Y-86800000D02*
X129499998Y-85773045D01*
X122562999Y-90377349D02*
X122887799Y-90052549D01*
X129499998Y-85773045D02*
X129499998Y-84754698D01*
D39*
X129200000Y-65462500D02*
X128037500Y-65462500D01*
D38*
X122999998Y-98500000D02*
X122999998Y-97262498D01*
X121999998Y-86600002D02*
X121800000Y-86800000D01*
X128200000Y-97000000D02*
X129000000Y-97000000D01*
X121499999Y-98500000D02*
X121999998Y-98500000D01*
D39*
X144800000Y-67800000D02*
X144800000Y-69000000D01*
D38*
X118377348Y-87377350D02*
X118377348Y-87877349D01*
X130522652Y-95877348D02*
X132122650Y-95877348D01*
X132122650Y-88877349D02*
X133522651Y-88877349D01*
X128200000Y-97000000D02*
X129400000Y-97000000D01*
X118377348Y-86877348D02*
X118377348Y-87377350D01*
D39*
X107675000Y-81800000D02*
X109000000Y-81800000D01*
D38*
X131104300Y-92377350D02*
X132122650Y-92377350D01*
X118377348Y-90877348D02*
X118377348Y-91377349D01*
D39*
X125550000Y-65900000D02*
X127400000Y-65900000D01*
X140200000Y-84400000D02*
X141400000Y-84400000D01*
D38*
X118377348Y-89877350D02*
X122712600Y-89877350D01*
D39*
X128037500Y-65462500D02*
X127500000Y-66000000D01*
%TD*%
%TA.AperFunction,Conductor*%
%TO.N,GND*%
G36*
X137743039Y-80819685D02*
G01*
X137788794Y-80872489D01*
X137800000Y-80924000D01*
X137800000Y-83457500D01*
X137780315Y-83524539D01*
X137741098Y-83563038D01*
X137714150Y-83579659D01*
X137592161Y-83701648D01*
X137501593Y-83848481D01*
X137501591Y-83848486D01*
X137474219Y-83931088D01*
X137447326Y-84012247D01*
X137447326Y-84012248D01*
X137447325Y-84012248D01*
X137437000Y-84113315D01*
X137437000Y-84686669D01*
X137437001Y-84686687D01*
X137447325Y-84787752D01*
X137483609Y-84897249D01*
X137493605Y-84927414D01*
X137501592Y-84951515D01*
X137501593Y-84951518D01*
X137524550Y-84988737D01*
X137592160Y-85098350D01*
X137714150Y-85220340D01*
X137741098Y-85236962D01*
X137787820Y-85288905D01*
X137800000Y-85342498D01*
X137800000Y-86535500D01*
X137780315Y-86602539D01*
X137727511Y-86648294D01*
X137676000Y-86659500D01*
X136676612Y-86659500D01*
X136676596Y-86659499D01*
X136669000Y-86659499D01*
X136510886Y-86659499D01*
X136403530Y-86688265D01*
X136358153Y-86700424D01*
X136358152Y-86700425D01*
X136308039Y-86729359D01*
X136308038Y-86729360D01*
X136277507Y-86746987D01*
X136221228Y-86779479D01*
X136221225Y-86779481D01*
X136109421Y-86891286D01*
X133760177Y-89240531D01*
X133733249Y-89255234D01*
X133707431Y-89271827D01*
X133701230Y-89272718D01*
X133698854Y-89274016D01*
X133672496Y-89276850D01*
X133520544Y-89276850D01*
X133453505Y-89257165D01*
X133407750Y-89204361D01*
X133397254Y-89166102D01*
X133393391Y-89130164D01*
X133343097Y-88995319D01*
X133343095Y-88995316D01*
X133310414Y-88951660D01*
X133285996Y-88886196D01*
X133300847Y-88817923D01*
X133310414Y-88803036D01*
X133343096Y-88759379D01*
X133393391Y-88624531D01*
X133399800Y-88564921D01*
X133399799Y-88189776D01*
X133399798Y-88189773D01*
X133399798Y-88189760D01*
X133394513Y-88140606D01*
X133394513Y-88114094D01*
X133399799Y-88064929D01*
X133399800Y-88064922D01*
X133399799Y-87689777D01*
X133399798Y-87689774D01*
X133399798Y-87689761D01*
X133394513Y-87640607D01*
X133394513Y-87614095D01*
X133395975Y-87600499D01*
X133399800Y-87564923D01*
X133399799Y-87189778D01*
X133394512Y-87140595D01*
X133394512Y-87114095D01*
X133399800Y-87064921D01*
X133399799Y-86689776D01*
X133393391Y-86630165D01*
X133383087Y-86602539D01*
X133343097Y-86495319D01*
X133343093Y-86495312D01*
X133256847Y-86380103D01*
X133256844Y-86380100D01*
X133141635Y-86293854D01*
X133141628Y-86293850D01*
X133006782Y-86243556D01*
X133006783Y-86243556D01*
X132947183Y-86237149D01*
X132947181Y-86237148D01*
X132947173Y-86237148D01*
X132947164Y-86237148D01*
X131298129Y-86237148D01*
X131298123Y-86237149D01*
X131238516Y-86243556D01*
X131103671Y-86293850D01*
X131103664Y-86293854D01*
X130988455Y-86380100D01*
X130988452Y-86380103D01*
X130902206Y-86495312D01*
X130902202Y-86495319D01*
X130860130Y-86608123D01*
X130851909Y-86630165D01*
X130845500Y-86689775D01*
X130845500Y-86689782D01*
X130845500Y-86689783D01*
X130845500Y-87064917D01*
X130845501Y-87064927D01*
X130850787Y-87114099D01*
X130850787Y-87140601D01*
X130845500Y-87189777D01*
X130845500Y-87189780D01*
X130845500Y-87189783D01*
X130845500Y-87564919D01*
X130845501Y-87564926D01*
X130850787Y-87614096D01*
X130850787Y-87640601D01*
X130845500Y-87689776D01*
X130845500Y-87689779D01*
X130845500Y-87689782D01*
X130845500Y-88064918D01*
X130845501Y-88064925D01*
X130850787Y-88114095D01*
X130850787Y-88140600D01*
X130845500Y-88189775D01*
X130845500Y-88189778D01*
X130845500Y-88189781D01*
X130845500Y-88564917D01*
X130845501Y-88564927D01*
X130848153Y-88589596D01*
X130845373Y-88605000D01*
X130847601Y-88620495D01*
X130839295Y-88638682D01*
X130835745Y-88658355D01*
X130825079Y-88669810D01*
X130818576Y-88684051D01*
X130801755Y-88694860D01*
X130788134Y-88709491D01*
X130772180Y-88713867D01*
X130759798Y-88721825D01*
X130724863Y-88726848D01*
X130671034Y-88726848D01*
X130603995Y-88707163D01*
X130602142Y-88705949D01*
X130579186Y-88690610D01*
X130579172Y-88690602D01*
X130433501Y-88630264D01*
X130433489Y-88630261D01*
X130278845Y-88599500D01*
X130278842Y-88599500D01*
X130121158Y-88599500D01*
X130121155Y-88599500D01*
X129966510Y-88630261D01*
X129966498Y-88630264D01*
X129820827Y-88690602D01*
X129820814Y-88690609D01*
X129689711Y-88778210D01*
X129689707Y-88778213D01*
X129578213Y-88889707D01*
X129578210Y-88889711D01*
X129490609Y-89020814D01*
X129490602Y-89020827D01*
X129430264Y-89166498D01*
X129430261Y-89166510D01*
X129399500Y-89321153D01*
X129399500Y-89478846D01*
X129430261Y-89633489D01*
X129430264Y-89633501D01*
X129490602Y-89779172D01*
X129490609Y-89779185D01*
X129578210Y-89910288D01*
X129578213Y-89910292D01*
X129689707Y-90021786D01*
X129689711Y-90021789D01*
X129820814Y-90109390D01*
X129820827Y-90109397D01*
X129964038Y-90168716D01*
X129966503Y-90169737D01*
X130121153Y-90200499D01*
X130121156Y-90200500D01*
X130121158Y-90200500D01*
X130278844Y-90200500D01*
X130278845Y-90200499D01*
X130433497Y-90169737D01*
X130579179Y-90109394D01*
X130579184Y-90109390D01*
X130579187Y-90109389D01*
X130612539Y-90087103D01*
X130654891Y-90058804D01*
X130721567Y-90037926D01*
X130788947Y-90056410D01*
X130835638Y-90108388D01*
X130847071Y-90175157D01*
X130845500Y-90189776D01*
X130845500Y-90189779D01*
X130845500Y-90564918D01*
X130845501Y-90564925D01*
X130850787Y-90614095D01*
X130850787Y-90640600D01*
X130845500Y-90689775D01*
X130845500Y-90689780D01*
X130845500Y-90689781D01*
X130845500Y-91064917D01*
X130845501Y-91064924D01*
X130850787Y-91114095D01*
X130850787Y-91140601D01*
X130850253Y-91145565D01*
X130845527Y-91189530D01*
X130845500Y-91189779D01*
X130845500Y-91564918D01*
X130845501Y-91564925D01*
X130850787Y-91614095D01*
X130850787Y-91640601D01*
X130845500Y-91689779D01*
X130845500Y-92064918D01*
X130845501Y-92064925D01*
X130851908Y-92124532D01*
X130902202Y-92259377D01*
X130902206Y-92259383D01*
X130934886Y-92303039D01*
X130959303Y-92368503D01*
X130944451Y-92436776D01*
X130934886Y-92451659D01*
X130902206Y-92495314D01*
X130902202Y-92495320D01*
X130851910Y-92630162D01*
X130851909Y-92630166D01*
X130845500Y-92689776D01*
X130845500Y-92689783D01*
X130845500Y-92689784D01*
X130845500Y-93064918D01*
X130845501Y-93064925D01*
X130850787Y-93114095D01*
X130850787Y-93140600D01*
X130845500Y-93189775D01*
X130845500Y-93189780D01*
X130845500Y-93189781D01*
X130845500Y-93564917D01*
X130845501Y-93564927D01*
X130850787Y-93614099D01*
X130850787Y-93640601D01*
X130845500Y-93689777D01*
X130845500Y-93689780D01*
X130845500Y-93689783D01*
X130845500Y-94064919D01*
X130845501Y-94064926D01*
X130850787Y-94114096D01*
X130850787Y-94140601D01*
X130845500Y-94189776D01*
X130845500Y-94189781D01*
X130845500Y-94189782D01*
X130845500Y-94564918D01*
X130845501Y-94564925D01*
X130850787Y-94614096D01*
X130850787Y-94640602D01*
X130845500Y-94689780D01*
X130845500Y-95064919D01*
X130845501Y-95064926D01*
X130850787Y-95114096D01*
X130850787Y-95140601D01*
X130845500Y-95189776D01*
X130845500Y-95189781D01*
X130845500Y-95189782D01*
X130845500Y-95564918D01*
X130845501Y-95564925D01*
X130851908Y-95624532D01*
X130902202Y-95759377D01*
X130902206Y-95759383D01*
X130934886Y-95803039D01*
X130959303Y-95868503D01*
X130944451Y-95936776D01*
X130934887Y-95951659D01*
X130902203Y-95995319D01*
X130902202Y-95995321D01*
X130854011Y-96124531D01*
X130851909Y-96130167D01*
X130845500Y-96189777D01*
X130845500Y-96189783D01*
X130845500Y-96189785D01*
X130845500Y-96564919D01*
X130845501Y-96564926D01*
X130851908Y-96624533D01*
X130902202Y-96759378D01*
X130902206Y-96759385D01*
X130988452Y-96874594D01*
X130988455Y-96874597D01*
X131103664Y-96960843D01*
X131103671Y-96960847D01*
X131148618Y-96977611D01*
X131238517Y-97011141D01*
X131298127Y-97017550D01*
X131337999Y-97017549D01*
X131405037Y-97037232D01*
X131450793Y-97090035D01*
X131462000Y-97141549D01*
X131462000Y-97278846D01*
X131492761Y-97433489D01*
X131492764Y-97433501D01*
X131553102Y-97579172D01*
X131553109Y-97579185D01*
X131640710Y-97710288D01*
X131640713Y-97710292D01*
X131752207Y-97821786D01*
X131752211Y-97821789D01*
X131883314Y-97909390D01*
X131883327Y-97909397D01*
X131969562Y-97945116D01*
X132029003Y-97969737D01*
X132183653Y-98000499D01*
X132183656Y-98000500D01*
X132183658Y-98000500D01*
X132341344Y-98000500D01*
X132341345Y-98000499D01*
X132495997Y-97969737D01*
X132641679Y-97909394D01*
X132772789Y-97821789D01*
X132884289Y-97710289D01*
X132971894Y-97579179D01*
X133032237Y-97433497D01*
X133063000Y-97278842D01*
X133063000Y-97121158D01*
X133059332Y-97102718D01*
X133065559Y-97033126D01*
X133108421Y-96977948D01*
X133137620Y-96962341D01*
X133141631Y-96960846D01*
X133256846Y-96874596D01*
X133343096Y-96759381D01*
X133393391Y-96624533D01*
X133399800Y-96564923D01*
X133399799Y-96189778D01*
X133393391Y-96130167D01*
X133392562Y-96122454D01*
X133393868Y-96122313D01*
X133397180Y-96060591D01*
X133438049Y-96003921D01*
X133503068Y-95978342D01*
X133514115Y-95977849D01*
X133877252Y-95977849D01*
X133944291Y-95997534D01*
X133964933Y-96014168D01*
X137115139Y-99164374D01*
X137115149Y-99164385D01*
X137119479Y-99168715D01*
X137119480Y-99168716D01*
X137231284Y-99280520D01*
X137231286Y-99280521D01*
X137231290Y-99280524D01*
X137307498Y-99324522D01*
X137368216Y-99359577D01*
X137480019Y-99389534D01*
X137520942Y-99400500D01*
X137520943Y-99400500D01*
X137680128Y-99400500D01*
X137684241Y-99400774D01*
X137713320Y-99411458D01*
X137743039Y-99420185D01*
X137745826Y-99423402D01*
X137749824Y-99424871D01*
X137768514Y-99449584D01*
X137788794Y-99472989D01*
X137789835Y-99477778D01*
X137791969Y-99480599D01*
X137792792Y-99491366D01*
X137800000Y-99524500D01*
X137800000Y-102476000D01*
X137780315Y-102543039D01*
X137727511Y-102588794D01*
X137676000Y-102600000D01*
X134524500Y-102600000D01*
X134457461Y-102580315D01*
X134411706Y-102527511D01*
X134400500Y-102476000D01*
X134400500Y-102389060D01*
X134400501Y-102389047D01*
X134400501Y-102220944D01*
X134359576Y-102068214D01*
X134359573Y-102068209D01*
X134280524Y-101931290D01*
X134280518Y-101931282D01*
X130676518Y-98327282D01*
X130643033Y-98265959D01*
X130640199Y-98239601D01*
X130640199Y-97675479D01*
X130640198Y-97675473D01*
X130640197Y-97675466D01*
X130633791Y-97615867D01*
X130632690Y-97612916D01*
X130583497Y-97481021D01*
X130583493Y-97481014D01*
X130497247Y-97365805D01*
X130497244Y-97365802D01*
X130382035Y-97279556D01*
X130382028Y-97279552D01*
X130247186Y-97229260D01*
X130247185Y-97229259D01*
X130247183Y-97229259D01*
X130187573Y-97222850D01*
X130187563Y-97222850D01*
X129812430Y-97222850D01*
X129812423Y-97222851D01*
X129752816Y-97229258D01*
X129617971Y-97279552D01*
X129617969Y-97279553D01*
X129574309Y-97312237D01*
X129508844Y-97336653D01*
X129440571Y-97321801D01*
X129425689Y-97312236D01*
X129382033Y-97279556D01*
X129382027Y-97279552D01*
X129247185Y-97229260D01*
X129247184Y-97229259D01*
X129247182Y-97229259D01*
X129187572Y-97222850D01*
X129187562Y-97222850D01*
X128812429Y-97222850D01*
X128812424Y-97222851D01*
X128779596Y-97226380D01*
X128763254Y-97228137D01*
X128736748Y-97228137D01*
X128732259Y-97227654D01*
X128687573Y-97222850D01*
X128687566Y-97222850D01*
X128312430Y-97222850D01*
X128312423Y-97222851D01*
X128263251Y-97228137D01*
X128236746Y-97228137D01*
X128187572Y-97222850D01*
X128187564Y-97222850D01*
X127812429Y-97222850D01*
X127812424Y-97222851D01*
X127779596Y-97226380D01*
X127763254Y-97228137D01*
X127736748Y-97228137D01*
X127732259Y-97227654D01*
X127687573Y-97222850D01*
X127687566Y-97222850D01*
X127312430Y-97222850D01*
X127312420Y-97222851D01*
X127263248Y-97228137D01*
X127236745Y-97228137D01*
X127187571Y-97222850D01*
X127187562Y-97222850D01*
X126812428Y-97222850D01*
X126812423Y-97222851D01*
X126779595Y-97226380D01*
X126763253Y-97228137D01*
X126736747Y-97228137D01*
X126732258Y-97227654D01*
X126687572Y-97222850D01*
X126687565Y-97222850D01*
X126312429Y-97222850D01*
X126312422Y-97222851D01*
X126264088Y-97228047D01*
X126195329Y-97215640D01*
X126144192Y-97168029D01*
X126137016Y-97153964D01*
X126131789Y-97141875D01*
X126125500Y-97110255D01*
X126076464Y-96991872D01*
X126055733Y-96960846D01*
X126005276Y-96885330D01*
X126005274Y-96885328D01*
X126005272Y-96885325D01*
X126005271Y-96885324D01*
X125617014Y-96497068D01*
X125583529Y-96435745D01*
X125583105Y-96433714D01*
X125569737Y-96366503D01*
X125545599Y-96308230D01*
X125509397Y-96220827D01*
X125509390Y-96220814D01*
X125421789Y-96089711D01*
X125421786Y-96089707D01*
X125310292Y-95978213D01*
X125310288Y-95978210D01*
X125179185Y-95890609D01*
X125179172Y-95890602D01*
X125033501Y-95830264D01*
X125033489Y-95830261D01*
X124878845Y-95799500D01*
X124878842Y-95799500D01*
X124721158Y-95799500D01*
X124721155Y-95799500D01*
X124566510Y-95830261D01*
X124566498Y-95830264D01*
X124420827Y-95890602D01*
X124420814Y-95890609D01*
X124289711Y-95978210D01*
X124289707Y-95978213D01*
X124178213Y-96089707D01*
X124178210Y-96089711D01*
X124090609Y-96220814D01*
X124090602Y-96220827D01*
X124030264Y-96366498D01*
X124030261Y-96366510D01*
X123999500Y-96521153D01*
X123999500Y-96678846D01*
X124030261Y-96833489D01*
X124030264Y-96833501D01*
X124090602Y-96979172D01*
X124090608Y-96979183D01*
X124124536Y-97029960D01*
X124145413Y-97096637D01*
X124126928Y-97164017D01*
X124074949Y-97210707D01*
X124021434Y-97222850D01*
X123812429Y-97222850D01*
X123812422Y-97222851D01*
X123752815Y-97229258D01*
X123617970Y-97279552D01*
X123617963Y-97279556D01*
X123502754Y-97365802D01*
X123502751Y-97365805D01*
X123416505Y-97481014D01*
X123416501Y-97481021D01*
X123366181Y-97615938D01*
X123324310Y-97671872D01*
X123258846Y-97696289D01*
X123190573Y-97681437D01*
X123141167Y-97632032D01*
X123133817Y-97615938D01*
X123083496Y-97481021D01*
X123083492Y-97481014D01*
X122997246Y-97365805D01*
X122997243Y-97365802D01*
X122882034Y-97279556D01*
X122882027Y-97279552D01*
X122747185Y-97229260D01*
X122747184Y-97229259D01*
X122747182Y-97229259D01*
X122687572Y-97222850D01*
X122687562Y-97222850D01*
X122312429Y-97222850D01*
X122312422Y-97222851D01*
X122252815Y-97229258D01*
X122117970Y-97279552D01*
X122117963Y-97279556D01*
X122002754Y-97365802D01*
X122002751Y-97365805D01*
X121916505Y-97481014D01*
X121916501Y-97481021D01*
X121866181Y-97615937D01*
X121824310Y-97671871D01*
X121758845Y-97696288D01*
X121690572Y-97681436D01*
X121641167Y-97632031D01*
X121633817Y-97615937D01*
X121583497Y-97481021D01*
X121583493Y-97481014D01*
X121497247Y-97365805D01*
X121497244Y-97365802D01*
X121382035Y-97279556D01*
X121382028Y-97279552D01*
X121247186Y-97229260D01*
X121247185Y-97229259D01*
X121247183Y-97229259D01*
X121187573Y-97222850D01*
X121187563Y-97222850D01*
X120812430Y-97222850D01*
X120812420Y-97222851D01*
X120763248Y-97228137D01*
X120736745Y-97228137D01*
X120687571Y-97222850D01*
X120687562Y-97222850D01*
X120312428Y-97222850D01*
X120312421Y-97222851D01*
X120252814Y-97229258D01*
X120117969Y-97279552D01*
X120117962Y-97279556D01*
X120002753Y-97365802D01*
X120002750Y-97365805D01*
X119916504Y-97481014D01*
X119916500Y-97481021D01*
X119866206Y-97615867D01*
X119859931Y-97674239D01*
X119859799Y-97675473D01*
X119859798Y-97675485D01*
X119859798Y-99324520D01*
X119859799Y-99324526D01*
X119866206Y-99384133D01*
X119916500Y-99518978D01*
X119916504Y-99518985D01*
X120002750Y-99634194D01*
X120002753Y-99634197D01*
X120117962Y-99720443D01*
X120117969Y-99720447D01*
X120162916Y-99737211D01*
X120252815Y-99770741D01*
X120312425Y-99777150D01*
X120687570Y-99777149D01*
X120736752Y-99771862D01*
X120763252Y-99771862D01*
X120812427Y-99777150D01*
X121187572Y-99777149D01*
X121247183Y-99770741D01*
X121382031Y-99720446D01*
X121497246Y-99634196D01*
X121583496Y-99518981D01*
X121597812Y-99480599D01*
X121609317Y-99449752D01*
X121651188Y-99393818D01*
X121716652Y-99369401D01*
X121784925Y-99384252D01*
X121834331Y-99433657D01*
X121849499Y-99493085D01*
X121849499Y-100613121D01*
X121829814Y-100680160D01*
X121777010Y-100725915D01*
X121772069Y-100727785D01*
X121772130Y-100727932D01*
X121620827Y-100790602D01*
X121620814Y-100790609D01*
X121489711Y-100878210D01*
X121489707Y-100878213D01*
X121378213Y-100989707D01*
X121378210Y-100989711D01*
X121290609Y-101120814D01*
X121290602Y-101120827D01*
X121230264Y-101266498D01*
X121230261Y-101266510D01*
X121199500Y-101421153D01*
X121199500Y-101578846D01*
X121230261Y-101733489D01*
X121230264Y-101733501D01*
X121290602Y-101879172D01*
X121290609Y-101879185D01*
X121378210Y-102010288D01*
X121378213Y-102010292D01*
X121489707Y-102121786D01*
X121489711Y-102121789D01*
X121620814Y-102209390D01*
X121620827Y-102209397D01*
X121766498Y-102269735D01*
X121766503Y-102269737D01*
X121921153Y-102300499D01*
X121921156Y-102300500D01*
X121921158Y-102300500D01*
X122078844Y-102300500D01*
X122078845Y-102300499D01*
X122233497Y-102269737D01*
X122379179Y-102209394D01*
X122510289Y-102121789D01*
X122621789Y-102010289D01*
X122709394Y-101879179D01*
X122769737Y-101733497D01*
X122783079Y-101666416D01*
X122815463Y-101604509D01*
X122816901Y-101603043D01*
X123005275Y-101414671D01*
X123076464Y-101308128D01*
X123125500Y-101189745D01*
X123139210Y-101120821D01*
X123150499Y-101064070D01*
X123150499Y-99493081D01*
X123154293Y-99480157D01*
X123153333Y-99466720D01*
X123163946Y-99447283D01*
X123170184Y-99426042D01*
X123180362Y-99417222D01*
X123186820Y-99405397D01*
X123206257Y-99394784D01*
X123222988Y-99380287D01*
X123236319Y-99378370D01*
X123248144Y-99371914D01*
X123270230Y-99373494D01*
X123292146Y-99370343D01*
X123304398Y-99375938D01*
X123317836Y-99376900D01*
X123335561Y-99390170D01*
X123355702Y-99399368D01*
X123364203Y-99411612D01*
X123373768Y-99418773D01*
X123390681Y-99449748D01*
X123391683Y-99452434D01*
X123399500Y-99495765D01*
X123399500Y-102224902D01*
X123379815Y-102291941D01*
X123363181Y-102312583D01*
X123112083Y-102563681D01*
X123050760Y-102597166D01*
X123024402Y-102600000D01*
X117251362Y-102600000D01*
X117184323Y-102580315D01*
X117163681Y-102563681D01*
X111036319Y-96436319D01*
X111002834Y-96374996D01*
X111000000Y-96348638D01*
X111000000Y-95689775D01*
X117100198Y-95689775D01*
X117100198Y-95689782D01*
X117100198Y-95689783D01*
X117100198Y-96064917D01*
X117100199Y-96064927D01*
X117105485Y-96114099D01*
X117105485Y-96140601D01*
X117100198Y-96189777D01*
X117100198Y-96189780D01*
X117100198Y-96189783D01*
X117100198Y-96564919D01*
X117100199Y-96564926D01*
X117106606Y-96624533D01*
X117156900Y-96759378D01*
X117156904Y-96759385D01*
X117243150Y-96874594D01*
X117243153Y-96874597D01*
X117358362Y-96960843D01*
X117358369Y-96960847D01*
X117493215Y-97011141D01*
X117493214Y-97011141D01*
X117500142Y-97011885D01*
X117552825Y-97017550D01*
X119201870Y-97017549D01*
X119261481Y-97011141D01*
X119396329Y-96960846D01*
X119511544Y-96874596D01*
X119597794Y-96759381D01*
X119648089Y-96624533D01*
X119654498Y-96564923D01*
X119654497Y-96189778D01*
X119649210Y-96140595D01*
X119649210Y-96114095D01*
X119654498Y-96064921D01*
X119654497Y-95689776D01*
X119648089Y-95630165D01*
X119623753Y-95564918D01*
X119597795Y-95495319D01*
X119597791Y-95495312D01*
X119511545Y-95380103D01*
X119511542Y-95380100D01*
X119396333Y-95293854D01*
X119396326Y-95293850D01*
X119261480Y-95243556D01*
X119261481Y-95243556D01*
X119201881Y-95237149D01*
X119201879Y-95237148D01*
X119201871Y-95237148D01*
X119201862Y-95237148D01*
X117552827Y-95237148D01*
X117552821Y-95237149D01*
X117493214Y-95243556D01*
X117358369Y-95293850D01*
X117358362Y-95293854D01*
X117243153Y-95380100D01*
X117243150Y-95380103D01*
X117156904Y-95495312D01*
X117156900Y-95495319D01*
X117106608Y-95630161D01*
X117106607Y-95630165D01*
X117100198Y-95689775D01*
X111000000Y-95689775D01*
X111000000Y-94825540D01*
X111019685Y-94758501D01*
X111036319Y-94737859D01*
X114760010Y-91014168D01*
X114786937Y-90999464D01*
X114812756Y-90982872D01*
X114818956Y-90981980D01*
X114821333Y-90980683D01*
X114847691Y-90977849D01*
X115076911Y-90977849D01*
X115143950Y-90997534D01*
X115189705Y-91050338D01*
X115199000Y-91114985D01*
X115200097Y-91115093D01*
X115199500Y-91121155D01*
X115199500Y-91278846D01*
X115230261Y-91433489D01*
X115230264Y-91433501D01*
X115290602Y-91579172D01*
X115290609Y-91579185D01*
X115378210Y-91710288D01*
X115378213Y-91710292D01*
X115489707Y-91821786D01*
X115489711Y-91821789D01*
X115620814Y-91909390D01*
X115620827Y-91909397D01*
X115708230Y-91945599D01*
X115766503Y-91969737D01*
X115833581Y-91983079D01*
X115895490Y-92015463D01*
X115897070Y-92017015D01*
X116172073Y-92292018D01*
X116248558Y-92368503D01*
X116262681Y-92382626D01*
X116369215Y-92453810D01*
X116369228Y-92453817D01*
X116449545Y-92487085D01*
X116503949Y-92530926D01*
X116526014Y-92597220D01*
X116508735Y-92664919D01*
X116457598Y-92712530D01*
X116449547Y-92716206D01*
X116420829Y-92728101D01*
X116420814Y-92728109D01*
X116289711Y-92815710D01*
X116289707Y-92815713D01*
X116178213Y-92927207D01*
X116178210Y-92927211D01*
X116090609Y-93058314D01*
X116090602Y-93058327D01*
X116030264Y-93203998D01*
X116030261Y-93204010D01*
X115999500Y-93358653D01*
X115999500Y-93516346D01*
X116030261Y-93670989D01*
X116030264Y-93671001D01*
X116090602Y-93816672D01*
X116090609Y-93816685D01*
X116178210Y-93947788D01*
X116178213Y-93947792D01*
X116289707Y-94059286D01*
X116289711Y-94059289D01*
X116420814Y-94146890D01*
X116420827Y-94146897D01*
X116566498Y-94207235D01*
X116566503Y-94207237D01*
X116721153Y-94237999D01*
X116721156Y-94238000D01*
X116721158Y-94238000D01*
X116878844Y-94238000D01*
X116944214Y-94224996D01*
X117030298Y-94207873D01*
X117099889Y-94214100D01*
X117153755Y-94255178D01*
X117243153Y-94374597D01*
X117358362Y-94460843D01*
X117358369Y-94460847D01*
X117493215Y-94511141D01*
X117493214Y-94511141D01*
X117500142Y-94511885D01*
X117552825Y-94517550D01*
X119201870Y-94517549D01*
X119261481Y-94511141D01*
X119396329Y-94460846D01*
X119511544Y-94374596D01*
X119597794Y-94259381D01*
X119648089Y-94124533D01*
X119654498Y-94064923D01*
X119654497Y-93689778D01*
X119649209Y-93640592D01*
X119648582Y-93622851D01*
X119648741Y-93618466D01*
X119654498Y-93564921D01*
X119654497Y-93459777D01*
X119654580Y-93457505D01*
X119664949Y-93426405D01*
X119674183Y-93394961D01*
X119675943Y-93393435D01*
X119676681Y-93391223D01*
X119702236Y-93370652D01*
X119726987Y-93349206D01*
X119729581Y-93348641D01*
X119731109Y-93347412D01*
X119739220Y-93346544D01*
X119778498Y-93338000D01*
X119878844Y-93338000D01*
X119878845Y-93337999D01*
X120033497Y-93307237D01*
X120179179Y-93246894D01*
X120310289Y-93159289D01*
X120421789Y-93047789D01*
X120509394Y-92916679D01*
X120569737Y-92770997D01*
X120600500Y-92616342D01*
X120600500Y-92458658D01*
X120600500Y-92458655D01*
X120600499Y-92458653D01*
X120584874Y-92380103D01*
X120569737Y-92304003D01*
X120551254Y-92259380D01*
X120509397Y-92158327D01*
X120509390Y-92158314D01*
X120421789Y-92027211D01*
X120421786Y-92027207D01*
X120310292Y-91915713D01*
X120310288Y-91915710D01*
X120179185Y-91828109D01*
X120179172Y-91828102D01*
X120033501Y-91767764D01*
X120033489Y-91767761D01*
X119878845Y-91737000D01*
X119878842Y-91737000D01*
X119770958Y-91737000D01*
X119703919Y-91717315D01*
X119658164Y-91664511D01*
X119650758Y-91637508D01*
X119649874Y-91637717D01*
X119648090Y-91630169D01*
X119597795Y-91495320D01*
X119597791Y-91495313D01*
X119511545Y-91380104D01*
X119511542Y-91380101D01*
X119396333Y-91293855D01*
X119396326Y-91293851D01*
X119261409Y-91243531D01*
X119244305Y-91230727D01*
X119224760Y-91222106D01*
X119216893Y-91210207D01*
X119205475Y-91201660D01*
X119198009Y-91181643D01*
X119186227Y-91163822D01*
X119186042Y-91149559D01*
X119181058Y-91136196D01*
X119185598Y-91115321D01*
X119185322Y-91093958D01*
X119192877Y-91081860D01*
X119195909Y-91067923D01*
X119211015Y-91052815D01*
X119222332Y-91034696D01*
X119239430Y-91024400D01*
X119245314Y-91018517D01*
X119251774Y-91015231D01*
X119260124Y-91011285D01*
X119261481Y-91011140D01*
X119396329Y-90960845D01*
X119446686Y-90923147D01*
X119458005Y-90917800D01*
X119480649Y-90914244D01*
X119502125Y-90906234D01*
X119514508Y-90908927D01*
X119527028Y-90906962D01*
X119547999Y-90916212D01*
X119570398Y-90921085D01*
X119579359Y-90930045D01*
X119590955Y-90935161D01*
X119603597Y-90954284D01*
X119619804Y-90970490D01*
X119629339Y-90993219D01*
X119629488Y-90993445D01*
X119629489Y-90993578D01*
X119629632Y-90993918D01*
X119630262Y-90995996D01*
X119690602Y-91141672D01*
X119690609Y-91141685D01*
X119778210Y-91272788D01*
X119778213Y-91272792D01*
X119889707Y-91384286D01*
X119889711Y-91384289D01*
X120020814Y-91471890D01*
X120020827Y-91471897D01*
X120166498Y-91532235D01*
X120166503Y-91532237D01*
X120321153Y-91562999D01*
X120321156Y-91563000D01*
X120321158Y-91563000D01*
X120478844Y-91563000D01*
X120478845Y-91562999D01*
X120633497Y-91532237D01*
X120779179Y-91471894D01*
X120910289Y-91384289D01*
X121021789Y-91272789D01*
X121109394Y-91141679D01*
X121169737Y-90995997D01*
X121200500Y-90841342D01*
X121200500Y-90683658D01*
X121200500Y-90683655D01*
X121200499Y-90683653D01*
X121169737Y-90529003D01*
X121116510Y-90400500D01*
X121109397Y-90383327D01*
X121109390Y-90383314D01*
X121021789Y-90252211D01*
X121021786Y-90252207D01*
X120910292Y-90140713D01*
X120910288Y-90140710D01*
X120779185Y-90053109D01*
X120779172Y-90053102D01*
X120633501Y-89992764D01*
X120633489Y-89992761D01*
X120478845Y-89962000D01*
X120478842Y-89962000D01*
X120321158Y-89962000D01*
X120321155Y-89962000D01*
X120166510Y-89992761D01*
X120166498Y-89992764D01*
X120020827Y-90053102D01*
X120020814Y-90053109D01*
X119889711Y-90140710D01*
X119889706Y-90140714D01*
X119853025Y-90177395D01*
X119791702Y-90210880D01*
X119722010Y-90205894D01*
X119666077Y-90164022D01*
X119649163Y-90133046D01*
X119640341Y-90109394D01*
X119597794Y-89995318D01*
X119597793Y-89995317D01*
X119597791Y-89995313D01*
X119511545Y-89880104D01*
X119511542Y-89880101D01*
X119396333Y-89793855D01*
X119396326Y-89793851D01*
X119261409Y-89743531D01*
X119205475Y-89701660D01*
X119181058Y-89636196D01*
X119195909Y-89567923D01*
X119245314Y-89518517D01*
X119261409Y-89511167D01*
X119348066Y-89478846D01*
X119396329Y-89460845D01*
X119511544Y-89374595D01*
X119597794Y-89259380D01*
X119648089Y-89124532D01*
X119654498Y-89064922D01*
X119654497Y-88689777D01*
X119649210Y-88640594D01*
X119649211Y-88614091D01*
X119650189Y-88605000D01*
X119654498Y-88564921D01*
X119654497Y-88189776D01*
X119648089Y-88130165D01*
X119647038Y-88127348D01*
X119597795Y-87995319D01*
X119597791Y-87995312D01*
X119511545Y-87880103D01*
X119511542Y-87880100D01*
X119396333Y-87793854D01*
X119396326Y-87793850D01*
X119261480Y-87743556D01*
X119261481Y-87743556D01*
X119201881Y-87737149D01*
X119201879Y-87737148D01*
X119201871Y-87737148D01*
X119201863Y-87737148D01*
X117619395Y-87737148D01*
X117552356Y-87717463D01*
X117531714Y-87700829D01*
X116636819Y-86805934D01*
X116622115Y-86779006D01*
X116605523Y-86753188D01*
X116604631Y-86746987D01*
X116603334Y-86744611D01*
X116600500Y-86718253D01*
X116600500Y-86579765D01*
X116620185Y-86512726D01*
X116621398Y-86510874D01*
X116709390Y-86379185D01*
X116709390Y-86379184D01*
X116709394Y-86379179D01*
X116769737Y-86233497D01*
X116800500Y-86078842D01*
X116800500Y-85921158D01*
X116800500Y-85921155D01*
X116800499Y-85921153D01*
X116771164Y-85773679D01*
X116769737Y-85766503D01*
X116716854Y-85638830D01*
X116709397Y-85620827D01*
X116709390Y-85620814D01*
X116621789Y-85489711D01*
X116621786Y-85489707D01*
X116510292Y-85378213D01*
X116510288Y-85378210D01*
X116379185Y-85290609D01*
X116379172Y-85290602D01*
X116233501Y-85230264D01*
X116233489Y-85230261D01*
X116078845Y-85199500D01*
X116078842Y-85199500D01*
X115921158Y-85199500D01*
X115921155Y-85199500D01*
X115766510Y-85230261D01*
X115766498Y-85230264D01*
X115620827Y-85290602D01*
X115620814Y-85290609D01*
X115489711Y-85378210D01*
X115489707Y-85378213D01*
X115378213Y-85489707D01*
X115378210Y-85489711D01*
X115290609Y-85620814D01*
X115290602Y-85620827D01*
X115230264Y-85766498D01*
X115230261Y-85766510D01*
X115199500Y-85921153D01*
X115199500Y-86078846D01*
X115230261Y-86233489D01*
X115230264Y-86233501D01*
X115290602Y-86379172D01*
X115290609Y-86379185D01*
X115378602Y-86510874D01*
X115399480Y-86577551D01*
X115399500Y-86579765D01*
X115399500Y-86931680D01*
X115399499Y-86931698D01*
X115399499Y-87097404D01*
X115399498Y-87097404D01*
X115399499Y-87097407D01*
X115440423Y-87250135D01*
X115465664Y-87293853D01*
X115519479Y-87387064D01*
X115519481Y-87387067D01*
X115638349Y-87505935D01*
X115638355Y-87505940D01*
X115703284Y-87570869D01*
X115736769Y-87632192D01*
X115731785Y-87701884D01*
X115689913Y-87757817D01*
X115663057Y-87773111D01*
X115620821Y-87790606D01*
X115620814Y-87790609D01*
X115489711Y-87878210D01*
X115489707Y-87878213D01*
X115378213Y-87989707D01*
X115378210Y-87989711D01*
X115290609Y-88120814D01*
X115290602Y-88120827D01*
X115230264Y-88266498D01*
X115230261Y-88266510D01*
X115199500Y-88421153D01*
X115199500Y-88578846D01*
X115230261Y-88733489D01*
X115230264Y-88733501D01*
X115290602Y-88879172D01*
X115290609Y-88879185D01*
X115378210Y-89010288D01*
X115378213Y-89010292D01*
X115489707Y-89121786D01*
X115489711Y-89121789D01*
X115620814Y-89209390D01*
X115620827Y-89209397D01*
X115741508Y-89259384D01*
X115766503Y-89269737D01*
X115921158Y-89300500D01*
X115921847Y-89300637D01*
X115983758Y-89333022D01*
X115985337Y-89334573D01*
X116131284Y-89480520D01*
X116243768Y-89545462D01*
X116291983Y-89596028D01*
X116305207Y-89664635D01*
X116279239Y-89729500D01*
X116222325Y-89770029D01*
X116181768Y-89776849D01*
X114626651Y-89776849D01*
X114468536Y-89776849D01*
X114459867Y-89779172D01*
X114459841Y-89779179D01*
X114315808Y-89817772D01*
X114315803Y-89817775D01*
X114178884Y-89896824D01*
X114178876Y-89896830D01*
X111211681Y-92864026D01*
X111150358Y-92897511D01*
X111080666Y-92892527D01*
X111024733Y-92850655D01*
X111000316Y-92785191D01*
X111000000Y-92776345D01*
X111000000Y-84524500D01*
X111019685Y-84457461D01*
X111072489Y-84411706D01*
X111124000Y-84400500D01*
X119245203Y-84400500D01*
X119312242Y-84420185D01*
X119332884Y-84436819D01*
X119823479Y-84927414D01*
X119856964Y-84988737D01*
X119859798Y-85015095D01*
X119859798Y-85579218D01*
X119859799Y-85579224D01*
X119866206Y-85638831D01*
X119916500Y-85773676D01*
X119916504Y-85773683D01*
X120002750Y-85888892D01*
X120002753Y-85888895D01*
X120117962Y-85975141D01*
X120117969Y-85975145D01*
X120150500Y-85987278D01*
X120252815Y-86025439D01*
X120312425Y-86031848D01*
X120687570Y-86031847D01*
X120747181Y-86025439D01*
X120882029Y-85975144D01*
X120925686Y-85942461D01*
X120991150Y-85918044D01*
X121059423Y-85932895D01*
X121074309Y-85942461D01*
X121117967Y-85975143D01*
X121117970Y-85975145D01*
X121150501Y-85987278D01*
X121252816Y-86025439D01*
X121312426Y-86031848D01*
X121687571Y-86031847D01*
X121747182Y-86025439D01*
X121794593Y-86007756D01*
X121823457Y-86005691D01*
X121851984Y-86000736D01*
X121857891Y-86003228D01*
X121864284Y-86002771D01*
X121889687Y-86016641D01*
X121916360Y-86027894D01*
X121922330Y-86034465D01*
X121925608Y-86036255D01*
X121940241Y-86053881D01*
X121940623Y-86054439D01*
X121994722Y-86135405D01*
X121998970Y-86139653D01*
X122005470Y-86149146D01*
X122012869Y-86171870D01*
X122024322Y-86192844D01*
X122024773Y-86195010D01*
X122038114Y-86262081D01*
X122038117Y-86262091D01*
X122098455Y-86407762D01*
X122098462Y-86407775D01*
X122186063Y-86538878D01*
X122186066Y-86538882D01*
X122297560Y-86650376D01*
X122297564Y-86650379D01*
X122428667Y-86737980D01*
X122428680Y-86737987D01*
X122528857Y-86779481D01*
X122574356Y-86798327D01*
X122729006Y-86829089D01*
X122729009Y-86829090D01*
X122729011Y-86829090D01*
X122886697Y-86829090D01*
X122886698Y-86829089D01*
X123041350Y-86798327D01*
X123187032Y-86737984D01*
X123318142Y-86650379D01*
X123429642Y-86538879D01*
X123517247Y-86407769D01*
X123571600Y-86276547D01*
X123615440Y-86222144D01*
X123681734Y-86200079D01*
X123686161Y-86200000D01*
X123800000Y-86200000D01*
X123800000Y-86155847D01*
X123819685Y-86088808D01*
X123872489Y-86043053D01*
X123923996Y-86031847D01*
X124187571Y-86031847D01*
X124187573Y-86031846D01*
X124187586Y-86031846D01*
X124224344Y-86027894D01*
X124236744Y-86026561D01*
X124263251Y-86026561D01*
X124312425Y-86031848D01*
X124687570Y-86031847D01*
X124687572Y-86031846D01*
X124687586Y-86031846D01*
X124727779Y-86027524D01*
X124736743Y-86026561D01*
X124763252Y-86026561D01*
X124812426Y-86031848D01*
X125187571Y-86031847D01*
X125187574Y-86031846D01*
X125187586Y-86031846D01*
X125224344Y-86027894D01*
X125236744Y-86026561D01*
X125263252Y-86026561D01*
X125312426Y-86031848D01*
X125687571Y-86031847D01*
X125687573Y-86031846D01*
X125687587Y-86031846D01*
X125727780Y-86027524D01*
X125736744Y-86026561D01*
X125763253Y-86026561D01*
X125812427Y-86031848D01*
X126187572Y-86031847D01*
X126187576Y-86031846D01*
X126187585Y-86031846D01*
X126205226Y-86029949D01*
X126212241Y-86029195D01*
X126281001Y-86041599D01*
X126332139Y-86089209D01*
X126349498Y-86152484D01*
X126349498Y-86364067D01*
X126365251Y-86443259D01*
X126374497Y-86489742D01*
X126406292Y-86566503D01*
X126423533Y-86608125D01*
X126485205Y-86700425D01*
X126494724Y-86714671D01*
X126494725Y-86714672D01*
X126682984Y-86902930D01*
X126716469Y-86964253D01*
X126716920Y-86966420D01*
X126730261Y-87033489D01*
X126730264Y-87033501D01*
X126790602Y-87179172D01*
X126790609Y-87179185D01*
X126878210Y-87310288D01*
X126878213Y-87310292D01*
X126989707Y-87421786D01*
X126989711Y-87421789D01*
X127120814Y-87509390D01*
X127120827Y-87509397D01*
X127254871Y-87564919D01*
X127266503Y-87569737D01*
X127421153Y-87600499D01*
X127421156Y-87600500D01*
X127421158Y-87600500D01*
X127578844Y-87600500D01*
X127578845Y-87600499D01*
X127733497Y-87569737D01*
X127879179Y-87509394D01*
X128010289Y-87421789D01*
X128121789Y-87310289D01*
X128209394Y-87179179D01*
X128269737Y-87033497D01*
X128300500Y-86878842D01*
X128300500Y-86721158D01*
X128300500Y-86721155D01*
X128300499Y-86721153D01*
X128296376Y-86700424D01*
X128269737Y-86566503D01*
X128258295Y-86538879D01*
X128209397Y-86420827D01*
X128209390Y-86420814D01*
X128121789Y-86289711D01*
X128121786Y-86289707D01*
X128075607Y-86243528D01*
X128066994Y-86227754D01*
X128054317Y-86215018D01*
X128050598Y-86197727D01*
X128042122Y-86182205D01*
X128043403Y-86164279D01*
X128039625Y-86146710D01*
X128045844Y-86130154D01*
X128047106Y-86112513D01*
X128057876Y-86098125D01*
X128064196Y-86081304D01*
X128078378Y-86070738D01*
X128088978Y-86056580D01*
X128105815Y-86050300D01*
X128120227Y-86039564D01*
X128147891Y-86034606D01*
X128154442Y-86032163D01*
X128154733Y-86032142D01*
X128158997Y-86031847D01*
X128187571Y-86031847D01*
X128239117Y-86026305D01*
X128241444Y-86026145D01*
X128243335Y-86026561D01*
X128263253Y-86026561D01*
X128312427Y-86031848D01*
X128687572Y-86031847D01*
X128687575Y-86031846D01*
X128687587Y-86031846D01*
X128724345Y-86027894D01*
X128736745Y-86026561D01*
X128763252Y-86026561D01*
X128812426Y-86031848D01*
X129187571Y-86031847D01*
X129247182Y-86025439D01*
X129382030Y-85975144D01*
X129425687Y-85942461D01*
X129491151Y-85918044D01*
X129559424Y-85932895D01*
X129574310Y-85942461D01*
X129617968Y-85975143D01*
X129617971Y-85975145D01*
X129650502Y-85987278D01*
X129752817Y-86025439D01*
X129812427Y-86031848D01*
X130187572Y-86031847D01*
X130247183Y-86025439D01*
X130382031Y-85975144D01*
X130497246Y-85888894D01*
X130583496Y-85773679D01*
X130633791Y-85638831D01*
X130640200Y-85579221D01*
X130640200Y-85124500D01*
X130659885Y-85057461D01*
X130712689Y-85011706D01*
X130764200Y-85000500D01*
X131295234Y-85000500D01*
X131362273Y-85020185D01*
X131364125Y-85021398D01*
X131495814Y-85109390D01*
X131495827Y-85109397D01*
X131641498Y-85169735D01*
X131641503Y-85169737D01*
X131791131Y-85199500D01*
X131796153Y-85200499D01*
X131796156Y-85200500D01*
X131796158Y-85200500D01*
X131953844Y-85200500D01*
X131953845Y-85200499D01*
X132108497Y-85169737D01*
X132254179Y-85109394D01*
X132385289Y-85021789D01*
X132496789Y-84910289D01*
X132584394Y-84779179D01*
X132644737Y-84633497D01*
X132675500Y-84478842D01*
X132675500Y-84321158D01*
X132675500Y-84321155D01*
X132675499Y-84321153D01*
X132644737Y-84166503D01*
X132622710Y-84113324D01*
X132584397Y-84020827D01*
X132584390Y-84020814D01*
X132496789Y-83889711D01*
X132496786Y-83889707D01*
X132385292Y-83778213D01*
X132385288Y-83778210D01*
X132254185Y-83690609D01*
X132254172Y-83690602D01*
X132108501Y-83630264D01*
X132108489Y-83630261D01*
X131953845Y-83599500D01*
X131953842Y-83599500D01*
X131796158Y-83599500D01*
X131796155Y-83599500D01*
X131641510Y-83630261D01*
X131641498Y-83630264D01*
X131495827Y-83690602D01*
X131495814Y-83690609D01*
X131364125Y-83778602D01*
X131297447Y-83799480D01*
X131295234Y-83799500D01*
X130691897Y-83799500D01*
X130624858Y-83779815D01*
X130589754Y-83742111D01*
X130588812Y-83742817D01*
X130497247Y-83620503D01*
X130497244Y-83620500D01*
X130382035Y-83534254D01*
X130382028Y-83534250D01*
X130247186Y-83483958D01*
X130247185Y-83483957D01*
X130247183Y-83483957D01*
X130187573Y-83477548D01*
X130187563Y-83477548D01*
X129812430Y-83477548D01*
X129812423Y-83477549D01*
X129752816Y-83483956D01*
X129617971Y-83534250D01*
X129617969Y-83534251D01*
X129574309Y-83566935D01*
X129508844Y-83591351D01*
X129440571Y-83576499D01*
X129425689Y-83566934D01*
X129382033Y-83534254D01*
X129382027Y-83534250D01*
X129247185Y-83483958D01*
X129247184Y-83483957D01*
X129247182Y-83483957D01*
X129187572Y-83477548D01*
X129187562Y-83477548D01*
X128812429Y-83477548D01*
X128812424Y-83477549D01*
X128779596Y-83481078D01*
X128763252Y-83482835D01*
X128743708Y-83483385D01*
X128740209Y-83483207D01*
X128687573Y-83477548D01*
X128628842Y-83477548D01*
X128625691Y-83477388D01*
X128595560Y-83466852D01*
X128564945Y-83457863D01*
X128562812Y-83455402D01*
X128559737Y-83454327D01*
X128540081Y-83429168D01*
X128519190Y-83405059D01*
X128518726Y-83401836D01*
X128516721Y-83399269D01*
X128513788Y-83367490D01*
X128509246Y-83335901D01*
X128510542Y-83332323D01*
X128510300Y-83329695D01*
X128514253Y-83322084D01*
X128526443Y-83288453D01*
X128610908Y-83151516D01*
X128665174Y-82987753D01*
X128675500Y-82886677D01*
X128675499Y-82313324D01*
X128665174Y-82212247D01*
X128610908Y-82048484D01*
X128610904Y-82048478D01*
X128610903Y-82048475D01*
X128582205Y-82001949D01*
X128563764Y-81934557D01*
X128584686Y-81867894D01*
X128600057Y-81849176D01*
X129612915Y-80836318D01*
X129674238Y-80802834D01*
X129700596Y-80800000D01*
X137676000Y-80800000D01*
X137743039Y-80819685D01*
G37*
%TD.AperFunction*%
%TA.AperFunction,Conductor*%
G36*
X129242307Y-100611133D02*
G01*
X129253337Y-100620923D01*
X129515646Y-100883232D01*
X129542526Y-100923460D01*
X129565604Y-100979175D01*
X129565609Y-100979185D01*
X129653210Y-101110288D01*
X129653213Y-101110292D01*
X129764707Y-101221786D01*
X129764711Y-101221789D01*
X129895814Y-101309390D01*
X129895827Y-101309397D01*
X130041498Y-101369735D01*
X130041503Y-101369737D01*
X130196153Y-101400499D01*
X130196156Y-101400500D01*
X130196158Y-101400500D01*
X130353844Y-101400500D01*
X130353845Y-101400499D01*
X130508497Y-101369737D01*
X130654179Y-101309394D01*
X130785289Y-101221789D01*
X130896789Y-101110289D01*
X130984394Y-100979179D01*
X131044737Y-100833497D01*
X131065272Y-100730263D01*
X131072401Y-100694424D01*
X131104786Y-100632513D01*
X131165502Y-100597939D01*
X131235271Y-100601678D01*
X131281696Y-100630932D01*
X132229607Y-101578842D01*
X133039084Y-102388319D01*
X133072569Y-102449642D01*
X133067585Y-102519334D01*
X133025713Y-102575267D01*
X132960249Y-102599684D01*
X132951403Y-102600000D01*
X129086000Y-102600000D01*
X129018961Y-102580315D01*
X128973206Y-102527511D01*
X128962000Y-102476000D01*
X128962000Y-100846575D01*
X128966149Y-100831086D01*
X128965495Y-100817342D01*
X128978612Y-100784576D01*
X128980517Y-100781275D01*
X128980520Y-100781273D01*
X129058272Y-100646600D01*
X129108835Y-100598389D01*
X129177442Y-100585165D01*
X129242307Y-100611133D01*
G37*
%TD.AperFunction*%
%TA.AperFunction,Conductor*%
G36*
X112449491Y-80819685D02*
G01*
X112495246Y-80872489D01*
X112505190Y-80941647D01*
X112504925Y-80943398D01*
X112499500Y-80977649D01*
X112499500Y-81182351D01*
X112531522Y-81384534D01*
X112594781Y-81579223D01*
X112687715Y-81761613D01*
X112808028Y-81927213D01*
X112952786Y-82071971D01*
X113107749Y-82184556D01*
X113118390Y-82192287D01*
X113234607Y-82251503D01*
X113300776Y-82285218D01*
X113300778Y-82285218D01*
X113300781Y-82285220D01*
X113387239Y-82313312D01*
X113495465Y-82348477D01*
X113596557Y-82364488D01*
X113697648Y-82380500D01*
X113697649Y-82380500D01*
X113902351Y-82380500D01*
X113902352Y-82380500D01*
X114104534Y-82348477D01*
X114299219Y-82285220D01*
X114481610Y-82192287D01*
X114574590Y-82124732D01*
X114647213Y-82071971D01*
X114647215Y-82071968D01*
X114647219Y-82071966D01*
X114791966Y-81927219D01*
X114791968Y-81927215D01*
X114791971Y-81927213D01*
X114900224Y-81778213D01*
X114912287Y-81761610D01*
X115005220Y-81579219D01*
X115068477Y-81384534D01*
X115100500Y-81182352D01*
X115100500Y-80977648D01*
X115095075Y-80943397D01*
X115104029Y-80874105D01*
X115149025Y-80820653D01*
X115215777Y-80800013D01*
X115217548Y-80800000D01*
X121549403Y-80800000D01*
X121616442Y-80819685D01*
X121637084Y-80836319D01*
X122363179Y-81562414D01*
X122396664Y-81623737D01*
X122399498Y-81650095D01*
X122399498Y-82097805D01*
X122379813Y-82164844D01*
X122327009Y-82210599D01*
X122257851Y-82220543D01*
X122194295Y-82191518D01*
X122160937Y-82145257D01*
X122109397Y-82020827D01*
X122109390Y-82020814D01*
X122021789Y-81889711D01*
X122021786Y-81889707D01*
X121910292Y-81778213D01*
X121910288Y-81778210D01*
X121779185Y-81690609D01*
X121779172Y-81690602D01*
X121633501Y-81630264D01*
X121633489Y-81630261D01*
X121478845Y-81599500D01*
X121478842Y-81599500D01*
X121321158Y-81599500D01*
X121321155Y-81599500D01*
X121166510Y-81630261D01*
X121166498Y-81630264D01*
X121020827Y-81690602D01*
X121020814Y-81690609D01*
X120889711Y-81778210D01*
X120889707Y-81778213D01*
X120778213Y-81889707D01*
X120778210Y-81889711D01*
X120690609Y-82020814D01*
X120690602Y-82020827D01*
X120630264Y-82166498D01*
X120630261Y-82166510D01*
X120599500Y-82321153D01*
X120599500Y-82478846D01*
X120630261Y-82633489D01*
X120630264Y-82633501D01*
X120690602Y-82779172D01*
X120690609Y-82779185D01*
X120778210Y-82910288D01*
X120778213Y-82910292D01*
X120813179Y-82945257D01*
X120846665Y-83006579D01*
X120849499Y-83032939D01*
X120849499Y-83356911D01*
X120829814Y-83423950D01*
X120777010Y-83469705D01*
X120712247Y-83480201D01*
X120712172Y-83480193D01*
X120710376Y-83479999D01*
X120687571Y-83477548D01*
X120687565Y-83477548D01*
X120312428Y-83477548D01*
X120312421Y-83477549D01*
X120252816Y-83483956D01*
X120200510Y-83503465D01*
X120182726Y-83504736D01*
X120166025Y-83510966D01*
X120148604Y-83507176D01*
X120130819Y-83508448D01*
X120115171Y-83499903D01*
X120097752Y-83496114D01*
X120069498Y-83474963D01*
X120032890Y-83438355D01*
X120032888Y-83438352D01*
X119914017Y-83319481D01*
X119914016Y-83319480D01*
X119825223Y-83268216D01*
X119825222Y-83268215D01*
X119777083Y-83240422D01*
X119721181Y-83225443D01*
X119624357Y-83199499D01*
X119466243Y-83199499D01*
X119458647Y-83199499D01*
X119458631Y-83199500D01*
X111124000Y-83199500D01*
X111056961Y-83179815D01*
X111011206Y-83127011D01*
X111000000Y-83075500D01*
X111000000Y-80924000D01*
X111019685Y-80856961D01*
X111072489Y-80811206D01*
X111124000Y-80800000D01*
X112382452Y-80800000D01*
X112449491Y-80819685D01*
G37*
%TD.AperFunction*%
%TD*%
M02*
