%TF.GenerationSoftware,KiCad,Pcbnew,9.0.0*%
%TF.CreationDate,2025-03-16T19:50:11+02:00*%
%TF.ProjectId,TVP5147M1_decoder,54565035-3134-4374-9d31-5f6465636f64,rev?*%
%TF.SameCoordinates,Original*%
%TF.FileFunction,Paste,Top*%
%TF.FilePolarity,Positive*%
%FSLAX46Y46*%
G04 Gerber Fmt 4.6, Leading zero omitted, Abs format (unit mm)*
G04 Created by KiCad (PCBNEW 9.0.0) date 2025-03-16 19:50:11*
%MOMM*%
%LPD*%
G01*
G04 APERTURE LIST*
G04 Aperture macros list*
%AMRoundRect*
0 Rectangle with rounded corners*
0 $1 Rounding radius*
0 $2 $3 $4 $5 $6 $7 $8 $9 X,Y pos of 4 corners*
0 Add a 4 corners polygon primitive as box body*
4,1,4,$2,$3,$4,$5,$6,$7,$8,$9,$2,$3,0*
0 Add four circle primitives for the rounded corners*
1,1,$1+$1,$2,$3*
1,1,$1+$1,$4,$5*
1,1,$1+$1,$6,$7*
1,1,$1+$1,$8,$9*
0 Add four rect primitives between the rounded corners*
20,1,$1+$1,$2,$3,$4,$5,0*
20,1,$1+$1,$4,$5,$6,$7,0*
20,1,$1+$1,$6,$7,$8,$9,0*
20,1,$1+$1,$8,$9,$2,$3,0*%
G04 Aperture macros list end*
%ADD10C,0.000000*%
%ADD11RoundRect,0.237500X-0.300000X-0.237500X0.300000X-0.237500X0.300000X0.237500X-0.300000X0.237500X0*%
%ADD12RoundRect,0.237500X0.300000X0.237500X-0.300000X0.237500X-0.300000X-0.237500X0.300000X-0.237500X0*%
%ADD13R,0.279400X1.553299*%
%ADD14R,1.553299X0.279400*%
%ADD15RoundRect,0.237500X0.287500X0.237500X-0.287500X0.237500X-0.287500X-0.237500X0.287500X-0.237500X0*%
%ADD16RoundRect,0.237500X-0.287500X-0.237500X0.287500X-0.237500X0.287500X0.237500X-0.287500X0.237500X0*%
%ADD17RoundRect,0.237500X-0.237500X0.287500X-0.237500X-0.287500X0.237500X-0.287500X0.237500X0.287500X0*%
%ADD18RoundRect,0.237500X0.237500X-0.287500X0.237500X0.287500X-0.237500X0.287500X-0.237500X-0.287500X0*%
%ADD19RoundRect,0.375000X0.625000X0.375000X-0.625000X0.375000X-0.625000X-0.375000X0.625000X-0.375000X0*%
%ADD20RoundRect,0.500000X0.500000X1.400000X-0.500000X1.400000X-0.500000X-1.400000X0.500000X-1.400000X0*%
%ADD21RoundRect,0.237500X-0.237500X0.300000X-0.237500X-0.300000X0.237500X-0.300000X0.237500X0.300000X0*%
G04 APERTURE END LIST*
D10*
%TO.C,U2*%
G36*
X127512199Y-93443570D02*
G01*
X127512199Y-93748128D01*
X127370778Y-93889549D01*
X127066220Y-93889549D01*
X126924799Y-93748128D01*
X126924799Y-93443570D01*
X127066220Y-93302149D01*
X127370778Y-93302149D01*
X127512199Y-93443570D01*
G37*
G36*
X127512199Y-92656170D02*
G01*
X127512199Y-92960728D01*
X127370778Y-93102149D01*
X127066220Y-93102149D01*
X126924799Y-92960728D01*
X126924799Y-92656170D01*
X127066220Y-92514749D01*
X127370778Y-92514749D01*
X127512199Y-92656170D01*
G37*
G36*
X127512199Y-91868770D02*
G01*
X127512199Y-92173328D01*
X127370778Y-92314749D01*
X127066220Y-92314749D01*
X126924799Y-92173328D01*
X126924799Y-91868770D01*
X127066220Y-91727349D01*
X127370778Y-91727349D01*
X127512199Y-91868770D01*
G37*
G36*
X127512199Y-91081370D02*
G01*
X127512199Y-91385928D01*
X127370778Y-91527349D01*
X127066220Y-91527349D01*
X126924799Y-91385928D01*
X126924799Y-91081370D01*
X127066220Y-90939949D01*
X127370778Y-90939949D01*
X127512199Y-91081370D01*
G37*
G36*
X127512199Y-90293970D02*
G01*
X127512199Y-90598528D01*
X127370778Y-90739949D01*
X127066220Y-90739949D01*
X126924799Y-90598528D01*
X126924799Y-90293970D01*
X127066220Y-90152549D01*
X127370778Y-90152549D01*
X127512199Y-90293970D01*
G37*
G36*
X127512199Y-89506570D02*
G01*
X127512199Y-89811128D01*
X127370778Y-89952549D01*
X127066220Y-89952549D01*
X126924799Y-89811128D01*
X126924799Y-89506570D01*
X127066220Y-89365149D01*
X127370778Y-89365149D01*
X127512199Y-89506570D01*
G37*
G36*
X126724799Y-93443570D02*
G01*
X126724799Y-93748128D01*
X126583378Y-93889549D01*
X126278820Y-93889549D01*
X126137399Y-93748128D01*
X126137399Y-93443570D01*
X126278820Y-93302149D01*
X126583378Y-93302149D01*
X126724799Y-93443570D01*
G37*
G36*
X126724799Y-92656170D02*
G01*
X126724799Y-92960728D01*
X126583378Y-93102149D01*
X126278820Y-93102149D01*
X126137399Y-92960728D01*
X126137399Y-92656170D01*
X126278820Y-92514749D01*
X126583378Y-92514749D01*
X126724799Y-92656170D01*
G37*
G36*
X126724799Y-91868770D02*
G01*
X126724799Y-92173328D01*
X126583378Y-92314749D01*
X126278820Y-92314749D01*
X126137399Y-92173328D01*
X126137399Y-91868770D01*
X126278820Y-91727349D01*
X126583378Y-91727349D01*
X126724799Y-91868770D01*
G37*
G36*
X126724799Y-91081370D02*
G01*
X126724799Y-91385928D01*
X126583378Y-91527349D01*
X126278820Y-91527349D01*
X126137399Y-91385928D01*
X126137399Y-91081370D01*
X126278820Y-90939949D01*
X126583378Y-90939949D01*
X126724799Y-91081370D01*
G37*
G36*
X126724799Y-90293970D02*
G01*
X126724799Y-90598528D01*
X126583378Y-90739949D01*
X126278820Y-90739949D01*
X126137399Y-90598528D01*
X126137399Y-90293970D01*
X126278820Y-90152549D01*
X126583378Y-90152549D01*
X126724799Y-90293970D01*
G37*
G36*
X126724799Y-89506570D02*
G01*
X126724799Y-89811128D01*
X126583378Y-89952549D01*
X126278820Y-89952549D01*
X126137399Y-89811128D01*
X126137399Y-89506570D01*
X126278820Y-89365149D01*
X126583378Y-89365149D01*
X126724799Y-89506570D01*
G37*
G36*
X125937399Y-93443570D02*
G01*
X125937399Y-93748128D01*
X125795978Y-93889549D01*
X125491420Y-93889549D01*
X125349999Y-93748128D01*
X125349999Y-93443570D01*
X125491420Y-93302149D01*
X125795978Y-93302149D01*
X125937399Y-93443570D01*
G37*
G36*
X125937399Y-92656170D02*
G01*
X125937399Y-92960728D01*
X125795978Y-93102149D01*
X125491420Y-93102149D01*
X125349999Y-92960728D01*
X125349999Y-92656170D01*
X125491420Y-92514749D01*
X125795978Y-92514749D01*
X125937399Y-92656170D01*
G37*
G36*
X125937399Y-91868770D02*
G01*
X125937399Y-92173328D01*
X125795978Y-92314749D01*
X125491420Y-92314749D01*
X125349999Y-92173328D01*
X125349999Y-91868770D01*
X125491420Y-91727349D01*
X125795978Y-91727349D01*
X125937399Y-91868770D01*
G37*
G36*
X125937399Y-91081370D02*
G01*
X125937399Y-91385928D01*
X125795978Y-91527349D01*
X125491420Y-91527349D01*
X125349999Y-91385928D01*
X125349999Y-91081370D01*
X125491420Y-90939949D01*
X125795978Y-90939949D01*
X125937399Y-91081370D01*
G37*
G36*
X125937399Y-90293970D02*
G01*
X125937399Y-90598528D01*
X125795978Y-90739949D01*
X125491420Y-90739949D01*
X125349999Y-90598528D01*
X125349999Y-90293970D01*
X125491420Y-90152549D01*
X125795978Y-90152549D01*
X125937399Y-90293970D01*
G37*
G36*
X125937399Y-89506570D02*
G01*
X125937399Y-89811128D01*
X125795978Y-89952549D01*
X125491420Y-89952549D01*
X125349999Y-89811128D01*
X125349999Y-89506570D01*
X125491420Y-89365149D01*
X125795978Y-89365149D01*
X125937399Y-89506570D01*
G37*
G36*
X125149999Y-93443570D02*
G01*
X125149999Y-93748128D01*
X125008578Y-93889549D01*
X124704020Y-93889549D01*
X124562599Y-93748128D01*
X124562599Y-93443570D01*
X124704020Y-93302149D01*
X125008578Y-93302149D01*
X125149999Y-93443570D01*
G37*
G36*
X125149999Y-92656170D02*
G01*
X125149999Y-92960728D01*
X125008578Y-93102149D01*
X124704020Y-93102149D01*
X124562599Y-92960728D01*
X124562599Y-92656170D01*
X124704020Y-92514749D01*
X125008578Y-92514749D01*
X125149999Y-92656170D01*
G37*
G36*
X125149999Y-91868770D02*
G01*
X125149999Y-92173328D01*
X125008578Y-92314749D01*
X124704020Y-92314749D01*
X124562599Y-92173328D01*
X124562599Y-91868770D01*
X124704020Y-91727349D01*
X125008578Y-91727349D01*
X125149999Y-91868770D01*
G37*
G36*
X125149999Y-91081370D02*
G01*
X125149999Y-91385928D01*
X125008578Y-91527349D01*
X124704020Y-91527349D01*
X124562599Y-91385928D01*
X124562599Y-91081370D01*
X124704020Y-90939949D01*
X125008578Y-90939949D01*
X125149999Y-91081370D01*
G37*
G36*
X125149999Y-90293970D02*
G01*
X125149999Y-90598528D01*
X125008578Y-90739949D01*
X124704020Y-90739949D01*
X124562599Y-90598528D01*
X124562599Y-90293970D01*
X124704020Y-90152549D01*
X125008578Y-90152549D01*
X125149999Y-90293970D01*
G37*
G36*
X125149999Y-89506570D02*
G01*
X125149999Y-89811128D01*
X125008578Y-89952549D01*
X124704020Y-89952549D01*
X124562599Y-89811128D01*
X124562599Y-89506570D01*
X124704020Y-89365149D01*
X125008578Y-89365149D01*
X125149999Y-89506570D01*
G37*
G36*
X124362599Y-93443570D02*
G01*
X124362599Y-93748128D01*
X124221178Y-93889549D01*
X123916620Y-93889549D01*
X123775199Y-93748128D01*
X123775199Y-93443570D01*
X123916620Y-93302149D01*
X124221178Y-93302149D01*
X124362599Y-93443570D01*
G37*
G36*
X124362599Y-92656170D02*
G01*
X124362599Y-92960728D01*
X124221178Y-93102149D01*
X123916620Y-93102149D01*
X123775199Y-92960728D01*
X123775199Y-92656170D01*
X123916620Y-92514749D01*
X124221178Y-92514749D01*
X124362599Y-92656170D01*
G37*
G36*
X124362599Y-91868770D02*
G01*
X124362599Y-92173328D01*
X124221178Y-92314749D01*
X123916620Y-92314749D01*
X123775199Y-92173328D01*
X123775199Y-91868770D01*
X123916620Y-91727349D01*
X124221178Y-91727349D01*
X124362599Y-91868770D01*
G37*
G36*
X124362599Y-91081370D02*
G01*
X124362599Y-91385928D01*
X124221178Y-91527349D01*
X123916620Y-91527349D01*
X123775199Y-91385928D01*
X123775199Y-91081370D01*
X123916620Y-90939949D01*
X124221178Y-90939949D01*
X124362599Y-91081370D01*
G37*
G36*
X124362599Y-90293970D02*
G01*
X124362599Y-90598528D01*
X124221178Y-90739949D01*
X123916620Y-90739949D01*
X123775199Y-90598528D01*
X123775199Y-90293970D01*
X123916620Y-90152549D01*
X124221178Y-90152549D01*
X124362599Y-90293970D01*
G37*
G36*
X124362599Y-89506570D02*
G01*
X124362599Y-89811128D01*
X124221178Y-89952549D01*
X123916620Y-89952549D01*
X123775199Y-89811128D01*
X123775199Y-89506570D01*
X123916620Y-89365149D01*
X124221178Y-89365149D01*
X124362599Y-89506570D01*
G37*
G36*
X123575199Y-93443570D02*
G01*
X123575199Y-93748128D01*
X123433778Y-93889549D01*
X123129220Y-93889549D01*
X122987799Y-93748128D01*
X122987799Y-93443570D01*
X123129220Y-93302149D01*
X123433778Y-93302149D01*
X123575199Y-93443570D01*
G37*
G36*
X123575199Y-92656170D02*
G01*
X123575199Y-92960728D01*
X123433778Y-93102149D01*
X123129220Y-93102149D01*
X122987799Y-92960728D01*
X122987799Y-92656170D01*
X123129220Y-92514749D01*
X123433778Y-92514749D01*
X123575199Y-92656170D01*
G37*
G36*
X123575199Y-91868770D02*
G01*
X123575199Y-92173328D01*
X123433778Y-92314749D01*
X123129220Y-92314749D01*
X122987799Y-92173328D01*
X122987799Y-91868770D01*
X123129220Y-91727349D01*
X123433778Y-91727349D01*
X123575199Y-91868770D01*
G37*
G36*
X123575199Y-91081370D02*
G01*
X123575199Y-91385928D01*
X123433778Y-91527349D01*
X123129220Y-91527349D01*
X122987799Y-91385928D01*
X122987799Y-91081370D01*
X123129220Y-90939949D01*
X123433778Y-90939949D01*
X123575199Y-91081370D01*
G37*
G36*
X123575199Y-90293970D02*
G01*
X123575199Y-90598528D01*
X123433778Y-90739949D01*
X123129220Y-90739949D01*
X122987799Y-90598528D01*
X122987799Y-90293970D01*
X123129220Y-90152549D01*
X123433778Y-90152549D01*
X123575199Y-90293970D01*
G37*
G36*
X123575199Y-89506570D02*
G01*
X123575199Y-89811128D01*
X123433778Y-89952549D01*
X123129220Y-89952549D01*
X122987799Y-89811128D01*
X122987799Y-89506570D01*
X123129220Y-89365149D01*
X123433778Y-89365149D01*
X123575199Y-89506570D01*
G37*
G36*
X128286569Y-93889549D02*
G01*
X127853620Y-93889549D01*
X127712199Y-93748128D01*
X127712199Y-93443570D01*
X127853620Y-93302149D01*
X128286569Y-93302149D01*
X128286569Y-93889549D01*
G37*
G36*
X128286569Y-93102149D02*
G01*
X127853620Y-93102149D01*
X127712199Y-92960728D01*
X127712199Y-92656170D01*
X127853620Y-92514749D01*
X128286569Y-92514749D01*
X128286569Y-93102149D01*
G37*
G36*
X128286569Y-92314749D02*
G01*
X127853620Y-92314749D01*
X127712199Y-92173328D01*
X127712199Y-91868770D01*
X127853620Y-91727349D01*
X128286569Y-91727349D01*
X128286569Y-92314749D01*
G37*
G36*
X128286569Y-91527349D02*
G01*
X127853620Y-91527349D01*
X127712199Y-91385928D01*
X127712199Y-91081370D01*
X127853620Y-90939949D01*
X128286569Y-90939949D01*
X128286569Y-91527349D01*
G37*
G36*
X128286569Y-90739949D02*
G01*
X127853620Y-90739949D01*
X127712199Y-90598528D01*
X127712199Y-90293970D01*
X127853620Y-90152549D01*
X128286569Y-90152549D01*
X128286569Y-90739949D01*
G37*
G36*
X128286569Y-89952549D02*
G01*
X127853620Y-89952549D01*
X127712199Y-89811128D01*
X127712199Y-89506570D01*
X127853620Y-89365149D01*
X128286569Y-89365149D01*
X128286569Y-89952549D01*
G37*
G36*
X127512199Y-94230970D02*
G01*
X127512199Y-94663919D01*
X126924799Y-94663919D01*
X126924799Y-94230970D01*
X127066220Y-94089549D01*
X127370778Y-94089549D01*
X127512199Y-94230970D01*
G37*
G36*
X127512199Y-89023728D02*
G01*
X127370778Y-89165149D01*
X127066220Y-89165149D01*
X126924799Y-89023728D01*
X126924799Y-88590779D01*
X127512199Y-88590779D01*
X127512199Y-89023728D01*
G37*
G36*
X126724799Y-94230970D02*
G01*
X126724799Y-94663919D01*
X126137399Y-94663919D01*
X126137399Y-94230970D01*
X126278820Y-94089549D01*
X126583378Y-94089549D01*
X126724799Y-94230970D01*
G37*
G36*
X126724799Y-89023728D02*
G01*
X126583378Y-89165149D01*
X126278820Y-89165149D01*
X126137399Y-89023728D01*
X126137399Y-88590779D01*
X126724799Y-88590779D01*
X126724799Y-89023728D01*
G37*
G36*
X125937399Y-94230970D02*
G01*
X125937399Y-94663919D01*
X125349999Y-94663919D01*
X125349999Y-94230970D01*
X125491420Y-94089549D01*
X125795978Y-94089549D01*
X125937399Y-94230970D01*
G37*
G36*
X125937399Y-89023728D02*
G01*
X125795978Y-89165149D01*
X125491420Y-89165149D01*
X125349999Y-89023728D01*
X125349999Y-88590779D01*
X125937399Y-88590779D01*
X125937399Y-89023728D01*
G37*
G36*
X125149999Y-94230970D02*
G01*
X125149999Y-94663919D01*
X124562599Y-94663919D01*
X124562599Y-94230970D01*
X124704020Y-94089549D01*
X125008578Y-94089549D01*
X125149999Y-94230970D01*
G37*
G36*
X125149999Y-89023728D02*
G01*
X125008578Y-89165149D01*
X124704020Y-89165149D01*
X124562599Y-89023728D01*
X124562599Y-88590779D01*
X125149999Y-88590779D01*
X125149999Y-89023728D01*
G37*
G36*
X124362599Y-94230970D02*
G01*
X124362599Y-94663919D01*
X123775199Y-94663919D01*
X123775199Y-94230970D01*
X123916620Y-94089549D01*
X124221178Y-94089549D01*
X124362599Y-94230970D01*
G37*
G36*
X124362599Y-89023728D02*
G01*
X124221178Y-89165149D01*
X123916620Y-89165149D01*
X123775199Y-89023728D01*
X123775199Y-88590779D01*
X124362599Y-88590779D01*
X124362599Y-89023728D01*
G37*
G36*
X123575199Y-94230970D02*
G01*
X123575199Y-94663919D01*
X122987799Y-94663919D01*
X122987799Y-94230970D01*
X123129220Y-94089549D01*
X123433778Y-94089549D01*
X123575199Y-94230970D01*
G37*
G36*
X123575199Y-89023728D02*
G01*
X123433778Y-89165149D01*
X123129220Y-89165149D01*
X122987799Y-89023728D01*
X122987799Y-88590779D01*
X123575199Y-88590779D01*
X123575199Y-89023728D01*
G37*
G36*
X122787799Y-93443570D02*
G01*
X122787799Y-93748128D01*
X122646378Y-93889549D01*
X122213429Y-93889549D01*
X122213429Y-93302149D01*
X122646378Y-93302149D01*
X122787799Y-93443570D01*
G37*
G36*
X122787799Y-92656170D02*
G01*
X122787799Y-92960728D01*
X122646378Y-93102149D01*
X122213429Y-93102149D01*
X122213429Y-92514749D01*
X122646378Y-92514749D01*
X122787799Y-92656170D01*
G37*
G36*
X122787799Y-91868770D02*
G01*
X122787799Y-92173328D01*
X122646378Y-92314749D01*
X122213429Y-92314749D01*
X122213429Y-91727349D01*
X122646378Y-91727349D01*
X122787799Y-91868770D01*
G37*
G36*
X122787799Y-91081370D02*
G01*
X122787799Y-91385928D01*
X122646378Y-91527349D01*
X122213429Y-91527349D01*
X122213429Y-90939949D01*
X122646378Y-90939949D01*
X122787799Y-91081370D01*
G37*
G36*
X122787799Y-90293970D02*
G01*
X122787799Y-90598528D01*
X122646378Y-90739949D01*
X122213429Y-90739949D01*
X122213429Y-90152549D01*
X122646378Y-90152549D01*
X122787799Y-90293970D01*
G37*
G36*
X122787799Y-89506570D02*
G01*
X122787799Y-89811128D01*
X122646378Y-89952549D01*
X122213429Y-89952549D01*
X122213429Y-89365149D01*
X122646378Y-89365149D01*
X122787799Y-89506570D01*
G37*
G36*
X128286569Y-94663919D02*
G01*
X127712199Y-94663919D01*
X127712199Y-94230970D01*
X127853620Y-94089549D01*
X128286569Y-94089549D01*
X128286569Y-94663919D01*
G37*
G36*
X128286569Y-89165149D02*
G01*
X127853620Y-89165149D01*
X127712199Y-89023728D01*
X127712199Y-88590779D01*
X128286569Y-88590779D01*
X128286569Y-89165149D01*
G37*
G36*
X122787799Y-94230970D02*
G01*
X122787799Y-94663919D01*
X122213429Y-94663919D01*
X122213429Y-94089549D01*
X122646378Y-94089549D01*
X122787799Y-94230970D01*
G37*
G36*
X122787799Y-89023728D02*
G01*
X122646378Y-89165149D01*
X122213429Y-89165149D01*
X122213429Y-88590779D01*
X122787799Y-88590779D01*
X122787799Y-89023728D01*
G37*
%TD*%
D11*
%TO.C,C2*%
X138275000Y-69800000D03*
X140000000Y-69800000D03*
%TD*%
D12*
%TO.C,C37*%
X123547508Y-70200000D03*
X125272508Y-70200000D03*
%TD*%
D13*
%TO.C,U2*%
X120499998Y-84754698D03*
X121000000Y-84754698D03*
X121499999Y-84754698D03*
X121999998Y-84754698D03*
X122499999Y-84754698D03*
X122999998Y-84754698D03*
X123500000Y-84754698D03*
X123999999Y-84754698D03*
X124499998Y-84754698D03*
X124999999Y-84754698D03*
X125499999Y-84754698D03*
X126000000Y-84754698D03*
X126499999Y-84754698D03*
X126999998Y-84754698D03*
X127500000Y-84754698D03*
X127999999Y-84754698D03*
X128500000Y-84754698D03*
X128999999Y-84754698D03*
X129499998Y-84754698D03*
X130000000Y-84754698D03*
D14*
X132122650Y-86877348D03*
X132122650Y-87377350D03*
X132122650Y-87877349D03*
X132122650Y-88377348D03*
X132122650Y-88877349D03*
X132122650Y-89377348D03*
X132122650Y-89877350D03*
X132122650Y-90377349D03*
X132122650Y-90877348D03*
X132122650Y-91377349D03*
X132122650Y-91877349D03*
X132122650Y-92377350D03*
X132122650Y-92877349D03*
X132122650Y-93377348D03*
X132122650Y-93877350D03*
X132122650Y-94377349D03*
X132122650Y-94877350D03*
X132122650Y-95377349D03*
X132122650Y-95877348D03*
X132122650Y-96377350D03*
D13*
X130000000Y-98500000D03*
X129499998Y-98500000D03*
X128999999Y-98500000D03*
X128500000Y-98500000D03*
X127999999Y-98500000D03*
X127500000Y-98500000D03*
X126999998Y-98500000D03*
X126499999Y-98500000D03*
X126000000Y-98500000D03*
X125499999Y-98500000D03*
X124999999Y-98500000D03*
X124499998Y-98500000D03*
X123999999Y-98500000D03*
X123500000Y-98500000D03*
X122999998Y-98500000D03*
X122499999Y-98500000D03*
X121999998Y-98500000D03*
X121499999Y-98500000D03*
X121000000Y-98500000D03*
X120499998Y-98500000D03*
D14*
X118377348Y-96377350D03*
X118377348Y-95877348D03*
X118377348Y-95377349D03*
X118377348Y-94877348D03*
X118377348Y-94377349D03*
X118377348Y-93877350D03*
X118377348Y-93377348D03*
X118377348Y-92877349D03*
X118377348Y-92377347D03*
X118377348Y-91877349D03*
X118377348Y-91377349D03*
X118377348Y-90877348D03*
X118377348Y-90377349D03*
X118377348Y-89877350D03*
X118377348Y-89377348D03*
X118377348Y-88877349D03*
X118377348Y-88377348D03*
X118377348Y-87877349D03*
X118377348Y-87377350D03*
X118377348Y-86877348D03*
%TD*%
D15*
%TO.C,R15*%
X121450000Y-79800000D03*
X123200000Y-79800000D03*
%TD*%
D11*
%TO.C,C7*%
X140200000Y-84400000D03*
X138475000Y-84400000D03*
%TD*%
D16*
%TO.C,R6*%
X144800000Y-67800000D03*
X143050000Y-67800000D03*
%TD*%
D17*
%TO.C,RB8*%
X131000000Y-105875000D03*
X131000000Y-104125000D03*
%TD*%
D15*
%TO.C,R1*%
X122325000Y-104200000D03*
X124075000Y-104200000D03*
%TD*%
D16*
%TO.C,R5*%
X107675000Y-81800000D03*
X105925000Y-81800000D03*
%TD*%
D18*
%TO.C,R4*%
X134000000Y-79750000D03*
X134000000Y-81500000D03*
%TD*%
D16*
%TO.C,R8*%
X107675000Y-94900000D03*
X105925000Y-94900000D03*
%TD*%
D19*
%TO.C,U1*%
X125550000Y-61300000D03*
D20*
X119250000Y-63600000D03*
D19*
X125550000Y-63600000D03*
X125550000Y-65900000D03*
%TD*%
D12*
%TO.C,C30*%
X105937500Y-96600000D03*
X107662500Y-96600000D03*
%TD*%
D15*
%TO.C,R3*%
X127650000Y-82600000D03*
X129400000Y-82600000D03*
%TD*%
D16*
%TO.C,R2*%
X124150000Y-105800000D03*
X122400000Y-105800000D03*
%TD*%
D21*
%TO.C,C4*%
X129200000Y-65462500D03*
X129200000Y-63737500D03*
%TD*%
D12*
%TO.C,C27*%
X105937500Y-83800000D03*
X107662500Y-83800000D03*
%TD*%
D11*
%TO.C,C38*%
X121892504Y-70200000D03*
X120167504Y-70200000D03*
%TD*%
M02*
