%TF.GenerationSoftware,KiCad,Pcbnew,9.0.0*%
%TF.CreationDate,2025-03-16T19:50:11+02:00*%
%TF.ProjectId,TVP5147M1_decoder,54565035-3134-4374-9d31-5f6465636f64,rev?*%
%TF.SameCoordinates,Original*%
%TF.FileFunction,Soldermask,Top*%
%TF.FilePolarity,Negative*%
%FSLAX46Y46*%
G04 Gerber Fmt 4.6, Leading zero omitted, Abs format (unit mm)*
G04 Created by KiCad (PCBNEW 9.0.0) date 2025-03-16 19:50:11*
%MOMM*%
%LPD*%
G01*
G04 APERTURE LIST*
G04 Aperture macros list*
%AMRoundRect*
0 Rectangle with rounded corners*
0 $1 Rounding radius*
0 $2 $3 $4 $5 $6 $7 $8 $9 X,Y pos of 4 corners*
0 Add a 4 corners polygon primitive as box body*
4,1,4,$2,$3,$4,$5,$6,$7,$8,$9,$2,$3,0*
0 Add four circle primitives for the rounded corners*
1,1,$1+$1,$2,$3*
1,1,$1+$1,$4,$5*
1,1,$1+$1,$6,$7*
1,1,$1+$1,$8,$9*
0 Add four rect primitives between the rounded corners*
20,1,$1+$1,$2,$3,$4,$5,0*
20,1,$1+$1,$4,$5,$6,$7,0*
20,1,$1+$1,$6,$7,$8,$9,0*
20,1,$1+$1,$8,$9,$2,$3,0*%
G04 Aperture macros list end*
%ADD10C,0.000000*%
%ADD11RoundRect,0.237500X-0.300000X-0.237500X0.300000X-0.237500X0.300000X0.237500X-0.300000X0.237500X0*%
%ADD12R,1.800000X1.800000*%
%ADD13C,1.800000*%
%ADD14C,1.600000*%
%ADD15RoundRect,0.237500X0.300000X0.237500X-0.300000X0.237500X-0.300000X-0.237500X0.300000X-0.237500X0*%
%ADD16C,1.016000*%
%ADD17R,0.279400X1.553299*%
%ADD18R,1.553299X0.279400*%
%ADD19RoundRect,0.237500X0.287500X0.237500X-0.287500X0.237500X-0.287500X-0.237500X0.287500X-0.237500X0*%
%ADD20C,2.000000*%
%ADD21R,2.000000X2.000000*%
%ADD22O,3.500000X2.000000*%
%ADD23O,2.000000X3.500000*%
%ADD24RoundRect,1.000000X0.000010X-0.000010X0.000010X0.000010X-0.000010X0.000010X-0.000010X-0.000010X0*%
%ADD25RoundRect,0.237500X-0.287500X-0.237500X0.287500X-0.237500X0.287500X0.237500X-0.287500X0.237500X0*%
%ADD26RoundRect,0.237500X-0.237500X0.287500X-0.237500X-0.287500X0.237500X-0.287500X0.237500X0.287500X0*%
%ADD27O,1.700000X1.700000*%
%ADD28R,1.700000X1.700000*%
%ADD29R,1.600000X1.600000*%
%ADD30RoundRect,0.237500X0.237500X-0.287500X0.237500X0.287500X-0.237500X0.287500X-0.237500X-0.287500X0*%
%ADD31RoundRect,0.375000X0.625000X0.375000X-0.625000X0.375000X-0.625000X-0.375000X0.625000X-0.375000X0*%
%ADD32RoundRect,0.500000X0.500000X1.400000X-0.500000X1.400000X-0.500000X-1.400000X0.500000X-1.400000X0*%
%ADD33RoundRect,0.237500X-0.237500X0.300000X-0.237500X-0.300000X0.237500X-0.300000X0.237500X0.300000X0*%
%ADD34C,1.500000*%
G04 APERTURE END LIST*
D10*
%TO.C,U2*%
G36*
X128424999Y-94802349D02*
G01*
X127812199Y-94802349D01*
X127812199Y-88452349D01*
X128424999Y-88452349D01*
X128424999Y-94802349D01*
G37*
G36*
X127412199Y-94802349D02*
G01*
X127024799Y-94802349D01*
X127024799Y-88452349D01*
X127412199Y-88452349D01*
X127412199Y-94802349D01*
G37*
G36*
X126624799Y-94802349D02*
G01*
X126237399Y-94802349D01*
X126237399Y-88452349D01*
X126624799Y-88452349D01*
X126624799Y-94802349D01*
G37*
G36*
X125837399Y-94802349D02*
G01*
X125449999Y-94802349D01*
X125449999Y-88452349D01*
X125837399Y-88452349D01*
X125837399Y-94802349D01*
G37*
G36*
X125049999Y-94802349D02*
G01*
X124662599Y-94802349D01*
X124662599Y-88452349D01*
X125049999Y-88452349D01*
X125049999Y-94802349D01*
G37*
G36*
X124262599Y-94802349D02*
G01*
X123875199Y-94802349D01*
X123875199Y-88452349D01*
X124262599Y-88452349D01*
X124262599Y-94802349D01*
G37*
G36*
X123475199Y-94802349D02*
G01*
X123087799Y-94802349D01*
X123087799Y-88452349D01*
X123475199Y-88452349D01*
X123475199Y-94802349D01*
G37*
G36*
X128424999Y-94802349D02*
G01*
X122074999Y-94802349D01*
X122074999Y-94189549D01*
X128424999Y-94189549D01*
X128424999Y-94802349D01*
G37*
G36*
X128424999Y-93789549D02*
G01*
X122074999Y-93789549D01*
X122074999Y-93402149D01*
X128424999Y-93402149D01*
X128424999Y-93789549D01*
G37*
G36*
X128424999Y-93002149D02*
G01*
X122074999Y-93002149D01*
X122074999Y-92614749D01*
X128424999Y-92614749D01*
X128424999Y-93002149D01*
G37*
G36*
X128424999Y-92214749D02*
G01*
X122074999Y-92214749D01*
X122074999Y-91827349D01*
X128424999Y-91827349D01*
X128424999Y-92214749D01*
G37*
G36*
X128424999Y-91427349D02*
G01*
X122074999Y-91427349D01*
X122074999Y-91039949D01*
X128424999Y-91039949D01*
X128424999Y-91427349D01*
G37*
G36*
X128424999Y-90639949D02*
G01*
X122074999Y-90639949D01*
X122074999Y-90252549D01*
X128424999Y-90252549D01*
X128424999Y-90639949D01*
G37*
G36*
X128424999Y-89852549D02*
G01*
X122074999Y-89852549D01*
X122074999Y-89465149D01*
X128424999Y-89465149D01*
X128424999Y-89852549D01*
G37*
G36*
X128424999Y-89065149D02*
G01*
X122074999Y-89065149D01*
X122074999Y-88452349D01*
X128424999Y-88452349D01*
X128424999Y-89065149D01*
G37*
G36*
X122687799Y-94802349D02*
G01*
X122074999Y-94802349D01*
X122074999Y-88452349D01*
X122687799Y-88452349D01*
X122687799Y-94802349D01*
G37*
%TD*%
D11*
%TO.C,C2*%
X138275000Y-69800000D03*
X140000000Y-69800000D03*
%TD*%
D12*
%TO.C,D1*%
X143500000Y-71400000D03*
D13*
X143500000Y-73940000D03*
%TD*%
D14*
%TO.C,FB3*%
X113800000Y-81080000D03*
X113800000Y-70920000D03*
%TD*%
%TO.C,FB1*%
X108600000Y-86880000D03*
X108600000Y-76720000D03*
%TD*%
D15*
%TO.C,C37*%
X123547508Y-70200000D03*
X125272508Y-70200000D03*
%TD*%
D16*
%TO.C,U2*%
X127612199Y-93989549D03*
X127612199Y-93202149D03*
X127612199Y-92414749D03*
X127612199Y-91627349D03*
X127612199Y-90839949D03*
X127612199Y-90052549D03*
X127612199Y-89265149D03*
X126824799Y-93989549D03*
X126824799Y-93202149D03*
X126824799Y-92414749D03*
X126824799Y-91627349D03*
X126824799Y-90839949D03*
X126824799Y-90052549D03*
X126824799Y-89265149D03*
X126037399Y-93989549D03*
X126037399Y-93202149D03*
X126037399Y-92414749D03*
X126037399Y-91627349D03*
X126037399Y-90839949D03*
X126037399Y-90052549D03*
X126037399Y-89265149D03*
X125249999Y-93989549D03*
X125249999Y-93202149D03*
X125249999Y-92414749D03*
X125249999Y-91627349D03*
X125249999Y-90839949D03*
X125249999Y-90052549D03*
X125249999Y-89265149D03*
X124462599Y-93989549D03*
X124462599Y-93202149D03*
X124462599Y-92414749D03*
X124462599Y-91627349D03*
X124462599Y-90839949D03*
X124462599Y-90052549D03*
X124462599Y-89265149D03*
X123675199Y-93989549D03*
X123675199Y-93202149D03*
X123675199Y-92414749D03*
X123675199Y-91627349D03*
X123675199Y-90839949D03*
X123675199Y-90052549D03*
X123675199Y-89265149D03*
X122887799Y-93989549D03*
X122887799Y-93202149D03*
X122887799Y-92414749D03*
X122887799Y-91627349D03*
X122887799Y-90839949D03*
X122887799Y-90052549D03*
X122887799Y-89265149D03*
D17*
X120499998Y-84754698D03*
X121000000Y-84754698D03*
X121499999Y-84754698D03*
X121999998Y-84754698D03*
X122499999Y-84754698D03*
X122999998Y-84754698D03*
X123500000Y-84754698D03*
X123999999Y-84754698D03*
X124499998Y-84754698D03*
X124999999Y-84754698D03*
X125499999Y-84754698D03*
X126000000Y-84754698D03*
X126499999Y-84754698D03*
X126999998Y-84754698D03*
X127500000Y-84754698D03*
X127999999Y-84754698D03*
X128500000Y-84754698D03*
X128999999Y-84754698D03*
X129499998Y-84754698D03*
X130000000Y-84754698D03*
D18*
X132122650Y-86877348D03*
X132122650Y-87377350D03*
X132122650Y-87877349D03*
X132122650Y-88377348D03*
X132122650Y-88877349D03*
X132122650Y-89377348D03*
X132122650Y-89877350D03*
X132122650Y-90377349D03*
X132122650Y-90877348D03*
X132122650Y-91377349D03*
X132122650Y-91877349D03*
X132122650Y-92377350D03*
X132122650Y-92877349D03*
X132122650Y-93377348D03*
X132122650Y-93877350D03*
X132122650Y-94377349D03*
X132122650Y-94877350D03*
X132122650Y-95377349D03*
X132122650Y-95877348D03*
X132122650Y-96377350D03*
D17*
X130000000Y-98500000D03*
X129499998Y-98500000D03*
X128999999Y-98500000D03*
X128500000Y-98500000D03*
X127999999Y-98500000D03*
X127500000Y-98500000D03*
X126999998Y-98500000D03*
X126499999Y-98500000D03*
X126000000Y-98500000D03*
X125499999Y-98500000D03*
X124999999Y-98500000D03*
X124499998Y-98500000D03*
X123999999Y-98500000D03*
X123500000Y-98500000D03*
X122999998Y-98500000D03*
X122499999Y-98500000D03*
X121999998Y-98500000D03*
X121499999Y-98500000D03*
X121000000Y-98500000D03*
X120499998Y-98500000D03*
D18*
X118377348Y-96377350D03*
X118377348Y-95877348D03*
X118377348Y-95377349D03*
X118377348Y-94877348D03*
X118377348Y-94377349D03*
X118377348Y-93877350D03*
X118377348Y-93377348D03*
X118377348Y-92877349D03*
X118377348Y-92377347D03*
X118377348Y-91877349D03*
X118377348Y-91377349D03*
X118377348Y-90877348D03*
X118377348Y-90377349D03*
X118377348Y-89877350D03*
X118377348Y-89377348D03*
X118377348Y-88877349D03*
X118377348Y-88377348D03*
X118377348Y-87877349D03*
X118377348Y-87377350D03*
X118377348Y-86877348D03*
%TD*%
D14*
%TO.C,FB2*%
X139200000Y-82160000D03*
X139200000Y-72000000D03*
%TD*%
D19*
%TO.C,R15*%
X121450000Y-79800000D03*
X123200000Y-79800000D03*
%TD*%
D11*
%TO.C,C7*%
X140200000Y-84400000D03*
X138475000Y-84400000D03*
%TD*%
D20*
%TO.C,C10*%
X108000000Y-70032323D03*
D21*
X108000000Y-65032323D03*
%TD*%
D22*
%TO.C,CVBS2*%
X101400000Y-91800000D03*
D23*
X96400000Y-96750000D03*
D22*
X101400000Y-101600000D03*
D24*
X101400000Y-96750000D03*
%TD*%
D25*
%TO.C,R6*%
X144800000Y-67800000D03*
X143050000Y-67800000D03*
%TD*%
D26*
%TO.C,RB8*%
X131000000Y-105875000D03*
X131000000Y-104125000D03*
%TD*%
D27*
%TO.C,J6*%
X125920000Y-78600000D03*
X128460000Y-78600000D03*
D28*
X131000000Y-78600000D03*
%TD*%
D27*
%TO.C,J5*%
X143000000Y-80040000D03*
D28*
X143000000Y-77500000D03*
%TD*%
D19*
%TO.C,R1*%
X122325000Y-104200000D03*
X124075000Y-104200000D03*
%TD*%
D14*
%TO.C,C5*%
X138800000Y-62152651D03*
D29*
X138800000Y-65652651D03*
%TD*%
D25*
%TO.C,R5*%
X107675000Y-81800000D03*
X105925000Y-81800000D03*
%TD*%
D27*
%TO.C,J4*%
X145540000Y-97420000D03*
X143000000Y-97420000D03*
X145540000Y-94880000D03*
X143000000Y-94880000D03*
X145540000Y-92340000D03*
X143000000Y-92340000D03*
X145540000Y-89800000D03*
X143000000Y-89800000D03*
X145540000Y-87260000D03*
D28*
X143000000Y-87260000D03*
%TD*%
D30*
%TO.C,R4*%
X134000000Y-79750000D03*
X134000000Y-81500000D03*
%TD*%
D25*
%TO.C,R8*%
X107675000Y-94900000D03*
X105925000Y-94900000D03*
%TD*%
D27*
%TO.C,J3*%
X144765000Y-101200000D03*
D28*
X142225000Y-101200000D03*
%TD*%
D31*
%TO.C,U1*%
X125550000Y-61300000D03*
D32*
X119250000Y-63600000D03*
D31*
X125550000Y-63600000D03*
X125550000Y-65900000D03*
%TD*%
D15*
%TO.C,C30*%
X105937500Y-96600000D03*
X107662500Y-96600000D03*
%TD*%
D19*
%TO.C,R3*%
X127650000Y-82600000D03*
X129400000Y-82600000D03*
%TD*%
D25*
%TO.C,R2*%
X124150000Y-105800000D03*
X122400000Y-105800000D03*
%TD*%
D27*
%TO.C,J2*%
X135800000Y-111065000D03*
D28*
X135800000Y-108525000D03*
%TD*%
D33*
%TO.C,C4*%
X129200000Y-65462500D03*
X129200000Y-63737500D03*
%TD*%
D34*
%TO.C,Y1*%
X120170000Y-73800000D03*
X125050000Y-73800000D03*
%TD*%
D15*
%TO.C,C27*%
X105937500Y-83800000D03*
X107662500Y-83800000D03*
%TD*%
D11*
%TO.C,C38*%
X121892504Y-70200000D03*
X120167504Y-70200000D03*
%TD*%
D22*
%TO.C,CVBS1*%
X101500000Y-78850000D03*
D23*
X96500000Y-83800000D03*
D22*
X101500000Y-88650000D03*
D24*
X101500000Y-83800000D03*
%TD*%
D27*
%TO.C,J1*%
X121842000Y-111062000D03*
X121842000Y-108522000D03*
X124382000Y-111062000D03*
X124382000Y-108522000D03*
X126922000Y-111062000D03*
X126922000Y-108522000D03*
X129462000Y-111062000D03*
X129462000Y-108522000D03*
X132002000Y-111062000D03*
D28*
X132002000Y-108522000D03*
%TD*%
D14*
%TO.C,FB4*%
X132200000Y-74360000D03*
X132200000Y-64200000D03*
%TD*%
M02*
