%TF.GenerationSoftware,KiCad,Pcbnew,9.0.0*%
%TF.CreationDate,2025-03-16T19:50:11+02:00*%
%TF.ProjectId,TVP5147M1_decoder,54565035-3134-4374-9d31-5f6465636f64,rev?*%
%TF.SameCoordinates,Original*%
%TF.FileFunction,Copper,L2,Inr*%
%TF.FilePolarity,Positive*%
%FSLAX46Y46*%
G04 Gerber Fmt 4.6, Leading zero omitted, Abs format (unit mm)*
G04 Created by KiCad (PCBNEW 9.0.0) date 2025-03-16 19:50:11*
%MOMM*%
%LPD*%
G01*
G04 APERTURE LIST*
G04 Aperture macros list*
%AMRoundRect*
0 Rectangle with rounded corners*
0 $1 Rounding radius*
0 $2 $3 $4 $5 $6 $7 $8 $9 X,Y pos of 4 corners*
0 Add a 4 corners polygon primitive as box body*
4,1,4,$2,$3,$4,$5,$6,$7,$8,$9,$2,$3,0*
0 Add four circle primitives for the rounded corners*
1,1,$1+$1,$2,$3*
1,1,$1+$1,$4,$5*
1,1,$1+$1,$6,$7*
1,1,$1+$1,$8,$9*
0 Add four rect primitives between the rounded corners*
20,1,$1+$1,$2,$3,$4,$5,0*
20,1,$1+$1,$4,$5,$6,$7,0*
20,1,$1+$1,$6,$7,$8,$9,0*
20,1,$1+$1,$8,$9,$2,$3,0*%
G04 Aperture macros list end*
%TA.AperFunction,ComponentPad*%
%ADD10R,1.800000X1.800000*%
%TD*%
%TA.AperFunction,ComponentPad*%
%ADD11C,1.800000*%
%TD*%
%TA.AperFunction,ComponentPad*%
%ADD12C,1.600000*%
%TD*%
%TA.AperFunction,ComponentPad*%
%ADD13C,1.016000*%
%TD*%
%TA.AperFunction,ComponentPad*%
%ADD14C,2.000000*%
%TD*%
%TA.AperFunction,ComponentPad*%
%ADD15R,2.000000X2.000000*%
%TD*%
%TA.AperFunction,ComponentPad*%
%ADD16O,3.500000X2.000000*%
%TD*%
%TA.AperFunction,ComponentPad*%
%ADD17O,2.000000X3.500000*%
%TD*%
%TA.AperFunction,ComponentPad*%
%ADD18RoundRect,1.000000X0.000010X-0.000010X0.000010X0.000010X-0.000010X0.000010X-0.000010X-0.000010X0*%
%TD*%
%TA.AperFunction,ComponentPad*%
%ADD19O,1.700000X1.700000*%
%TD*%
%TA.AperFunction,ComponentPad*%
%ADD20R,1.700000X1.700000*%
%TD*%
%TA.AperFunction,ComponentPad*%
%ADD21R,1.600000X1.600000*%
%TD*%
%TA.AperFunction,ComponentPad*%
%ADD22C,1.500000*%
%TD*%
%TA.AperFunction,ViaPad*%
%ADD23C,0.600000*%
%TD*%
G04 APERTURE END LIST*
D10*
%TO.N,Net-(D1-Pad1)*%
%TO.C,D1*%
X143500000Y-71400000D03*
D11*
%TO.N,+3.3V*%
X143500000Y-73940000D03*
%TD*%
D12*
%TO.N,A1.8VDD*%
%TO.C,FB3*%
X113800000Y-81080000D03*
%TO.N,+1.8V*%
X113800000Y-70920000D03*
%TD*%
%TO.N,A3.3VDD*%
%TO.C,FB1*%
X108600000Y-86880000D03*
%TO.N,+3.3V*%
X108600000Y-76720000D03*
%TD*%
D13*
%TO.N,GND*%
%TO.C,U2*%
X127612199Y-93989549D03*
X127612199Y-93202149D03*
X127612199Y-92414749D03*
X127612199Y-91627349D03*
X127612199Y-90839949D03*
X127612199Y-90052549D03*
X127612199Y-89265149D03*
X126824799Y-93989549D03*
X126824799Y-93202149D03*
X126824799Y-92414749D03*
X126824799Y-91627349D03*
X126824799Y-90839949D03*
X126824799Y-90052549D03*
X126824799Y-89265149D03*
X126037399Y-93989549D03*
X126037399Y-93202149D03*
X126037399Y-92414749D03*
X126037399Y-91627349D03*
X126037399Y-90839949D03*
X126037399Y-90052549D03*
X126037399Y-89265149D03*
X125249999Y-93989549D03*
X125249999Y-93202149D03*
X125249999Y-92414749D03*
X125249999Y-91627349D03*
X125249999Y-90839949D03*
X125249999Y-90052549D03*
X125249999Y-89265149D03*
X124462599Y-93989549D03*
X124462599Y-93202149D03*
X124462599Y-92414749D03*
X124462599Y-91627349D03*
X124462599Y-90839949D03*
X124462599Y-90052549D03*
X124462599Y-89265149D03*
X123675199Y-93989549D03*
X123675199Y-93202149D03*
X123675199Y-92414749D03*
X123675199Y-91627349D03*
X123675199Y-90839949D03*
X123675199Y-90052549D03*
X123675199Y-89265149D03*
X122887799Y-93989549D03*
X122887799Y-93202149D03*
X122887799Y-92414749D03*
X122887799Y-91627349D03*
X122887799Y-90839949D03*
X122887799Y-90052549D03*
X122887799Y-89265149D03*
%TD*%
D12*
%TO.N,IO3.3VDD*%
%TO.C,FB2*%
X139200000Y-82160000D03*
%TO.N,+3.3V*%
X139200000Y-72000000D03*
%TD*%
D14*
%TO.N,GND*%
%TO.C,C10*%
X108000000Y-70032323D03*
D15*
%TO.N,+1.8V*%
X108000000Y-65032323D03*
%TD*%
D16*
%TO.N,GND*%
%TO.C,CVBS2*%
X101400000Y-91800000D03*
D17*
X96400000Y-96750000D03*
D16*
X101400000Y-101600000D03*
D18*
%TO.N,Net-(CVBS2-In)*%
X101400000Y-96750000D03*
%TD*%
D19*
%TO.N,VS{slash}VBLK*%
%TO.C,J6*%
X125920000Y-78600000D03*
%TO.N,HS{slash}CS*%
X128460000Y-78600000D03*
D20*
%TO.N,FID*%
X131000000Y-78600000D03*
%TD*%
D19*
%TO.N,GND*%
%TO.C,J5*%
X143000000Y-80040000D03*
D20*
%TO.N,+3.3V*%
X143000000Y-77500000D03*
%TD*%
D12*
%TO.N,GND*%
%TO.C,C5*%
X138800000Y-62152651D03*
D21*
%TO.N,+3.3V*%
X138800000Y-65652651D03*
%TD*%
D19*
%TO.N,Y9*%
%TO.C,J4*%
X145540000Y-97420000D03*
%TO.N,Y8*%
X143000000Y-97420000D03*
%TO.N,Y7*%
X145540000Y-94880000D03*
%TO.N,Y6*%
X143000000Y-94880000D03*
%TO.N,Y5*%
X145540000Y-92340000D03*
%TO.N,Y4*%
X143000000Y-92340000D03*
%TO.N,Y3*%
X145540000Y-89800000D03*
%TO.N,Y2*%
X143000000Y-89800000D03*
%TO.N,Y1*%
X145540000Y-87260000D03*
D20*
%TO.N,Y0*%
X143000000Y-87260000D03*
%TD*%
D19*
%TO.N,GND*%
%TO.C,J3*%
X144765000Y-101200000D03*
D20*
X142225000Y-101200000D03*
%TD*%
D19*
%TO.N,GND*%
%TO.C,J2*%
X135800000Y-111065000D03*
D20*
X135800000Y-108525000D03*
%TD*%
D22*
%TO.N,XTAL2*%
%TO.C,Y1*%
X120170000Y-73800000D03*
%TO.N,XTAL1*%
X125050000Y-73800000D03*
%TD*%
D16*
%TO.N,GND*%
%TO.C,CVBS1*%
X101500000Y-78850000D03*
D17*
X96500000Y-83800000D03*
D16*
X101500000Y-88650000D03*
D18*
%TO.N,Net-(CVBS1-In)*%
X101500000Y-83800000D03*
%TD*%
D19*
%TO.N,GND*%
%TO.C,J1*%
X121842000Y-111062000D03*
%TO.N,SCL*%
X121842000Y-108522000D03*
%TO.N,INTREQ*%
X124382000Y-111062000D03*
%TO.N,SDA*%
X124382000Y-108522000D03*
%TO.N,RESETB*%
X126922000Y-111062000D03*
%TO.N,PWDN*%
X126922000Y-108522000D03*
%TO.N,AVID*%
X129462000Y-111062000D03*
%TO.N,FSS*%
X129462000Y-108522000D03*
%TO.N,DATACLK*%
X132002000Y-111062000D03*
D20*
%TO.N,GLCO{slash}I2CA*%
X132002000Y-108522000D03*
%TD*%
D12*
%TO.N,D1.8VDD*%
%TO.C,FB4*%
X132200000Y-74360000D03*
%TO.N,+1.8V*%
X132200000Y-64200000D03*
%TD*%
D23*
%TO.N,XGND*%
X123547508Y-70200000D03*
X118200000Y-77900000D03*
X121892504Y-70200000D03*
%TO.N,D1.8VDD*%
X130200000Y-89400000D03*
X127500000Y-86800000D03*
X124800000Y-96600000D03*
X132262500Y-97200000D03*
%TO.N,A3.3VDD*%
X116000000Y-88500000D03*
X116000000Y-86000000D03*
%TO.N,A1.8VDD*%
X122807853Y-86028590D03*
X119800000Y-92537500D03*
X120400000Y-90762500D03*
X121400000Y-82400000D03*
X122000000Y-101500000D03*
X116800000Y-93437500D03*
X116000000Y-91200000D03*
%TO.N,+1.8V*%
X117000000Y-63600000D03*
X127500000Y-63600000D03*
%TO.N,IO3.3VDD*%
X133637500Y-92800000D03*
X124301000Y-103219825D03*
X130275000Y-100600000D03*
X138475000Y-84400000D03*
X131875000Y-84400000D03*
X123000000Y-106600000D03*
%TO.N,+3.3V*%
X127500000Y-61300000D03*
%TO.N,GND*%
X137000000Y-106000000D03*
X120200000Y-96200000D03*
X136400000Y-84800000D03*
X117600000Y-102200000D03*
X111000000Y-75000000D03*
X140000000Y-102000000D03*
X135000000Y-100000000D03*
X111400000Y-91800000D03*
X111400000Y-90800000D03*
X135000000Y-101000000D03*
X142500000Y-82500000D03*
X117000000Y-82800000D03*
X140525000Y-68600000D03*
X131000000Y-102500000D03*
X116400000Y-97800000D03*
X111400000Y-89500000D03*
X135000000Y-106000000D03*
X127500000Y-67000000D03*
X120000000Y-86000000D03*
X141400000Y-84400000D03*
X118200000Y-78900000D03*
X117200000Y-97800000D03*
X144500000Y-82500000D03*
X111400000Y-85000000D03*
X120200000Y-97000000D03*
X108800000Y-94900000D03*
X117600000Y-101400000D03*
X144800000Y-69000000D03*
X109000000Y-81800000D03*
X111000000Y-74000000D03*
X117000000Y-82000000D03*
X132000000Y-70500000D03*
X131000000Y-70500000D03*
X136400000Y-84000000D03*
X140000000Y-100500000D03*
X111600000Y-82400000D03*
X127500000Y-66000000D03*
X113500000Y-68000000D03*
X100595000Y-76031750D03*
X95515000Y-60791750D03*
X105675000Y-88731750D03*
X95515000Y-101431750D03*
X95515000Y-111591750D03*
X105675000Y-109051750D03*
X95515000Y-78571750D03*
X141235000Y-76031750D03*
X141235000Y-109051750D03*
X95515000Y-63331750D03*
X103135000Y-98891750D03*
X95515000Y-88731750D03*
X95515000Y-65871750D03*
X95515000Y-70951750D03*
X118375000Y-109051750D03*
X141235000Y-106511750D03*
X100595000Y-86191750D03*
X98055000Y-60791750D03*
X95515000Y-68411750D03*
X95515000Y-73491750D03*
X103135000Y-76031750D03*
X110755000Y-70951750D03*
X98055000Y-91271750D03*
X95515000Y-76031750D03*
X95515000Y-81111750D03*
X113295000Y-63331750D03*
X98055000Y-93811750D03*
X95515000Y-91271750D03*
X103135000Y-70951750D03*
X95515000Y-93811750D03*
X95515000Y-103971750D03*
X100595000Y-73491750D03*
X143775000Y-111591750D03*
X95515000Y-106511750D03*
X103135000Y-68411750D03*
X95515000Y-109051750D03*
X98055000Y-63331750D03*
X98055000Y-65871750D03*
X103135000Y-63331750D03*
X98055000Y-68411750D03*
X146315000Y-73491750D03*
X103135000Y-103971750D03*
X98055000Y-109051750D03*
X98055000Y-70951750D03*
X98055000Y-73491750D03*
X146315000Y-111591750D03*
X98055000Y-76031750D03*
X98055000Y-78571750D03*
X100595000Y-63331750D03*
X98055000Y-81111750D03*
X98055000Y-86191750D03*
X103135000Y-65871750D03*
X98055000Y-88731750D03*
X98055000Y-98891750D03*
X98055000Y-101431750D03*
X98055000Y-103971750D03*
X146315000Y-65871750D03*
X98055000Y-106511750D03*
X103135000Y-81111750D03*
X98055000Y-111591750D03*
X100595000Y-60791750D03*
X143775000Y-65871750D03*
X100595000Y-65871750D03*
X100595000Y-68411750D03*
X133615000Y-68411750D03*
X100595000Y-70951750D03*
X100595000Y-81111750D03*
X103135000Y-73491750D03*
X100595000Y-93811750D03*
X100595000Y-98891750D03*
X100595000Y-103971750D03*
X100595000Y-106511750D03*
X103135000Y-93811750D03*
X100595000Y-109051750D03*
X100595000Y-111591750D03*
X103135000Y-60791750D03*
X103135000Y-86191750D03*
X103135000Y-106511750D03*
X103135000Y-109051750D03*
X113295000Y-93811750D03*
X103135000Y-111591750D03*
X105675000Y-60791750D03*
X113295000Y-60791750D03*
X105675000Y-63331750D03*
X105675000Y-65871750D03*
X105675000Y-68411750D03*
X118375000Y-106511750D03*
X105675000Y-70951750D03*
X105675000Y-73491750D03*
X113295000Y-106511750D03*
X105675000Y-76031750D03*
X105675000Y-78571750D03*
X105675000Y-86191750D03*
X105675000Y-91271750D03*
X105675000Y-98891750D03*
X105675000Y-101431750D03*
X105675000Y-103971750D03*
X105675000Y-106511750D03*
X105675000Y-111591750D03*
X108215000Y-60791750D03*
X108215000Y-78571750D03*
X108215000Y-91271750D03*
X108215000Y-98891750D03*
X108215000Y-101431750D03*
X115835000Y-65871750D03*
X108215000Y-103971750D03*
X108215000Y-106511750D03*
X108215000Y-109051750D03*
X108215000Y-111591750D03*
X110755000Y-60791750D03*
X110755000Y-63331750D03*
X110755000Y-65871750D03*
X110755000Y-68411750D03*
X110755000Y-78571750D03*
X110755000Y-96351750D03*
X110755000Y-98891750D03*
X110755000Y-101431750D03*
X110755000Y-103971750D03*
X110755000Y-106511750D03*
X110755000Y-109051750D03*
X110755000Y-111591750D03*
X113295000Y-65871750D03*
X113295000Y-73491750D03*
X138695000Y-106511750D03*
X113295000Y-76031750D03*
X113295000Y-78571750D03*
X113295000Y-96351750D03*
X113295000Y-98891750D03*
X113295000Y-101431750D03*
X113295000Y-103971750D03*
X113295000Y-109051750D03*
X113295000Y-111591750D03*
X115835000Y-60791750D03*
X115835000Y-73491750D03*
X115835000Y-76031750D03*
X115835000Y-78571750D03*
X115835000Y-101431750D03*
X115835000Y-103971750D03*
X141235000Y-81111750D03*
X115835000Y-106511750D03*
X115835000Y-109051750D03*
X115835000Y-111591750D03*
X118375000Y-60791750D03*
X141235000Y-63331750D03*
X118375000Y-103971750D03*
X118375000Y-111591750D03*
X120915000Y-60791750D03*
X123455000Y-60791750D03*
X123455000Y-63331750D03*
X123455000Y-65871750D03*
X131075000Y-60791750D03*
X131075000Y-65871750D03*
X131075000Y-68411750D03*
X131000000Y-83000000D03*
X133615000Y-60791750D03*
X133615000Y-65871750D03*
X136155000Y-60791750D03*
X136155000Y-63331750D03*
X136155000Y-65871750D03*
X136155000Y-68411750D03*
X136155000Y-70951750D03*
X136155000Y-73491750D03*
X136155000Y-76031750D03*
X136155000Y-78571750D03*
X136155000Y-81111750D03*
X136155000Y-103971750D03*
X138695000Y-76031750D03*
X138695000Y-78571750D03*
X138695000Y-103971750D03*
X138695000Y-109051750D03*
X138695000Y-111591750D03*
X141235000Y-60791750D03*
X141235000Y-65871750D03*
X141235000Y-73491750D03*
X141235000Y-78571750D03*
X141235000Y-103971750D03*
X141235000Y-111591750D03*
X143775000Y-60791750D03*
X143775000Y-63331750D03*
X143775000Y-103971750D03*
X143775000Y-106511750D03*
X143775000Y-109051750D03*
X146315000Y-60791750D03*
X146315000Y-63331750D03*
X146315000Y-68411750D03*
X146315000Y-70951750D03*
X146315000Y-76031750D03*
X146315000Y-78571750D03*
X146315000Y-81111750D03*
X146315000Y-83651750D03*
X146315000Y-103971750D03*
X146315000Y-106511750D03*
X146315000Y-109051750D03*
X138695000Y-68411750D03*
%TD*%
%TA.AperFunction,Conductor*%
%TO.N,XGND*%
G36*
X126986525Y-67619685D02*
G01*
X126988377Y-67620898D01*
X127120814Y-67709390D01*
X127120827Y-67709397D01*
X127266498Y-67769735D01*
X127266503Y-67769737D01*
X127421153Y-67800499D01*
X127421156Y-67800500D01*
X127421158Y-67800500D01*
X127578844Y-67800500D01*
X127578845Y-67800499D01*
X127733497Y-67769737D01*
X127879179Y-67709394D01*
X127934411Y-67672489D01*
X128011623Y-67620898D01*
X128078300Y-67600020D01*
X128080514Y-67600000D01*
X128676000Y-67600000D01*
X128743039Y-67619685D01*
X128788794Y-67672489D01*
X128800000Y-67724000D01*
X128800000Y-76676000D01*
X128780315Y-76743039D01*
X128727511Y-76788794D01*
X128676000Y-76800000D01*
X123800000Y-76800000D01*
X123800000Y-85708647D01*
X123780315Y-85775686D01*
X123727511Y-85821441D01*
X123658353Y-85831385D01*
X123594797Y-85802360D01*
X123561439Y-85756100D01*
X123517248Y-85649413D01*
X123517243Y-85649404D01*
X123429642Y-85518301D01*
X123429639Y-85518297D01*
X123318145Y-85406803D01*
X123318141Y-85406800D01*
X123187038Y-85319199D01*
X123187025Y-85319192D01*
X123041354Y-85258854D01*
X123041344Y-85258851D01*
X122899808Y-85230697D01*
X122837897Y-85198312D01*
X122803323Y-85137596D01*
X122800000Y-85109080D01*
X122800000Y-81800000D01*
X119000000Y-78000000D01*
X116524000Y-78000000D01*
X116456961Y-77980315D01*
X116411206Y-77927511D01*
X116400000Y-77876000D01*
X116400000Y-76650190D01*
X116419685Y-76583151D01*
X116436321Y-76562507D01*
X116456787Y-76542041D01*
X116456789Y-76542039D01*
X116544394Y-76410929D01*
X116604737Y-76265247D01*
X116635500Y-76110592D01*
X116635500Y-75952908D01*
X116635500Y-75952905D01*
X116635499Y-75952903D01*
X116604738Y-75798260D01*
X116604737Y-75798253D01*
X116604735Y-75798248D01*
X116544397Y-75652577D01*
X116544390Y-75652564D01*
X116456789Y-75521461D01*
X116456786Y-75521457D01*
X116436319Y-75500990D01*
X116402834Y-75439667D01*
X116400000Y-75413309D01*
X116400000Y-74110190D01*
X116419685Y-74043151D01*
X116436321Y-74022507D01*
X116456787Y-74002041D01*
X116456789Y-74002039D01*
X116544394Y-73870929D01*
X116604737Y-73725247D01*
X116609445Y-73701577D01*
X118919500Y-73701577D01*
X118919500Y-73898422D01*
X118950290Y-74092826D01*
X119011117Y-74280029D01*
X119100476Y-74455405D01*
X119216172Y-74614646D01*
X119355354Y-74753828D01*
X119514595Y-74869524D01*
X119597455Y-74911743D01*
X119689970Y-74958882D01*
X119689972Y-74958882D01*
X119689975Y-74958884D01*
X119790317Y-74991487D01*
X119877173Y-75019709D01*
X120071578Y-75050500D01*
X120071583Y-75050500D01*
X120268422Y-75050500D01*
X120462826Y-75019709D01*
X120650025Y-74958884D01*
X120825405Y-74869524D01*
X120984646Y-74753828D01*
X121123828Y-74614646D01*
X121239524Y-74455405D01*
X121328884Y-74280025D01*
X121389709Y-74092826D01*
X121397577Y-74043151D01*
X121420500Y-73898422D01*
X121420500Y-73701577D01*
X123799500Y-73701577D01*
X123799500Y-73898422D01*
X123830290Y-74092826D01*
X123891117Y-74280029D01*
X123980476Y-74455405D01*
X124096172Y-74614646D01*
X124235354Y-74753828D01*
X124394595Y-74869524D01*
X124477455Y-74911743D01*
X124569970Y-74958882D01*
X124569972Y-74958882D01*
X124569975Y-74958884D01*
X124670317Y-74991487D01*
X124757173Y-75019709D01*
X124951578Y-75050500D01*
X124951583Y-75050500D01*
X125148422Y-75050500D01*
X125342826Y-75019709D01*
X125530025Y-74958884D01*
X125705405Y-74869524D01*
X125864646Y-74753828D01*
X126003828Y-74614646D01*
X126119524Y-74455405D01*
X126208884Y-74280025D01*
X126269709Y-74092826D01*
X126277577Y-74043151D01*
X126300500Y-73898422D01*
X126300500Y-73701577D01*
X126269709Y-73507173D01*
X126208882Y-73319970D01*
X126119523Y-73144594D01*
X126096257Y-73112571D01*
X126003828Y-72985354D01*
X125864646Y-72846172D01*
X125705405Y-72730476D01*
X125530029Y-72641117D01*
X125342826Y-72580290D01*
X125148422Y-72549500D01*
X125148417Y-72549500D01*
X124951583Y-72549500D01*
X124951578Y-72549500D01*
X124757173Y-72580290D01*
X124569970Y-72641117D01*
X124394594Y-72730476D01*
X124303741Y-72796485D01*
X124235354Y-72846172D01*
X124235352Y-72846174D01*
X124235351Y-72846174D01*
X124096174Y-72985351D01*
X124096174Y-72985352D01*
X124096172Y-72985354D01*
X124046485Y-73053741D01*
X123980476Y-73144594D01*
X123891117Y-73319970D01*
X123830290Y-73507173D01*
X123799500Y-73701577D01*
X121420500Y-73701577D01*
X121389709Y-73507173D01*
X121328882Y-73319970D01*
X121239523Y-73144594D01*
X121216257Y-73112571D01*
X121123828Y-72985354D01*
X120984646Y-72846172D01*
X120825405Y-72730476D01*
X120650029Y-72641117D01*
X120462826Y-72580290D01*
X120268422Y-72549500D01*
X120268417Y-72549500D01*
X120071583Y-72549500D01*
X120071578Y-72549500D01*
X119877173Y-72580290D01*
X119689970Y-72641117D01*
X119514594Y-72730476D01*
X119423741Y-72796485D01*
X119355354Y-72846172D01*
X119355352Y-72846174D01*
X119355351Y-72846174D01*
X119216174Y-72985351D01*
X119216174Y-72985352D01*
X119216172Y-72985354D01*
X119166485Y-73053741D01*
X119100476Y-73144594D01*
X119011117Y-73319970D01*
X118950290Y-73507173D01*
X118919500Y-73701577D01*
X116609445Y-73701577D01*
X116615226Y-73672519D01*
X116615226Y-73672518D01*
X116635499Y-73570596D01*
X116635500Y-73570594D01*
X116635500Y-73412905D01*
X116635499Y-73412903D01*
X116604738Y-73258260D01*
X116604737Y-73258253D01*
X116557659Y-73144595D01*
X116544397Y-73112577D01*
X116544390Y-73112564D01*
X116456789Y-72981461D01*
X116456786Y-72981457D01*
X116436319Y-72960990D01*
X116402834Y-72899667D01*
X116400000Y-72873309D01*
X116400000Y-67724000D01*
X116419685Y-67656961D01*
X116472489Y-67611206D01*
X116524000Y-67600000D01*
X126919486Y-67600000D01*
X126986525Y-67619685D01*
G37*
%TD.AperFunction*%
%TD*%
%TA.AperFunction,Conductor*%
%TO.N,GND*%
G36*
X136050000Y-110631988D02*
G01*
X135992993Y-110599075D01*
X135865826Y-110565000D01*
X135734174Y-110565000D01*
X135607007Y-110599075D01*
X135550000Y-110631988D01*
X135550000Y-108958012D01*
X135607007Y-108990925D01*
X135734174Y-109025000D01*
X135865826Y-109025000D01*
X135992993Y-108990925D01*
X136050000Y-108958012D01*
X136050000Y-110631988D01*
G37*
%TD.AperFunction*%
%TA.AperFunction,Conductor*%
G36*
X144299075Y-101007007D02*
G01*
X144265000Y-101134174D01*
X144265000Y-101265826D01*
X144299075Y-101392993D01*
X144331988Y-101450000D01*
X142658012Y-101450000D01*
X142690925Y-101392993D01*
X142725000Y-101265826D01*
X142725000Y-101134174D01*
X142690925Y-101007007D01*
X142658012Y-100950000D01*
X144331988Y-100950000D01*
X144299075Y-101007007D01*
G37*
%TD.AperFunction*%
%TA.AperFunction,Conductor*%
G36*
X146942539Y-60020185D02*
G01*
X146988294Y-60072989D01*
X146999500Y-60124500D01*
X146999500Y-86633201D01*
X146979815Y-86700240D01*
X146927011Y-86745995D01*
X146857853Y-86755939D01*
X146794297Y-86726914D01*
X146765015Y-86689496D01*
X146736331Y-86633201D01*
X146695051Y-86552184D01*
X146664612Y-86510288D01*
X146570109Y-86380213D01*
X146419786Y-86229890D01*
X146247820Y-86104951D01*
X146058414Y-86008444D01*
X146058413Y-86008443D01*
X146058412Y-86008443D01*
X145856243Y-85942754D01*
X145856241Y-85942753D01*
X145856240Y-85942753D01*
X145694957Y-85917208D01*
X145646287Y-85909500D01*
X145433713Y-85909500D01*
X145385042Y-85917208D01*
X145223760Y-85942753D01*
X145021585Y-86008444D01*
X144832179Y-86104951D01*
X144660215Y-86229889D01*
X144546673Y-86343431D01*
X144485350Y-86376915D01*
X144415658Y-86371931D01*
X144359725Y-86330059D01*
X144342810Y-86299082D01*
X144293797Y-86167671D01*
X144293793Y-86167664D01*
X144207547Y-86052455D01*
X144207544Y-86052452D01*
X144092335Y-85966206D01*
X144092328Y-85966202D01*
X143957482Y-85915908D01*
X143957483Y-85915908D01*
X143897883Y-85909501D01*
X143897881Y-85909500D01*
X143897873Y-85909500D01*
X143897864Y-85909500D01*
X142102129Y-85909500D01*
X142102123Y-85909501D01*
X142042516Y-85915908D01*
X141907671Y-85966202D01*
X141907664Y-85966206D01*
X141792455Y-86052452D01*
X141792452Y-86052455D01*
X141706206Y-86167664D01*
X141706202Y-86167671D01*
X141655908Y-86302517D01*
X141649501Y-86362116D01*
X141649500Y-86362135D01*
X141649500Y-88157870D01*
X141649501Y-88157876D01*
X141655908Y-88217483D01*
X141706202Y-88352328D01*
X141706206Y-88352335D01*
X141792452Y-88467544D01*
X141792455Y-88467547D01*
X141907664Y-88553793D01*
X141907671Y-88553797D01*
X142039082Y-88602810D01*
X142095016Y-88644681D01*
X142119433Y-88710145D01*
X142104582Y-88778418D01*
X142083431Y-88806673D01*
X141969889Y-88920215D01*
X141844951Y-89092179D01*
X141748444Y-89281585D01*
X141748443Y-89281587D01*
X141748443Y-89281588D01*
X141735587Y-89321155D01*
X141682753Y-89483760D01*
X141659037Y-89633497D01*
X141649500Y-89693713D01*
X141649500Y-89906287D01*
X141654269Y-89936394D01*
X141681669Y-90109397D01*
X141682754Y-90116243D01*
X141744588Y-90306549D01*
X141748444Y-90318414D01*
X141844951Y-90507820D01*
X141969886Y-90679780D01*
X141969894Y-90679790D01*
X142120213Y-90830109D01*
X142292182Y-90955050D01*
X142300946Y-90959516D01*
X142351742Y-91007491D01*
X142368536Y-91075312D01*
X142345998Y-91141447D01*
X142300946Y-91180484D01*
X142292182Y-91184949D01*
X142120213Y-91309890D01*
X141969890Y-91460213D01*
X141844951Y-91632179D01*
X141748444Y-91821585D01*
X141682753Y-92023760D01*
X141667396Y-92120720D01*
X141649500Y-92233713D01*
X141649500Y-92446287D01*
X141652507Y-92465273D01*
X141676434Y-92616344D01*
X141682754Y-92656243D01*
X141745253Y-92848595D01*
X141748444Y-92858414D01*
X141844951Y-93047820D01*
X141969890Y-93219786D01*
X142120213Y-93370109D01*
X142292182Y-93495050D01*
X142300946Y-93499516D01*
X142351742Y-93547491D01*
X142368536Y-93615312D01*
X142345998Y-93681447D01*
X142300946Y-93720484D01*
X142292182Y-93724949D01*
X142120213Y-93849890D01*
X141969890Y-94000213D01*
X141844951Y-94172179D01*
X141748444Y-94361585D01*
X141682753Y-94563760D01*
X141675446Y-94609897D01*
X141649500Y-94773713D01*
X141649500Y-94986287D01*
X141682754Y-95196243D01*
X141748095Y-95397342D01*
X141748444Y-95398414D01*
X141844951Y-95587820D01*
X141969890Y-95759786D01*
X142120213Y-95910109D01*
X142292182Y-96035050D01*
X142300946Y-96039516D01*
X142351742Y-96087491D01*
X142368536Y-96155312D01*
X142345998Y-96221447D01*
X142300946Y-96260484D01*
X142292182Y-96264949D01*
X142120213Y-96389890D01*
X141969890Y-96540213D01*
X141844951Y-96712179D01*
X141748444Y-96901585D01*
X141682753Y-97103760D01*
X141649500Y-97313713D01*
X141649500Y-97526286D01*
X141678643Y-97710292D01*
X141682754Y-97736243D01*
X141739015Y-97909397D01*
X141748444Y-97938414D01*
X141844951Y-98127820D01*
X141969890Y-98299786D01*
X142120213Y-98450109D01*
X142292179Y-98575048D01*
X142292181Y-98575049D01*
X142292184Y-98575051D01*
X142481588Y-98671557D01*
X142683757Y-98737246D01*
X142893713Y-98770500D01*
X142893714Y-98770500D01*
X143106286Y-98770500D01*
X143106287Y-98770500D01*
X143316243Y-98737246D01*
X143518412Y-98671557D01*
X143707816Y-98575051D01*
X143842517Y-98477186D01*
X143879786Y-98450109D01*
X143879788Y-98450106D01*
X143879792Y-98450104D01*
X144030104Y-98299792D01*
X144030106Y-98299788D01*
X144030109Y-98299786D01*
X144155048Y-98127820D01*
X144155047Y-98127820D01*
X144155051Y-98127816D01*
X144159514Y-98119054D01*
X144207488Y-98068259D01*
X144275308Y-98051463D01*
X144341444Y-98073999D01*
X144380486Y-98119056D01*
X144384951Y-98127820D01*
X144509890Y-98299786D01*
X144660213Y-98450109D01*
X144832179Y-98575048D01*
X144832181Y-98575049D01*
X144832184Y-98575051D01*
X145021588Y-98671557D01*
X145223757Y-98737246D01*
X145433713Y-98770500D01*
X145433714Y-98770500D01*
X145646286Y-98770500D01*
X145646287Y-98770500D01*
X145856243Y-98737246D01*
X146058412Y-98671557D01*
X146247816Y-98575051D01*
X146382517Y-98477186D01*
X146419786Y-98450109D01*
X146419788Y-98450106D01*
X146419792Y-98450104D01*
X146570104Y-98299792D01*
X146570106Y-98299788D01*
X146570109Y-98299786D01*
X146695048Y-98127820D01*
X146695047Y-98127820D01*
X146695051Y-98127816D01*
X146765015Y-97990502D01*
X146812989Y-97939707D01*
X146880810Y-97922912D01*
X146946945Y-97945449D01*
X146990397Y-98000164D01*
X146999500Y-98046798D01*
X146999500Y-112875500D01*
X146979815Y-112942539D01*
X146927011Y-112988294D01*
X146875500Y-112999500D01*
X94124500Y-112999500D01*
X94057461Y-112979815D01*
X94011706Y-112927011D01*
X94000500Y-112875500D01*
X94000500Y-108415713D01*
X120491500Y-108415713D01*
X120491500Y-108628287D01*
X120524754Y-108838243D01*
X120585435Y-109025000D01*
X120590444Y-109040414D01*
X120686951Y-109229820D01*
X120811890Y-109401786D01*
X120962213Y-109552109D01*
X121134179Y-109677048D01*
X121134181Y-109677049D01*
X121134184Y-109677051D01*
X121143493Y-109681794D01*
X121194290Y-109729766D01*
X121211087Y-109797587D01*
X121188552Y-109863722D01*
X121143502Y-109902762D01*
X121134443Y-109907378D01*
X120962540Y-110032272D01*
X120962535Y-110032276D01*
X120812276Y-110182535D01*
X120812272Y-110182540D01*
X120687379Y-110354442D01*
X120590904Y-110543782D01*
X120525242Y-110745870D01*
X120525242Y-110745873D01*
X120514769Y-110812000D01*
X121408988Y-110812000D01*
X121376075Y-110869007D01*
X121342000Y-110996174D01*
X121342000Y-111127826D01*
X121376075Y-111254993D01*
X121408988Y-111312000D01*
X120514769Y-111312000D01*
X120525242Y-111378126D01*
X120525242Y-111378129D01*
X120590904Y-111580217D01*
X120687379Y-111769557D01*
X120812272Y-111941459D01*
X120812276Y-111941464D01*
X120962535Y-112091723D01*
X120962540Y-112091727D01*
X121134442Y-112216620D01*
X121323782Y-112313095D01*
X121525871Y-112378757D01*
X121592000Y-112389231D01*
X121592000Y-111495012D01*
X121649007Y-111527925D01*
X121776174Y-111562000D01*
X121907826Y-111562000D01*
X122034993Y-111527925D01*
X122092000Y-111495012D01*
X122092000Y-112389230D01*
X122158126Y-112378757D01*
X122158129Y-112378757D01*
X122360217Y-112313095D01*
X122549557Y-112216620D01*
X122721459Y-112091727D01*
X122721464Y-112091723D01*
X122871723Y-111941464D01*
X122871727Y-111941459D01*
X122996620Y-111769558D01*
X123001232Y-111760507D01*
X123049205Y-111709709D01*
X123117025Y-111692912D01*
X123183161Y-111715447D01*
X123222204Y-111760504D01*
X123226949Y-111769817D01*
X123351890Y-111941786D01*
X123502213Y-112092109D01*
X123674179Y-112217048D01*
X123674181Y-112217049D01*
X123674184Y-112217051D01*
X123863588Y-112313557D01*
X124065757Y-112379246D01*
X124275713Y-112412500D01*
X124275714Y-112412500D01*
X124488286Y-112412500D01*
X124488287Y-112412500D01*
X124698243Y-112379246D01*
X124900412Y-112313557D01*
X125089816Y-112217051D01*
X125111789Y-112201086D01*
X125261786Y-112092109D01*
X125261788Y-112092106D01*
X125261792Y-112092104D01*
X125412104Y-111941792D01*
X125412106Y-111941788D01*
X125412109Y-111941786D01*
X125521086Y-111791789D01*
X125537051Y-111769816D01*
X125541514Y-111761054D01*
X125589488Y-111710259D01*
X125657308Y-111693463D01*
X125723444Y-111715999D01*
X125762486Y-111761056D01*
X125766951Y-111769820D01*
X125891890Y-111941786D01*
X126042213Y-112092109D01*
X126214179Y-112217048D01*
X126214181Y-112217049D01*
X126214184Y-112217051D01*
X126403588Y-112313557D01*
X126605757Y-112379246D01*
X126815713Y-112412500D01*
X126815714Y-112412500D01*
X127028286Y-112412500D01*
X127028287Y-112412500D01*
X127238243Y-112379246D01*
X127440412Y-112313557D01*
X127629816Y-112217051D01*
X127651789Y-112201086D01*
X127801786Y-112092109D01*
X127801788Y-112092106D01*
X127801792Y-112092104D01*
X127952104Y-111941792D01*
X127952106Y-111941788D01*
X127952109Y-111941786D01*
X128061086Y-111791789D01*
X128077051Y-111769816D01*
X128081514Y-111761054D01*
X128129488Y-111710259D01*
X128197308Y-111693463D01*
X128263444Y-111715999D01*
X128302486Y-111761056D01*
X128306951Y-111769820D01*
X128431890Y-111941786D01*
X128582213Y-112092109D01*
X128754179Y-112217048D01*
X128754181Y-112217049D01*
X128754184Y-112217051D01*
X128943588Y-112313557D01*
X129145757Y-112379246D01*
X129355713Y-112412500D01*
X129355714Y-112412500D01*
X129568286Y-112412500D01*
X129568287Y-112412500D01*
X129778243Y-112379246D01*
X129980412Y-112313557D01*
X130169816Y-112217051D01*
X130191789Y-112201086D01*
X130341786Y-112092109D01*
X130341788Y-112092106D01*
X130341792Y-112092104D01*
X130492104Y-111941792D01*
X130492106Y-111941788D01*
X130492109Y-111941786D01*
X130601086Y-111791789D01*
X130617051Y-111769816D01*
X130621514Y-111761054D01*
X130669488Y-111710259D01*
X130737308Y-111693463D01*
X130803444Y-111715999D01*
X130842486Y-111761056D01*
X130846951Y-111769820D01*
X130971890Y-111941786D01*
X131122213Y-112092109D01*
X131294179Y-112217048D01*
X131294181Y-112217049D01*
X131294184Y-112217051D01*
X131483588Y-112313557D01*
X131685757Y-112379246D01*
X131895713Y-112412500D01*
X131895714Y-112412500D01*
X132108286Y-112412500D01*
X132108287Y-112412500D01*
X132318243Y-112379246D01*
X132520412Y-112313557D01*
X132709816Y-112217051D01*
X132731789Y-112201086D01*
X132881786Y-112092109D01*
X132881788Y-112092106D01*
X132881792Y-112092104D01*
X133032104Y-111941792D01*
X133032106Y-111941788D01*
X133032109Y-111941786D01*
X133141086Y-111791789D01*
X133157051Y-111769816D01*
X133253557Y-111580412D01*
X133319246Y-111378243D01*
X133352500Y-111168287D01*
X133352500Y-110955713D01*
X133319246Y-110745757D01*
X133253557Y-110543588D01*
X133157051Y-110354184D01*
X133157049Y-110354181D01*
X133157048Y-110354179D01*
X133032109Y-110182213D01*
X132918569Y-110068673D01*
X132885084Y-110007350D01*
X132890068Y-109937658D01*
X132931940Y-109881725D01*
X132962915Y-109864810D01*
X133094331Y-109815796D01*
X133209546Y-109729546D01*
X133295796Y-109614331D01*
X133346091Y-109479483D01*
X133352500Y-109419873D01*
X133352499Y-108459174D01*
X133352499Y-107627155D01*
X134450000Y-107627155D01*
X134450000Y-108275000D01*
X135366988Y-108275000D01*
X135334075Y-108332007D01*
X135300000Y-108459174D01*
X135300000Y-108590826D01*
X135334075Y-108717993D01*
X135366988Y-108775000D01*
X134450000Y-108775000D01*
X134450000Y-109422844D01*
X134456401Y-109482372D01*
X134456403Y-109482379D01*
X134506645Y-109617086D01*
X134506649Y-109617093D01*
X134592809Y-109732187D01*
X134592812Y-109732190D01*
X134707906Y-109818350D01*
X134707913Y-109818354D01*
X134839986Y-109867614D01*
X134895920Y-109909485D01*
X134920337Y-109974949D01*
X134905486Y-110043222D01*
X134884335Y-110071477D01*
X134770271Y-110185541D01*
X134645379Y-110357442D01*
X134548904Y-110546782D01*
X134483242Y-110748870D01*
X134483242Y-110748873D01*
X134472769Y-110815000D01*
X135366988Y-110815000D01*
X135334075Y-110872007D01*
X135300000Y-110999174D01*
X135300000Y-111130826D01*
X135334075Y-111257993D01*
X135366988Y-111315000D01*
X134472769Y-111315000D01*
X134483242Y-111381126D01*
X134483242Y-111381129D01*
X134548904Y-111583217D01*
X134645379Y-111772557D01*
X134770272Y-111944459D01*
X134770276Y-111944464D01*
X134920535Y-112094723D01*
X134920540Y-112094727D01*
X135092442Y-112219620D01*
X135281782Y-112316095D01*
X135483871Y-112381757D01*
X135550000Y-112392231D01*
X135550000Y-111498012D01*
X135607007Y-111530925D01*
X135734174Y-111565000D01*
X135865826Y-111565000D01*
X135992993Y-111530925D01*
X136050000Y-111498012D01*
X136050000Y-112392230D01*
X136116126Y-112381757D01*
X136116129Y-112381757D01*
X136318217Y-112316095D01*
X136507557Y-112219620D01*
X136679459Y-112094727D01*
X136679464Y-112094723D01*
X136829723Y-111944464D01*
X136829727Y-111944459D01*
X136954620Y-111772557D01*
X137051095Y-111583217D01*
X137116757Y-111381129D01*
X137116757Y-111381126D01*
X137127231Y-111315000D01*
X136233012Y-111315000D01*
X136265925Y-111257993D01*
X136300000Y-111130826D01*
X136300000Y-110999174D01*
X136265925Y-110872007D01*
X136233012Y-110815000D01*
X137127231Y-110815000D01*
X137116757Y-110748873D01*
X137116757Y-110748870D01*
X137051095Y-110546782D01*
X136954620Y-110357442D01*
X136829727Y-110185540D01*
X136829723Y-110185535D01*
X136715665Y-110071477D01*
X136682180Y-110010154D01*
X136687164Y-109940462D01*
X136729036Y-109884529D01*
X136760013Y-109867614D01*
X136892086Y-109818354D01*
X136892093Y-109818350D01*
X137007187Y-109732190D01*
X137007190Y-109732187D01*
X137093350Y-109617093D01*
X137093354Y-109617086D01*
X137143596Y-109482379D01*
X137143598Y-109482372D01*
X137149999Y-109422844D01*
X137150000Y-109422827D01*
X137150000Y-108775000D01*
X136233012Y-108775000D01*
X136265925Y-108717993D01*
X136300000Y-108590826D01*
X136300000Y-108459174D01*
X136265925Y-108332007D01*
X136233012Y-108275000D01*
X137150000Y-108275000D01*
X137150000Y-107627172D01*
X137149999Y-107627155D01*
X137143598Y-107567627D01*
X137143596Y-107567620D01*
X137093354Y-107432913D01*
X137093350Y-107432906D01*
X137007190Y-107317812D01*
X137007187Y-107317809D01*
X136892093Y-107231649D01*
X136892086Y-107231645D01*
X136757379Y-107181403D01*
X136757372Y-107181401D01*
X136697844Y-107175000D01*
X136050000Y-107175000D01*
X136050000Y-108091988D01*
X135992993Y-108059075D01*
X135865826Y-108025000D01*
X135734174Y-108025000D01*
X135607007Y-108059075D01*
X135550000Y-108091988D01*
X135550000Y-107175000D01*
X134902155Y-107175000D01*
X134842627Y-107181401D01*
X134842620Y-107181403D01*
X134707913Y-107231645D01*
X134707906Y-107231649D01*
X134592812Y-107317809D01*
X134592809Y-107317812D01*
X134506649Y-107432906D01*
X134506645Y-107432913D01*
X134456403Y-107567620D01*
X134456401Y-107567627D01*
X134450000Y-107627155D01*
X133352499Y-107627155D01*
X133352499Y-107624129D01*
X133352498Y-107624123D01*
X133351214Y-107612181D01*
X133346091Y-107564517D01*
X133344810Y-107561083D01*
X133295797Y-107429671D01*
X133295793Y-107429664D01*
X133209547Y-107314455D01*
X133209544Y-107314452D01*
X133094335Y-107228206D01*
X133094328Y-107228202D01*
X132959482Y-107177908D01*
X132959483Y-107177908D01*
X132899883Y-107171501D01*
X132899881Y-107171500D01*
X132899873Y-107171500D01*
X132899864Y-107171500D01*
X131104129Y-107171500D01*
X131104123Y-107171501D01*
X131044516Y-107177908D01*
X130909671Y-107228202D01*
X130909664Y-107228206D01*
X130794455Y-107314452D01*
X130794452Y-107314455D01*
X130708206Y-107429664D01*
X130708203Y-107429669D01*
X130659189Y-107561083D01*
X130617317Y-107617016D01*
X130551853Y-107641433D01*
X130483580Y-107626581D01*
X130455326Y-107605430D01*
X130341786Y-107491890D01*
X130169820Y-107366951D01*
X129980414Y-107270444D01*
X129980413Y-107270443D01*
X129980412Y-107270443D01*
X129778243Y-107204754D01*
X129778241Y-107204753D01*
X129778240Y-107204753D01*
X129616957Y-107179208D01*
X129568287Y-107171500D01*
X129355713Y-107171500D01*
X129307042Y-107179208D01*
X129145760Y-107204753D01*
X128943585Y-107270444D01*
X128754179Y-107366951D01*
X128582213Y-107491890D01*
X128431890Y-107642213D01*
X128306949Y-107814182D01*
X128302484Y-107822946D01*
X128254509Y-107873742D01*
X128186688Y-107890536D01*
X128120553Y-107867998D01*
X128081516Y-107822946D01*
X128077050Y-107814182D01*
X127952109Y-107642213D01*
X127801786Y-107491890D01*
X127629820Y-107366951D01*
X127440414Y-107270444D01*
X127440413Y-107270443D01*
X127440412Y-107270443D01*
X127238243Y-107204754D01*
X127238241Y-107204753D01*
X127238240Y-107204753D01*
X127076957Y-107179208D01*
X127028287Y-107171500D01*
X126815713Y-107171500D01*
X126767042Y-107179208D01*
X126605760Y-107204753D01*
X126403585Y-107270444D01*
X126214179Y-107366951D01*
X126042213Y-107491890D01*
X125891890Y-107642213D01*
X125766949Y-107814182D01*
X125762484Y-107822946D01*
X125714509Y-107873742D01*
X125646688Y-107890536D01*
X125580553Y-107867998D01*
X125541516Y-107822946D01*
X125537050Y-107814182D01*
X125412109Y-107642213D01*
X125261786Y-107491890D01*
X125089820Y-107366951D01*
X124900414Y-107270444D01*
X124900413Y-107270443D01*
X124900412Y-107270443D01*
X124698243Y-107204754D01*
X124698241Y-107204753D01*
X124698240Y-107204753D01*
X124536957Y-107179208D01*
X124488287Y-107171500D01*
X124275713Y-107171500D01*
X124227042Y-107179208D01*
X124065760Y-107204753D01*
X123863585Y-107270444D01*
X123741644Y-107332576D01*
X123672974Y-107345472D01*
X123608234Y-107319195D01*
X123567977Y-107262089D01*
X123564985Y-107192283D01*
X123597667Y-107134410D01*
X123621789Y-107110289D01*
X123709394Y-106979179D01*
X123769737Y-106833497D01*
X123800500Y-106678842D01*
X123800500Y-106521158D01*
X123800500Y-106521155D01*
X123800499Y-106521153D01*
X123769738Y-106366510D01*
X123769737Y-106366503D01*
X123769735Y-106366498D01*
X123709397Y-106220827D01*
X123709390Y-106220814D01*
X123621789Y-106089711D01*
X123621786Y-106089707D01*
X123510292Y-105978213D01*
X123510288Y-105978210D01*
X123379185Y-105890609D01*
X123379172Y-105890602D01*
X123233501Y-105830264D01*
X123233489Y-105830261D01*
X123078845Y-105799500D01*
X123078842Y-105799500D01*
X122921158Y-105799500D01*
X122921155Y-105799500D01*
X122766510Y-105830261D01*
X122766498Y-105830264D01*
X122620827Y-105890602D01*
X122620814Y-105890609D01*
X122489711Y-105978210D01*
X122489707Y-105978213D01*
X122378213Y-106089707D01*
X122378210Y-106089711D01*
X122290609Y-106220814D01*
X122290602Y-106220827D01*
X122230264Y-106366498D01*
X122230261Y-106366510D01*
X122199500Y-106521153D01*
X122199500Y-106678846D01*
X122230261Y-106833489D01*
X122230264Y-106833501D01*
X122290602Y-106979172D01*
X122290609Y-106979185D01*
X122321168Y-107024919D01*
X122342046Y-107091596D01*
X122323562Y-107158977D01*
X122271583Y-107205667D01*
X122202613Y-107216843D01*
X122179751Y-107211742D01*
X122158240Y-107204753D01*
X121996957Y-107179208D01*
X121948287Y-107171500D01*
X121735713Y-107171500D01*
X121687042Y-107179208D01*
X121525760Y-107204753D01*
X121323585Y-107270444D01*
X121134179Y-107366951D01*
X120962213Y-107491890D01*
X120811890Y-107642213D01*
X120686951Y-107814179D01*
X120590444Y-108003585D01*
X120524753Y-108205760D01*
X120513787Y-108275000D01*
X120491500Y-108415713D01*
X94000500Y-108415713D01*
X94000500Y-101481947D01*
X99150000Y-101481947D01*
X99150000Y-101718052D01*
X99186934Y-101951247D01*
X99259897Y-102175802D01*
X99367085Y-102386171D01*
X99505866Y-102577186D01*
X99672821Y-102744141D01*
X99805737Y-102840709D01*
X99805739Y-102840709D01*
X100409219Y-102237228D01*
X100495818Y-102273099D01*
X100631056Y-102300000D01*
X101053551Y-102300000D01*
X100292512Y-103061037D01*
X100292512Y-103061038D01*
X100298750Y-103063065D01*
X100531948Y-103100000D01*
X102268052Y-103100000D01*
X102501247Y-103063065D01*
X102501253Y-103063064D01*
X102507485Y-103061037D01*
X101746448Y-102300000D01*
X102168944Y-102300000D01*
X102304182Y-102273099D01*
X102390780Y-102237228D01*
X102994260Y-102840708D01*
X103127186Y-102744133D01*
X103294133Y-102577186D01*
X103432914Y-102386171D01*
X103540102Y-102175802D01*
X103613065Y-101951247D01*
X103650000Y-101718052D01*
X103650000Y-101481949D01*
X103642479Y-101434465D01*
X103642479Y-101434464D01*
X103613065Y-101248751D01*
X103540102Y-101024197D01*
X103432914Y-100813828D01*
X103294133Y-100622813D01*
X103127186Y-100455866D01*
X103127180Y-100455861D01*
X102994261Y-100359289D01*
X102994260Y-100359289D01*
X102390779Y-100962770D01*
X102304182Y-100926901D01*
X102168944Y-100900000D01*
X101746448Y-100900000D01*
X102507486Y-100138961D01*
X102507486Y-100138960D01*
X102501256Y-100136936D01*
X102501246Y-100136934D01*
X102268052Y-100100000D01*
X100531948Y-100100000D01*
X100298756Y-100136933D01*
X100298744Y-100136936D01*
X100292512Y-100138961D01*
X101053552Y-100900000D01*
X100631056Y-100900000D01*
X100495818Y-100926901D01*
X100409219Y-100962770D01*
X99805738Y-100359289D01*
X99672814Y-100455866D01*
X99672813Y-100455866D01*
X99505866Y-100622813D01*
X99367085Y-100813828D01*
X99259897Y-101024197D01*
X99186934Y-101248752D01*
X99150000Y-101481947D01*
X94000500Y-101481947D01*
X94000500Y-95881947D01*
X94900000Y-95881947D01*
X94900000Y-96500000D01*
X95700000Y-96500000D01*
X95700000Y-97000000D01*
X94900000Y-97000000D01*
X94900000Y-97618052D01*
X94936934Y-97851247D01*
X95009897Y-98075802D01*
X95117085Y-98286171D01*
X95255866Y-98477186D01*
X95422813Y-98644133D01*
X95613828Y-98782914D01*
X95824195Y-98890102D01*
X96048744Y-98963063D01*
X96048750Y-98963065D01*
X96150000Y-98979101D01*
X96150000Y-98104120D01*
X96195818Y-98123099D01*
X96331056Y-98150000D01*
X96468944Y-98150000D01*
X96604182Y-98123099D01*
X96650000Y-98104120D01*
X96650000Y-98979100D01*
X96751249Y-98963065D01*
X96751255Y-98963063D01*
X96975804Y-98890102D01*
X97186171Y-98782914D01*
X97377186Y-98644133D01*
X97544133Y-98477186D01*
X97682914Y-98286171D01*
X97790102Y-98075802D01*
X97863065Y-97851247D01*
X97900000Y-97618052D01*
X97900000Y-97000000D01*
X97100000Y-97000000D01*
X97100000Y-96667149D01*
X99899500Y-96667149D01*
X99899500Y-96832850D01*
X99905918Y-96936235D01*
X99905919Y-96936238D01*
X99956950Y-97179615D01*
X99956953Y-97179625D01*
X100043140Y-97400500D01*
X100047344Y-97411273D01*
X100170557Y-97618052D01*
X100174639Y-97624902D01*
X100335348Y-97814649D01*
X100335350Y-97814651D01*
X100525097Y-97975360D01*
X100525103Y-97975363D01*
X100525106Y-97975366D01*
X100738727Y-98102656D01*
X100738730Y-98102657D01*
X100970374Y-98193046D01*
X100970381Y-98193048D01*
X100970386Y-98193050D01*
X101213763Y-98244081D01*
X101317158Y-98250500D01*
X101317169Y-98250500D01*
X101482831Y-98250500D01*
X101482842Y-98250500D01*
X101586237Y-98244081D01*
X101829614Y-98193050D01*
X101829621Y-98193046D01*
X101829625Y-98193046D01*
X101996783Y-98127820D01*
X102061273Y-98102656D01*
X102274894Y-97975366D01*
X102274898Y-97975361D01*
X102274902Y-97975360D01*
X102464649Y-97814651D01*
X102464651Y-97814649D01*
X102625360Y-97624902D01*
X102625361Y-97624898D01*
X102625366Y-97624894D01*
X102752656Y-97411273D01*
X102826593Y-97221789D01*
X102843046Y-97179625D01*
X102843046Y-97179621D01*
X102843050Y-97179614D01*
X102880711Y-97000000D01*
X105400000Y-97000000D01*
X108200000Y-97000000D01*
X108200000Y-96200000D01*
X105400000Y-96200000D01*
X105400000Y-97000000D01*
X102880711Y-97000000D01*
X102894081Y-96936237D01*
X102900500Y-96832842D01*
X102900500Y-96667158D01*
X102894081Y-96563763D01*
X102843050Y-96320386D01*
X102843048Y-96320381D01*
X102843046Y-96320374D01*
X102793622Y-96193713D01*
X102752657Y-96088730D01*
X102752656Y-96088727D01*
X102625366Y-95875106D01*
X102625363Y-95875103D01*
X102625360Y-95875097D01*
X102464651Y-95685350D01*
X102464649Y-95685348D01*
X102274902Y-95524639D01*
X102244961Y-95506798D01*
X102061273Y-95397344D01*
X102061271Y-95397343D01*
X102061269Y-95397342D01*
X101829625Y-95306953D01*
X101829615Y-95306950D01*
X101586238Y-95255919D01*
X101586235Y-95255918D01*
X101482850Y-95249500D01*
X101482842Y-95249500D01*
X101317158Y-95249500D01*
X101317149Y-95249500D01*
X101213764Y-95255918D01*
X101213761Y-95255919D01*
X100970384Y-95306950D01*
X100970374Y-95306953D01*
X100738730Y-95397342D01*
X100525097Y-95524639D01*
X100335350Y-95685348D01*
X100335348Y-95685350D01*
X100174639Y-95875097D01*
X100047342Y-96088730D01*
X99956953Y-96320374D01*
X99956950Y-96320384D01*
X99905919Y-96563761D01*
X99905918Y-96563764D01*
X99899500Y-96667149D01*
X97100000Y-96667149D01*
X97100000Y-96500000D01*
X97900000Y-96500000D01*
X97900000Y-95881947D01*
X97863065Y-95648752D01*
X97790102Y-95424197D01*
X97682914Y-95213828D01*
X97544133Y-95022813D01*
X97377186Y-94855866D01*
X97186171Y-94717085D01*
X96975802Y-94609897D01*
X96751247Y-94536934D01*
X96650000Y-94520897D01*
X96650000Y-95395879D01*
X96604182Y-95376901D01*
X96468944Y-95350000D01*
X96331056Y-95350000D01*
X96195818Y-95376901D01*
X96150000Y-95395879D01*
X96150000Y-94520897D01*
X96048752Y-94536934D01*
X95824197Y-94609897D01*
X95613828Y-94717085D01*
X95422813Y-94855866D01*
X95255866Y-95022813D01*
X95117085Y-95213828D01*
X95009897Y-95424197D01*
X94936934Y-95648752D01*
X94900000Y-95881947D01*
X94000500Y-95881947D01*
X94000500Y-91681947D01*
X99150000Y-91681947D01*
X99150000Y-91918052D01*
X99186934Y-92151247D01*
X99259897Y-92375802D01*
X99367085Y-92586171D01*
X99505866Y-92777186D01*
X99672821Y-92944141D01*
X99805737Y-93040709D01*
X99805739Y-93040709D01*
X100409219Y-92437228D01*
X100495818Y-92473099D01*
X100631056Y-92500000D01*
X101053551Y-92500000D01*
X100292512Y-93261037D01*
X100292512Y-93261038D01*
X100298750Y-93263065D01*
X100531948Y-93300000D01*
X102268052Y-93300000D01*
X102501247Y-93263065D01*
X102501253Y-93263064D01*
X102507485Y-93261037D01*
X101746448Y-92500000D01*
X102168944Y-92500000D01*
X102304182Y-92473099D01*
X102390780Y-92437228D01*
X102994260Y-93040708D01*
X103127186Y-92944133D01*
X103294133Y-92777186D01*
X103432914Y-92586171D01*
X103529674Y-92396271D01*
X103529675Y-92396269D01*
X103540101Y-92375805D01*
X103613065Y-92151247D01*
X103650000Y-91918052D01*
X103650000Y-91681947D01*
X103613065Y-91448752D01*
X103540102Y-91224197D01*
X103513181Y-91171361D01*
X103432914Y-91013828D01*
X103294133Y-90822813D01*
X103127186Y-90655866D01*
X103127180Y-90655861D01*
X102994261Y-90559289D01*
X102994260Y-90559289D01*
X102390779Y-91162770D01*
X102304182Y-91126901D01*
X102168944Y-91100000D01*
X101746448Y-91100000D01*
X102507486Y-90338961D01*
X102499538Y-90305854D01*
X102477155Y-90252884D01*
X102489072Y-90184038D01*
X102536317Y-90132563D01*
X102580951Y-90116279D01*
X102601255Y-90113063D01*
X102607485Y-90111037D01*
X101846448Y-89350000D01*
X102268944Y-89350000D01*
X102404182Y-89323099D01*
X102490780Y-89287228D01*
X103094260Y-89890708D01*
X103227186Y-89794133D01*
X103394133Y-89627186D01*
X103532914Y-89436171D01*
X103640102Y-89225802D01*
X103713065Y-89001247D01*
X103750000Y-88768052D01*
X103750000Y-88531947D01*
X103734560Y-88434464D01*
X103713065Y-88298752D01*
X103640102Y-88074197D01*
X103532914Y-87863828D01*
X103394133Y-87672813D01*
X103227186Y-87505866D01*
X103227180Y-87505861D01*
X103094261Y-87409289D01*
X103094260Y-87409289D01*
X102490779Y-88012770D01*
X102404182Y-87976901D01*
X102268944Y-87950000D01*
X101846448Y-87950000D01*
X102607486Y-87188961D01*
X102607486Y-87188960D01*
X102601256Y-87186936D01*
X102601246Y-87186934D01*
X102368052Y-87150000D01*
X100631948Y-87150000D01*
X100398756Y-87186933D01*
X100398744Y-87186936D01*
X100392512Y-87188961D01*
X101153552Y-87950000D01*
X100731056Y-87950000D01*
X100595818Y-87976901D01*
X100509219Y-88012770D01*
X99905738Y-87409289D01*
X99772814Y-87505866D01*
X99772813Y-87505866D01*
X99605866Y-87672813D01*
X99467085Y-87863828D01*
X99359897Y-88074197D01*
X99286934Y-88298752D01*
X99250000Y-88531947D01*
X99250000Y-88768052D01*
X99286934Y-89001247D01*
X99359897Y-89225802D01*
X99467085Y-89436171D01*
X99605866Y-89627186D01*
X99772821Y-89794141D01*
X99905737Y-89890709D01*
X99905739Y-89890708D01*
X100509218Y-89287228D01*
X100595818Y-89323099D01*
X100731056Y-89350000D01*
X101153551Y-89350000D01*
X100392512Y-90111037D01*
X100400435Y-90144046D01*
X100422859Y-90197121D01*
X100410938Y-90265967D01*
X100393422Y-90292397D01*
X100324998Y-90371447D01*
X101053552Y-91100000D01*
X100631056Y-91100000D01*
X100495818Y-91126901D01*
X100409219Y-91162770D01*
X99805738Y-90559289D01*
X99672814Y-90655866D01*
X99672813Y-90655866D01*
X99505866Y-90822813D01*
X99367085Y-91013828D01*
X99259897Y-91224197D01*
X99186934Y-91448752D01*
X99150000Y-91681947D01*
X94000500Y-91681947D01*
X94000500Y-86777648D01*
X107299500Y-86777648D01*
X107299500Y-86982351D01*
X107331522Y-87184534D01*
X107394781Y-87379223D01*
X107487715Y-87561613D01*
X107608028Y-87727213D01*
X107752786Y-87871971D01*
X107860186Y-87950000D01*
X107918390Y-87992287D01*
X108034607Y-88051503D01*
X108100776Y-88085218D01*
X108100778Y-88085218D01*
X108100781Y-88085220D01*
X108165579Y-88106274D01*
X108295465Y-88148477D01*
X108354789Y-88157873D01*
X108497648Y-88180500D01*
X108497649Y-88180500D01*
X108702351Y-88180500D01*
X108702352Y-88180500D01*
X108904534Y-88148477D01*
X109099219Y-88085220D01*
X109281610Y-87992287D01*
X109408351Y-87900205D01*
X109447213Y-87871971D01*
X109447215Y-87871968D01*
X109447219Y-87871966D01*
X109591966Y-87727219D01*
X109591968Y-87727215D01*
X109591971Y-87727213D01*
X109684032Y-87600500D01*
X109712287Y-87561610D01*
X109805220Y-87379219D01*
X109868477Y-87184534D01*
X109900500Y-86982352D01*
X109900500Y-86777648D01*
X109889690Y-86709397D01*
X109868477Y-86575465D01*
X109818230Y-86420821D01*
X109805220Y-86380781D01*
X109805218Y-86380778D01*
X109805218Y-86380776D01*
X109744738Y-86262079D01*
X109712287Y-86198390D01*
X109697626Y-86178211D01*
X109591971Y-86032786D01*
X109447213Y-85888028D01*
X109281613Y-85767715D01*
X109281612Y-85767714D01*
X109281610Y-85767713D01*
X109224653Y-85738691D01*
X109099223Y-85674781D01*
X108904534Y-85611522D01*
X108729995Y-85583878D01*
X108702352Y-85579500D01*
X108497648Y-85579500D01*
X108473329Y-85583351D01*
X108295465Y-85611522D01*
X108100776Y-85674781D01*
X107918386Y-85767715D01*
X107752786Y-85888028D01*
X107608028Y-86032786D01*
X107487715Y-86198386D01*
X107394781Y-86380776D01*
X107331522Y-86575465D01*
X107299500Y-86777648D01*
X94000500Y-86777648D01*
X94000500Y-82931947D01*
X95000000Y-82931947D01*
X95000000Y-83550000D01*
X95800000Y-83550000D01*
X95800000Y-84050000D01*
X95000000Y-84050000D01*
X95000000Y-84668052D01*
X95036934Y-84901247D01*
X95109897Y-85125802D01*
X95217085Y-85336171D01*
X95355866Y-85527186D01*
X95522813Y-85694133D01*
X95713828Y-85832914D01*
X95924195Y-85940102D01*
X96148744Y-86013063D01*
X96148750Y-86013065D01*
X96250000Y-86029101D01*
X96250000Y-85154120D01*
X96295818Y-85173099D01*
X96431056Y-85200000D01*
X96568944Y-85200000D01*
X96704182Y-85173099D01*
X96750000Y-85154120D01*
X96750000Y-86029100D01*
X96851249Y-86013065D01*
X96851255Y-86013063D01*
X97075804Y-85940102D01*
X97286171Y-85832914D01*
X97477186Y-85694133D01*
X97644133Y-85527186D01*
X97782914Y-85336171D01*
X97890102Y-85125802D01*
X97963065Y-84901247D01*
X98000000Y-84668052D01*
X98000000Y-84050000D01*
X97200000Y-84050000D01*
X97200000Y-83717149D01*
X99999500Y-83717149D01*
X99999500Y-83882850D01*
X100005918Y-83986235D01*
X100005919Y-83986238D01*
X100056950Y-84229615D01*
X100056953Y-84229625D01*
X100147342Y-84461269D01*
X100147344Y-84461273D01*
X100211502Y-84568944D01*
X100274639Y-84674902D01*
X100435348Y-84864649D01*
X100435350Y-84864651D01*
X100625097Y-85025360D01*
X100625103Y-85025363D01*
X100625106Y-85025366D01*
X100838727Y-85152656D01*
X100838730Y-85152657D01*
X101070374Y-85243046D01*
X101070381Y-85243048D01*
X101070386Y-85243050D01*
X101313763Y-85294081D01*
X101417158Y-85300500D01*
X101417169Y-85300500D01*
X101582831Y-85300500D01*
X101582842Y-85300500D01*
X101686237Y-85294081D01*
X101929614Y-85243050D01*
X101929621Y-85243046D01*
X101929625Y-85243046D01*
X102039941Y-85200000D01*
X102161273Y-85152656D01*
X102374894Y-85025366D01*
X102374898Y-85025361D01*
X102374902Y-85025360D01*
X102564649Y-84864651D01*
X102564651Y-84864649D01*
X102725360Y-84674902D01*
X102725361Y-84674898D01*
X102725366Y-84674894D01*
X102852656Y-84461273D01*
X102943050Y-84229614D01*
X102949259Y-84200000D01*
X105400000Y-84200000D01*
X108200000Y-84200000D01*
X108200000Y-83400000D01*
X105400000Y-83400000D01*
X105400000Y-84200000D01*
X102949259Y-84200000D01*
X102994081Y-83986237D01*
X103000500Y-83882842D01*
X103000500Y-83717158D01*
X102994081Y-83613763D01*
X102943050Y-83370386D01*
X102943048Y-83370381D01*
X102943046Y-83370374D01*
X102852657Y-83138730D01*
X102852656Y-83138727D01*
X102725366Y-82925106D01*
X102725363Y-82925103D01*
X102725360Y-82925097D01*
X102564651Y-82735350D01*
X102564649Y-82735348D01*
X102374902Y-82574639D01*
X102374894Y-82574634D01*
X102161273Y-82447344D01*
X102161271Y-82447343D01*
X102161269Y-82447342D01*
X101929625Y-82356953D01*
X101929615Y-82356950D01*
X101686238Y-82305919D01*
X101686235Y-82305918D01*
X101582850Y-82299500D01*
X101582842Y-82299500D01*
X101417158Y-82299500D01*
X101417149Y-82299500D01*
X101313764Y-82305918D01*
X101313761Y-82305919D01*
X101070384Y-82356950D01*
X101070374Y-82356953D01*
X100838730Y-82447342D01*
X100625097Y-82574639D01*
X100435350Y-82735348D01*
X100435348Y-82735350D01*
X100274639Y-82925097D01*
X100147342Y-83138730D01*
X100056953Y-83370374D01*
X100056950Y-83370384D01*
X100005919Y-83613761D01*
X100005918Y-83613764D01*
X99999500Y-83717149D01*
X97200000Y-83717149D01*
X97200000Y-83550000D01*
X98000000Y-83550000D01*
X98000000Y-82931947D01*
X97963065Y-82698752D01*
X97890102Y-82474197D01*
X97782914Y-82263828D01*
X97644133Y-82072813D01*
X97477186Y-81905866D01*
X97286171Y-81767085D01*
X97075802Y-81659897D01*
X96851247Y-81586934D01*
X96750000Y-81570897D01*
X96750000Y-82445879D01*
X96704182Y-82426901D01*
X96568944Y-82400000D01*
X96431056Y-82400000D01*
X96295818Y-82426901D01*
X96250000Y-82445879D01*
X96250000Y-81570897D01*
X96148752Y-81586934D01*
X95924197Y-81659897D01*
X95713828Y-81767085D01*
X95522813Y-81905866D01*
X95355866Y-82072813D01*
X95217085Y-82263828D01*
X95109897Y-82474197D01*
X95036934Y-82698752D01*
X95000000Y-82931947D01*
X94000500Y-82931947D01*
X94000500Y-80800000D01*
X111000000Y-80800000D01*
X111000000Y-96400000D01*
X117200000Y-102600000D01*
X123788745Y-102600000D01*
X123679213Y-102709532D01*
X123679210Y-102709536D01*
X123591609Y-102840639D01*
X123591602Y-102840652D01*
X123531264Y-102986323D01*
X123531261Y-102986335D01*
X123500500Y-103140978D01*
X123500500Y-103298671D01*
X123531261Y-103453314D01*
X123531264Y-103453326D01*
X123591602Y-103598997D01*
X123591609Y-103599010D01*
X123679210Y-103730113D01*
X123679213Y-103730117D01*
X123790707Y-103841611D01*
X123790711Y-103841614D01*
X123921814Y-103929215D01*
X123921827Y-103929222D01*
X124067498Y-103989560D01*
X124067503Y-103989562D01*
X124222153Y-104020324D01*
X124222156Y-104020325D01*
X124222158Y-104020325D01*
X124379844Y-104020325D01*
X124379845Y-104020324D01*
X124534497Y-103989562D01*
X124680179Y-103929219D01*
X124811289Y-103841614D01*
X124922789Y-103730114D01*
X125010394Y-103599004D01*
X125070737Y-103453322D01*
X125101500Y-103298667D01*
X125101500Y-103140983D01*
X125101500Y-103140980D01*
X125101499Y-103140978D01*
X125085598Y-103061038D01*
X125070737Y-102986328D01*
X125070735Y-102986323D01*
X125010397Y-102840652D01*
X125010390Y-102840639D01*
X124922789Y-102709536D01*
X124922786Y-102709532D01*
X124813254Y-102600000D01*
X137800000Y-102600000D01*
X137800000Y-100302155D01*
X140875000Y-100302155D01*
X140875000Y-100950000D01*
X141791988Y-100950000D01*
X141759075Y-101007007D01*
X141725000Y-101134174D01*
X141725000Y-101265826D01*
X141759075Y-101392993D01*
X141791988Y-101450000D01*
X140875000Y-101450000D01*
X140875000Y-102097844D01*
X140881401Y-102157372D01*
X140881403Y-102157379D01*
X140931645Y-102292086D01*
X140931649Y-102292093D01*
X141017809Y-102407187D01*
X141017812Y-102407190D01*
X141132906Y-102493350D01*
X141132913Y-102493354D01*
X141267620Y-102543596D01*
X141267627Y-102543598D01*
X141327155Y-102549999D01*
X141327172Y-102550000D01*
X141975000Y-102550000D01*
X141975000Y-101633012D01*
X142032007Y-101665925D01*
X142159174Y-101700000D01*
X142290826Y-101700000D01*
X142417993Y-101665925D01*
X142475000Y-101633012D01*
X142475000Y-102550000D01*
X143122828Y-102550000D01*
X143122844Y-102549999D01*
X143182372Y-102543598D01*
X143182379Y-102543596D01*
X143317086Y-102493354D01*
X143317093Y-102493350D01*
X143432187Y-102407190D01*
X143432190Y-102407187D01*
X143518350Y-102292093D01*
X143518354Y-102292086D01*
X143567614Y-102160013D01*
X143609485Y-102104079D01*
X143674949Y-102079662D01*
X143743222Y-102094513D01*
X143771477Y-102115665D01*
X143885535Y-102229723D01*
X143885540Y-102229727D01*
X144057442Y-102354620D01*
X144246782Y-102451095D01*
X144448871Y-102516757D01*
X144515000Y-102527231D01*
X144515000Y-101633012D01*
X144572007Y-101665925D01*
X144699174Y-101700000D01*
X144830826Y-101700000D01*
X144957993Y-101665925D01*
X145015000Y-101633012D01*
X145015000Y-102527230D01*
X145081126Y-102516757D01*
X145081129Y-102516757D01*
X145283217Y-102451095D01*
X145472557Y-102354620D01*
X145644459Y-102229727D01*
X145644464Y-102229723D01*
X145794723Y-102079464D01*
X145794727Y-102079459D01*
X145919620Y-101907557D01*
X146016095Y-101718217D01*
X146081757Y-101516129D01*
X146081757Y-101516126D01*
X146092231Y-101450000D01*
X145198012Y-101450000D01*
X145230925Y-101392993D01*
X145265000Y-101265826D01*
X145265000Y-101134174D01*
X145230925Y-101007007D01*
X145198012Y-100950000D01*
X146092231Y-100950000D01*
X146081757Y-100883873D01*
X146081757Y-100883870D01*
X146016095Y-100681782D01*
X145919620Y-100492442D01*
X145794727Y-100320540D01*
X145794723Y-100320535D01*
X145644464Y-100170276D01*
X145644459Y-100170272D01*
X145472557Y-100045379D01*
X145283215Y-99948903D01*
X145081124Y-99883241D01*
X145015000Y-99872768D01*
X145015000Y-100766988D01*
X144957993Y-100734075D01*
X144830826Y-100700000D01*
X144699174Y-100700000D01*
X144572007Y-100734075D01*
X144515000Y-100766988D01*
X144515000Y-99872768D01*
X144514999Y-99872768D01*
X144448875Y-99883241D01*
X144246784Y-99948903D01*
X144057442Y-100045379D01*
X143885541Y-100170271D01*
X143771477Y-100284335D01*
X143710154Y-100317819D01*
X143640462Y-100312835D01*
X143584529Y-100270963D01*
X143567614Y-100239986D01*
X143518354Y-100107913D01*
X143518350Y-100107906D01*
X143432190Y-99992812D01*
X143432187Y-99992809D01*
X143317093Y-99906649D01*
X143317086Y-99906645D01*
X143182379Y-99856403D01*
X143182372Y-99856401D01*
X143122844Y-99850000D01*
X142475000Y-99850000D01*
X142475000Y-100766988D01*
X142417993Y-100734075D01*
X142290826Y-100700000D01*
X142159174Y-100700000D01*
X142032007Y-100734075D01*
X141975000Y-100766988D01*
X141975000Y-99850000D01*
X141327155Y-99850000D01*
X141267627Y-99856401D01*
X141267620Y-99856403D01*
X141132913Y-99906645D01*
X141132906Y-99906649D01*
X141017812Y-99992809D01*
X141017809Y-99992812D01*
X140931649Y-100107906D01*
X140931645Y-100107913D01*
X140881403Y-100242620D01*
X140881401Y-100242627D01*
X140875000Y-100302155D01*
X137800000Y-100302155D01*
X137800000Y-84830654D01*
X137853210Y-84910288D01*
X137853213Y-84910292D01*
X137964707Y-85021786D01*
X137964711Y-85021789D01*
X138095814Y-85109390D01*
X138095827Y-85109397D01*
X138236271Y-85167570D01*
X138241503Y-85169737D01*
X138391131Y-85199500D01*
X138396153Y-85200499D01*
X138396156Y-85200500D01*
X138396158Y-85200500D01*
X138553844Y-85200500D01*
X138553845Y-85200499D01*
X138708497Y-85169737D01*
X138854179Y-85109394D01*
X138985289Y-85021789D01*
X139096789Y-84910289D01*
X139184394Y-84779179D01*
X139244737Y-84633497D01*
X139275500Y-84478842D01*
X139275500Y-84321158D01*
X139275500Y-84321155D01*
X139275499Y-84321153D01*
X139257291Y-84229615D01*
X139244737Y-84166503D01*
X139244735Y-84166498D01*
X139184397Y-84020827D01*
X139184390Y-84020814D01*
X139096789Y-83889711D01*
X139096786Y-83889707D01*
X138985292Y-83778213D01*
X138985288Y-83778210D01*
X138854185Y-83690609D01*
X138854172Y-83690602D01*
X138708501Y-83630264D01*
X138708489Y-83630261D01*
X138553845Y-83599500D01*
X138553842Y-83599500D01*
X138396158Y-83599500D01*
X138396155Y-83599500D01*
X138241510Y-83630261D01*
X138241498Y-83630264D01*
X138095827Y-83690602D01*
X138095814Y-83690609D01*
X137964711Y-83778210D01*
X137964707Y-83778213D01*
X137853213Y-83889707D01*
X137853210Y-83889711D01*
X137800000Y-83969344D01*
X137800000Y-82057648D01*
X137899500Y-82057648D01*
X137899500Y-82262351D01*
X137931522Y-82464534D01*
X137994781Y-82659223D01*
X138087715Y-82841613D01*
X138208028Y-83007213D01*
X138352786Y-83151971D01*
X138507749Y-83264556D01*
X138518390Y-83272287D01*
X138634607Y-83331503D01*
X138700776Y-83365218D01*
X138700778Y-83365218D01*
X138700781Y-83365220D01*
X138805137Y-83399127D01*
X138895465Y-83428477D01*
X138996557Y-83444488D01*
X139097648Y-83460500D01*
X139097649Y-83460500D01*
X139302351Y-83460500D01*
X139302352Y-83460500D01*
X139504534Y-83428477D01*
X139699219Y-83365220D01*
X139881610Y-83272287D01*
X140022758Y-83169738D01*
X140047213Y-83151971D01*
X140047215Y-83151968D01*
X140047219Y-83151966D01*
X140191966Y-83007219D01*
X140191968Y-83007215D01*
X140191971Y-83007213D01*
X140285763Y-82878117D01*
X140312287Y-82841610D01*
X140405220Y-82659219D01*
X140468477Y-82464534D01*
X140500500Y-82262352D01*
X140500500Y-82057648D01*
X140468477Y-81855466D01*
X140405220Y-81660781D01*
X140405218Y-81660778D01*
X140405218Y-81660776D01*
X140359422Y-81570897D01*
X140312287Y-81478390D01*
X140263477Y-81411208D01*
X140191971Y-81312786D01*
X140047213Y-81168028D01*
X139881613Y-81047715D01*
X139881612Y-81047714D01*
X139881610Y-81047713D01*
X139824653Y-81018691D01*
X139699223Y-80954781D01*
X139504534Y-80891522D01*
X139329995Y-80863878D01*
X139302352Y-80859500D01*
X139097648Y-80859500D01*
X139073329Y-80863351D01*
X138895465Y-80891522D01*
X138700776Y-80954781D01*
X138518386Y-81047715D01*
X138352786Y-81168028D01*
X138208028Y-81312786D01*
X138087715Y-81478386D01*
X137994781Y-81660776D01*
X137931522Y-81855465D01*
X137899500Y-82057648D01*
X137800000Y-82057648D01*
X137800000Y-80800000D01*
X124305500Y-80800000D01*
X124305500Y-77429500D01*
X124325185Y-77362461D01*
X124377989Y-77316706D01*
X124429500Y-77305500D01*
X125022485Y-77305500D01*
X125089524Y-77325185D01*
X125135279Y-77377989D01*
X125145223Y-77447147D01*
X125116198Y-77510703D01*
X125095370Y-77529819D01*
X125040207Y-77569896D01*
X124889890Y-77720213D01*
X124764951Y-77892179D01*
X124668444Y-78081585D01*
X124602753Y-78283760D01*
X124583461Y-78405566D01*
X124569500Y-78493713D01*
X124569500Y-78706287D01*
X124569700Y-78707547D01*
X124602691Y-78915850D01*
X124602754Y-78916243D01*
X124647573Y-79054182D01*
X124668444Y-79118414D01*
X124764951Y-79307820D01*
X124889890Y-79479786D01*
X125040213Y-79630109D01*
X125212179Y-79755048D01*
X125212181Y-79755049D01*
X125212184Y-79755051D01*
X125401588Y-79851557D01*
X125603757Y-79917246D01*
X125813713Y-79950500D01*
X125813714Y-79950500D01*
X126026286Y-79950500D01*
X126026287Y-79950500D01*
X126236243Y-79917246D01*
X126438412Y-79851557D01*
X126627816Y-79755051D01*
X126714138Y-79692335D01*
X126799786Y-79630109D01*
X126799788Y-79630106D01*
X126799792Y-79630104D01*
X126950104Y-79479792D01*
X126950106Y-79479788D01*
X126950109Y-79479786D01*
X127075048Y-79307820D01*
X127075047Y-79307820D01*
X127075051Y-79307816D01*
X127079514Y-79299054D01*
X127127488Y-79248259D01*
X127195308Y-79231463D01*
X127261444Y-79253999D01*
X127300486Y-79299056D01*
X127304951Y-79307820D01*
X127429890Y-79479786D01*
X127580213Y-79630109D01*
X127752179Y-79755048D01*
X127752181Y-79755049D01*
X127752184Y-79755051D01*
X127941588Y-79851557D01*
X128143757Y-79917246D01*
X128353713Y-79950500D01*
X128353714Y-79950500D01*
X128566286Y-79950500D01*
X128566287Y-79950500D01*
X128776243Y-79917246D01*
X128978412Y-79851557D01*
X129167816Y-79755051D01*
X129254147Y-79692328D01*
X129339784Y-79630110D01*
X129339784Y-79630109D01*
X129339792Y-79630104D01*
X129453329Y-79516566D01*
X129514648Y-79483084D01*
X129584340Y-79488068D01*
X129640274Y-79529939D01*
X129657189Y-79560917D01*
X129706202Y-79692328D01*
X129706206Y-79692335D01*
X129792452Y-79807544D01*
X129792455Y-79807547D01*
X129907664Y-79893793D01*
X129907671Y-79893797D01*
X130042517Y-79944091D01*
X130042516Y-79944091D01*
X130049444Y-79944835D01*
X130102127Y-79950500D01*
X131897872Y-79950499D01*
X131957483Y-79944091D01*
X132092331Y-79893796D01*
X132207546Y-79807546D01*
X132293796Y-79692331D01*
X132344091Y-79557483D01*
X132350500Y-79497873D01*
X132350499Y-77702128D01*
X132344091Y-77642517D01*
X132342810Y-77639083D01*
X132293797Y-77507671D01*
X132293793Y-77507664D01*
X132207547Y-77392455D01*
X132207544Y-77392452D01*
X132092335Y-77306206D01*
X132092328Y-77306202D01*
X131957482Y-77255908D01*
X131957483Y-77255908D01*
X131897883Y-77249501D01*
X131897881Y-77249500D01*
X131897873Y-77249500D01*
X131897864Y-77249500D01*
X130102129Y-77249500D01*
X130102123Y-77249501D01*
X130042516Y-77255908D01*
X129907671Y-77306202D01*
X129907664Y-77306206D01*
X129792455Y-77392452D01*
X129792452Y-77392455D01*
X129706206Y-77507664D01*
X129706203Y-77507669D01*
X129657189Y-77639083D01*
X129615317Y-77695016D01*
X129549853Y-77719433D01*
X129481580Y-77704581D01*
X129453326Y-77683430D01*
X129339786Y-77569890D01*
X129167820Y-77444951D01*
X129157303Y-77439592D01*
X129061370Y-77390712D01*
X129010575Y-77342739D01*
X128993780Y-77274918D01*
X129016317Y-77208783D01*
X129050630Y-77175911D01*
X129055119Y-77173025D01*
X129058543Y-77170825D01*
X129111347Y-77125070D01*
X129205567Y-77016336D01*
X129265338Y-76885459D01*
X129285023Y-76818420D01*
X129285024Y-76818416D01*
X129305500Y-76676000D01*
X129305500Y-76602135D01*
X141649500Y-76602135D01*
X141649500Y-78397870D01*
X141649501Y-78397876D01*
X141655908Y-78457483D01*
X141706202Y-78592328D01*
X141706206Y-78592335D01*
X141792452Y-78707544D01*
X141792455Y-78707547D01*
X141907664Y-78793793D01*
X141907671Y-78793797D01*
X141907674Y-78793798D01*
X142039598Y-78843002D01*
X142095531Y-78884873D01*
X142119949Y-78950337D01*
X142105098Y-79018610D01*
X142083947Y-79046865D01*
X141970271Y-79160541D01*
X141845379Y-79332442D01*
X141748904Y-79521782D01*
X141683242Y-79723870D01*
X141683242Y-79723873D01*
X141672769Y-79790000D01*
X142566988Y-79790000D01*
X142534075Y-79847007D01*
X142500000Y-79974174D01*
X142500000Y-80105826D01*
X142534075Y-80232993D01*
X142566988Y-80290000D01*
X141672769Y-80290000D01*
X141683242Y-80356126D01*
X141683242Y-80356129D01*
X141748904Y-80558217D01*
X141845379Y-80747557D01*
X141970272Y-80919459D01*
X141970276Y-80919464D01*
X142120535Y-81069723D01*
X142120540Y-81069727D01*
X142292442Y-81194620D01*
X142481782Y-81291095D01*
X142683871Y-81356757D01*
X142750000Y-81367231D01*
X142750000Y-80473012D01*
X142807007Y-80505925D01*
X142934174Y-80540000D01*
X143065826Y-80540000D01*
X143192993Y-80505925D01*
X143250000Y-80473012D01*
X143250000Y-81367230D01*
X143316126Y-81356757D01*
X143316129Y-81356757D01*
X143518217Y-81291095D01*
X143707557Y-81194620D01*
X143879459Y-81069727D01*
X143879464Y-81069723D01*
X144029723Y-80919464D01*
X144029727Y-80919459D01*
X144154620Y-80747557D01*
X144251095Y-80558217D01*
X144316757Y-80356129D01*
X144316757Y-80356126D01*
X144327231Y-80290000D01*
X143433012Y-80290000D01*
X143465925Y-80232993D01*
X143500000Y-80105826D01*
X143500000Y-79974174D01*
X143465925Y-79847007D01*
X143433012Y-79790000D01*
X144327231Y-79790000D01*
X144316757Y-79723873D01*
X144316757Y-79723870D01*
X144251095Y-79521782D01*
X144154620Y-79332442D01*
X144029727Y-79160540D01*
X144029723Y-79160535D01*
X143916053Y-79046865D01*
X143882568Y-78985542D01*
X143887552Y-78915850D01*
X143929424Y-78859917D01*
X143960400Y-78843002D01*
X144092331Y-78793796D01*
X144207546Y-78707546D01*
X144293796Y-78592331D01*
X144344091Y-78457483D01*
X144350500Y-78397873D01*
X144350499Y-76602128D01*
X144344091Y-76542517D01*
X144331131Y-76507770D01*
X144293797Y-76407671D01*
X144293793Y-76407664D01*
X144207547Y-76292455D01*
X144207544Y-76292452D01*
X144092335Y-76206206D01*
X144092328Y-76206202D01*
X143957482Y-76155908D01*
X143957483Y-76155908D01*
X143897883Y-76149501D01*
X143897881Y-76149500D01*
X143897873Y-76149500D01*
X143897864Y-76149500D01*
X142102129Y-76149500D01*
X142102123Y-76149501D01*
X142042516Y-76155908D01*
X141907671Y-76206202D01*
X141907664Y-76206206D01*
X141792455Y-76292452D01*
X141792452Y-76292455D01*
X141706206Y-76407664D01*
X141706202Y-76407671D01*
X141655908Y-76542517D01*
X141649501Y-76602116D01*
X141649501Y-76602123D01*
X141649500Y-76602135D01*
X129305500Y-76602135D01*
X129305500Y-74257648D01*
X130899500Y-74257648D01*
X130899500Y-74462351D01*
X130931522Y-74664534D01*
X130994781Y-74859223D01*
X131087715Y-75041613D01*
X131208028Y-75207213D01*
X131352786Y-75351971D01*
X131507749Y-75464556D01*
X131518390Y-75472287D01*
X131634607Y-75531503D01*
X131700776Y-75565218D01*
X131700778Y-75565218D01*
X131700781Y-75565220D01*
X131805137Y-75599127D01*
X131895465Y-75628477D01*
X131996557Y-75644488D01*
X132097648Y-75660500D01*
X132097649Y-75660500D01*
X132302351Y-75660500D01*
X132302352Y-75660500D01*
X132504534Y-75628477D01*
X132699219Y-75565220D01*
X132881610Y-75472287D01*
X132974590Y-75404732D01*
X133047213Y-75351971D01*
X133047215Y-75351968D01*
X133047219Y-75351966D01*
X133191966Y-75207219D01*
X133191968Y-75207215D01*
X133191971Y-75207213D01*
X133244732Y-75134590D01*
X133312287Y-75041610D01*
X133405220Y-74859219D01*
X133468477Y-74664534D01*
X133500500Y-74462352D01*
X133500500Y-74257648D01*
X133468477Y-74055466D01*
X133405220Y-73860781D01*
X133405218Y-73860778D01*
X133405218Y-73860776D01*
X133344372Y-73741361D01*
X133312287Y-73678390D01*
X133304556Y-73667749D01*
X133191971Y-73512786D01*
X133047213Y-73368028D01*
X132881613Y-73247715D01*
X132881612Y-73247714D01*
X132881610Y-73247713D01*
X132794341Y-73203247D01*
X132699223Y-73154781D01*
X132504534Y-73091522D01*
X132329995Y-73063878D01*
X132302352Y-73059500D01*
X132097648Y-73059500D01*
X132073329Y-73063351D01*
X131895465Y-73091522D01*
X131700776Y-73154781D01*
X131518386Y-73247715D01*
X131352786Y-73368028D01*
X131208028Y-73512786D01*
X131087715Y-73678386D01*
X130994781Y-73860776D01*
X130931522Y-74055465D01*
X130899500Y-74257648D01*
X129305500Y-74257648D01*
X129305500Y-71897648D01*
X137899500Y-71897648D01*
X137899500Y-72102351D01*
X137931522Y-72304534D01*
X137994781Y-72499223D01*
X138058691Y-72624653D01*
X138075452Y-72657547D01*
X138087715Y-72681613D01*
X138208028Y-72847213D01*
X138352786Y-72991971D01*
X138507749Y-73104556D01*
X138518390Y-73112287D01*
X138634607Y-73171503D01*
X138700776Y-73205218D01*
X138700778Y-73205218D01*
X138700781Y-73205220D01*
X138805137Y-73239127D01*
X138895465Y-73268477D01*
X138996557Y-73284488D01*
X139097648Y-73300500D01*
X139097649Y-73300500D01*
X139302351Y-73300500D01*
X139302352Y-73300500D01*
X139504534Y-73268477D01*
X139699219Y-73205220D01*
X139881610Y-73112287D01*
X139998123Y-73027636D01*
X140047213Y-72991971D01*
X140047215Y-72991968D01*
X140047219Y-72991966D01*
X140191966Y-72847219D01*
X140191968Y-72847215D01*
X140191971Y-72847213D01*
X140267106Y-72743797D01*
X140312287Y-72681610D01*
X140405220Y-72499219D01*
X140468477Y-72304534D01*
X140500500Y-72102352D01*
X140500500Y-71897648D01*
X140468477Y-71695466D01*
X140405220Y-71500781D01*
X140405218Y-71500778D01*
X140405218Y-71500776D01*
X140371503Y-71434607D01*
X140312287Y-71318390D01*
X140304556Y-71307749D01*
X140191971Y-71152786D01*
X140047213Y-71008028D01*
X139881613Y-70887715D01*
X139881612Y-70887714D01*
X139881610Y-70887713D01*
X139824653Y-70858691D01*
X139699223Y-70794781D01*
X139504534Y-70731522D01*
X139329995Y-70703878D01*
X139302352Y-70699500D01*
X139097648Y-70699500D01*
X139073329Y-70703351D01*
X138895465Y-70731522D01*
X138700776Y-70794781D01*
X138518386Y-70887715D01*
X138352786Y-71008028D01*
X138208028Y-71152786D01*
X138087715Y-71318386D01*
X137994781Y-71500776D01*
X137931522Y-71695465D01*
X137899500Y-71897648D01*
X129305500Y-71897648D01*
X129305500Y-70452135D01*
X142099500Y-70452135D01*
X142099500Y-72347870D01*
X142099501Y-72347876D01*
X142105908Y-72407483D01*
X142156202Y-72542328D01*
X142156206Y-72542335D01*
X142242452Y-72657544D01*
X142242455Y-72657547D01*
X142357664Y-72743793D01*
X142357671Y-72743797D01*
X142437580Y-72773601D01*
X142493514Y-72815472D01*
X142517931Y-72880936D01*
X142503080Y-72949209D01*
X142481929Y-72977463D01*
X142431756Y-73027636D01*
X142431752Y-73027641D01*
X142302187Y-73205974D01*
X142202104Y-73402393D01*
X142202103Y-73402396D01*
X142133985Y-73612047D01*
X142119212Y-73705321D01*
X142099500Y-73829778D01*
X142099500Y-74050222D01*
X142100331Y-74055466D01*
X142133985Y-74267952D01*
X142202103Y-74477603D01*
X142202104Y-74477606D01*
X142302187Y-74674025D01*
X142431752Y-74852358D01*
X142431756Y-74852363D01*
X142587636Y-75008243D01*
X142587641Y-75008247D01*
X142743192Y-75121260D01*
X142765978Y-75137815D01*
X142894375Y-75203237D01*
X142962393Y-75237895D01*
X142962396Y-75237896D01*
X143067221Y-75271955D01*
X143172049Y-75306015D01*
X143389778Y-75340500D01*
X143389779Y-75340500D01*
X143610221Y-75340500D01*
X143610222Y-75340500D01*
X143827951Y-75306015D01*
X144037606Y-75237895D01*
X144234022Y-75137815D01*
X144412365Y-75008242D01*
X144568242Y-74852365D01*
X144697815Y-74674022D01*
X144797895Y-74477606D01*
X144866015Y-74267951D01*
X144900500Y-74050222D01*
X144900500Y-73829778D01*
X144866015Y-73612049D01*
X144821455Y-73474906D01*
X144797896Y-73402396D01*
X144797895Y-73402393D01*
X144729660Y-73268477D01*
X144697815Y-73205978D01*
X144681260Y-73183192D01*
X144568247Y-73027641D01*
X144568243Y-73027636D01*
X144518071Y-72977464D01*
X144484586Y-72916141D01*
X144489570Y-72846449D01*
X144531442Y-72790516D01*
X144562420Y-72773601D01*
X144642326Y-72743798D01*
X144642326Y-72743797D01*
X144642331Y-72743796D01*
X144757546Y-72657546D01*
X144843796Y-72542331D01*
X144894091Y-72407483D01*
X144900500Y-72347873D01*
X144900499Y-70452128D01*
X144894091Y-70392517D01*
X144891614Y-70385877D01*
X144843797Y-70257671D01*
X144843793Y-70257664D01*
X144757547Y-70142455D01*
X144757544Y-70142452D01*
X144642335Y-70056206D01*
X144642328Y-70056202D01*
X144507482Y-70005908D01*
X144507483Y-70005908D01*
X144447883Y-69999501D01*
X144447881Y-69999500D01*
X144447873Y-69999500D01*
X144447864Y-69999500D01*
X142552129Y-69999500D01*
X142552123Y-69999501D01*
X142492516Y-70005908D01*
X142357671Y-70056202D01*
X142357664Y-70056206D01*
X142242455Y-70142452D01*
X142242452Y-70142455D01*
X142156206Y-70257664D01*
X142156202Y-70257671D01*
X142105908Y-70392517D01*
X142099501Y-70452116D01*
X142099501Y-70452123D01*
X142099500Y-70452135D01*
X129305500Y-70452135D01*
X129305500Y-67724000D01*
X129293947Y-67616544D01*
X129282741Y-67565033D01*
X129282637Y-67564722D01*
X129248616Y-67462502D01*
X129248613Y-67462496D01*
X129170828Y-67341462D01*
X129170825Y-67341457D01*
X129130570Y-67295000D01*
X129125076Y-67288659D01*
X129125072Y-67288656D01*
X129125070Y-67288653D01*
X129016336Y-67194433D01*
X129016333Y-67194431D01*
X129016331Y-67194430D01*
X128885465Y-67134664D01*
X128885460Y-67134662D01*
X128885459Y-67134662D01*
X128840766Y-67121538D01*
X128818417Y-67114976D01*
X128756347Y-67106052D01*
X128676000Y-67094500D01*
X128080514Y-67094500D01*
X128075948Y-67094521D01*
X128073734Y-67094541D01*
X128070419Y-67094585D01*
X128069266Y-67094601D01*
X127927249Y-67117615D01*
X127860578Y-67138492D01*
X127860564Y-67138497D01*
X127730784Y-67200588D01*
X127730782Y-67200589D01*
X127649890Y-67254638D01*
X127628458Y-67266094D01*
X127597329Y-67278989D01*
X127574066Y-67286046D01*
X127560961Y-67288653D01*
X127541031Y-67292617D01*
X127516841Y-67295000D01*
X127483159Y-67295000D01*
X127458968Y-67292617D01*
X127425924Y-67286044D01*
X127402670Y-67278990D01*
X127371542Y-67266096D01*
X127350110Y-67254641D01*
X127269219Y-67200591D01*
X127267859Y-67199691D01*
X127265271Y-67197978D01*
X127263497Y-67196816D01*
X127259820Y-67194431D01*
X127259817Y-67194430D01*
X127128951Y-67134664D01*
X127128946Y-67134662D01*
X127128945Y-67134662D01*
X127084252Y-67121538D01*
X127061903Y-67114976D01*
X126999833Y-67106052D01*
X126919486Y-67094500D01*
X116524000Y-67094500D01*
X116523991Y-67094500D01*
X116523990Y-67094501D01*
X116416549Y-67106052D01*
X116416537Y-67106054D01*
X116365027Y-67117260D01*
X116262502Y-67151383D01*
X116262496Y-67151386D01*
X116141462Y-67229171D01*
X116141451Y-67229179D01*
X116088659Y-67274923D01*
X115994433Y-67383664D01*
X115994430Y-67383668D01*
X115934664Y-67514534D01*
X115914976Y-67581582D01*
X115909949Y-67616549D01*
X115894502Y-67723990D01*
X115894500Y-67724001D01*
X115894500Y-72873311D01*
X115897397Y-72927359D01*
X115897397Y-72927360D01*
X115900229Y-72953693D01*
X115900232Y-72953720D01*
X115908885Y-73007116D01*
X115908885Y-73007118D01*
X115948111Y-73112284D01*
X115959168Y-73141928D01*
X115992653Y-73203251D01*
X116025937Y-73247713D01*
X116031359Y-73254956D01*
X116035193Y-73260374D01*
X116089638Y-73341855D01*
X116101098Y-73363296D01*
X116113990Y-73394421D01*
X116121045Y-73417677D01*
X116127617Y-73450711D01*
X116130000Y-73474906D01*
X116130000Y-73508591D01*
X116127617Y-73532783D01*
X116121047Y-73565812D01*
X116113991Y-73589072D01*
X116101098Y-73620199D01*
X116089639Y-73641638D01*
X116064708Y-73678950D01*
X116053860Y-73692916D01*
X116042720Y-73705318D01*
X116026077Y-73725971D01*
X116014981Y-73741360D01*
X116014980Y-73741361D01*
X115994435Y-73769849D01*
X115994432Y-73769855D01*
X115934663Y-73900727D01*
X115914976Y-73967772D01*
X115894500Y-74110191D01*
X115894500Y-75413311D01*
X115897397Y-75467359D01*
X115897397Y-75467360D01*
X115900229Y-75493693D01*
X115900232Y-75493720D01*
X115908885Y-75547116D01*
X115908885Y-75547118D01*
X115959166Y-75681923D01*
X115959168Y-75681928D01*
X115992653Y-75743251D01*
X116028311Y-75790884D01*
X116031359Y-75794956D01*
X116035193Y-75800374D01*
X116036480Y-75802300D01*
X116083574Y-75872781D01*
X116089638Y-75881855D01*
X116101098Y-75903296D01*
X116113990Y-75934421D01*
X116121045Y-75957677D01*
X116127617Y-75990711D01*
X116130000Y-76014906D01*
X116130000Y-76048589D01*
X116127616Y-76072785D01*
X116121043Y-76105823D01*
X116113988Y-76129079D01*
X116101098Y-76160199D01*
X116089639Y-76181638D01*
X116064708Y-76218950D01*
X116053860Y-76232916D01*
X116042716Y-76245323D01*
X116026087Y-76265958D01*
X115994435Y-76309849D01*
X115994432Y-76309855D01*
X115934663Y-76440727D01*
X115934662Y-76440731D01*
X115914977Y-76507770D01*
X115914976Y-76507774D01*
X115894500Y-76650190D01*
X115894500Y-77876000D01*
X115894501Y-77876009D01*
X115906052Y-77983450D01*
X115906054Y-77983462D01*
X115917260Y-78034972D01*
X115951383Y-78137497D01*
X115951386Y-78137503D01*
X116029171Y-78258537D01*
X116029179Y-78258548D01*
X116074923Y-78311340D01*
X116074926Y-78311343D01*
X116074930Y-78311347D01*
X116183664Y-78405567D01*
X116314541Y-78465338D01*
X116381580Y-78485023D01*
X116381584Y-78485024D01*
X116524000Y-78505500D01*
X117627717Y-78505500D01*
X117694756Y-78525185D01*
X117696608Y-78526398D01*
X117820814Y-78609390D01*
X117820827Y-78609397D01*
X117966498Y-78669735D01*
X117966503Y-78669737D01*
X118121153Y-78700499D01*
X118121156Y-78700500D01*
X118121158Y-78700500D01*
X118278844Y-78700500D01*
X118278845Y-78700499D01*
X118433497Y-78669737D01*
X118579179Y-78609394D01*
X118683593Y-78539626D01*
X118750269Y-78518749D01*
X118817649Y-78537233D01*
X118840164Y-78555048D01*
X121085116Y-80800000D01*
X115072363Y-80800000D01*
X115068477Y-80775466D01*
X115005220Y-80580781D01*
X115005218Y-80580778D01*
X115005218Y-80580776D01*
X114967079Y-80505925D01*
X114912287Y-80398390D01*
X114877130Y-80350000D01*
X114791971Y-80232786D01*
X114647213Y-80088028D01*
X114481613Y-79967715D01*
X114481612Y-79967714D01*
X114481610Y-79967713D01*
X114424653Y-79938691D01*
X114299223Y-79874781D01*
X114104534Y-79811522D01*
X113929995Y-79783878D01*
X113902352Y-79779500D01*
X113697648Y-79779500D01*
X113673329Y-79783351D01*
X113495465Y-79811522D01*
X113300776Y-79874781D01*
X113118386Y-79967715D01*
X112952786Y-80088028D01*
X112808028Y-80232786D01*
X112687715Y-80398386D01*
X112594781Y-80580776D01*
X112531522Y-80775465D01*
X112527636Y-80800000D01*
X111000000Y-80800000D01*
X94000500Y-80800000D01*
X94000500Y-78731947D01*
X99250000Y-78731947D01*
X99250000Y-78968052D01*
X99286934Y-79201247D01*
X99359897Y-79425802D01*
X99467085Y-79636171D01*
X99605866Y-79827186D01*
X99772821Y-79994141D01*
X99905737Y-80090709D01*
X99905739Y-80090708D01*
X100509218Y-79487228D01*
X100595818Y-79523099D01*
X100731056Y-79550000D01*
X101153551Y-79550000D01*
X100392512Y-80311037D01*
X100392512Y-80311038D01*
X100398750Y-80313065D01*
X100631948Y-80350000D01*
X102368052Y-80350000D01*
X102601247Y-80313065D01*
X102601253Y-80313064D01*
X102607485Y-80311037D01*
X101846448Y-79550000D01*
X102268944Y-79550000D01*
X102404182Y-79523099D01*
X102490780Y-79487228D01*
X103094260Y-80090708D01*
X103227186Y-79994133D01*
X103394133Y-79827186D01*
X103532914Y-79636171D01*
X103640102Y-79425802D01*
X103713065Y-79201247D01*
X103750000Y-78968052D01*
X103750000Y-78731947D01*
X103713065Y-78498752D01*
X103640102Y-78274197D01*
X103532914Y-78063828D01*
X103394133Y-77872813D01*
X103227186Y-77705866D01*
X103227180Y-77705861D01*
X103094261Y-77609289D01*
X103094260Y-77609289D01*
X102490779Y-78212770D01*
X102404182Y-78176901D01*
X102268944Y-78150000D01*
X101846448Y-78150000D01*
X102607486Y-77388961D01*
X102607486Y-77388960D01*
X102601256Y-77386936D01*
X102601246Y-77386934D01*
X102368052Y-77350000D01*
X100631948Y-77350000D01*
X100398756Y-77386933D01*
X100398744Y-77386936D01*
X100392512Y-77388961D01*
X101153552Y-78150000D01*
X100731056Y-78150000D01*
X100595818Y-78176901D01*
X100509219Y-78212770D01*
X99905738Y-77609289D01*
X99772814Y-77705866D01*
X99772813Y-77705866D01*
X99605866Y-77872813D01*
X99467085Y-78063828D01*
X99359897Y-78274197D01*
X99286934Y-78498752D01*
X99250000Y-78731947D01*
X94000500Y-78731947D01*
X94000500Y-76617648D01*
X107299500Y-76617648D01*
X107299500Y-76822351D01*
X107331522Y-77024534D01*
X107394781Y-77219223D01*
X107444452Y-77316706D01*
X107483048Y-77392455D01*
X107487715Y-77401613D01*
X107608028Y-77567213D01*
X107752786Y-77711971D01*
X107907749Y-77824556D01*
X107918390Y-77832287D01*
X108034607Y-77891503D01*
X108100776Y-77925218D01*
X108100778Y-77925218D01*
X108100781Y-77925220D01*
X108205137Y-77959127D01*
X108295465Y-77988477D01*
X108396557Y-78004488D01*
X108497648Y-78020500D01*
X108497649Y-78020500D01*
X108702351Y-78020500D01*
X108702352Y-78020500D01*
X108904534Y-77988477D01*
X109099219Y-77925220D01*
X109281610Y-77832287D01*
X109374590Y-77764732D01*
X109447213Y-77711971D01*
X109447215Y-77711968D01*
X109447219Y-77711966D01*
X109591966Y-77567219D01*
X109591968Y-77567215D01*
X109591971Y-77567213D01*
X109659338Y-77474489D01*
X109712287Y-77401610D01*
X109805220Y-77219219D01*
X109868477Y-77024534D01*
X109900500Y-76822352D01*
X109900500Y-76617648D01*
X109868477Y-76415466D01*
X109865944Y-76407671D01*
X109813194Y-76245323D01*
X109805220Y-76220781D01*
X109805218Y-76220778D01*
X109805218Y-76220776D01*
X109752747Y-76117798D01*
X109712287Y-76038390D01*
X109695225Y-76014906D01*
X109591971Y-75872786D01*
X109447213Y-75728028D01*
X109281613Y-75607715D01*
X109281612Y-75607714D01*
X109281610Y-75607713D01*
X109198209Y-75565218D01*
X109099223Y-75514781D01*
X108904534Y-75451522D01*
X108729995Y-75423878D01*
X108702352Y-75419500D01*
X108497648Y-75419500D01*
X108473329Y-75423351D01*
X108295465Y-75451522D01*
X108100776Y-75514781D01*
X107918386Y-75607715D01*
X107752786Y-75728028D01*
X107608028Y-75872786D01*
X107487715Y-76038386D01*
X107394781Y-76220776D01*
X107331522Y-76415465D01*
X107299500Y-76617648D01*
X94000500Y-76617648D01*
X94000500Y-69914270D01*
X106500000Y-69914270D01*
X106500000Y-70150375D01*
X106536934Y-70383570D01*
X106609897Y-70608125D01*
X106717087Y-70818497D01*
X106777338Y-70901427D01*
X106777340Y-70901428D01*
X107517037Y-70161731D01*
X107534075Y-70225316D01*
X107599901Y-70339330D01*
X107692993Y-70432422D01*
X107807007Y-70498248D01*
X107870590Y-70515285D01*
X107130893Y-71254981D01*
X107213828Y-71315237D01*
X107424197Y-71422425D01*
X107648752Y-71495388D01*
X107648751Y-71495388D01*
X107881948Y-71532323D01*
X108118052Y-71532323D01*
X108351247Y-71495388D01*
X108575802Y-71422425D01*
X108786163Y-71315241D01*
X108786169Y-71315237D01*
X108869104Y-71254981D01*
X108869105Y-71254981D01*
X108129408Y-70515285D01*
X108192993Y-70498248D01*
X108307007Y-70432422D01*
X108400099Y-70339330D01*
X108465925Y-70225316D01*
X108482962Y-70161732D01*
X109222658Y-70901428D01*
X109222658Y-70901427D01*
X109282914Y-70818492D01*
X109282918Y-70818486D01*
X109283345Y-70817648D01*
X112499500Y-70817648D01*
X112499500Y-71022351D01*
X112531522Y-71224534D01*
X112594781Y-71419223D01*
X112687715Y-71601613D01*
X112808028Y-71767213D01*
X112952786Y-71911971D01*
X113107749Y-72024556D01*
X113118390Y-72032287D01*
X113234607Y-72091503D01*
X113300776Y-72125218D01*
X113300778Y-72125218D01*
X113300781Y-72125220D01*
X113405137Y-72159127D01*
X113495465Y-72188477D01*
X113596557Y-72204488D01*
X113697648Y-72220500D01*
X113697649Y-72220500D01*
X113902351Y-72220500D01*
X113902352Y-72220500D01*
X114104534Y-72188477D01*
X114299219Y-72125220D01*
X114481610Y-72032287D01*
X114574590Y-71964732D01*
X114647213Y-71911971D01*
X114647215Y-71911968D01*
X114647219Y-71911966D01*
X114791966Y-71767219D01*
X114791968Y-71767215D01*
X114791971Y-71767213D01*
X114844732Y-71694590D01*
X114912287Y-71601610D01*
X115005220Y-71419219D01*
X115068477Y-71224534D01*
X115100500Y-71022352D01*
X115100500Y-70817648D01*
X115068477Y-70615466D01*
X115005220Y-70420781D01*
X115005218Y-70420778D01*
X115005218Y-70420776D01*
X114971503Y-70354607D01*
X114912287Y-70238390D01*
X114902788Y-70225316D01*
X114791971Y-70072786D01*
X114647213Y-69928028D01*
X114481613Y-69807715D01*
X114481612Y-69807714D01*
X114481610Y-69807713D01*
X114424653Y-69778691D01*
X114299223Y-69714781D01*
X114104534Y-69651522D01*
X113929995Y-69623878D01*
X113902352Y-69619500D01*
X113697648Y-69619500D01*
X113673329Y-69623351D01*
X113495465Y-69651522D01*
X113300776Y-69714781D01*
X113118386Y-69807715D01*
X112952786Y-69928028D01*
X112808028Y-70072786D01*
X112687715Y-70238386D01*
X112594781Y-70420776D01*
X112531522Y-70615465D01*
X112499500Y-70817648D01*
X109283345Y-70817648D01*
X109314512Y-70756481D01*
X109390102Y-70608125D01*
X109463065Y-70383570D01*
X109500000Y-70150375D01*
X109500000Y-69914270D01*
X109463065Y-69681075D01*
X109390102Y-69456520D01*
X109282914Y-69246151D01*
X109222658Y-69163217D01*
X109222658Y-69163216D01*
X108482962Y-69902913D01*
X108465925Y-69839330D01*
X108400099Y-69725316D01*
X108307007Y-69632224D01*
X108192993Y-69566398D01*
X108129409Y-69549360D01*
X108869105Y-68809663D01*
X108869104Y-68809661D01*
X108786174Y-68749410D01*
X108575802Y-68642220D01*
X108351247Y-68569257D01*
X108351248Y-68569257D01*
X108118052Y-68532323D01*
X107881948Y-68532323D01*
X107648752Y-68569257D01*
X107424197Y-68642220D01*
X107213830Y-68749407D01*
X107130894Y-68809663D01*
X107870591Y-69549360D01*
X107807007Y-69566398D01*
X107692993Y-69632224D01*
X107599901Y-69725316D01*
X107534075Y-69839330D01*
X107517037Y-69902914D01*
X106777340Y-69163217D01*
X106717084Y-69246153D01*
X106609897Y-69456520D01*
X106536934Y-69681075D01*
X106500000Y-69914270D01*
X94000500Y-69914270D01*
X94000500Y-63984458D01*
X106499500Y-63984458D01*
X106499500Y-66080193D01*
X106499501Y-66080199D01*
X106505908Y-66139806D01*
X106556202Y-66274651D01*
X106556206Y-66274658D01*
X106642452Y-66389867D01*
X106642455Y-66389870D01*
X106757664Y-66476116D01*
X106757671Y-66476120D01*
X106892517Y-66526414D01*
X106892516Y-66526414D01*
X106899444Y-66527158D01*
X106952127Y-66532823D01*
X109047872Y-66532822D01*
X109107483Y-66526414D01*
X109242331Y-66476119D01*
X109357546Y-66389869D01*
X109443796Y-66274654D01*
X109494091Y-66139806D01*
X109500500Y-66080196D01*
X109500499Y-63984451D01*
X109494091Y-63924840D01*
X109483135Y-63895466D01*
X109443797Y-63789994D01*
X109443793Y-63789987D01*
X109357547Y-63674778D01*
X109357544Y-63674775D01*
X109276803Y-63614332D01*
X109242335Y-63588529D01*
X109242328Y-63588525D01*
X109107482Y-63538231D01*
X109107483Y-63538231D01*
X109047883Y-63531824D01*
X109047881Y-63531823D01*
X109047873Y-63531823D01*
X109047864Y-63531823D01*
X106952129Y-63531823D01*
X106952123Y-63531824D01*
X106892516Y-63538231D01*
X106757671Y-63588525D01*
X106757664Y-63588529D01*
X106642455Y-63674775D01*
X106642452Y-63674778D01*
X106556206Y-63789987D01*
X106556202Y-63789994D01*
X106505908Y-63924840D01*
X106500066Y-63979185D01*
X106499501Y-63984446D01*
X106499500Y-63984458D01*
X94000500Y-63984458D01*
X94000500Y-63521153D01*
X116199500Y-63521153D01*
X116199500Y-63678846D01*
X116230261Y-63833489D01*
X116230264Y-63833501D01*
X116290602Y-63979172D01*
X116290609Y-63979185D01*
X116378210Y-64110288D01*
X116378213Y-64110292D01*
X116489707Y-64221786D01*
X116489711Y-64221789D01*
X116620814Y-64309390D01*
X116620827Y-64309397D01*
X116739519Y-64358560D01*
X116766503Y-64369737D01*
X116921153Y-64400499D01*
X116921156Y-64400500D01*
X116921158Y-64400500D01*
X117078844Y-64400500D01*
X117078845Y-64400499D01*
X117233497Y-64369737D01*
X117379179Y-64309394D01*
X117510289Y-64221789D01*
X117621789Y-64110289D01*
X117709394Y-63979179D01*
X117769737Y-63833497D01*
X117800500Y-63678842D01*
X117800500Y-63521158D01*
X117800500Y-63521155D01*
X117800499Y-63521153D01*
X126699500Y-63521153D01*
X126699500Y-63678846D01*
X126730261Y-63833489D01*
X126730264Y-63833501D01*
X126790602Y-63979172D01*
X126790609Y-63979185D01*
X126878210Y-64110288D01*
X126878213Y-64110292D01*
X126989707Y-64221786D01*
X126989711Y-64221789D01*
X127120814Y-64309390D01*
X127120827Y-64309397D01*
X127239519Y-64358560D01*
X127266503Y-64369737D01*
X127421153Y-64400499D01*
X127421156Y-64400500D01*
X127421158Y-64400500D01*
X127578844Y-64400500D01*
X127578845Y-64400499D01*
X127733497Y-64369737D01*
X127879179Y-64309394D01*
X128010289Y-64221789D01*
X128121789Y-64110289D01*
X128130235Y-64097648D01*
X130899500Y-64097648D01*
X130899500Y-64302351D01*
X130931522Y-64504534D01*
X130994781Y-64699223D01*
X131087715Y-64881613D01*
X131208028Y-65047213D01*
X131352786Y-65191971D01*
X131507749Y-65304556D01*
X131518390Y-65312287D01*
X131634607Y-65371503D01*
X131700776Y-65405218D01*
X131700778Y-65405218D01*
X131700781Y-65405220D01*
X131805137Y-65439127D01*
X131895465Y-65468477D01*
X131996557Y-65484488D01*
X132097648Y-65500500D01*
X132097649Y-65500500D01*
X132302351Y-65500500D01*
X132302352Y-65500500D01*
X132504534Y-65468477D01*
X132699219Y-65405220D01*
X132881610Y-65312287D01*
X132974590Y-65244732D01*
X133047213Y-65191971D01*
X133047215Y-65191968D01*
X133047219Y-65191966D01*
X133191966Y-65047219D01*
X133191968Y-65047215D01*
X133191971Y-65047213D01*
X133244732Y-64974590D01*
X133312287Y-64881610D01*
X133351431Y-64804786D01*
X137499500Y-64804786D01*
X137499500Y-66500521D01*
X137499501Y-66500527D01*
X137505908Y-66560134D01*
X137556202Y-66694979D01*
X137556206Y-66694986D01*
X137642452Y-66810195D01*
X137642455Y-66810198D01*
X137757664Y-66896444D01*
X137757671Y-66896448D01*
X137892517Y-66946742D01*
X137892516Y-66946742D01*
X137899444Y-66947486D01*
X137952127Y-66953151D01*
X139647872Y-66953150D01*
X139707483Y-66946742D01*
X139842331Y-66896447D01*
X139957546Y-66810197D01*
X140043796Y-66694982D01*
X140094091Y-66560134D01*
X140100500Y-66500524D01*
X140100499Y-64804779D01*
X140094091Y-64745168D01*
X140043796Y-64610320D01*
X140043795Y-64610319D01*
X140043793Y-64610315D01*
X139957547Y-64495106D01*
X139957544Y-64495103D01*
X139842335Y-64408857D01*
X139842328Y-64408853D01*
X139707482Y-64358559D01*
X139707483Y-64358559D01*
X139647883Y-64352152D01*
X139647881Y-64352151D01*
X139647873Y-64352151D01*
X139647864Y-64352151D01*
X137952129Y-64352151D01*
X137952123Y-64352152D01*
X137892516Y-64358559D01*
X137757671Y-64408853D01*
X137757664Y-64408857D01*
X137642455Y-64495103D01*
X137642452Y-64495106D01*
X137556206Y-64610315D01*
X137556202Y-64610322D01*
X137505908Y-64745168D01*
X137499501Y-64804767D01*
X137499501Y-64804774D01*
X137499500Y-64804786D01*
X133351431Y-64804786D01*
X133405220Y-64699219D01*
X133468477Y-64504534D01*
X133500500Y-64302352D01*
X133500500Y-64097648D01*
X133481735Y-63979172D01*
X133468477Y-63895465D01*
X133405218Y-63700776D01*
X133361172Y-63614332D01*
X133312287Y-63518390D01*
X133304556Y-63507749D01*
X133191971Y-63352786D01*
X133047213Y-63208028D01*
X132881613Y-63087715D01*
X132881612Y-63087714D01*
X132881610Y-63087713D01*
X132824653Y-63058691D01*
X132699223Y-62994781D01*
X132504534Y-62931522D01*
X132329995Y-62903878D01*
X132302352Y-62899500D01*
X132097648Y-62899500D01*
X132073329Y-62903351D01*
X131895465Y-62931522D01*
X131700776Y-62994781D01*
X131518386Y-63087715D01*
X131352786Y-63208028D01*
X131208028Y-63352786D01*
X131087715Y-63518386D01*
X130994781Y-63700776D01*
X130931522Y-63895465D01*
X130899500Y-64097648D01*
X128130235Y-64097648D01*
X128151553Y-64065742D01*
X128179523Y-64023885D01*
X128209390Y-63979185D01*
X128209390Y-63979184D01*
X128209394Y-63979179D01*
X128269737Y-63833497D01*
X128300500Y-63678842D01*
X128300500Y-63521158D01*
X128300500Y-63521155D01*
X128300499Y-63521153D01*
X128269738Y-63366510D01*
X128269737Y-63366503D01*
X128264053Y-63352781D01*
X128209397Y-63220827D01*
X128209390Y-63220814D01*
X128121789Y-63089711D01*
X128121786Y-63089707D01*
X128010292Y-62978213D01*
X128010288Y-62978210D01*
X127879185Y-62890609D01*
X127879172Y-62890602D01*
X127733501Y-62830264D01*
X127733489Y-62830261D01*
X127578845Y-62799500D01*
X127578842Y-62799500D01*
X127421158Y-62799500D01*
X127421155Y-62799500D01*
X127266510Y-62830261D01*
X127266498Y-62830264D01*
X127120827Y-62890602D01*
X127120814Y-62890609D01*
X126989711Y-62978210D01*
X126989707Y-62978213D01*
X126878213Y-63089707D01*
X126878210Y-63089711D01*
X126790609Y-63220814D01*
X126790602Y-63220827D01*
X126730264Y-63366498D01*
X126730261Y-63366510D01*
X126699500Y-63521153D01*
X117800499Y-63521153D01*
X117769738Y-63366510D01*
X117769737Y-63366503D01*
X117764053Y-63352781D01*
X117709397Y-63220827D01*
X117709390Y-63220814D01*
X117621789Y-63089711D01*
X117621786Y-63089707D01*
X117510292Y-62978213D01*
X117510288Y-62978210D01*
X117379185Y-62890609D01*
X117379172Y-62890602D01*
X117233501Y-62830264D01*
X117233489Y-62830261D01*
X117078845Y-62799500D01*
X117078842Y-62799500D01*
X116921158Y-62799500D01*
X116921155Y-62799500D01*
X116766510Y-62830261D01*
X116766498Y-62830264D01*
X116620827Y-62890602D01*
X116620814Y-62890609D01*
X116489711Y-62978210D01*
X116489707Y-62978213D01*
X116378213Y-63089707D01*
X116378210Y-63089711D01*
X116290609Y-63220814D01*
X116290602Y-63220827D01*
X116230264Y-63366498D01*
X116230261Y-63366510D01*
X116199500Y-63521153D01*
X94000500Y-63521153D01*
X94000500Y-61221153D01*
X126699500Y-61221153D01*
X126699500Y-61378846D01*
X126730261Y-61533489D01*
X126730264Y-61533501D01*
X126790602Y-61679172D01*
X126790609Y-61679185D01*
X126878210Y-61810288D01*
X126878213Y-61810292D01*
X126989707Y-61921786D01*
X126989711Y-61921789D01*
X127120814Y-62009390D01*
X127120827Y-62009397D01*
X127219657Y-62050333D01*
X127266503Y-62069737D01*
X127418594Y-62099990D01*
X127421153Y-62100499D01*
X127421156Y-62100500D01*
X127421158Y-62100500D01*
X127578844Y-62100500D01*
X127578845Y-62100499D01*
X127733497Y-62069737D01*
X127780343Y-62050333D01*
X137500000Y-62050333D01*
X137500000Y-62254968D01*
X137532009Y-62457068D01*
X137595244Y-62651682D01*
X137688141Y-62834001D01*
X137688147Y-62834010D01*
X137720523Y-62878572D01*
X137720524Y-62878573D01*
X138400000Y-62199097D01*
X138400000Y-62205312D01*
X138427259Y-62307045D01*
X138479920Y-62398257D01*
X138554394Y-62472731D01*
X138645606Y-62525392D01*
X138747339Y-62552651D01*
X138753553Y-62552651D01*
X138074076Y-63232125D01*
X138118650Y-63264510D01*
X138300968Y-63357406D01*
X138495582Y-63420641D01*
X138697683Y-63452651D01*
X138902317Y-63452651D01*
X139104417Y-63420641D01*
X139299031Y-63357406D01*
X139481349Y-63264510D01*
X139525921Y-63232125D01*
X138846447Y-62552651D01*
X138852661Y-62552651D01*
X138954394Y-62525392D01*
X139045606Y-62472731D01*
X139120080Y-62398257D01*
X139172741Y-62307045D01*
X139200000Y-62205312D01*
X139200000Y-62199099D01*
X139879474Y-62878573D01*
X139879474Y-62878572D01*
X139911859Y-62834000D01*
X140004755Y-62651682D01*
X140067990Y-62457068D01*
X140100000Y-62254968D01*
X140100000Y-62050333D01*
X140067990Y-61848233D01*
X140004755Y-61653619D01*
X139911859Y-61471301D01*
X139879474Y-61426728D01*
X139879474Y-61426727D01*
X139200000Y-62106202D01*
X139200000Y-62099990D01*
X139172741Y-61998257D01*
X139120080Y-61907045D01*
X139045606Y-61832571D01*
X138954394Y-61779910D01*
X138852661Y-61752651D01*
X138846446Y-61752651D01*
X139525922Y-61073175D01*
X139525921Y-61073174D01*
X139481359Y-61040798D01*
X139481350Y-61040792D01*
X139299031Y-60947895D01*
X139104417Y-60884660D01*
X138902317Y-60852651D01*
X138697683Y-60852651D01*
X138495582Y-60884660D01*
X138300968Y-60947895D01*
X138118644Y-61040794D01*
X138074077Y-61073174D01*
X138074077Y-61073175D01*
X138753554Y-61752651D01*
X138747339Y-61752651D01*
X138645606Y-61779910D01*
X138554394Y-61832571D01*
X138479920Y-61907045D01*
X138427259Y-61998257D01*
X138400000Y-62099990D01*
X138400000Y-62106204D01*
X137720524Y-61426728D01*
X137720523Y-61426728D01*
X137688143Y-61471295D01*
X137595244Y-61653619D01*
X137532009Y-61848233D01*
X137500000Y-62050333D01*
X127780343Y-62050333D01*
X127879179Y-62009394D01*
X128010289Y-61921789D01*
X128121789Y-61810289D01*
X128209394Y-61679179D01*
X128269737Y-61533497D01*
X128300500Y-61378842D01*
X128300500Y-61221158D01*
X128300500Y-61221155D01*
X128285277Y-61144626D01*
X128285277Y-61144625D01*
X128269738Y-61066510D01*
X128269737Y-61066503D01*
X128259087Y-61040792D01*
X128209397Y-60920827D01*
X128209390Y-60920814D01*
X128121789Y-60789711D01*
X128121786Y-60789707D01*
X128010292Y-60678213D01*
X128010288Y-60678210D01*
X127879185Y-60590609D01*
X127879172Y-60590602D01*
X127733501Y-60530264D01*
X127733489Y-60530261D01*
X127578845Y-60499500D01*
X127578842Y-60499500D01*
X127421158Y-60499500D01*
X127421155Y-60499500D01*
X127266510Y-60530261D01*
X127266498Y-60530264D01*
X127120827Y-60590602D01*
X127120814Y-60590609D01*
X126989711Y-60678210D01*
X126989707Y-60678213D01*
X126878213Y-60789707D01*
X126878210Y-60789711D01*
X126790609Y-60920814D01*
X126790602Y-60920827D01*
X126730264Y-61066498D01*
X126730261Y-61066510D01*
X126699500Y-61221153D01*
X94000500Y-61221153D01*
X94000500Y-60124500D01*
X94020185Y-60057461D01*
X94072989Y-60011706D01*
X94124500Y-60000500D01*
X146875500Y-60000500D01*
X146942539Y-60020185D01*
G37*
%TD.AperFunction*%
%TD*%
%TA.AperFunction,Conductor*%
%TO.N,GND*%
G36*
X129000000Y-95400000D02*
G01*
X121600000Y-95400000D01*
X121600000Y-88000000D01*
X129000000Y-88000000D01*
X129000000Y-95400000D01*
G37*
%TD.AperFunction*%
%TD*%
%TA.AperFunction,Conductor*%
%TO.N,GND*%
G36*
X112499500Y-80977648D02*
G01*
X112499500Y-81182351D01*
X112531522Y-81384534D01*
X112594781Y-81579223D01*
X112687715Y-81761613D01*
X112808028Y-81927213D01*
X112952786Y-82071971D01*
X113107749Y-82184556D01*
X113118390Y-82192287D01*
X113234607Y-82251503D01*
X113300776Y-82285218D01*
X113300778Y-82285218D01*
X113300781Y-82285220D01*
X113405137Y-82319127D01*
X113495465Y-82348477D01*
X113596557Y-82364488D01*
X113697648Y-82380500D01*
X113697649Y-82380500D01*
X113902351Y-82380500D01*
X113902352Y-82380500D01*
X114104534Y-82348477D01*
X114299219Y-82285220D01*
X114481610Y-82192287D01*
X114574590Y-82124732D01*
X114647213Y-82071971D01*
X114647215Y-82071968D01*
X114647219Y-82071966D01*
X114791966Y-81927219D01*
X114791968Y-81927215D01*
X114791971Y-81927213D01*
X114900224Y-81778213D01*
X114912287Y-81761610D01*
X115005220Y-81579219D01*
X115068477Y-81384534D01*
X115100500Y-81182352D01*
X115100500Y-80977648D01*
X115072363Y-80800000D01*
X121085116Y-80800000D01*
X121696324Y-81411208D01*
X121729809Y-81472531D01*
X121724825Y-81542223D01*
X121682953Y-81598156D01*
X121617489Y-81622573D01*
X121584452Y-81620506D01*
X121478846Y-81599500D01*
X121478842Y-81599500D01*
X121321158Y-81599500D01*
X121321155Y-81599500D01*
X121166510Y-81630261D01*
X121166498Y-81630264D01*
X121020827Y-81690602D01*
X121020814Y-81690609D01*
X120889711Y-81778210D01*
X120889707Y-81778213D01*
X120778213Y-81889707D01*
X120778210Y-81889711D01*
X120690609Y-82020814D01*
X120690602Y-82020827D01*
X120630264Y-82166498D01*
X120630261Y-82166510D01*
X120599500Y-82321153D01*
X120599500Y-82478846D01*
X120630261Y-82633489D01*
X120630264Y-82633501D01*
X120690602Y-82779172D01*
X120690609Y-82779185D01*
X120778210Y-82910288D01*
X120778213Y-82910292D01*
X120889707Y-83021786D01*
X120889711Y-83021789D01*
X121020814Y-83109390D01*
X121020827Y-83109397D01*
X121166498Y-83169735D01*
X121166503Y-83169737D01*
X121321153Y-83200499D01*
X121321156Y-83200500D01*
X121321158Y-83200500D01*
X121478844Y-83200500D01*
X121478845Y-83200499D01*
X121633497Y-83169737D01*
X121779179Y-83109394D01*
X121910289Y-83021789D01*
X122021789Y-82910289D01*
X122067398Y-82842031D01*
X122121010Y-82797226D01*
X122190335Y-82788519D01*
X122253363Y-82818673D01*
X122290082Y-82878117D01*
X122294500Y-82910922D01*
X122294500Y-85109092D01*
X122297896Y-85167570D01*
X122297900Y-85167620D01*
X122301066Y-85194780D01*
X122301221Y-85196107D01*
X122311371Y-85253845D01*
X122320908Y-85278085D01*
X122327135Y-85347675D01*
X122294750Y-85409586D01*
X122293200Y-85411164D01*
X122186063Y-85518301D01*
X122098462Y-85649404D01*
X122098455Y-85649417D01*
X122038117Y-85795088D01*
X122038114Y-85795100D01*
X122007353Y-85949743D01*
X122007353Y-86107436D01*
X122038114Y-86262079D01*
X122038117Y-86262091D01*
X122098455Y-86407762D01*
X122098462Y-86407775D01*
X122186063Y-86538878D01*
X122186066Y-86538882D01*
X122297560Y-86650376D01*
X122297564Y-86650379D01*
X122428667Y-86737980D01*
X122428680Y-86737987D01*
X122574351Y-86798325D01*
X122574356Y-86798327D01*
X122729006Y-86829089D01*
X122729009Y-86829090D01*
X122729011Y-86829090D01*
X122886697Y-86829090D01*
X122886698Y-86829089D01*
X123041350Y-86798327D01*
X123187032Y-86737984D01*
X123212221Y-86721153D01*
X126699500Y-86721153D01*
X126699500Y-86878846D01*
X126730261Y-87033489D01*
X126730264Y-87033501D01*
X126790602Y-87179172D01*
X126790609Y-87179185D01*
X126878210Y-87310288D01*
X126878213Y-87310292D01*
X126989707Y-87421786D01*
X126989711Y-87421789D01*
X127120814Y-87509390D01*
X127120827Y-87509397D01*
X127266498Y-87569735D01*
X127266503Y-87569737D01*
X127421153Y-87600499D01*
X127421156Y-87600500D01*
X127421158Y-87600500D01*
X127578844Y-87600500D01*
X127578845Y-87600499D01*
X127733497Y-87569737D01*
X127879179Y-87509394D01*
X128010289Y-87421789D01*
X128121789Y-87310289D01*
X128209394Y-87179179D01*
X128269737Y-87033497D01*
X128300500Y-86878842D01*
X128300500Y-86721158D01*
X128300500Y-86721155D01*
X128300499Y-86721153D01*
X128280734Y-86621789D01*
X128269737Y-86566503D01*
X128258295Y-86538879D01*
X128209397Y-86420827D01*
X128209390Y-86420814D01*
X128121789Y-86289711D01*
X128121786Y-86289707D01*
X128010292Y-86178213D01*
X128010288Y-86178210D01*
X127879185Y-86090609D01*
X127879172Y-86090602D01*
X127733501Y-86030264D01*
X127733489Y-86030261D01*
X127578845Y-85999500D01*
X127578842Y-85999500D01*
X127421158Y-85999500D01*
X127421155Y-85999500D01*
X127266510Y-86030261D01*
X127266498Y-86030264D01*
X127120827Y-86090602D01*
X127120814Y-86090609D01*
X126989711Y-86178210D01*
X126989707Y-86178213D01*
X126878213Y-86289707D01*
X126878210Y-86289711D01*
X126790609Y-86420814D01*
X126790602Y-86420827D01*
X126730264Y-86566498D01*
X126730261Y-86566510D01*
X126699500Y-86721153D01*
X123212221Y-86721153D01*
X123318142Y-86650379D01*
X123318145Y-86650376D01*
X123341137Y-86627385D01*
X123429639Y-86538882D01*
X123429642Y-86538879D01*
X123448746Y-86510288D01*
X123517247Y-86407769D01*
X123517251Y-86407757D01*
X123520117Y-86402398D01*
X123521279Y-86403019D01*
X123560862Y-86353890D01*
X123627154Y-86331818D01*
X123631554Y-86331739D01*
X123730297Y-86331739D01*
X123799455Y-86321795D01*
X123937504Y-86281260D01*
X124058543Y-86203472D01*
X124111347Y-86157717D01*
X124205567Y-86048983D01*
X124265338Y-85918106D01*
X124285023Y-85851067D01*
X124285024Y-85851063D01*
X124305500Y-85708647D01*
X124305500Y-84321153D01*
X131074500Y-84321153D01*
X131074500Y-84478846D01*
X131105261Y-84633489D01*
X131105264Y-84633501D01*
X131165602Y-84779172D01*
X131165609Y-84779185D01*
X131253210Y-84910288D01*
X131253213Y-84910292D01*
X131364707Y-85021786D01*
X131364711Y-85021789D01*
X131495814Y-85109390D01*
X131495827Y-85109397D01*
X131636271Y-85167570D01*
X131641503Y-85169737D01*
X131791131Y-85199500D01*
X131796153Y-85200499D01*
X131796156Y-85200500D01*
X131796158Y-85200500D01*
X131953844Y-85200500D01*
X131953845Y-85200499D01*
X132108497Y-85169737D01*
X132254179Y-85109394D01*
X132385289Y-85021789D01*
X132496789Y-84910289D01*
X132584394Y-84779179D01*
X132644737Y-84633497D01*
X132675500Y-84478842D01*
X132675500Y-84321158D01*
X132675500Y-84321155D01*
X132675499Y-84321153D01*
X132644738Y-84166510D01*
X132644737Y-84166503D01*
X132644735Y-84166498D01*
X132584397Y-84020827D01*
X132584390Y-84020814D01*
X132496789Y-83889711D01*
X132496786Y-83889707D01*
X132385292Y-83778213D01*
X132385288Y-83778210D01*
X132254185Y-83690609D01*
X132254172Y-83690602D01*
X132108501Y-83630264D01*
X132108489Y-83630261D01*
X131953845Y-83599500D01*
X131953842Y-83599500D01*
X131796158Y-83599500D01*
X131796155Y-83599500D01*
X131641510Y-83630261D01*
X131641498Y-83630264D01*
X131495827Y-83690602D01*
X131495814Y-83690609D01*
X131364711Y-83778210D01*
X131364707Y-83778213D01*
X131253213Y-83889707D01*
X131253210Y-83889711D01*
X131165609Y-84020814D01*
X131165602Y-84020827D01*
X131105264Y-84166498D01*
X131105261Y-84166510D01*
X131074500Y-84321153D01*
X124305500Y-84321153D01*
X124305500Y-80800000D01*
X137800000Y-80800000D01*
X137800000Y-83969344D01*
X137765609Y-84020814D01*
X137765602Y-84020827D01*
X137705264Y-84166498D01*
X137705261Y-84166510D01*
X137674500Y-84321153D01*
X137674500Y-84478846D01*
X137705261Y-84633489D01*
X137705264Y-84633501D01*
X137765602Y-84779172D01*
X137765609Y-84779185D01*
X137800000Y-84830654D01*
X137800000Y-102600000D01*
X124813254Y-102600000D01*
X124811292Y-102598038D01*
X124811288Y-102598035D01*
X124680185Y-102510434D01*
X124680172Y-102510427D01*
X124534501Y-102450089D01*
X124534489Y-102450086D01*
X124379845Y-102419325D01*
X124379842Y-102419325D01*
X124222158Y-102419325D01*
X124222155Y-102419325D01*
X124067510Y-102450086D01*
X124067498Y-102450089D01*
X123921827Y-102510427D01*
X123921814Y-102510434D01*
X123790711Y-102598035D01*
X123790707Y-102598038D01*
X123788745Y-102600000D01*
X117200000Y-102600000D01*
X116021153Y-101421153D01*
X121199500Y-101421153D01*
X121199500Y-101578846D01*
X121230261Y-101733489D01*
X121230264Y-101733501D01*
X121290602Y-101879172D01*
X121290609Y-101879185D01*
X121378210Y-102010288D01*
X121378213Y-102010292D01*
X121489707Y-102121786D01*
X121489711Y-102121789D01*
X121620814Y-102209390D01*
X121620827Y-102209397D01*
X121766498Y-102269735D01*
X121766503Y-102269737D01*
X121921153Y-102300499D01*
X121921156Y-102300500D01*
X121921158Y-102300500D01*
X122078844Y-102300500D01*
X122078845Y-102300499D01*
X122233497Y-102269737D01*
X122379179Y-102209394D01*
X122510289Y-102121789D01*
X122621789Y-102010289D01*
X122709394Y-101879179D01*
X122769737Y-101733497D01*
X122800500Y-101578842D01*
X122800500Y-101421158D01*
X122800500Y-101421155D01*
X122800499Y-101421153D01*
X122778269Y-101309397D01*
X122769737Y-101266503D01*
X122751215Y-101221786D01*
X122709397Y-101120827D01*
X122709390Y-101120814D01*
X122621789Y-100989711D01*
X122621786Y-100989707D01*
X122510292Y-100878213D01*
X122510288Y-100878210D01*
X122379185Y-100790609D01*
X122379172Y-100790602D01*
X122233501Y-100730264D01*
X122233489Y-100730261D01*
X122078845Y-100699500D01*
X122078842Y-100699500D01*
X121921158Y-100699500D01*
X121921155Y-100699500D01*
X121766510Y-100730261D01*
X121766498Y-100730264D01*
X121620827Y-100790602D01*
X121620814Y-100790609D01*
X121489711Y-100878210D01*
X121489707Y-100878213D01*
X121378213Y-100989707D01*
X121378210Y-100989711D01*
X121290609Y-101120814D01*
X121290602Y-101120827D01*
X121230264Y-101266498D01*
X121230261Y-101266510D01*
X121199500Y-101421153D01*
X116021153Y-101421153D01*
X115121153Y-100521153D01*
X129474500Y-100521153D01*
X129474500Y-100678846D01*
X129505261Y-100833489D01*
X129505264Y-100833501D01*
X129565602Y-100979172D01*
X129565609Y-100979185D01*
X129653210Y-101110288D01*
X129653213Y-101110292D01*
X129764707Y-101221786D01*
X129764711Y-101221789D01*
X129895814Y-101309390D01*
X129895827Y-101309397D01*
X130041498Y-101369735D01*
X130041503Y-101369737D01*
X130196153Y-101400499D01*
X130196156Y-101400500D01*
X130196158Y-101400500D01*
X130353844Y-101400500D01*
X130353845Y-101400499D01*
X130508497Y-101369737D01*
X130654179Y-101309394D01*
X130785289Y-101221789D01*
X130896789Y-101110289D01*
X130984394Y-100979179D01*
X131044737Y-100833497D01*
X131075500Y-100678842D01*
X131075500Y-100521158D01*
X131075500Y-100521155D01*
X131075499Y-100521153D01*
X131044738Y-100366510D01*
X131044737Y-100366503D01*
X131044735Y-100366498D01*
X130984397Y-100220827D01*
X130984390Y-100220814D01*
X130896789Y-100089711D01*
X130896786Y-100089707D01*
X130785292Y-99978213D01*
X130785288Y-99978210D01*
X130654185Y-99890609D01*
X130654172Y-99890602D01*
X130508501Y-99830264D01*
X130508489Y-99830261D01*
X130353845Y-99799500D01*
X130353842Y-99799500D01*
X130196158Y-99799500D01*
X130196155Y-99799500D01*
X130041510Y-99830261D01*
X130041498Y-99830264D01*
X129895827Y-99890602D01*
X129895814Y-99890609D01*
X129764711Y-99978210D01*
X129764707Y-99978213D01*
X129653213Y-100089707D01*
X129653210Y-100089711D01*
X129565609Y-100220814D01*
X129565602Y-100220827D01*
X129505264Y-100366498D01*
X129505261Y-100366510D01*
X129474500Y-100521153D01*
X115121153Y-100521153D01*
X111121153Y-96521153D01*
X123999500Y-96521153D01*
X123999500Y-96678846D01*
X124030261Y-96833489D01*
X124030264Y-96833501D01*
X124090602Y-96979172D01*
X124090609Y-96979185D01*
X124178210Y-97110288D01*
X124178213Y-97110292D01*
X124289707Y-97221786D01*
X124289711Y-97221789D01*
X124420814Y-97309390D01*
X124420827Y-97309397D01*
X124566498Y-97369735D01*
X124566503Y-97369737D01*
X124721153Y-97400499D01*
X124721156Y-97400500D01*
X124721158Y-97400500D01*
X124878844Y-97400500D01*
X124878845Y-97400499D01*
X125033497Y-97369737D01*
X125179179Y-97309394D01*
X125310289Y-97221789D01*
X125410925Y-97121153D01*
X131462000Y-97121153D01*
X131462000Y-97278846D01*
X131492761Y-97433489D01*
X131492764Y-97433501D01*
X131553102Y-97579172D01*
X131553109Y-97579185D01*
X131640710Y-97710288D01*
X131640713Y-97710292D01*
X131752207Y-97821786D01*
X131752211Y-97821789D01*
X131883314Y-97909390D01*
X131883327Y-97909397D01*
X132028998Y-97969735D01*
X132029003Y-97969737D01*
X132183653Y-98000499D01*
X132183656Y-98000500D01*
X132183658Y-98000500D01*
X132341344Y-98000500D01*
X132341345Y-98000499D01*
X132495997Y-97969737D01*
X132641679Y-97909394D01*
X132772789Y-97821789D01*
X132884289Y-97710289D01*
X132971894Y-97579179D01*
X133032237Y-97433497D01*
X133063000Y-97278842D01*
X133063000Y-97121158D01*
X133063000Y-97121155D01*
X133062999Y-97121153D01*
X133048085Y-97046175D01*
X133032237Y-96966503D01*
X133032235Y-96966498D01*
X132971897Y-96820827D01*
X132971890Y-96820814D01*
X132884289Y-96689711D01*
X132884286Y-96689707D01*
X132772792Y-96578213D01*
X132772788Y-96578210D01*
X132641685Y-96490609D01*
X132641672Y-96490602D01*
X132496001Y-96430264D01*
X132495989Y-96430261D01*
X132341345Y-96399500D01*
X132341342Y-96399500D01*
X132183658Y-96399500D01*
X132183655Y-96399500D01*
X132029010Y-96430261D01*
X132028998Y-96430264D01*
X131883327Y-96490602D01*
X131883314Y-96490609D01*
X131752211Y-96578210D01*
X131752207Y-96578213D01*
X131640713Y-96689707D01*
X131640710Y-96689711D01*
X131553109Y-96820814D01*
X131553102Y-96820827D01*
X131492764Y-96966498D01*
X131492761Y-96966510D01*
X131462000Y-97121153D01*
X125410925Y-97121153D01*
X125421789Y-97110289D01*
X125509394Y-96979179D01*
X125569737Y-96833497D01*
X125600500Y-96678842D01*
X125600500Y-96521158D01*
X125600500Y-96521155D01*
X125600499Y-96521153D01*
X125576400Y-96400000D01*
X125569737Y-96366503D01*
X125569735Y-96366498D01*
X125509397Y-96220827D01*
X125509390Y-96220814D01*
X125421789Y-96089711D01*
X125421786Y-96089707D01*
X125310292Y-95978213D01*
X125310288Y-95978210D01*
X125179185Y-95890609D01*
X125179172Y-95890602D01*
X125033501Y-95830264D01*
X125033489Y-95830261D01*
X124878845Y-95799500D01*
X124878842Y-95799500D01*
X124721158Y-95799500D01*
X124721155Y-95799500D01*
X124566510Y-95830261D01*
X124566498Y-95830264D01*
X124420827Y-95890602D01*
X124420814Y-95890609D01*
X124289711Y-95978210D01*
X124289707Y-95978213D01*
X124178213Y-96089707D01*
X124178210Y-96089711D01*
X124090609Y-96220814D01*
X124090602Y-96220827D01*
X124030264Y-96366498D01*
X124030261Y-96366510D01*
X123999500Y-96521153D01*
X111121153Y-96521153D01*
X111000000Y-96400000D01*
X111000000Y-95400000D01*
X121600000Y-95400000D01*
X129000000Y-95400000D01*
X129000000Y-92721153D01*
X132837000Y-92721153D01*
X132837000Y-92878846D01*
X132867761Y-93033489D01*
X132867764Y-93033501D01*
X132928102Y-93179172D01*
X132928109Y-93179185D01*
X133015710Y-93310288D01*
X133015713Y-93310292D01*
X133127207Y-93421786D01*
X133127211Y-93421789D01*
X133258314Y-93509390D01*
X133258327Y-93509397D01*
X133403998Y-93569735D01*
X133404003Y-93569737D01*
X133558653Y-93600499D01*
X133558656Y-93600500D01*
X133558658Y-93600500D01*
X133716344Y-93600500D01*
X133716345Y-93600499D01*
X133870997Y-93569737D01*
X134016679Y-93509394D01*
X134147789Y-93421789D01*
X134259289Y-93310289D01*
X134346894Y-93179179D01*
X134407237Y-93033497D01*
X134438000Y-92878842D01*
X134438000Y-92721158D01*
X134438000Y-92721155D01*
X134437999Y-92721153D01*
X134427379Y-92667763D01*
X134407237Y-92566503D01*
X134407235Y-92566498D01*
X134346897Y-92420827D01*
X134346890Y-92420814D01*
X134259289Y-92289711D01*
X134259286Y-92289707D01*
X134147792Y-92178213D01*
X134147788Y-92178210D01*
X134016685Y-92090609D01*
X134016672Y-92090602D01*
X133871001Y-92030264D01*
X133870989Y-92030261D01*
X133716345Y-91999500D01*
X133716342Y-91999500D01*
X133558658Y-91999500D01*
X133558655Y-91999500D01*
X133404010Y-92030261D01*
X133403998Y-92030264D01*
X133258327Y-92090602D01*
X133258314Y-92090609D01*
X133127211Y-92178210D01*
X133127207Y-92178213D01*
X133015713Y-92289707D01*
X133015710Y-92289711D01*
X132928109Y-92420814D01*
X132928102Y-92420827D01*
X132867764Y-92566498D01*
X132867761Y-92566510D01*
X132837000Y-92721153D01*
X129000000Y-92721153D01*
X129000000Y-89321153D01*
X129399500Y-89321153D01*
X129399500Y-89478846D01*
X129430261Y-89633489D01*
X129430264Y-89633501D01*
X129490602Y-89779172D01*
X129490609Y-89779185D01*
X129578210Y-89910288D01*
X129578213Y-89910292D01*
X129689707Y-90021786D01*
X129689711Y-90021789D01*
X129820814Y-90109390D01*
X129820827Y-90109397D01*
X129896432Y-90140713D01*
X129966503Y-90169737D01*
X130121153Y-90200499D01*
X130121156Y-90200500D01*
X130121158Y-90200500D01*
X130278844Y-90200500D01*
X130278845Y-90200499D01*
X130433497Y-90169737D01*
X130579179Y-90109394D01*
X130710289Y-90021789D01*
X130821789Y-89910289D01*
X130909394Y-89779179D01*
X130969737Y-89633497D01*
X131000500Y-89478842D01*
X131000500Y-89321158D01*
X131000500Y-89321155D01*
X131000499Y-89321153D01*
X130978269Y-89209397D01*
X130969737Y-89166503D01*
X130951215Y-89121786D01*
X130909397Y-89020827D01*
X130909390Y-89020814D01*
X130821789Y-88889711D01*
X130821786Y-88889707D01*
X130710292Y-88778213D01*
X130710288Y-88778210D01*
X130579185Y-88690609D01*
X130579172Y-88690602D01*
X130433501Y-88630264D01*
X130433489Y-88630261D01*
X130278845Y-88599500D01*
X130278842Y-88599500D01*
X130121158Y-88599500D01*
X130121155Y-88599500D01*
X129966510Y-88630261D01*
X129966498Y-88630264D01*
X129820827Y-88690602D01*
X129820814Y-88690609D01*
X129689711Y-88778210D01*
X129689707Y-88778213D01*
X129578213Y-88889707D01*
X129578210Y-88889711D01*
X129490609Y-89020814D01*
X129490602Y-89020827D01*
X129430264Y-89166498D01*
X129430261Y-89166510D01*
X129399500Y-89321153D01*
X129000000Y-89321153D01*
X129000000Y-88000000D01*
X121600000Y-88000000D01*
X121600000Y-95400000D01*
X111000000Y-95400000D01*
X111000000Y-93358653D01*
X115999500Y-93358653D01*
X115999500Y-93516346D01*
X116030261Y-93670989D01*
X116030264Y-93671001D01*
X116090602Y-93816672D01*
X116090609Y-93816685D01*
X116178210Y-93947788D01*
X116178213Y-93947792D01*
X116289707Y-94059286D01*
X116289711Y-94059289D01*
X116420814Y-94146890D01*
X116420827Y-94146897D01*
X116566498Y-94207235D01*
X116566503Y-94207237D01*
X116721153Y-94237999D01*
X116721156Y-94238000D01*
X116721158Y-94238000D01*
X116878844Y-94238000D01*
X116878845Y-94237999D01*
X117033497Y-94207237D01*
X117179179Y-94146894D01*
X117310289Y-94059289D01*
X117421789Y-93947789D01*
X117509394Y-93816679D01*
X117569737Y-93670997D01*
X117600500Y-93516342D01*
X117600500Y-93358658D01*
X117600500Y-93358655D01*
X117600499Y-93358653D01*
X117590879Y-93310289D01*
X117569737Y-93204003D01*
X117551215Y-93159286D01*
X117509397Y-93058327D01*
X117509390Y-93058314D01*
X117421789Y-92927211D01*
X117421786Y-92927207D01*
X117310292Y-92815713D01*
X117310288Y-92815710D01*
X117179185Y-92728109D01*
X117179172Y-92728102D01*
X117033501Y-92667764D01*
X117033489Y-92667761D01*
X116878845Y-92637000D01*
X116878842Y-92637000D01*
X116721158Y-92637000D01*
X116721155Y-92637000D01*
X116566510Y-92667761D01*
X116566498Y-92667764D01*
X116420827Y-92728102D01*
X116420814Y-92728109D01*
X116289711Y-92815710D01*
X116289707Y-92815713D01*
X116178213Y-92927207D01*
X116178210Y-92927211D01*
X116090609Y-93058314D01*
X116090602Y-93058327D01*
X116030264Y-93203998D01*
X116030261Y-93204010D01*
X115999500Y-93358653D01*
X111000000Y-93358653D01*
X111000000Y-92458653D01*
X118999500Y-92458653D01*
X118999500Y-92616346D01*
X119030261Y-92770989D01*
X119030264Y-92771001D01*
X119090602Y-92916672D01*
X119090609Y-92916685D01*
X119178210Y-93047788D01*
X119178213Y-93047792D01*
X119289707Y-93159286D01*
X119289711Y-93159289D01*
X119420814Y-93246890D01*
X119420827Y-93246897D01*
X119566498Y-93307235D01*
X119566503Y-93307237D01*
X119721153Y-93337999D01*
X119721156Y-93338000D01*
X119721158Y-93338000D01*
X119878844Y-93338000D01*
X119878845Y-93337999D01*
X120033497Y-93307237D01*
X120179179Y-93246894D01*
X120310289Y-93159289D01*
X120421789Y-93047789D01*
X120509394Y-92916679D01*
X120569737Y-92770997D01*
X120578269Y-92728106D01*
X120585675Y-92690874D01*
X120585675Y-92690873D01*
X120600499Y-92616346D01*
X120600500Y-92616344D01*
X120600500Y-92458655D01*
X120600499Y-92458653D01*
X120569738Y-92304010D01*
X120569737Y-92304003D01*
X120563817Y-92289711D01*
X120509397Y-92158327D01*
X120509390Y-92158314D01*
X120421789Y-92027211D01*
X120421786Y-92027207D01*
X120310292Y-91915713D01*
X120310288Y-91915710D01*
X120179185Y-91828109D01*
X120179172Y-91828102D01*
X120033501Y-91767764D01*
X120033489Y-91767761D01*
X119878845Y-91737000D01*
X119878842Y-91737000D01*
X119721158Y-91737000D01*
X119721155Y-91737000D01*
X119566510Y-91767761D01*
X119566498Y-91767764D01*
X119420827Y-91828102D01*
X119420814Y-91828109D01*
X119289711Y-91915710D01*
X119289707Y-91915713D01*
X119178213Y-92027207D01*
X119178210Y-92027211D01*
X119090609Y-92158314D01*
X119090602Y-92158327D01*
X119030264Y-92303998D01*
X119030261Y-92304010D01*
X118999500Y-92458653D01*
X111000000Y-92458653D01*
X111000000Y-91121153D01*
X115199500Y-91121153D01*
X115199500Y-91278846D01*
X115230261Y-91433489D01*
X115230264Y-91433501D01*
X115290602Y-91579172D01*
X115290609Y-91579185D01*
X115378210Y-91710288D01*
X115378213Y-91710292D01*
X115489707Y-91821786D01*
X115489711Y-91821789D01*
X115620814Y-91909390D01*
X115620827Y-91909397D01*
X115766498Y-91969735D01*
X115766503Y-91969737D01*
X115916131Y-91999500D01*
X115921153Y-92000499D01*
X115921156Y-92000500D01*
X115921158Y-92000500D01*
X116078844Y-92000500D01*
X116078845Y-92000499D01*
X116233497Y-91969737D01*
X116346166Y-91923067D01*
X116379172Y-91909397D01*
X116379172Y-91909396D01*
X116379179Y-91909394D01*
X116510289Y-91821789D01*
X116621789Y-91710289D01*
X116709394Y-91579179D01*
X116769737Y-91433497D01*
X116800500Y-91278842D01*
X116800500Y-91121158D01*
X116800500Y-91121155D01*
X116800499Y-91121153D01*
X116769737Y-90966503D01*
X116717894Y-90841342D01*
X116709397Y-90820827D01*
X116709390Y-90820814D01*
X116659706Y-90746457D01*
X116621789Y-90689711D01*
X116621786Y-90689707D01*
X116615732Y-90683653D01*
X119599500Y-90683653D01*
X119599500Y-90841346D01*
X119630261Y-90995989D01*
X119630264Y-90996001D01*
X119690602Y-91141672D01*
X119690609Y-91141685D01*
X119778210Y-91272788D01*
X119778213Y-91272792D01*
X119889707Y-91384286D01*
X119889711Y-91384289D01*
X120020814Y-91471890D01*
X120020827Y-91471897D01*
X120166498Y-91532235D01*
X120166503Y-91532237D01*
X120321153Y-91562999D01*
X120321156Y-91563000D01*
X120321158Y-91563000D01*
X120478844Y-91563000D01*
X120478845Y-91562999D01*
X120633497Y-91532237D01*
X120779179Y-91471894D01*
X120910289Y-91384289D01*
X121021789Y-91272789D01*
X121109394Y-91141679D01*
X121169737Y-90995997D01*
X121200500Y-90841342D01*
X121200500Y-90683658D01*
X121200500Y-90683655D01*
X121200499Y-90683653D01*
X121169737Y-90529003D01*
X121153831Y-90490602D01*
X121109397Y-90383327D01*
X121109390Y-90383314D01*
X121021789Y-90252211D01*
X121021786Y-90252207D01*
X120910292Y-90140713D01*
X120910288Y-90140710D01*
X120779185Y-90053109D01*
X120779172Y-90053102D01*
X120633501Y-89992764D01*
X120633489Y-89992761D01*
X120478845Y-89962000D01*
X120478842Y-89962000D01*
X120321158Y-89962000D01*
X120321155Y-89962000D01*
X120166510Y-89992761D01*
X120166498Y-89992764D01*
X120020827Y-90053102D01*
X120020814Y-90053109D01*
X119889711Y-90140710D01*
X119889707Y-90140713D01*
X119778213Y-90252207D01*
X119778210Y-90252211D01*
X119690609Y-90383314D01*
X119690602Y-90383327D01*
X119630264Y-90528998D01*
X119630261Y-90529010D01*
X119599500Y-90683653D01*
X116615732Y-90683653D01*
X116510292Y-90578213D01*
X116510288Y-90578210D01*
X116379185Y-90490609D01*
X116379172Y-90490602D01*
X116233501Y-90430264D01*
X116233489Y-90430261D01*
X116078845Y-90399500D01*
X116078842Y-90399500D01*
X115921158Y-90399500D01*
X115921155Y-90399500D01*
X115766510Y-90430261D01*
X115766498Y-90430264D01*
X115620827Y-90490602D01*
X115620814Y-90490609D01*
X115489711Y-90578210D01*
X115489707Y-90578213D01*
X115378213Y-90689707D01*
X115378210Y-90689711D01*
X115290609Y-90820814D01*
X115290602Y-90820827D01*
X115230264Y-90966498D01*
X115230261Y-90966510D01*
X115199500Y-91121153D01*
X111000000Y-91121153D01*
X111000000Y-88421153D01*
X115199500Y-88421153D01*
X115199500Y-88578846D01*
X115230261Y-88733489D01*
X115230264Y-88733501D01*
X115290602Y-88879172D01*
X115290609Y-88879185D01*
X115378210Y-89010288D01*
X115378213Y-89010292D01*
X115489707Y-89121786D01*
X115489711Y-89121789D01*
X115620814Y-89209390D01*
X115620827Y-89209397D01*
X115766498Y-89269735D01*
X115766503Y-89269737D01*
X115921153Y-89300499D01*
X115921156Y-89300500D01*
X115921158Y-89300500D01*
X116078844Y-89300500D01*
X116078845Y-89300499D01*
X116233497Y-89269737D01*
X116379179Y-89209394D01*
X116510289Y-89121789D01*
X116621789Y-89010289D01*
X116709394Y-88879179D01*
X116769737Y-88733497D01*
X116800500Y-88578842D01*
X116800500Y-88421158D01*
X116800500Y-88421155D01*
X116800499Y-88421153D01*
X116769738Y-88266510D01*
X116769737Y-88266503D01*
X116769735Y-88266498D01*
X116709397Y-88120827D01*
X116709390Y-88120814D01*
X116621789Y-87989711D01*
X116621786Y-87989707D01*
X116510292Y-87878213D01*
X116510288Y-87878210D01*
X116379185Y-87790609D01*
X116379172Y-87790602D01*
X116233501Y-87730264D01*
X116233489Y-87730261D01*
X116078845Y-87699500D01*
X116078842Y-87699500D01*
X115921158Y-87699500D01*
X115921155Y-87699500D01*
X115766510Y-87730261D01*
X115766498Y-87730264D01*
X115620827Y-87790602D01*
X115620814Y-87790609D01*
X115489711Y-87878210D01*
X115489707Y-87878213D01*
X115378213Y-87989707D01*
X115378210Y-87989711D01*
X115290609Y-88120814D01*
X115290602Y-88120827D01*
X115230264Y-88266498D01*
X115230261Y-88266510D01*
X115199500Y-88421153D01*
X111000000Y-88421153D01*
X111000000Y-85921153D01*
X115199500Y-85921153D01*
X115199500Y-86078846D01*
X115230261Y-86233489D01*
X115230264Y-86233501D01*
X115290602Y-86379172D01*
X115290609Y-86379185D01*
X115378210Y-86510288D01*
X115378213Y-86510292D01*
X115489707Y-86621786D01*
X115489711Y-86621789D01*
X115620814Y-86709390D01*
X115620827Y-86709397D01*
X115766498Y-86769735D01*
X115766503Y-86769737D01*
X115910224Y-86798325D01*
X115921153Y-86800499D01*
X115921156Y-86800500D01*
X115921158Y-86800500D01*
X116078844Y-86800500D01*
X116078845Y-86800499D01*
X116233497Y-86769737D01*
X116379179Y-86709394D01*
X116510289Y-86621789D01*
X116621789Y-86510289D01*
X116709394Y-86379179D01*
X116769737Y-86233497D01*
X116800500Y-86078842D01*
X116800500Y-85921158D01*
X116800500Y-85921155D01*
X116800499Y-85921153D01*
X116769738Y-85766510D01*
X116769737Y-85766503D01*
X116769735Y-85766498D01*
X116709397Y-85620827D01*
X116709390Y-85620814D01*
X116621789Y-85489711D01*
X116621786Y-85489707D01*
X116510292Y-85378213D01*
X116510288Y-85378210D01*
X116379185Y-85290609D01*
X116379172Y-85290602D01*
X116233501Y-85230264D01*
X116233489Y-85230261D01*
X116078845Y-85199500D01*
X116078842Y-85199500D01*
X115921158Y-85199500D01*
X115921155Y-85199500D01*
X115766510Y-85230261D01*
X115766498Y-85230264D01*
X115620827Y-85290602D01*
X115620814Y-85290609D01*
X115489711Y-85378210D01*
X115489707Y-85378213D01*
X115378213Y-85489707D01*
X115378210Y-85489711D01*
X115290609Y-85620814D01*
X115290602Y-85620827D01*
X115230264Y-85766498D01*
X115230261Y-85766510D01*
X115199500Y-85921153D01*
X111000000Y-85921153D01*
X111000000Y-80800000D01*
X112527636Y-80800000D01*
X112499500Y-80977648D01*
G37*
%TD.AperFunction*%
%TD*%
M02*
