%TF.GenerationSoftware,KiCad,Pcbnew,9.0.0*%
%TF.CreationDate,2025-03-16T19:50:11+02:00*%
%TF.ProjectId,TVP5147M1_decoder,54565035-3134-4374-9d31-5f6465636f64,rev?*%
%TF.SameCoordinates,Original*%
%TF.FileFunction,Copper,L4,Bot*%
%TF.FilePolarity,Positive*%
%FSLAX46Y46*%
G04 Gerber Fmt 4.6, Leading zero omitted, Abs format (unit mm)*
G04 Created by KiCad (PCBNEW 9.0.0) date 2025-03-16 19:50:11*
%MOMM*%
%LPD*%
G01*
G04 APERTURE LIST*
G04 Aperture macros list*
%AMRoundRect*
0 Rectangle with rounded corners*
0 $1 Rounding radius*
0 $2 $3 $4 $5 $6 $7 $8 $9 X,Y pos of 4 corners*
0 Add a 4 corners polygon primitive as box body*
4,1,4,$2,$3,$4,$5,$6,$7,$8,$9,$2,$3,0*
0 Add four circle primitives for the rounded corners*
1,1,$1+$1,$2,$3*
1,1,$1+$1,$4,$5*
1,1,$1+$1,$6,$7*
1,1,$1+$1,$8,$9*
0 Add four rect primitives between the rounded corners*
20,1,$1+$1,$2,$3,$4,$5,0*
20,1,$1+$1,$4,$5,$6,$7,0*
20,1,$1+$1,$6,$7,$8,$9,0*
20,1,$1+$1,$8,$9,$2,$3,0*%
G04 Aperture macros list end*
%TA.AperFunction,ComponentPad*%
%ADD10R,1.800000X1.800000*%
%TD*%
%TA.AperFunction,ComponentPad*%
%ADD11C,1.800000*%
%TD*%
%TA.AperFunction,SMDPad,CuDef*%
%ADD12RoundRect,0.250000X-0.412500X-0.650000X0.412500X-0.650000X0.412500X0.650000X-0.412500X0.650000X0*%
%TD*%
%TA.AperFunction,SMDPad,CuDef*%
%ADD13RoundRect,0.237500X-0.300000X-0.237500X0.300000X-0.237500X0.300000X0.237500X-0.300000X0.237500X0*%
%TD*%
%TA.AperFunction,SMDPad,CuDef*%
%ADD14RoundRect,0.250000X0.412500X0.650000X-0.412500X0.650000X-0.412500X-0.650000X0.412500X-0.650000X0*%
%TD*%
%TA.AperFunction,SMDPad,CuDef*%
%ADD15RoundRect,0.237500X0.300000X0.237500X-0.300000X0.237500X-0.300000X-0.237500X0.300000X-0.237500X0*%
%TD*%
%TA.AperFunction,ComponentPad*%
%ADD16C,1.600000*%
%TD*%
%TA.AperFunction,SMDPad,CuDef*%
%ADD17RoundRect,0.250000X-0.650000X0.412500X-0.650000X-0.412500X0.650000X-0.412500X0.650000X0.412500X0*%
%TD*%
%TA.AperFunction,SMDPad,CuDef*%
%ADD18RoundRect,0.237500X-0.237500X0.300000X-0.237500X-0.300000X0.237500X-0.300000X0.237500X0.300000X0*%
%TD*%
%TA.AperFunction,SMDPad,CuDef*%
%ADD19RoundRect,0.250000X0.650000X-0.412500X0.650000X0.412500X-0.650000X0.412500X-0.650000X-0.412500X0*%
%TD*%
%TA.AperFunction,ComponentPad*%
%ADD20C,1.016000*%
%TD*%
%TA.AperFunction,ComponentPad*%
%ADD21C,2.000000*%
%TD*%
%TA.AperFunction,ComponentPad*%
%ADD22R,2.000000X2.000000*%
%TD*%
%TA.AperFunction,ComponentPad*%
%ADD23O,3.500000X2.000000*%
%TD*%
%TA.AperFunction,ComponentPad*%
%ADD24O,2.000000X3.500000*%
%TD*%
%TA.AperFunction,ComponentPad*%
%ADD25RoundRect,1.000000X0.000010X-0.000010X0.000010X0.000010X-0.000010X0.000010X-0.000010X-0.000010X0*%
%TD*%
%TA.AperFunction,ComponentPad*%
%ADD26O,1.700000X1.700000*%
%TD*%
%TA.AperFunction,ComponentPad*%
%ADD27R,1.700000X1.700000*%
%TD*%
%TA.AperFunction,ComponentPad*%
%ADD28R,1.600000X1.600000*%
%TD*%
%TA.AperFunction,ComponentPad*%
%ADD29C,1.500000*%
%TD*%
%TA.AperFunction,ViaPad*%
%ADD30C,0.600000*%
%TD*%
%TA.AperFunction,Conductor*%
%ADD31C,0.500000*%
%TD*%
G04 APERTURE END LIST*
D10*
%TO.P,D1,1*%
%TO.N,Net-(D1-Pad1)*%
X143500000Y-71400000D03*
D11*
%TO.P,D1,2*%
%TO.N,+3.3V*%
X143500000Y-73940000D03*
%TD*%
D12*
%TO.P,C21,2*%
%TO.N,GND*%
X131525000Y-86800000D03*
%TO.P,C21,1*%
%TO.N,D1.8VDD*%
X128400000Y-86800000D03*
%TD*%
D13*
%TO.P,C1,2*%
%TO.N,GND*%
X109462500Y-74400000D03*
%TO.P,C1,1*%
%TO.N,+3.3V*%
X107737500Y-74400000D03*
%TD*%
D14*
%TO.P,C20,2*%
%TO.N,GND*%
X121675000Y-96600000D03*
%TO.P,C20,1*%
%TO.N,D1.8VDD*%
X124800000Y-96600000D03*
%TD*%
%TO.P,C13,2*%
%TO.N,GND*%
X112875000Y-91200000D03*
%TO.P,C13,1*%
%TO.N,A1.8VDD*%
X116000000Y-91200000D03*
%TD*%
D12*
%TO.P,C25,2*%
%TO.N,GND*%
X135000000Y-84400000D03*
%TO.P,C25,1*%
%TO.N,IO3.3VDD*%
X131875000Y-84400000D03*
%TD*%
D15*
%TO.P,C3,2*%
%TO.N,GND*%
X113275000Y-69000000D03*
%TO.P,C3,1*%
%TO.N,+1.8V*%
X115000000Y-69000000D03*
%TD*%
D16*
%TO.P,FB3,2*%
%TO.N,A1.8VDD*%
X113800000Y-81080000D03*
%TO.P,FB3,1*%
%TO.N,+1.8V*%
X113800000Y-70920000D03*
%TD*%
D17*
%TO.P,C26,2*%
%TO.N,GND*%
X116800000Y-96562500D03*
%TO.P,C26,1*%
%TO.N,A1.8VDD*%
X116800000Y-93437500D03*
%TD*%
D14*
%TO.P,C11,2*%
%TO.N,GND*%
X118275000Y-82400000D03*
%TO.P,C11,1*%
%TO.N,A1.8VDD*%
X121400000Y-82400000D03*
%TD*%
D13*
%TO.P,C6,2*%
%TO.N,GND*%
X109462500Y-89200000D03*
%TO.P,C6,1*%
%TO.N,A3.3VDD*%
X107737500Y-89200000D03*
%TD*%
D15*
%TO.P,C8,2*%
%TO.N,GND*%
X112737500Y-83000000D03*
%TO.P,C8,1*%
%TO.N,A1.8VDD*%
X114462500Y-83000000D03*
%TD*%
D14*
%TO.P,C17,2*%
%TO.N,GND*%
X112875000Y-88500000D03*
%TO.P,C17,1*%
%TO.N,A3.3VDD*%
X116000000Y-88500000D03*
%TD*%
D17*
%TO.P,C18,2*%
%TO.N,GND*%
X130200000Y-93725000D03*
%TO.P,C18,1*%
%TO.N,D1.8VDD*%
X130200000Y-90600000D03*
%TD*%
D14*
%TO.P,C24,2*%
%TO.N,GND*%
X129200000Y-97200000D03*
%TO.P,C24,1*%
%TO.N,D1.8VDD*%
X132325000Y-97200000D03*
%TD*%
D12*
%TO.P,C19,2*%
%TO.N,GND*%
X136762500Y-92800000D03*
%TO.P,C19,1*%
%TO.N,IO3.3VDD*%
X133637500Y-92800000D03*
%TD*%
D14*
%TO.P,C22,2*%
%TO.N,GND*%
X119037500Y-101600000D03*
%TO.P,C22,1*%
%TO.N,A1.8VDD*%
X122162500Y-101600000D03*
%TD*%
D18*
%TO.P,C15,2*%
%TO.N,GND*%
X119800000Y-94262500D03*
%TO.P,C15,1*%
%TO.N,A1.8VDD*%
X119800000Y-92537500D03*
%TD*%
D15*
%TO.P,C9,2*%
%TO.N,GND*%
X131675000Y-72000000D03*
%TO.P,C9,1*%
%TO.N,D1.8VDD*%
X133400000Y-72000000D03*
%TD*%
D14*
%TO.P,C14,2*%
%TO.N,GND*%
X112875000Y-86000000D03*
%TO.P,C14,1*%
%TO.N,A3.3VDD*%
X116000000Y-86000000D03*
%TD*%
D12*
%TO.P,C23,2*%
%TO.N,GND*%
X133400000Y-100600000D03*
%TO.P,C23,1*%
%TO.N,IO3.3VDD*%
X130275000Y-100600000D03*
%TD*%
D16*
%TO.P,FB1,2*%
%TO.N,A3.3VDD*%
X108600000Y-86880000D03*
%TO.P,FB1,1*%
%TO.N,+3.3V*%
X108600000Y-76720000D03*
%TD*%
D12*
%TO.P,C12,2*%
%TO.N,GND*%
X126125000Y-87000000D03*
%TO.P,C12,1*%
%TO.N,A1.8VDD*%
X123000000Y-87000000D03*
%TD*%
D19*
%TO.P,C16,2*%
%TO.N,GND*%
X120400000Y-87637500D03*
%TO.P,C16,1*%
%TO.N,A1.8VDD*%
X120400000Y-90762500D03*
%TD*%
D20*
%TO.P,U2,81,EPAD*%
%TO.N,GND*%
X127612199Y-93989549D03*
X127612199Y-93202149D03*
X127612199Y-92414749D03*
X127612199Y-91627349D03*
X127612199Y-90839949D03*
X127612199Y-90052549D03*
X127612199Y-89265149D03*
X126824799Y-93989549D03*
X126824799Y-93202149D03*
X126824799Y-92414749D03*
X126824799Y-91627349D03*
X126824799Y-90839949D03*
X126824799Y-90052549D03*
X126824799Y-89265149D03*
X126037399Y-93989549D03*
X126037399Y-93202149D03*
X126037399Y-92414749D03*
X126037399Y-91627349D03*
X126037399Y-90839949D03*
X126037399Y-90052549D03*
X126037399Y-89265149D03*
X125249999Y-93989549D03*
X125249999Y-93202149D03*
X125249999Y-92414749D03*
X125249999Y-91627349D03*
X125249999Y-90839949D03*
X125249999Y-90052549D03*
X125249999Y-89265149D03*
X124462599Y-93989549D03*
X124462599Y-93202149D03*
X124462599Y-92414749D03*
X124462599Y-91627349D03*
X124462599Y-90839949D03*
X124462599Y-90052549D03*
X124462599Y-89265149D03*
X123675199Y-93989549D03*
X123675199Y-93202149D03*
X123675199Y-92414749D03*
X123675199Y-91627349D03*
X123675199Y-90839949D03*
X123675199Y-90052549D03*
X123675199Y-89265149D03*
X122887799Y-93989549D03*
X122887799Y-93202149D03*
X122887799Y-92414749D03*
X122887799Y-91627349D03*
X122887799Y-90839949D03*
X122887799Y-90052549D03*
X122887799Y-89265149D03*
%TD*%
D16*
%TO.P,FB2,2*%
%TO.N,IO3.3VDD*%
X139200000Y-82160000D03*
%TO.P,FB2,1*%
%TO.N,+3.3V*%
X139200000Y-72000000D03*
%TD*%
D21*
%TO.P,C10,2*%
%TO.N,GND*%
X108000000Y-70032323D03*
D22*
%TO.P,C10,1*%
%TO.N,+1.8V*%
X108000000Y-65032323D03*
%TD*%
D23*
%TO.P,CVBS2,2,Ext*%
%TO.N,GND*%
X101400000Y-91800000D03*
D24*
X96400000Y-96750000D03*
D23*
X101400000Y-101600000D03*
D25*
%TO.P,CVBS2,1,In*%
%TO.N,Net-(CVBS2-In)*%
X101400000Y-96750000D03*
%TD*%
D26*
%TO.P,J6,3,Pin_3*%
%TO.N,VS{slash}VBLK*%
X125920000Y-78600000D03*
%TO.P,J6,2,Pin_2*%
%TO.N,HS{slash}CS*%
X128460000Y-78600000D03*
D27*
%TO.P,J6,1,Pin_1*%
%TO.N,FID*%
X131000000Y-78600000D03*
%TD*%
D26*
%TO.P,J5,2,Pin_2*%
%TO.N,GND*%
X143000000Y-80040000D03*
D27*
%TO.P,J5,1,Pin_1*%
%TO.N,+3.3V*%
X143000000Y-77500000D03*
%TD*%
D16*
%TO.P,C5,2*%
%TO.N,GND*%
X138800000Y-62152651D03*
D28*
%TO.P,C5,1*%
%TO.N,+3.3V*%
X138800000Y-65652651D03*
%TD*%
D26*
%TO.P,J4,10,Pin_10*%
%TO.N,Y9*%
X145540000Y-97420000D03*
%TO.P,J4,9,Pin_9*%
%TO.N,Y8*%
X143000000Y-97420000D03*
%TO.P,J4,8,Pin_8*%
%TO.N,Y7*%
X145540000Y-94880000D03*
%TO.P,J4,7,Pin_7*%
%TO.N,Y6*%
X143000000Y-94880000D03*
%TO.P,J4,6,Pin_6*%
%TO.N,Y5*%
X145540000Y-92340000D03*
%TO.P,J4,5,Pin_5*%
%TO.N,Y4*%
X143000000Y-92340000D03*
%TO.P,J4,4,Pin_4*%
%TO.N,Y3*%
X145540000Y-89800000D03*
%TO.P,J4,3,Pin_3*%
%TO.N,Y2*%
X143000000Y-89800000D03*
%TO.P,J4,2,Pin_2*%
%TO.N,Y1*%
X145540000Y-87260000D03*
D27*
%TO.P,J4,1,Pin_1*%
%TO.N,Y0*%
X143000000Y-87260000D03*
%TD*%
D26*
%TO.P,J3,2,Pin_2*%
%TO.N,GND*%
X144765000Y-101200000D03*
D27*
%TO.P,J3,1,Pin_1*%
X142225000Y-101200000D03*
%TD*%
D26*
%TO.P,J2,2,Pin_2*%
%TO.N,GND*%
X135800000Y-111065000D03*
D27*
%TO.P,J2,1,Pin_1*%
X135800000Y-108525000D03*
%TD*%
D29*
%TO.P,Y1,2,2*%
%TO.N,XTAL2*%
X120170000Y-73800000D03*
%TO.P,Y1,1,1*%
%TO.N,XTAL1*%
X125050000Y-73800000D03*
%TD*%
D23*
%TO.P,CVBS1,2,Ext*%
%TO.N,GND*%
X101500000Y-78850000D03*
D24*
X96500000Y-83800000D03*
D23*
X101500000Y-88650000D03*
D25*
%TO.P,CVBS1,1,In*%
%TO.N,Net-(CVBS1-In)*%
X101500000Y-83800000D03*
%TD*%
D26*
%TO.P,J1,10,Pin_10*%
%TO.N,GND*%
X121842000Y-111062000D03*
%TO.P,J1,9,Pin_9*%
%TO.N,SCL*%
X121842000Y-108522000D03*
%TO.P,J1,8,Pin_8*%
%TO.N,INTREQ*%
X124382000Y-111062000D03*
%TO.P,J1,7,Pin_7*%
%TO.N,SDA*%
X124382000Y-108522000D03*
%TO.P,J1,6,Pin_6*%
%TO.N,RESETB*%
X126922000Y-111062000D03*
%TO.P,J1,5,Pin_5*%
%TO.N,PWDN*%
X126922000Y-108522000D03*
%TO.P,J1,4,Pin_4*%
%TO.N,AVID*%
X129462000Y-111062000D03*
%TO.P,J1,3,Pin_3*%
%TO.N,FSS*%
X129462000Y-108522000D03*
%TO.P,J1,2,Pin_2*%
%TO.N,DATACLK*%
X132002000Y-111062000D03*
D27*
%TO.P,J1,1,Pin_1*%
%TO.N,GLCO{slash}I2CA*%
X132002000Y-108522000D03*
%TD*%
D16*
%TO.P,FB4,2*%
%TO.N,D1.8VDD*%
X132200000Y-74360000D03*
%TO.P,FB4,1*%
%TO.N,+1.8V*%
X132200000Y-64200000D03*
%TD*%
D30*
%TO.N,XGND*%
X123547508Y-70200000D03*
X118200000Y-77900000D03*
X121892504Y-70200000D03*
%TO.N,D1.8VDD*%
X130200000Y-89400000D03*
X127500000Y-86800000D03*
X124800000Y-96600000D03*
X132262500Y-97200000D03*
%TO.N,A3.3VDD*%
X116000000Y-88500000D03*
X116000000Y-86000000D03*
%TO.N,A1.8VDD*%
X122807853Y-86028590D03*
X119800000Y-92537500D03*
X120400000Y-90762500D03*
X121400000Y-82400000D03*
X122000000Y-101500000D03*
X116800000Y-93437500D03*
X116000000Y-91200000D03*
%TO.N,+1.8V*%
X117000000Y-63600000D03*
X127500000Y-63600000D03*
%TO.N,IO3.3VDD*%
X133637500Y-92800000D03*
X124301000Y-103219825D03*
X130275000Y-100600000D03*
X138475000Y-84400000D03*
X131875000Y-84400000D03*
X123000000Y-106600000D03*
%TO.N,+3.3V*%
X127500000Y-61300000D03*
%TO.N,GND*%
X137000000Y-106000000D03*
X120200000Y-96200000D03*
X136400000Y-84800000D03*
X117600000Y-102200000D03*
X111000000Y-75000000D03*
X140000000Y-102000000D03*
X135000000Y-100000000D03*
X111400000Y-91800000D03*
X111400000Y-90800000D03*
X135000000Y-101000000D03*
X142500000Y-82500000D03*
X117000000Y-82800000D03*
X140525000Y-68600000D03*
X131000000Y-102500000D03*
X116400000Y-97800000D03*
X111400000Y-89500000D03*
X135000000Y-106000000D03*
X127500000Y-67000000D03*
X120000000Y-86000000D03*
X141400000Y-84400000D03*
X118200000Y-78900000D03*
X117200000Y-97800000D03*
X144500000Y-82500000D03*
X111400000Y-85000000D03*
X120200000Y-97000000D03*
X108800000Y-94900000D03*
X117600000Y-101400000D03*
X144800000Y-69000000D03*
X109000000Y-81800000D03*
X111000000Y-74000000D03*
X117000000Y-82000000D03*
X132000000Y-70500000D03*
X131000000Y-70500000D03*
X136400000Y-84000000D03*
X140000000Y-100500000D03*
X111600000Y-82400000D03*
X127500000Y-66000000D03*
X113500000Y-68000000D03*
X100595000Y-76031750D03*
X95515000Y-60791750D03*
X105675000Y-88731750D03*
X95515000Y-101431750D03*
X95515000Y-111591750D03*
X105675000Y-109051750D03*
X95515000Y-78571750D03*
X141235000Y-76031750D03*
X141235000Y-109051750D03*
X95515000Y-63331750D03*
X103135000Y-98891750D03*
X95515000Y-88731750D03*
X95515000Y-65871750D03*
X95515000Y-70951750D03*
X118375000Y-109051750D03*
X141235000Y-106511750D03*
X100595000Y-86191750D03*
X98055000Y-60791750D03*
X95515000Y-68411750D03*
X95515000Y-73491750D03*
X103135000Y-76031750D03*
X110755000Y-70951750D03*
X98055000Y-91271750D03*
X95515000Y-76031750D03*
X95515000Y-81111750D03*
X113295000Y-63331750D03*
X98055000Y-93811750D03*
X95515000Y-91271750D03*
X103135000Y-70951750D03*
X95515000Y-93811750D03*
X95515000Y-103971750D03*
X100595000Y-73491750D03*
X143775000Y-111591750D03*
X95515000Y-106511750D03*
X103135000Y-68411750D03*
X95515000Y-109051750D03*
X98055000Y-63331750D03*
X98055000Y-65871750D03*
X103135000Y-63331750D03*
X98055000Y-68411750D03*
X146315000Y-73491750D03*
X103135000Y-103971750D03*
X98055000Y-109051750D03*
X98055000Y-70951750D03*
X98055000Y-73491750D03*
X146315000Y-111591750D03*
X98055000Y-76031750D03*
X98055000Y-78571750D03*
X100595000Y-63331750D03*
X98055000Y-81111750D03*
X98055000Y-86191750D03*
X103135000Y-65871750D03*
X98055000Y-88731750D03*
X98055000Y-98891750D03*
X98055000Y-101431750D03*
X98055000Y-103971750D03*
X146315000Y-65871750D03*
X98055000Y-106511750D03*
X103135000Y-81111750D03*
X98055000Y-111591750D03*
X100595000Y-60791750D03*
X143775000Y-65871750D03*
X100595000Y-65871750D03*
X100595000Y-68411750D03*
X133615000Y-68411750D03*
X100595000Y-70951750D03*
X100595000Y-81111750D03*
X103135000Y-73491750D03*
X100595000Y-93811750D03*
X100595000Y-98891750D03*
X100595000Y-103971750D03*
X100595000Y-106511750D03*
X103135000Y-93811750D03*
X100595000Y-109051750D03*
X100595000Y-111591750D03*
X103135000Y-60791750D03*
X103135000Y-86191750D03*
X103135000Y-106511750D03*
X103135000Y-109051750D03*
X113295000Y-93811750D03*
X103135000Y-111591750D03*
X105675000Y-60791750D03*
X113295000Y-60791750D03*
X105675000Y-63331750D03*
X105675000Y-65871750D03*
X105675000Y-68411750D03*
X118375000Y-106511750D03*
X105675000Y-70951750D03*
X105675000Y-73491750D03*
X113295000Y-106511750D03*
X105675000Y-76031750D03*
X105675000Y-78571750D03*
X105675000Y-86191750D03*
X105675000Y-91271750D03*
X105675000Y-98891750D03*
X105675000Y-101431750D03*
X105675000Y-103971750D03*
X105675000Y-106511750D03*
X105675000Y-111591750D03*
X108215000Y-60791750D03*
X108215000Y-78571750D03*
X108215000Y-91271750D03*
X108215000Y-98891750D03*
X108215000Y-101431750D03*
X115835000Y-65871750D03*
X108215000Y-103971750D03*
X108215000Y-106511750D03*
X108215000Y-109051750D03*
X108215000Y-111591750D03*
X110755000Y-60791750D03*
X110755000Y-63331750D03*
X110755000Y-65871750D03*
X110755000Y-68411750D03*
X110755000Y-78571750D03*
X110755000Y-96351750D03*
X110755000Y-98891750D03*
X110755000Y-101431750D03*
X110755000Y-103971750D03*
X110755000Y-106511750D03*
X110755000Y-109051750D03*
X110755000Y-111591750D03*
X113295000Y-65871750D03*
X113295000Y-73491750D03*
X138695000Y-106511750D03*
X113295000Y-76031750D03*
X113295000Y-78571750D03*
X113295000Y-96351750D03*
X113295000Y-98891750D03*
X113295000Y-101431750D03*
X113295000Y-103971750D03*
X113295000Y-109051750D03*
X113295000Y-111591750D03*
X115835000Y-60791750D03*
X115835000Y-73491750D03*
X115835000Y-76031750D03*
X115835000Y-78571750D03*
X115835000Y-101431750D03*
X115835000Y-103971750D03*
X141235000Y-81111750D03*
X115835000Y-106511750D03*
X115835000Y-109051750D03*
X115835000Y-111591750D03*
X118375000Y-60791750D03*
X141235000Y-63331750D03*
X118375000Y-103971750D03*
X118375000Y-111591750D03*
X120915000Y-60791750D03*
X123455000Y-60791750D03*
X123455000Y-63331750D03*
X123455000Y-65871750D03*
X131075000Y-60791750D03*
X131075000Y-65871750D03*
X131075000Y-68411750D03*
X131000000Y-83000000D03*
X133615000Y-60791750D03*
X133615000Y-65871750D03*
X136155000Y-60791750D03*
X136155000Y-63331750D03*
X136155000Y-65871750D03*
X136155000Y-68411750D03*
X136155000Y-70951750D03*
X136155000Y-73491750D03*
X136155000Y-76031750D03*
X136155000Y-78571750D03*
X136155000Y-81111750D03*
X136155000Y-103971750D03*
X138695000Y-76031750D03*
X138695000Y-78571750D03*
X138695000Y-103971750D03*
X138695000Y-109051750D03*
X138695000Y-111591750D03*
X141235000Y-60791750D03*
X141235000Y-65871750D03*
X141235000Y-73491750D03*
X141235000Y-78571750D03*
X141235000Y-103971750D03*
X141235000Y-111591750D03*
X143775000Y-60791750D03*
X143775000Y-63331750D03*
X143775000Y-103971750D03*
X143775000Y-106511750D03*
X143775000Y-109051750D03*
X146315000Y-60791750D03*
X146315000Y-63331750D03*
X146315000Y-68411750D03*
X146315000Y-70951750D03*
X146315000Y-76031750D03*
X146315000Y-78571750D03*
X146315000Y-81111750D03*
X146315000Y-83651750D03*
X146315000Y-103971750D03*
X146315000Y-106511750D03*
X146315000Y-109051750D03*
X138695000Y-68411750D03*
%TD*%
D31*
%TO.N,D1.8VDD*%
X130200000Y-90600000D02*
X130200000Y-89400000D01*
X132200000Y-74360000D02*
X132200000Y-73200000D01*
X132200000Y-73200000D02*
X133400000Y-72000000D01*
X128400000Y-86800000D02*
X127500000Y-86800000D01*
%TO.N,A3.3VDD*%
X107737500Y-89200000D02*
X107737500Y-87742500D01*
X107737500Y-87742500D02*
X108600000Y-86880000D01*
%TO.N,A1.8VDD*%
X123000000Y-87000000D02*
X123000000Y-86220737D01*
X123000000Y-86220737D02*
X122807853Y-86028590D01*
X113800000Y-81080000D02*
X113800000Y-82337500D01*
X113800000Y-82337500D02*
X114462500Y-83000000D01*
%TO.N,+1.8V*%
X114800000Y-69400000D02*
X114800000Y-69920000D01*
X114800000Y-69920000D02*
X113800000Y-70920000D01*
%TO.N,+3.3V*%
X107737500Y-74400000D02*
X107737500Y-75857500D01*
X107737500Y-75857500D02*
X108600000Y-76720000D01*
%TO.N,GND*%
X144200000Y-101200000D02*
X144000000Y-101000000D01*
X144765000Y-101200000D02*
X144200000Y-101200000D01*
X113275000Y-69000000D02*
X113275000Y-68225000D01*
X129000000Y-97000000D02*
X129200000Y-97200000D01*
X113275000Y-68225000D02*
X113500000Y-68000000D01*
%TD*%
%TA.AperFunction,Conductor*%
%TO.N,GND*%
G36*
X121994788Y-88118656D02*
G01*
X122118844Y-88242712D01*
X122268166Y-88334814D01*
X122434703Y-88389999D01*
X122537491Y-88400500D01*
X123462508Y-88400499D01*
X123462516Y-88400498D01*
X123462519Y-88400498D01*
X123518802Y-88394748D01*
X123565297Y-88389999D01*
X123731834Y-88334814D01*
X123881156Y-88242712D01*
X124005212Y-88118656D01*
X124078399Y-88000000D01*
X127476132Y-88000000D01*
X127518844Y-88042712D01*
X127668166Y-88134814D01*
X127834703Y-88189999D01*
X127937491Y-88200500D01*
X128862508Y-88200499D01*
X128862516Y-88200498D01*
X128862519Y-88200498D01*
X128918802Y-88194748D01*
X128965297Y-88189999D01*
X129000000Y-88178499D01*
X129000000Y-89676131D01*
X128957289Y-89718842D01*
X128865187Y-89868163D01*
X128865186Y-89868166D01*
X128810001Y-90034703D01*
X128810001Y-90034704D01*
X128810000Y-90034704D01*
X128799500Y-90137483D01*
X128799500Y-91062501D01*
X128799501Y-91062519D01*
X128810000Y-91165296D01*
X128810001Y-91165299D01*
X128865185Y-91331831D01*
X128865187Y-91331836D01*
X128957289Y-91481157D01*
X129000000Y-91523868D01*
X129000000Y-95400000D01*
X125723868Y-95400000D01*
X125681156Y-95357288D01*
X125531834Y-95265186D01*
X125365297Y-95210001D01*
X125365295Y-95210000D01*
X125262510Y-95199500D01*
X124337498Y-95199500D01*
X124337480Y-95199501D01*
X124234703Y-95210000D01*
X124234700Y-95210001D01*
X124068168Y-95265185D01*
X124068163Y-95265187D01*
X123918842Y-95357289D01*
X123876131Y-95400000D01*
X121600000Y-95400000D01*
X121600000Y-91686368D01*
X121642712Y-91643656D01*
X121734814Y-91494334D01*
X121789999Y-91327797D01*
X121800500Y-91225009D01*
X121800499Y-90299992D01*
X121789999Y-90197203D01*
X121734814Y-90030666D01*
X121642712Y-89881344D01*
X121600000Y-89838632D01*
X121600000Y-88000000D01*
X121921601Y-88000000D01*
X121994788Y-88118656D01*
G37*
%TD.AperFunction*%
%TD*%
%TA.AperFunction,Conductor*%
%TO.N,GND*%
G36*
X136050000Y-110631988D02*
G01*
X135992993Y-110599075D01*
X135865826Y-110565000D01*
X135734174Y-110565000D01*
X135607007Y-110599075D01*
X135550000Y-110631988D01*
X135550000Y-108958012D01*
X135607007Y-108990925D01*
X135734174Y-109025000D01*
X135865826Y-109025000D01*
X135992993Y-108990925D01*
X136050000Y-108958012D01*
X136050000Y-110631988D01*
G37*
%TD.AperFunction*%
%TA.AperFunction,Conductor*%
G36*
X144299075Y-101007007D02*
G01*
X144265000Y-101134174D01*
X144265000Y-101265826D01*
X144299075Y-101392993D01*
X144331988Y-101450000D01*
X142658012Y-101450000D01*
X142690925Y-101392993D01*
X142725000Y-101265826D01*
X142725000Y-101134174D01*
X142690925Y-101007007D01*
X142658012Y-100950000D01*
X144331988Y-100950000D01*
X144299075Y-101007007D01*
G37*
%TD.AperFunction*%
%TA.AperFunction,Conductor*%
G36*
X146543039Y-60020185D02*
G01*
X146588794Y-60072989D01*
X146600000Y-60124500D01*
X146600000Y-86117460D01*
X146580315Y-86184499D01*
X146527511Y-86230254D01*
X146458353Y-86240198D01*
X146403115Y-86217779D01*
X146247815Y-86104948D01*
X146058414Y-86008444D01*
X146058413Y-86008443D01*
X146058412Y-86008443D01*
X145856243Y-85942754D01*
X145856241Y-85942753D01*
X145856240Y-85942753D01*
X145694957Y-85917208D01*
X145646287Y-85909500D01*
X145433713Y-85909500D01*
X145385042Y-85917208D01*
X145223760Y-85942753D01*
X145021585Y-86008444D01*
X144832179Y-86104951D01*
X144660215Y-86229889D01*
X144546673Y-86343431D01*
X144485350Y-86376915D01*
X144415658Y-86371931D01*
X144359725Y-86330059D01*
X144342810Y-86299082D01*
X144293797Y-86167671D01*
X144293793Y-86167664D01*
X144207547Y-86052455D01*
X144207544Y-86052452D01*
X144092335Y-85966206D01*
X144092328Y-85966202D01*
X143957482Y-85915908D01*
X143957483Y-85915908D01*
X143897883Y-85909501D01*
X143897881Y-85909500D01*
X143897873Y-85909500D01*
X143897864Y-85909500D01*
X142102129Y-85909500D01*
X142102123Y-85909501D01*
X142042516Y-85915908D01*
X141907671Y-85966202D01*
X141907664Y-85966206D01*
X141792455Y-86052452D01*
X141792452Y-86052455D01*
X141706206Y-86167664D01*
X141706202Y-86167671D01*
X141655908Y-86302517D01*
X141649501Y-86362116D01*
X141649500Y-86362135D01*
X141649500Y-88157870D01*
X141649501Y-88157876D01*
X141655908Y-88217483D01*
X141706202Y-88352328D01*
X141706206Y-88352335D01*
X141792452Y-88467544D01*
X141792455Y-88467547D01*
X141907664Y-88553793D01*
X141907671Y-88553797D01*
X142039082Y-88602810D01*
X142095016Y-88644681D01*
X142119433Y-88710145D01*
X142104582Y-88778418D01*
X142083431Y-88806673D01*
X141969889Y-88920215D01*
X141844951Y-89092179D01*
X141748444Y-89281585D01*
X141748443Y-89281587D01*
X141748443Y-89281588D01*
X141735587Y-89321155D01*
X141682753Y-89483760D01*
X141660037Y-89627186D01*
X141649500Y-89693713D01*
X141649500Y-89906287D01*
X141657301Y-89955539D01*
X141681908Y-90110906D01*
X141682754Y-90116243D01*
X141744588Y-90306549D01*
X141748444Y-90318414D01*
X141844951Y-90507820D01*
X141969890Y-90679786D01*
X142120213Y-90830109D01*
X142292182Y-90955050D01*
X142300946Y-90959516D01*
X142351742Y-91007491D01*
X142368536Y-91075312D01*
X142345998Y-91141447D01*
X142300946Y-91180484D01*
X142292182Y-91184949D01*
X142120213Y-91309890D01*
X141969890Y-91460213D01*
X141844951Y-91632179D01*
X141748444Y-91821585D01*
X141682753Y-92023760D01*
X141668857Y-92111496D01*
X141649500Y-92233713D01*
X141649500Y-92446287D01*
X141652507Y-92465273D01*
X141675637Y-92611312D01*
X141682754Y-92656243D01*
X141745253Y-92848595D01*
X141748444Y-92858414D01*
X141844951Y-93047820D01*
X141969890Y-93219786D01*
X142120213Y-93370109D01*
X142292182Y-93495050D01*
X142300946Y-93499516D01*
X142351742Y-93547491D01*
X142368536Y-93615312D01*
X142345998Y-93681447D01*
X142300946Y-93720484D01*
X142292182Y-93724949D01*
X142120213Y-93849890D01*
X141969890Y-94000213D01*
X141844951Y-94172179D01*
X141748444Y-94361585D01*
X141682753Y-94563760D01*
X141659171Y-94712651D01*
X141649500Y-94773713D01*
X141649500Y-94986287D01*
X141653409Y-95010965D01*
X141681635Y-95189183D01*
X141682754Y-95196243D01*
X141748095Y-95397342D01*
X141748444Y-95398414D01*
X141844951Y-95587820D01*
X141969890Y-95759786D01*
X142120213Y-95910109D01*
X142292182Y-96035050D01*
X142300946Y-96039516D01*
X142351742Y-96087491D01*
X142368536Y-96155312D01*
X142345998Y-96221447D01*
X142300946Y-96260484D01*
X142292182Y-96264949D01*
X142120213Y-96389890D01*
X141969890Y-96540213D01*
X141844951Y-96712179D01*
X141748444Y-96901585D01*
X141682753Y-97103760D01*
X141649500Y-97313713D01*
X141649500Y-97526286D01*
X141679968Y-97718657D01*
X141682754Y-97736243D01*
X141747273Y-97934812D01*
X141748444Y-97938414D01*
X141844951Y-98127820D01*
X141969890Y-98299786D01*
X142120213Y-98450109D01*
X142292179Y-98575048D01*
X142292181Y-98575049D01*
X142292184Y-98575051D01*
X142481588Y-98671557D01*
X142683757Y-98737246D01*
X142893713Y-98770500D01*
X142893714Y-98770500D01*
X143106286Y-98770500D01*
X143106287Y-98770500D01*
X143316243Y-98737246D01*
X143518412Y-98671557D01*
X143707816Y-98575051D01*
X143842517Y-98477186D01*
X143879786Y-98450109D01*
X143879788Y-98450106D01*
X143879792Y-98450104D01*
X144030104Y-98299792D01*
X144030106Y-98299788D01*
X144030109Y-98299786D01*
X144155048Y-98127820D01*
X144155047Y-98127820D01*
X144155051Y-98127816D01*
X144159514Y-98119054D01*
X144207488Y-98068259D01*
X144275308Y-98051463D01*
X144341444Y-98073999D01*
X144380486Y-98119056D01*
X144384951Y-98127820D01*
X144509890Y-98299786D01*
X144660213Y-98450109D01*
X144832179Y-98575048D01*
X144832181Y-98575049D01*
X144832184Y-98575051D01*
X145021588Y-98671557D01*
X145223757Y-98737246D01*
X145433713Y-98770500D01*
X145433714Y-98770500D01*
X145646286Y-98770500D01*
X145646287Y-98770500D01*
X145856243Y-98737246D01*
X146058412Y-98671557D01*
X146247816Y-98575051D01*
X146382517Y-98477186D01*
X146403115Y-98462221D01*
X146468921Y-98438741D01*
X146536975Y-98454567D01*
X146585670Y-98504673D01*
X146600000Y-98562539D01*
X146600000Y-112875500D01*
X146580315Y-112942539D01*
X146527511Y-112988294D01*
X146476000Y-112999500D01*
X94124500Y-112999500D01*
X94057461Y-112979815D01*
X94011706Y-112927011D01*
X94000500Y-112875500D01*
X94000500Y-108415713D01*
X120491500Y-108415713D01*
X120491500Y-108628287D01*
X120524754Y-108838243D01*
X120585435Y-109025000D01*
X120590444Y-109040414D01*
X120686951Y-109229820D01*
X120811890Y-109401786D01*
X120962213Y-109552109D01*
X121134179Y-109677048D01*
X121134181Y-109677049D01*
X121134184Y-109677051D01*
X121143493Y-109681794D01*
X121194290Y-109729766D01*
X121211087Y-109797587D01*
X121188552Y-109863722D01*
X121143502Y-109902762D01*
X121134443Y-109907378D01*
X120962540Y-110032272D01*
X120962535Y-110032276D01*
X120812276Y-110182535D01*
X120812272Y-110182540D01*
X120687379Y-110354442D01*
X120590904Y-110543782D01*
X120525242Y-110745870D01*
X120525242Y-110745873D01*
X120514769Y-110812000D01*
X121408988Y-110812000D01*
X121376075Y-110869007D01*
X121342000Y-110996174D01*
X121342000Y-111127826D01*
X121376075Y-111254993D01*
X121408988Y-111312000D01*
X120514769Y-111312000D01*
X120525242Y-111378126D01*
X120525242Y-111378129D01*
X120590904Y-111580217D01*
X120687379Y-111769557D01*
X120812272Y-111941459D01*
X120812276Y-111941464D01*
X120962535Y-112091723D01*
X120962540Y-112091727D01*
X121134442Y-112216620D01*
X121323782Y-112313095D01*
X121525871Y-112378757D01*
X121592000Y-112389231D01*
X121592000Y-111495012D01*
X121649007Y-111527925D01*
X121776174Y-111562000D01*
X121907826Y-111562000D01*
X122034993Y-111527925D01*
X122092000Y-111495012D01*
X122092000Y-112389230D01*
X122158126Y-112378757D01*
X122158129Y-112378757D01*
X122360217Y-112313095D01*
X122549557Y-112216620D01*
X122721459Y-112091727D01*
X122721464Y-112091723D01*
X122871723Y-111941464D01*
X122871727Y-111941459D01*
X122996620Y-111769558D01*
X123001232Y-111760507D01*
X123049205Y-111709709D01*
X123117025Y-111692912D01*
X123183161Y-111715447D01*
X123222204Y-111760504D01*
X123226949Y-111769817D01*
X123351890Y-111941786D01*
X123502213Y-112092109D01*
X123674179Y-112217048D01*
X123674181Y-112217049D01*
X123674184Y-112217051D01*
X123863588Y-112313557D01*
X124065757Y-112379246D01*
X124275713Y-112412500D01*
X124275714Y-112412500D01*
X124488286Y-112412500D01*
X124488287Y-112412500D01*
X124698243Y-112379246D01*
X124900412Y-112313557D01*
X125089816Y-112217051D01*
X125111789Y-112201086D01*
X125261786Y-112092109D01*
X125261788Y-112092106D01*
X125261792Y-112092104D01*
X125412104Y-111941792D01*
X125412106Y-111941788D01*
X125412109Y-111941786D01*
X125521086Y-111791789D01*
X125537051Y-111769816D01*
X125541514Y-111761054D01*
X125589488Y-111710259D01*
X125657308Y-111693463D01*
X125723444Y-111715999D01*
X125762486Y-111761056D01*
X125766951Y-111769820D01*
X125891890Y-111941786D01*
X126042213Y-112092109D01*
X126214179Y-112217048D01*
X126214181Y-112217049D01*
X126214184Y-112217051D01*
X126403588Y-112313557D01*
X126605757Y-112379246D01*
X126815713Y-112412500D01*
X126815714Y-112412500D01*
X127028286Y-112412500D01*
X127028287Y-112412500D01*
X127238243Y-112379246D01*
X127440412Y-112313557D01*
X127629816Y-112217051D01*
X127651789Y-112201086D01*
X127801786Y-112092109D01*
X127801788Y-112092106D01*
X127801792Y-112092104D01*
X127952104Y-111941792D01*
X127952106Y-111941788D01*
X127952109Y-111941786D01*
X128061086Y-111791789D01*
X128077051Y-111769816D01*
X128081514Y-111761054D01*
X128129488Y-111710259D01*
X128197308Y-111693463D01*
X128263444Y-111715999D01*
X128302486Y-111761056D01*
X128306951Y-111769820D01*
X128431890Y-111941786D01*
X128582213Y-112092109D01*
X128754179Y-112217048D01*
X128754181Y-112217049D01*
X128754184Y-112217051D01*
X128943588Y-112313557D01*
X129145757Y-112379246D01*
X129355713Y-112412500D01*
X129355714Y-112412500D01*
X129568286Y-112412500D01*
X129568287Y-112412500D01*
X129778243Y-112379246D01*
X129980412Y-112313557D01*
X130169816Y-112217051D01*
X130191789Y-112201086D01*
X130341786Y-112092109D01*
X130341788Y-112092106D01*
X130341792Y-112092104D01*
X130492104Y-111941792D01*
X130492106Y-111941788D01*
X130492109Y-111941786D01*
X130601086Y-111791789D01*
X130617051Y-111769816D01*
X130621514Y-111761054D01*
X130669488Y-111710259D01*
X130737308Y-111693463D01*
X130803444Y-111715999D01*
X130842486Y-111761056D01*
X130846951Y-111769820D01*
X130971890Y-111941786D01*
X131122213Y-112092109D01*
X131294179Y-112217048D01*
X131294181Y-112217049D01*
X131294184Y-112217051D01*
X131483588Y-112313557D01*
X131685757Y-112379246D01*
X131895713Y-112412500D01*
X131895714Y-112412500D01*
X132108286Y-112412500D01*
X132108287Y-112412500D01*
X132318243Y-112379246D01*
X132520412Y-112313557D01*
X132709816Y-112217051D01*
X132731789Y-112201086D01*
X132881786Y-112092109D01*
X132881788Y-112092106D01*
X132881792Y-112092104D01*
X133032104Y-111941792D01*
X133032106Y-111941788D01*
X133032109Y-111941786D01*
X133141086Y-111791789D01*
X133157051Y-111769816D01*
X133253557Y-111580412D01*
X133319246Y-111378243D01*
X133352500Y-111168287D01*
X133352500Y-110955713D01*
X133319246Y-110745757D01*
X133253557Y-110543588D01*
X133157051Y-110354184D01*
X133157049Y-110354181D01*
X133157048Y-110354179D01*
X133032109Y-110182213D01*
X132918569Y-110068673D01*
X132885084Y-110007350D01*
X132890068Y-109937658D01*
X132931940Y-109881725D01*
X132962915Y-109864810D01*
X133094331Y-109815796D01*
X133209546Y-109729546D01*
X133295796Y-109614331D01*
X133346091Y-109479483D01*
X133352500Y-109419873D01*
X133352499Y-108459174D01*
X133352499Y-107627155D01*
X134450000Y-107627155D01*
X134450000Y-108275000D01*
X135366988Y-108275000D01*
X135334075Y-108332007D01*
X135300000Y-108459174D01*
X135300000Y-108590826D01*
X135334075Y-108717993D01*
X135366988Y-108775000D01*
X134450000Y-108775000D01*
X134450000Y-109422844D01*
X134456401Y-109482372D01*
X134456403Y-109482379D01*
X134506645Y-109617086D01*
X134506649Y-109617093D01*
X134592809Y-109732187D01*
X134592812Y-109732190D01*
X134707906Y-109818350D01*
X134707913Y-109818354D01*
X134839986Y-109867614D01*
X134895920Y-109909485D01*
X134920337Y-109974949D01*
X134905486Y-110043222D01*
X134884335Y-110071477D01*
X134770271Y-110185541D01*
X134645379Y-110357442D01*
X134548904Y-110546782D01*
X134483242Y-110748870D01*
X134483242Y-110748873D01*
X134472769Y-110815000D01*
X135366988Y-110815000D01*
X135334075Y-110872007D01*
X135300000Y-110999174D01*
X135300000Y-111130826D01*
X135334075Y-111257993D01*
X135366988Y-111315000D01*
X134472769Y-111315000D01*
X134483242Y-111381126D01*
X134483242Y-111381129D01*
X134548904Y-111583217D01*
X134645379Y-111772557D01*
X134770272Y-111944459D01*
X134770276Y-111944464D01*
X134920535Y-112094723D01*
X134920540Y-112094727D01*
X135092442Y-112219620D01*
X135281782Y-112316095D01*
X135483871Y-112381757D01*
X135550000Y-112392231D01*
X135550000Y-111498012D01*
X135607007Y-111530925D01*
X135734174Y-111565000D01*
X135865826Y-111565000D01*
X135992993Y-111530925D01*
X136050000Y-111498012D01*
X136050000Y-112392230D01*
X136116126Y-112381757D01*
X136116129Y-112381757D01*
X136318217Y-112316095D01*
X136507557Y-112219620D01*
X136679459Y-112094727D01*
X136679464Y-112094723D01*
X136829723Y-111944464D01*
X136829727Y-111944459D01*
X136954620Y-111772557D01*
X137051095Y-111583217D01*
X137116757Y-111381129D01*
X137116757Y-111381126D01*
X137127231Y-111315000D01*
X136233012Y-111315000D01*
X136265925Y-111257993D01*
X136300000Y-111130826D01*
X136300000Y-110999174D01*
X136265925Y-110872007D01*
X136233012Y-110815000D01*
X137127231Y-110815000D01*
X137116757Y-110748873D01*
X137116757Y-110748870D01*
X137051095Y-110546782D01*
X136954620Y-110357442D01*
X136829727Y-110185540D01*
X136829723Y-110185535D01*
X136715665Y-110071477D01*
X136682180Y-110010154D01*
X136687164Y-109940462D01*
X136729036Y-109884529D01*
X136760013Y-109867614D01*
X136892086Y-109818354D01*
X136892093Y-109818350D01*
X137007187Y-109732190D01*
X137007190Y-109732187D01*
X137093350Y-109617093D01*
X137093354Y-109617086D01*
X137143596Y-109482379D01*
X137143598Y-109482372D01*
X137149999Y-109422844D01*
X137150000Y-109422827D01*
X137150000Y-108775000D01*
X136233012Y-108775000D01*
X136265925Y-108717993D01*
X136300000Y-108590826D01*
X136300000Y-108459174D01*
X136265925Y-108332007D01*
X136233012Y-108275000D01*
X137150000Y-108275000D01*
X137150000Y-107627172D01*
X137149999Y-107627155D01*
X137143598Y-107567627D01*
X137143596Y-107567620D01*
X137093354Y-107432913D01*
X137093350Y-107432906D01*
X137007190Y-107317812D01*
X137007187Y-107317809D01*
X136892093Y-107231649D01*
X136892086Y-107231645D01*
X136757379Y-107181403D01*
X136757372Y-107181401D01*
X136697844Y-107175000D01*
X136050000Y-107175000D01*
X136050000Y-108091988D01*
X135992993Y-108059075D01*
X135865826Y-108025000D01*
X135734174Y-108025000D01*
X135607007Y-108059075D01*
X135550000Y-108091988D01*
X135550000Y-107175000D01*
X134902155Y-107175000D01*
X134842627Y-107181401D01*
X134842620Y-107181403D01*
X134707913Y-107231645D01*
X134707906Y-107231649D01*
X134592812Y-107317809D01*
X134592809Y-107317812D01*
X134506649Y-107432906D01*
X134506645Y-107432913D01*
X134456403Y-107567620D01*
X134456401Y-107567627D01*
X134450000Y-107627155D01*
X133352499Y-107627155D01*
X133352499Y-107624129D01*
X133352498Y-107624123D01*
X133351214Y-107612181D01*
X133346091Y-107564517D01*
X133344810Y-107561083D01*
X133295797Y-107429671D01*
X133295793Y-107429664D01*
X133209547Y-107314455D01*
X133209544Y-107314452D01*
X133094335Y-107228206D01*
X133094328Y-107228202D01*
X132959482Y-107177908D01*
X132959483Y-107177908D01*
X132899883Y-107171501D01*
X132899881Y-107171500D01*
X132899873Y-107171500D01*
X132899864Y-107171500D01*
X131104129Y-107171500D01*
X131104123Y-107171501D01*
X131044516Y-107177908D01*
X130909671Y-107228202D01*
X130909664Y-107228206D01*
X130794455Y-107314452D01*
X130794452Y-107314455D01*
X130708206Y-107429664D01*
X130708203Y-107429669D01*
X130659189Y-107561083D01*
X130617317Y-107617016D01*
X130551853Y-107641433D01*
X130483580Y-107626581D01*
X130455326Y-107605430D01*
X130341786Y-107491890D01*
X130169820Y-107366951D01*
X129980414Y-107270444D01*
X129980413Y-107270443D01*
X129980412Y-107270443D01*
X129778243Y-107204754D01*
X129778241Y-107204753D01*
X129778240Y-107204753D01*
X129616957Y-107179208D01*
X129568287Y-107171500D01*
X129355713Y-107171500D01*
X129307042Y-107179208D01*
X129145760Y-107204753D01*
X128943585Y-107270444D01*
X128754179Y-107366951D01*
X128582213Y-107491890D01*
X128431890Y-107642213D01*
X128306949Y-107814182D01*
X128302484Y-107822946D01*
X128254509Y-107873742D01*
X128186688Y-107890536D01*
X128120553Y-107867998D01*
X128081516Y-107822946D01*
X128077050Y-107814182D01*
X127952109Y-107642213D01*
X127801786Y-107491890D01*
X127629820Y-107366951D01*
X127440414Y-107270444D01*
X127440413Y-107270443D01*
X127440412Y-107270443D01*
X127238243Y-107204754D01*
X127238241Y-107204753D01*
X127238240Y-107204753D01*
X127076957Y-107179208D01*
X127028287Y-107171500D01*
X126815713Y-107171500D01*
X126767042Y-107179208D01*
X126605760Y-107204753D01*
X126403585Y-107270444D01*
X126214179Y-107366951D01*
X126042213Y-107491890D01*
X125891890Y-107642213D01*
X125766949Y-107814182D01*
X125762484Y-107822946D01*
X125714509Y-107873742D01*
X125646688Y-107890536D01*
X125580553Y-107867998D01*
X125541516Y-107822946D01*
X125537050Y-107814182D01*
X125412109Y-107642213D01*
X125261786Y-107491890D01*
X125089820Y-107366951D01*
X124900414Y-107270444D01*
X124900413Y-107270443D01*
X124900412Y-107270443D01*
X124698243Y-107204754D01*
X124698241Y-107204753D01*
X124698240Y-107204753D01*
X124536957Y-107179208D01*
X124488287Y-107171500D01*
X124275713Y-107171500D01*
X124227042Y-107179208D01*
X124065760Y-107204753D01*
X123863585Y-107270444D01*
X123741644Y-107332576D01*
X123672974Y-107345472D01*
X123608234Y-107319195D01*
X123567977Y-107262089D01*
X123564985Y-107192283D01*
X123597667Y-107134410D01*
X123621789Y-107110289D01*
X123709394Y-106979179D01*
X123769737Y-106833497D01*
X123800500Y-106678842D01*
X123800500Y-106521158D01*
X123800500Y-106521155D01*
X123800499Y-106521153D01*
X123769738Y-106366510D01*
X123769737Y-106366503D01*
X123769735Y-106366498D01*
X123709397Y-106220827D01*
X123709390Y-106220814D01*
X123621789Y-106089711D01*
X123621786Y-106089707D01*
X123510292Y-105978213D01*
X123510288Y-105978210D01*
X123379185Y-105890609D01*
X123379172Y-105890602D01*
X123233501Y-105830264D01*
X123233489Y-105830261D01*
X123078845Y-105799500D01*
X123078842Y-105799500D01*
X122921158Y-105799500D01*
X122921155Y-105799500D01*
X122766510Y-105830261D01*
X122766498Y-105830264D01*
X122620827Y-105890602D01*
X122620814Y-105890609D01*
X122489711Y-105978210D01*
X122489707Y-105978213D01*
X122378213Y-106089707D01*
X122378210Y-106089711D01*
X122290609Y-106220814D01*
X122290602Y-106220827D01*
X122230264Y-106366498D01*
X122230261Y-106366510D01*
X122199500Y-106521153D01*
X122199500Y-106678846D01*
X122230261Y-106833489D01*
X122230264Y-106833501D01*
X122290602Y-106979172D01*
X122290609Y-106979185D01*
X122321168Y-107024919D01*
X122342046Y-107091596D01*
X122323562Y-107158977D01*
X122271583Y-107205667D01*
X122202613Y-107216843D01*
X122179751Y-107211742D01*
X122158240Y-107204753D01*
X121996957Y-107179208D01*
X121948287Y-107171500D01*
X121735713Y-107171500D01*
X121687042Y-107179208D01*
X121525760Y-107204753D01*
X121323585Y-107270444D01*
X121134179Y-107366951D01*
X120962213Y-107491890D01*
X120811890Y-107642213D01*
X120686951Y-107814179D01*
X120590444Y-108003585D01*
X120524753Y-108205760D01*
X120513787Y-108275000D01*
X120491500Y-108415713D01*
X94000500Y-108415713D01*
X94000500Y-103140978D01*
X123500500Y-103140978D01*
X123500500Y-103298671D01*
X123531261Y-103453314D01*
X123531264Y-103453326D01*
X123591602Y-103598997D01*
X123591609Y-103599010D01*
X123679210Y-103730113D01*
X123679213Y-103730117D01*
X123790707Y-103841611D01*
X123790711Y-103841614D01*
X123921814Y-103929215D01*
X123921827Y-103929222D01*
X124067498Y-103989560D01*
X124067503Y-103989562D01*
X124222153Y-104020324D01*
X124222156Y-104020325D01*
X124222158Y-104020325D01*
X124379844Y-104020325D01*
X124379845Y-104020324D01*
X124534497Y-103989562D01*
X124680179Y-103929219D01*
X124811289Y-103841614D01*
X124922789Y-103730114D01*
X125010394Y-103599004D01*
X125070737Y-103453322D01*
X125101500Y-103298667D01*
X125101500Y-103140983D01*
X125101500Y-103140980D01*
X125101499Y-103140978D01*
X125085598Y-103061038D01*
X125070737Y-102986328D01*
X125070735Y-102986323D01*
X125010397Y-102840652D01*
X125010390Y-102840639D01*
X124922789Y-102709536D01*
X124922786Y-102709532D01*
X124811292Y-102598038D01*
X124811288Y-102598035D01*
X124680185Y-102510434D01*
X124680172Y-102510427D01*
X124534501Y-102450089D01*
X124534489Y-102450086D01*
X124379845Y-102419325D01*
X124379842Y-102419325D01*
X124222158Y-102419325D01*
X124222155Y-102419325D01*
X124067510Y-102450086D01*
X124067498Y-102450089D01*
X123921827Y-102510427D01*
X123921814Y-102510434D01*
X123790711Y-102598035D01*
X123790707Y-102598038D01*
X123679213Y-102709532D01*
X123679210Y-102709536D01*
X123591609Y-102840639D01*
X123591602Y-102840652D01*
X123531264Y-102986323D01*
X123531261Y-102986335D01*
X123500500Y-103140978D01*
X94000500Y-103140978D01*
X94000500Y-101481947D01*
X99150000Y-101481947D01*
X99150000Y-101718052D01*
X99186934Y-101951247D01*
X99259897Y-102175802D01*
X99367085Y-102386171D01*
X99505866Y-102577186D01*
X99672821Y-102744141D01*
X99805737Y-102840709D01*
X99805739Y-102840709D01*
X100409219Y-102237228D01*
X100495818Y-102273099D01*
X100631056Y-102300000D01*
X101053551Y-102300000D01*
X100292512Y-103061037D01*
X100292512Y-103061038D01*
X100298750Y-103063065D01*
X100531948Y-103100000D01*
X102268052Y-103100000D01*
X102501247Y-103063065D01*
X102501253Y-103063064D01*
X102507485Y-103061037D01*
X101746448Y-102300000D01*
X102168944Y-102300000D01*
X102304182Y-102273099D01*
X102390780Y-102237228D01*
X102994260Y-102840708D01*
X103127186Y-102744133D01*
X103294133Y-102577186D01*
X103432914Y-102386171D01*
X103476827Y-102299986D01*
X117875001Y-102299986D01*
X117885494Y-102402697D01*
X117940641Y-102569119D01*
X117940643Y-102569124D01*
X118032684Y-102718345D01*
X118156654Y-102842315D01*
X118305875Y-102934356D01*
X118305880Y-102934358D01*
X118472302Y-102989505D01*
X118472309Y-102989506D01*
X118575019Y-102999999D01*
X118787499Y-102999999D01*
X119287500Y-102999999D01*
X119499972Y-102999999D01*
X119499986Y-102999998D01*
X119602697Y-102989505D01*
X119769119Y-102934358D01*
X119769124Y-102934356D01*
X119918345Y-102842315D01*
X120042315Y-102718345D01*
X120134356Y-102569124D01*
X120134358Y-102569119D01*
X120189505Y-102402697D01*
X120189506Y-102402690D01*
X120199999Y-102299986D01*
X120200000Y-102299973D01*
X120200000Y-101850000D01*
X119287500Y-101850000D01*
X119287500Y-102999999D01*
X118787499Y-102999999D01*
X118787500Y-102999998D01*
X118787500Y-101850000D01*
X117875001Y-101850000D01*
X117875001Y-102299986D01*
X103476827Y-102299986D01*
X103540102Y-102175802D01*
X103613065Y-101951247D01*
X103640309Y-101779240D01*
X103640309Y-101779239D01*
X103650000Y-101718053D01*
X103650000Y-101481947D01*
X103613065Y-101248752D01*
X103540102Y-101024197D01*
X103503907Y-100953159D01*
X103476828Y-100900013D01*
X117875000Y-100900013D01*
X117875000Y-101350000D01*
X118787500Y-101350000D01*
X119287500Y-101350000D01*
X120199999Y-101350000D01*
X120199999Y-100900024D01*
X120199998Y-100900016D01*
X120199995Y-100899983D01*
X120999500Y-100899983D01*
X120999500Y-102300001D01*
X120999501Y-102300018D01*
X121010000Y-102402796D01*
X121010001Y-102402799D01*
X121051234Y-102527230D01*
X121065186Y-102569334D01*
X121157288Y-102718656D01*
X121281344Y-102842712D01*
X121430666Y-102934814D01*
X121597203Y-102989999D01*
X121699991Y-103000500D01*
X122625008Y-103000499D01*
X122625016Y-103000498D01*
X122625019Y-103000498D01*
X122681302Y-102994748D01*
X122727797Y-102989999D01*
X122894334Y-102934814D01*
X123043656Y-102842712D01*
X123167712Y-102718656D01*
X123259814Y-102569334D01*
X123314999Y-102402797D01*
X123325500Y-102300009D01*
X123325499Y-100899992D01*
X123323852Y-100883873D01*
X123314999Y-100797203D01*
X123314998Y-100797200D01*
X123276752Y-100681782D01*
X123259814Y-100630666D01*
X123167712Y-100481344D01*
X123043656Y-100357288D01*
X122894334Y-100265186D01*
X122727797Y-100210001D01*
X122727795Y-100210000D01*
X122625010Y-100199500D01*
X121699998Y-100199500D01*
X121699980Y-100199501D01*
X121597203Y-100210000D01*
X121597200Y-100210001D01*
X121430668Y-100265185D01*
X121430663Y-100265187D01*
X121281342Y-100357289D01*
X121157289Y-100481342D01*
X121065187Y-100630663D01*
X121065185Y-100630668D01*
X121065115Y-100630880D01*
X121010001Y-100797203D01*
X121010001Y-100797204D01*
X121010000Y-100797204D01*
X120999500Y-100899983D01*
X120199995Y-100899983D01*
X120189505Y-100797302D01*
X120134358Y-100630880D01*
X120134356Y-100630875D01*
X120042315Y-100481654D01*
X119918345Y-100357684D01*
X119769124Y-100265643D01*
X119769119Y-100265641D01*
X119602697Y-100210494D01*
X119602690Y-100210493D01*
X119499986Y-100200000D01*
X119287500Y-100200000D01*
X119287500Y-101350000D01*
X118787500Y-101350000D01*
X118787500Y-100200000D01*
X118575029Y-100200000D01*
X118575012Y-100200001D01*
X118472302Y-100210494D01*
X118305880Y-100265641D01*
X118305875Y-100265643D01*
X118156654Y-100357684D01*
X118032684Y-100481654D01*
X117940643Y-100630875D01*
X117940641Y-100630880D01*
X117885494Y-100797302D01*
X117885493Y-100797309D01*
X117875000Y-100900013D01*
X103476828Y-100900013D01*
X103432914Y-100813828D01*
X103294133Y-100622813D01*
X103127186Y-100455866D01*
X103127180Y-100455861D01*
X102994261Y-100359289D01*
X102994260Y-100359289D01*
X102390779Y-100962770D01*
X102304182Y-100926901D01*
X102168944Y-100900000D01*
X101746448Y-100900000D01*
X102507486Y-100138961D01*
X102507486Y-100138960D01*
X102501256Y-100136936D01*
X102501246Y-100136934D01*
X102268052Y-100100000D01*
X100531948Y-100100000D01*
X100298756Y-100136933D01*
X100298744Y-100136936D01*
X100292512Y-100138961D01*
X101053552Y-100900000D01*
X100631056Y-100900000D01*
X100495818Y-100926901D01*
X100409219Y-100962770D01*
X99805738Y-100359289D01*
X99672814Y-100455866D01*
X99672813Y-100455866D01*
X99505866Y-100622813D01*
X99367085Y-100813828D01*
X99259897Y-101024197D01*
X99186934Y-101248752D01*
X99150000Y-101481947D01*
X94000500Y-101481947D01*
X94000500Y-99899983D01*
X129112000Y-99899983D01*
X129112000Y-101300001D01*
X129112001Y-101300018D01*
X129122500Y-101402796D01*
X129122501Y-101402799D01*
X129165002Y-101531056D01*
X129177686Y-101569334D01*
X129269788Y-101718656D01*
X129393844Y-101842712D01*
X129543166Y-101934814D01*
X129709703Y-101989999D01*
X129812491Y-102000500D01*
X130737508Y-102000499D01*
X130737516Y-102000498D01*
X130737519Y-102000498D01*
X130793802Y-101994748D01*
X130840297Y-101989999D01*
X131006834Y-101934814D01*
X131156156Y-101842712D01*
X131280212Y-101718656D01*
X131372314Y-101569334D01*
X131427499Y-101402797D01*
X131438000Y-101300009D01*
X131438000Y-101299986D01*
X132237501Y-101299986D01*
X132247994Y-101402697D01*
X132303141Y-101569119D01*
X132303143Y-101569124D01*
X132395184Y-101718345D01*
X132519154Y-101842315D01*
X132668375Y-101934356D01*
X132668380Y-101934358D01*
X132834802Y-101989505D01*
X132834809Y-101989506D01*
X132937519Y-101999999D01*
X133149999Y-101999999D01*
X133650000Y-101999999D01*
X133862472Y-101999999D01*
X133862486Y-101999998D01*
X133965197Y-101989505D01*
X134131619Y-101934358D01*
X134131624Y-101934356D01*
X134280845Y-101842315D01*
X134404815Y-101718345D01*
X134496856Y-101569124D01*
X134496858Y-101569119D01*
X134552005Y-101402697D01*
X134552006Y-101402689D01*
X134553708Y-101386036D01*
X134553708Y-101386035D01*
X134562499Y-101299986D01*
X134562500Y-101299973D01*
X134562500Y-100850000D01*
X133650000Y-100850000D01*
X133650000Y-101999999D01*
X133149999Y-101999999D01*
X133150000Y-101999998D01*
X133150000Y-100850000D01*
X132237501Y-100850000D01*
X132237501Y-101299986D01*
X131438000Y-101299986D01*
X131437999Y-100492442D01*
X131437999Y-99900013D01*
X132237500Y-99900013D01*
X132237500Y-100350000D01*
X133150000Y-100350000D01*
X133650000Y-100350000D01*
X134562499Y-100350000D01*
X134562499Y-100302155D01*
X140875000Y-100302155D01*
X140875000Y-100950000D01*
X141791988Y-100950000D01*
X141759075Y-101007007D01*
X141725000Y-101134174D01*
X141725000Y-101265826D01*
X141759075Y-101392993D01*
X141791988Y-101450000D01*
X140875000Y-101450000D01*
X140875000Y-102097844D01*
X140881401Y-102157372D01*
X140881403Y-102157379D01*
X140931645Y-102292086D01*
X140931649Y-102292093D01*
X141017809Y-102407187D01*
X141017812Y-102407190D01*
X141132906Y-102493350D01*
X141132913Y-102493354D01*
X141267620Y-102543596D01*
X141267627Y-102543598D01*
X141327155Y-102549999D01*
X141327172Y-102550000D01*
X141975000Y-102550000D01*
X141975000Y-101633012D01*
X142032007Y-101665925D01*
X142159174Y-101700000D01*
X142290826Y-101700000D01*
X142417993Y-101665925D01*
X142475000Y-101633012D01*
X142475000Y-102550000D01*
X143122828Y-102550000D01*
X143122844Y-102549999D01*
X143182372Y-102543598D01*
X143182379Y-102543596D01*
X143317086Y-102493354D01*
X143317093Y-102493350D01*
X143432187Y-102407190D01*
X143432190Y-102407187D01*
X143518350Y-102292093D01*
X143518354Y-102292086D01*
X143567614Y-102160013D01*
X143609485Y-102104079D01*
X143674949Y-102079662D01*
X143743222Y-102094513D01*
X143771477Y-102115665D01*
X143885535Y-102229723D01*
X143885540Y-102229727D01*
X144057442Y-102354620D01*
X144246782Y-102451095D01*
X144448871Y-102516757D01*
X144515000Y-102527231D01*
X144515000Y-101633012D01*
X144572007Y-101665925D01*
X144699174Y-101700000D01*
X144830826Y-101700000D01*
X144957993Y-101665925D01*
X145015000Y-101633012D01*
X145015000Y-102527230D01*
X145081126Y-102516757D01*
X145081129Y-102516757D01*
X145283217Y-102451095D01*
X145472557Y-102354620D01*
X145644459Y-102229727D01*
X145644464Y-102229723D01*
X145794723Y-102079464D01*
X145794727Y-102079459D01*
X145919620Y-101907557D01*
X146016095Y-101718217D01*
X146081757Y-101516129D01*
X146081757Y-101516126D01*
X146092231Y-101450000D01*
X145198012Y-101450000D01*
X145230925Y-101392993D01*
X145265000Y-101265826D01*
X145265000Y-101134174D01*
X145230925Y-101007007D01*
X145198012Y-100950000D01*
X146092231Y-100950000D01*
X146081757Y-100883873D01*
X146081757Y-100883870D01*
X146016095Y-100681782D01*
X145919620Y-100492442D01*
X145794727Y-100320540D01*
X145794723Y-100320535D01*
X145644464Y-100170276D01*
X145644459Y-100170272D01*
X145472557Y-100045379D01*
X145283215Y-99948903D01*
X145081124Y-99883241D01*
X145015000Y-99872768D01*
X145015000Y-100766988D01*
X144957993Y-100734075D01*
X144830826Y-100700000D01*
X144699174Y-100700000D01*
X144572007Y-100734075D01*
X144515000Y-100766988D01*
X144515000Y-99872768D01*
X144514999Y-99872768D01*
X144448875Y-99883241D01*
X144246784Y-99948903D01*
X144057442Y-100045379D01*
X143885541Y-100170271D01*
X143771477Y-100284335D01*
X143710154Y-100317819D01*
X143640462Y-100312835D01*
X143584529Y-100270963D01*
X143567614Y-100239986D01*
X143518354Y-100107913D01*
X143518350Y-100107906D01*
X143432190Y-99992812D01*
X143432187Y-99992809D01*
X143317093Y-99906649D01*
X143317086Y-99906645D01*
X143182379Y-99856403D01*
X143182372Y-99856401D01*
X143122844Y-99850000D01*
X142475000Y-99850000D01*
X142475000Y-100766988D01*
X142417993Y-100734075D01*
X142290826Y-100700000D01*
X142159174Y-100700000D01*
X142032007Y-100734075D01*
X141975000Y-100766988D01*
X141975000Y-99850000D01*
X141327155Y-99850000D01*
X141267627Y-99856401D01*
X141267620Y-99856403D01*
X141132913Y-99906645D01*
X141132906Y-99906649D01*
X141017812Y-99992809D01*
X141017809Y-99992812D01*
X140931649Y-100107906D01*
X140931645Y-100107913D01*
X140881403Y-100242620D01*
X140881401Y-100242627D01*
X140875000Y-100302155D01*
X134562499Y-100302155D01*
X134562499Y-99900028D01*
X134562498Y-99900013D01*
X134552005Y-99797302D01*
X134496858Y-99630880D01*
X134496856Y-99630875D01*
X134404815Y-99481654D01*
X134280845Y-99357684D01*
X134131624Y-99265643D01*
X134131619Y-99265641D01*
X133965197Y-99210494D01*
X133965190Y-99210493D01*
X133862486Y-99200000D01*
X133650000Y-99200000D01*
X133650000Y-100350000D01*
X133150000Y-100350000D01*
X133150000Y-99200000D01*
X132937529Y-99200000D01*
X132937512Y-99200001D01*
X132834802Y-99210494D01*
X132668380Y-99265641D01*
X132668375Y-99265643D01*
X132519154Y-99357684D01*
X132395184Y-99481654D01*
X132303143Y-99630875D01*
X132303141Y-99630880D01*
X132247994Y-99797302D01*
X132247993Y-99797309D01*
X132237500Y-99900013D01*
X131437999Y-99900013D01*
X131437999Y-99899998D01*
X131437998Y-99899981D01*
X131427499Y-99797203D01*
X131427498Y-99797200D01*
X131372314Y-99630666D01*
X131280212Y-99481344D01*
X131156156Y-99357288D01*
X131006834Y-99265186D01*
X130840297Y-99210001D01*
X130840295Y-99210000D01*
X130737510Y-99199500D01*
X129812498Y-99199500D01*
X129812480Y-99199501D01*
X129709703Y-99210000D01*
X129709700Y-99210001D01*
X129543168Y-99265185D01*
X129543163Y-99265187D01*
X129393842Y-99357289D01*
X129269789Y-99481342D01*
X129177687Y-99630663D01*
X129177685Y-99630668D01*
X129177615Y-99630880D01*
X129122501Y-99797203D01*
X129122501Y-99797204D01*
X129122500Y-99797204D01*
X129112000Y-99899983D01*
X94000500Y-99899983D01*
X94000500Y-95881947D01*
X94900000Y-95881947D01*
X94900000Y-96500000D01*
X95700000Y-96500000D01*
X95700000Y-97000000D01*
X94900000Y-97000000D01*
X94900000Y-97618052D01*
X94936934Y-97851247D01*
X95009897Y-98075802D01*
X95117085Y-98286171D01*
X95255866Y-98477186D01*
X95422813Y-98644133D01*
X95613828Y-98782914D01*
X95824195Y-98890102D01*
X96048744Y-98963063D01*
X96048750Y-98963065D01*
X96150000Y-98979101D01*
X96150000Y-98104120D01*
X96195818Y-98123099D01*
X96331056Y-98150000D01*
X96468944Y-98150000D01*
X96604182Y-98123099D01*
X96650000Y-98104120D01*
X96650000Y-98979100D01*
X96751249Y-98963065D01*
X96751255Y-98963063D01*
X96975804Y-98890102D01*
X97186171Y-98782914D01*
X97377186Y-98644133D01*
X97544133Y-98477186D01*
X97682914Y-98286171D01*
X97790102Y-98075802D01*
X97863065Y-97851247D01*
X97900000Y-97618052D01*
X97900000Y-97000000D01*
X97100000Y-97000000D01*
X97100000Y-96667149D01*
X99899500Y-96667149D01*
X99899500Y-96832850D01*
X99905918Y-96936235D01*
X99905919Y-96936238D01*
X99956950Y-97179615D01*
X99956953Y-97179625D01*
X100044037Y-97402799D01*
X100047344Y-97411273D01*
X100141526Y-97569331D01*
X100174639Y-97624902D01*
X100335348Y-97814649D01*
X100335350Y-97814651D01*
X100525097Y-97975360D01*
X100525103Y-97975363D01*
X100525106Y-97975366D01*
X100738727Y-98102656D01*
X100738730Y-98102657D01*
X100970374Y-98193046D01*
X100970381Y-98193048D01*
X100970386Y-98193050D01*
X101213763Y-98244081D01*
X101317158Y-98250500D01*
X101317169Y-98250500D01*
X101482831Y-98250500D01*
X101482842Y-98250500D01*
X101586237Y-98244081D01*
X101829614Y-98193050D01*
X101829621Y-98193046D01*
X101829625Y-98193046D01*
X101996783Y-98127820D01*
X102061273Y-98102656D01*
X102274894Y-97975366D01*
X102274898Y-97975361D01*
X102274902Y-97975360D01*
X102464649Y-97814651D01*
X102464651Y-97814649D01*
X102625360Y-97624902D01*
X102625361Y-97624898D01*
X102625366Y-97624894D01*
X102752656Y-97411273D01*
X102843050Y-97179614D01*
X102875472Y-97024986D01*
X115400001Y-97024986D01*
X115410494Y-97127697D01*
X115465641Y-97294119D01*
X115465643Y-97294124D01*
X115557684Y-97443345D01*
X115681654Y-97567315D01*
X115830875Y-97659356D01*
X115830880Y-97659358D01*
X115997302Y-97714505D01*
X115997309Y-97714506D01*
X116100019Y-97724999D01*
X116549999Y-97724999D01*
X117050000Y-97724999D01*
X117499972Y-97724999D01*
X117499986Y-97724998D01*
X117602697Y-97714505D01*
X117769119Y-97659358D01*
X117769124Y-97659356D01*
X117918345Y-97567315D01*
X118042315Y-97443345D01*
X118130740Y-97299986D01*
X120512501Y-97299986D01*
X120522994Y-97402697D01*
X120578141Y-97569119D01*
X120578143Y-97569124D01*
X120670184Y-97718345D01*
X120794154Y-97842315D01*
X120943375Y-97934356D01*
X120943380Y-97934358D01*
X121109802Y-97989505D01*
X121109809Y-97989506D01*
X121212519Y-97999999D01*
X121424999Y-97999999D01*
X121925000Y-97999999D01*
X122137472Y-97999999D01*
X122137486Y-97999998D01*
X122240197Y-97989505D01*
X122406619Y-97934358D01*
X122406624Y-97934356D01*
X122555845Y-97842315D01*
X122679815Y-97718345D01*
X122771856Y-97569124D01*
X122771858Y-97569119D01*
X122827005Y-97402697D01*
X122827006Y-97402690D01*
X122837499Y-97299986D01*
X122837500Y-97299973D01*
X122837500Y-96850000D01*
X121925000Y-96850000D01*
X121925000Y-97999999D01*
X121424999Y-97999999D01*
X121425000Y-97999998D01*
X121425000Y-96850000D01*
X120512501Y-96850000D01*
X120512501Y-97299986D01*
X118130740Y-97299986D01*
X118134356Y-97294124D01*
X118134358Y-97294119D01*
X118189505Y-97127697D01*
X118189506Y-97127690D01*
X118199999Y-97024986D01*
X118200000Y-97024973D01*
X118200000Y-96812500D01*
X117050000Y-96812500D01*
X117050000Y-97724999D01*
X116549999Y-97724999D01*
X116550000Y-97724998D01*
X116550000Y-96812500D01*
X115400001Y-96812500D01*
X115400001Y-97024986D01*
X102875472Y-97024986D01*
X102880711Y-97000000D01*
X105400000Y-97000000D01*
X108200000Y-97000000D01*
X108200000Y-96200000D01*
X105400000Y-96200000D01*
X105400000Y-97000000D01*
X102880711Y-97000000D01*
X102894081Y-96936237D01*
X102900500Y-96832842D01*
X102900500Y-96667158D01*
X102894081Y-96563763D01*
X102843050Y-96320386D01*
X102843048Y-96320381D01*
X102843046Y-96320374D01*
X102793622Y-96193713D01*
X102757060Y-96100013D01*
X115400000Y-96100013D01*
X115400000Y-96312500D01*
X116550000Y-96312500D01*
X117050000Y-96312500D01*
X118199999Y-96312500D01*
X118199999Y-96100028D01*
X118199998Y-96100013D01*
X118189506Y-95997304D01*
X118169148Y-95935869D01*
X118169147Y-95935867D01*
X118157266Y-95900013D01*
X120512500Y-95900013D01*
X120512500Y-96350000D01*
X121425000Y-96350000D01*
X121425000Y-95200000D01*
X121212529Y-95200000D01*
X121212512Y-95200001D01*
X121109802Y-95210494D01*
X120943380Y-95265641D01*
X120943375Y-95265643D01*
X120794154Y-95357684D01*
X120670184Y-95481654D01*
X120578143Y-95630875D01*
X120578141Y-95630880D01*
X120522994Y-95797302D01*
X120522993Y-95797309D01*
X120512500Y-95900013D01*
X118157266Y-95900013D01*
X118134358Y-95830880D01*
X118134356Y-95830875D01*
X118042315Y-95681654D01*
X117918345Y-95557684D01*
X117769124Y-95465643D01*
X117769119Y-95465641D01*
X117602697Y-95410494D01*
X117602690Y-95410493D01*
X117499986Y-95400000D01*
X117050000Y-95400000D01*
X117050000Y-96312500D01*
X116550000Y-96312500D01*
X116550000Y-95400000D01*
X116100028Y-95400000D01*
X116100012Y-95400001D01*
X115997302Y-95410494D01*
X115830880Y-95465641D01*
X115830875Y-95465643D01*
X115681654Y-95557684D01*
X115557684Y-95681654D01*
X115465643Y-95830875D01*
X115465641Y-95830880D01*
X115410494Y-95997302D01*
X115410493Y-95997309D01*
X115400000Y-96100013D01*
X102757060Y-96100013D01*
X102752657Y-96088730D01*
X102752656Y-96088727D01*
X102625366Y-95875106D01*
X102625363Y-95875103D01*
X102625360Y-95875097D01*
X102464651Y-95685350D01*
X102464649Y-95685348D01*
X102274902Y-95524639D01*
X102252790Y-95511463D01*
X102061273Y-95397344D01*
X102061271Y-95397343D01*
X102061269Y-95397342D01*
X101829625Y-95306953D01*
X101829615Y-95306950D01*
X101586238Y-95255919D01*
X101586235Y-95255918D01*
X101482850Y-95249500D01*
X101482842Y-95249500D01*
X101317158Y-95249500D01*
X101317149Y-95249500D01*
X101213764Y-95255918D01*
X101213761Y-95255919D01*
X100970384Y-95306950D01*
X100970374Y-95306953D01*
X100738730Y-95397342D01*
X100525097Y-95524639D01*
X100335350Y-95685348D01*
X100335348Y-95685350D01*
X100174639Y-95875097D01*
X100047342Y-96088730D01*
X99956953Y-96320374D01*
X99956950Y-96320384D01*
X99905919Y-96563761D01*
X99905918Y-96563764D01*
X99899500Y-96667149D01*
X97100000Y-96667149D01*
X97100000Y-96500000D01*
X97900000Y-96500000D01*
X97900000Y-95881947D01*
X97863065Y-95648752D01*
X97790102Y-95424197D01*
X97682914Y-95213828D01*
X97544133Y-95022813D01*
X97377186Y-94855866D01*
X97186171Y-94717085D01*
X96979250Y-94611654D01*
X118825001Y-94611654D01*
X118835319Y-94712652D01*
X118889546Y-94876300D01*
X118889551Y-94876311D01*
X118980052Y-95023034D01*
X118980055Y-95023038D01*
X119101961Y-95144944D01*
X119101965Y-95144947D01*
X119248688Y-95235448D01*
X119248699Y-95235453D01*
X119412347Y-95289680D01*
X119513352Y-95299999D01*
X119550000Y-95299999D01*
X120050000Y-95299999D01*
X120086640Y-95299999D01*
X120086654Y-95299998D01*
X120187652Y-95289680D01*
X120351300Y-95235453D01*
X120351311Y-95235448D01*
X120498034Y-95144947D01*
X120498038Y-95144944D01*
X120619944Y-95023038D01*
X120619947Y-95023034D01*
X120710448Y-94876311D01*
X120710453Y-94876300D01*
X120744792Y-94772673D01*
X120764680Y-94712651D01*
X120774999Y-94611654D01*
X120775000Y-94611641D01*
X120775000Y-94512500D01*
X120050000Y-94512500D01*
X120050000Y-95299999D01*
X119550000Y-95299999D01*
X119550000Y-94512500D01*
X118825001Y-94512500D01*
X118825001Y-94611654D01*
X96979250Y-94611654D01*
X96975802Y-94609897D01*
X96751247Y-94536934D01*
X96650000Y-94520897D01*
X96650000Y-95395879D01*
X96604182Y-95376901D01*
X96468944Y-95350000D01*
X96331056Y-95350000D01*
X96195818Y-95376901D01*
X96150000Y-95395879D01*
X96150000Y-94520897D01*
X96048752Y-94536934D01*
X95824197Y-94609897D01*
X95613828Y-94717085D01*
X95422813Y-94855866D01*
X95255866Y-95022813D01*
X95117085Y-95213828D01*
X95009897Y-95424197D01*
X94936934Y-95648752D01*
X94900000Y-95881947D01*
X94000500Y-95881947D01*
X94000500Y-91681947D01*
X99150000Y-91681947D01*
X99150000Y-91918052D01*
X99186934Y-92151247D01*
X99259897Y-92375802D01*
X99367085Y-92586171D01*
X99505866Y-92777186D01*
X99672821Y-92944141D01*
X99805737Y-93040709D01*
X99805739Y-93040709D01*
X100409219Y-92437228D01*
X100495818Y-92473099D01*
X100631056Y-92500000D01*
X101053551Y-92500000D01*
X100292512Y-93261037D01*
X100292512Y-93261038D01*
X100298750Y-93263065D01*
X100531948Y-93300000D01*
X102268052Y-93300000D01*
X102501247Y-93263065D01*
X102501253Y-93263064D01*
X102507485Y-93261037D01*
X101746448Y-92500000D01*
X102168944Y-92500000D01*
X102304182Y-92473099D01*
X102390780Y-92437228D01*
X102994260Y-93040708D01*
X103127186Y-92944133D01*
X103294133Y-92777186D01*
X103432914Y-92586171D01*
X103540102Y-92375802D01*
X103613065Y-92151247D01*
X103650000Y-91918052D01*
X103650000Y-91899986D01*
X111712501Y-91899986D01*
X111722994Y-92002697D01*
X111778141Y-92169119D01*
X111778142Y-92169121D01*
X111870184Y-92318345D01*
X111994154Y-92442315D01*
X112143375Y-92534356D01*
X112143380Y-92534358D01*
X112309802Y-92589505D01*
X112309809Y-92589506D01*
X112412519Y-92599999D01*
X112624999Y-92599999D01*
X113125000Y-92599999D01*
X113337472Y-92599999D01*
X113337486Y-92599998D01*
X113440197Y-92589505D01*
X113606619Y-92534358D01*
X113606624Y-92534356D01*
X113755845Y-92442315D01*
X113879815Y-92318345D01*
X113971858Y-92169121D01*
X113971858Y-92169119D01*
X114027005Y-92002697D01*
X114027006Y-92002690D01*
X114037499Y-91899986D01*
X114037500Y-91899973D01*
X114037500Y-91450000D01*
X113125000Y-91450000D01*
X113125000Y-92599999D01*
X112624999Y-92599999D01*
X112625000Y-92599998D01*
X112625000Y-91450000D01*
X111712501Y-91450000D01*
X111712501Y-91899986D01*
X103650000Y-91899986D01*
X103650000Y-91681947D01*
X103613065Y-91448751D01*
X103613064Y-91448747D01*
X103609233Y-91436955D01*
X103540102Y-91224197D01*
X103432914Y-91013828D01*
X103294133Y-90822813D01*
X103127186Y-90655866D01*
X103127180Y-90655861D01*
X103046430Y-90597193D01*
X103046414Y-90597182D01*
X102994260Y-90559289D01*
X102390779Y-91162770D01*
X102304182Y-91126901D01*
X102168944Y-91100000D01*
X101746448Y-91100000D01*
X102346434Y-90500013D01*
X111712500Y-90500013D01*
X111712500Y-90950000D01*
X112625000Y-90950000D01*
X113125000Y-90950000D01*
X114037499Y-90950000D01*
X114037499Y-90500028D01*
X114037498Y-90500013D01*
X114027005Y-90397302D01*
X113971858Y-90230880D01*
X113971856Y-90230875D01*
X113879815Y-90081654D01*
X113755843Y-89957682D01*
X113752368Y-89955539D01*
X113750484Y-89953445D01*
X113750177Y-89953202D01*
X113750218Y-89953149D01*
X113705643Y-89903592D01*
X113694420Y-89834629D01*
X113722263Y-89770547D01*
X113752368Y-89744461D01*
X113755843Y-89742317D01*
X113879815Y-89618345D01*
X113971856Y-89469124D01*
X113971858Y-89469119D01*
X114027005Y-89302697D01*
X114027006Y-89302690D01*
X114037499Y-89199986D01*
X114037500Y-89199973D01*
X114037500Y-88750000D01*
X113125000Y-88750000D01*
X113125000Y-90950000D01*
X112625000Y-90950000D01*
X112625000Y-88750000D01*
X111712501Y-88750000D01*
X111712501Y-89199986D01*
X111722994Y-89302697D01*
X111778141Y-89469119D01*
X111778143Y-89469124D01*
X111870184Y-89618345D01*
X111994155Y-89742316D01*
X111994158Y-89742318D01*
X111997636Y-89744464D01*
X111999518Y-89746557D01*
X111999823Y-89746798D01*
X111999781Y-89746849D01*
X112044358Y-89796413D01*
X112055578Y-89865376D01*
X112027732Y-89929457D01*
X111997636Y-89955536D01*
X111994158Y-89957681D01*
X111994155Y-89957683D01*
X111870184Y-90081654D01*
X111778143Y-90230875D01*
X111778141Y-90230880D01*
X111722994Y-90397302D01*
X111722993Y-90397309D01*
X111712500Y-90500013D01*
X102346434Y-90500013D01*
X102507486Y-90338961D01*
X102499538Y-90305854D01*
X102477155Y-90252884D01*
X102489072Y-90184038D01*
X102536317Y-90132563D01*
X102580951Y-90116279D01*
X102601255Y-90113063D01*
X102607485Y-90111037D01*
X101846448Y-89350000D01*
X102268944Y-89350000D01*
X102404182Y-89323099D01*
X102490780Y-89287228D01*
X103094260Y-89890708D01*
X103227186Y-89794133D01*
X103394133Y-89627186D01*
X103532914Y-89436171D01*
X103640102Y-89225802D01*
X103713065Y-89001247D01*
X103726993Y-88913315D01*
X106699500Y-88913315D01*
X106699500Y-89486669D01*
X106699501Y-89486687D01*
X106709825Y-89587752D01*
X106740681Y-89680866D01*
X106764092Y-89751516D01*
X106854660Y-89898350D01*
X106976650Y-90020340D01*
X107123484Y-90110908D01*
X107287247Y-90165174D01*
X107388323Y-90175500D01*
X108086676Y-90175499D01*
X108086684Y-90175498D01*
X108086687Y-90175498D01*
X108153196Y-90168704D01*
X108187753Y-90165174D01*
X108351516Y-90110908D01*
X108498350Y-90020340D01*
X108512671Y-90006018D01*
X108573989Y-89972533D01*
X108643681Y-89977514D01*
X108688034Y-90006017D01*
X108701961Y-90019944D01*
X108701965Y-90019947D01*
X108848688Y-90110448D01*
X108848699Y-90110453D01*
X109012347Y-90164680D01*
X109113351Y-90174999D01*
X109712500Y-90174999D01*
X109811640Y-90174999D01*
X109811654Y-90174998D01*
X109912652Y-90164680D01*
X110076300Y-90110453D01*
X110076311Y-90110448D01*
X110223034Y-90019947D01*
X110223038Y-90019944D01*
X110344944Y-89898038D01*
X110344947Y-89898034D01*
X110435448Y-89751311D01*
X110435453Y-89751300D01*
X110489680Y-89587652D01*
X110499999Y-89486654D01*
X110500000Y-89486641D01*
X110500000Y-89450000D01*
X109712500Y-89450000D01*
X109712500Y-90174999D01*
X109113351Y-90174999D01*
X109212500Y-90174998D01*
X109212500Y-88950000D01*
X109712500Y-88950000D01*
X110499999Y-88950000D01*
X110499999Y-88913360D01*
X110499998Y-88913345D01*
X110489680Y-88812347D01*
X110435453Y-88648699D01*
X110435448Y-88648688D01*
X110344947Y-88501965D01*
X110344944Y-88501961D01*
X110223038Y-88380055D01*
X110223034Y-88380052D01*
X110076311Y-88289551D01*
X110076300Y-88289546D01*
X109912652Y-88235319D01*
X109811654Y-88225000D01*
X109712500Y-88225000D01*
X109712500Y-88950000D01*
X109212500Y-88950000D01*
X109212500Y-88224999D01*
X109202347Y-88214846D01*
X109181447Y-88176569D01*
X109168863Y-88153524D01*
X109173847Y-88083832D01*
X109215719Y-88027899D01*
X109215719Y-88027898D01*
X109215720Y-88027898D01*
X109215721Y-88027897D01*
X109233734Y-88016681D01*
X109281610Y-87992287D01*
X109408351Y-87900205D01*
X109447213Y-87871971D01*
X109447215Y-87871968D01*
X109447219Y-87871966D01*
X109519172Y-87800013D01*
X111712500Y-87800013D01*
X111712500Y-88250000D01*
X112625000Y-88250000D01*
X113125000Y-88250000D01*
X114037499Y-88250000D01*
X114037499Y-87800028D01*
X114037498Y-87800013D01*
X114027005Y-87697302D01*
X113971858Y-87530880D01*
X113971856Y-87530875D01*
X113879815Y-87381654D01*
X113835842Y-87337681D01*
X113802357Y-87276358D01*
X113807341Y-87206666D01*
X113835842Y-87162319D01*
X113879815Y-87118345D01*
X113971856Y-86969124D01*
X113971858Y-86969119D01*
X114027005Y-86802697D01*
X114027006Y-86802690D01*
X114037499Y-86699986D01*
X114037500Y-86699973D01*
X114037500Y-86250000D01*
X113125000Y-86250000D01*
X113125000Y-88250000D01*
X112625000Y-88250000D01*
X112625000Y-86250000D01*
X111712501Y-86250000D01*
X111712501Y-86699986D01*
X111722994Y-86802697D01*
X111778141Y-86969119D01*
X111778143Y-86969124D01*
X111870184Y-87118345D01*
X111914158Y-87162319D01*
X111947643Y-87223642D01*
X111942659Y-87293334D01*
X111914158Y-87337681D01*
X111870184Y-87381654D01*
X111778143Y-87530875D01*
X111778141Y-87530880D01*
X111722994Y-87697302D01*
X111722993Y-87697309D01*
X111712500Y-87800013D01*
X109519172Y-87800013D01*
X109591966Y-87727219D01*
X109592153Y-87726961D01*
X109594321Y-87723979D01*
X109682363Y-87602797D01*
X109712287Y-87561610D01*
X109805220Y-87379219D01*
X109868477Y-87184534D01*
X109900500Y-86982352D01*
X109900500Y-86777648D01*
X109868477Y-86575466D01*
X109857162Y-86540643D01*
X109805218Y-86380776D01*
X109765342Y-86302517D01*
X109712287Y-86198390D01*
X109689967Y-86167669D01*
X109591971Y-86032786D01*
X109447213Y-85888028D01*
X109281613Y-85767715D01*
X109281612Y-85767714D01*
X109281610Y-85767713D01*
X109216143Y-85734356D01*
X109099223Y-85674781D01*
X108904534Y-85611522D01*
X108729995Y-85583878D01*
X108702352Y-85579500D01*
X108497648Y-85579500D01*
X108473329Y-85583351D01*
X108295465Y-85611522D01*
X108100776Y-85674781D01*
X107918386Y-85767715D01*
X107752786Y-85888028D01*
X107608028Y-86032786D01*
X107487715Y-86198386D01*
X107394781Y-86380776D01*
X107331522Y-86575465D01*
X107299965Y-86774715D01*
X107299500Y-86777648D01*
X107299500Y-86982352D01*
X107306980Y-87029581D01*
X107308318Y-87038026D01*
X107299363Y-87107320D01*
X107273526Y-87145105D01*
X107154552Y-87264078D01*
X107154549Y-87264081D01*
X107127024Y-87305275D01*
X107127025Y-87305276D01*
X107072414Y-87387008D01*
X107015843Y-87523582D01*
X107015840Y-87523592D01*
X106987000Y-87668579D01*
X106987000Y-88317948D01*
X106967315Y-88384987D01*
X106950681Y-88405629D01*
X106854661Y-88501648D01*
X106764093Y-88648481D01*
X106764091Y-88648486D01*
X106755087Y-88675658D01*
X106709826Y-88812247D01*
X106709826Y-88812248D01*
X106709825Y-88812248D01*
X106699500Y-88913315D01*
X103726993Y-88913315D01*
X103730564Y-88890768D01*
X103750000Y-88768052D01*
X103750000Y-88531947D01*
X103713065Y-88298752D01*
X103640102Y-88074197D01*
X103532914Y-87863828D01*
X103394133Y-87672813D01*
X103227186Y-87505866D01*
X103227180Y-87505861D01*
X103094261Y-87409289D01*
X103094260Y-87409289D01*
X102490779Y-88012770D01*
X102404182Y-87976901D01*
X102268944Y-87950000D01*
X101846448Y-87950000D01*
X102607486Y-87188961D01*
X102607486Y-87188960D01*
X102601256Y-87186936D01*
X102601246Y-87186934D01*
X102368052Y-87150000D01*
X100631948Y-87150000D01*
X100398756Y-87186933D01*
X100398744Y-87186936D01*
X100392512Y-87188961D01*
X101153552Y-87950000D01*
X100731056Y-87950000D01*
X100595818Y-87976901D01*
X100509219Y-88012770D01*
X99905738Y-87409289D01*
X99772814Y-87505866D01*
X99772813Y-87505866D01*
X99605866Y-87672813D01*
X99467085Y-87863828D01*
X99359897Y-88074197D01*
X99286934Y-88298752D01*
X99250000Y-88531947D01*
X99250000Y-88768052D01*
X99286934Y-89001247D01*
X99359897Y-89225802D01*
X99467085Y-89436171D01*
X99605866Y-89627186D01*
X99772821Y-89794141D01*
X99905737Y-89890709D01*
X99905739Y-89890708D01*
X100509218Y-89287228D01*
X100595818Y-89323099D01*
X100731056Y-89350000D01*
X101153551Y-89350000D01*
X100392512Y-90111037D01*
X100400435Y-90144046D01*
X100422859Y-90197121D01*
X100410938Y-90265967D01*
X100393422Y-90292397D01*
X100324998Y-90371447D01*
X101053552Y-91100000D01*
X100631056Y-91100000D01*
X100495818Y-91126901D01*
X100409219Y-91162770D01*
X99805738Y-90559289D01*
X99672814Y-90655866D01*
X99672813Y-90655866D01*
X99505866Y-90822813D01*
X99367085Y-91013828D01*
X99259897Y-91224197D01*
X99186934Y-91448752D01*
X99150000Y-91681947D01*
X94000500Y-91681947D01*
X94000500Y-82931947D01*
X95000000Y-82931947D01*
X95000000Y-83550000D01*
X95800000Y-83550000D01*
X95800000Y-84050000D01*
X95000000Y-84050000D01*
X95000000Y-84668052D01*
X95036934Y-84901247D01*
X95109897Y-85125802D01*
X95217085Y-85336171D01*
X95355866Y-85527186D01*
X95522813Y-85694133D01*
X95713828Y-85832914D01*
X95924195Y-85940102D01*
X96148744Y-86013063D01*
X96148750Y-86013065D01*
X96250000Y-86029101D01*
X96250000Y-85154120D01*
X96295818Y-85173099D01*
X96431056Y-85200000D01*
X96568944Y-85200000D01*
X96704182Y-85173099D01*
X96750000Y-85154120D01*
X96750000Y-86029100D01*
X96851249Y-86013065D01*
X96851255Y-86013063D01*
X97075804Y-85940102D01*
X97286171Y-85832914D01*
X97477186Y-85694133D01*
X97644133Y-85527186D01*
X97782914Y-85336171D01*
X97890102Y-85125802D01*
X97963065Y-84901247D01*
X98000000Y-84668052D01*
X98000000Y-84050000D01*
X97200000Y-84050000D01*
X97200000Y-83717149D01*
X99999500Y-83717149D01*
X99999500Y-83882850D01*
X100005918Y-83986235D01*
X100005919Y-83986238D01*
X100056950Y-84229615D01*
X100056953Y-84229625D01*
X100147342Y-84461269D01*
X100147344Y-84461273D01*
X100269122Y-84665643D01*
X100274639Y-84674902D01*
X100435348Y-84864649D01*
X100435350Y-84864651D01*
X100625097Y-85025360D01*
X100625103Y-85025363D01*
X100625106Y-85025366D01*
X100838727Y-85152656D01*
X100838730Y-85152657D01*
X101070374Y-85243046D01*
X101070381Y-85243048D01*
X101070386Y-85243050D01*
X101313763Y-85294081D01*
X101417158Y-85300500D01*
X101417169Y-85300500D01*
X101582831Y-85300500D01*
X101582842Y-85300500D01*
X101590686Y-85300013D01*
X111712500Y-85300013D01*
X111712500Y-85750000D01*
X112625000Y-85750000D01*
X113125000Y-85750000D01*
X114037499Y-85750000D01*
X114037499Y-85300024D01*
X114037498Y-85300016D01*
X114037495Y-85299983D01*
X114837000Y-85299983D01*
X114837000Y-86700001D01*
X114837001Y-86700018D01*
X114847500Y-86802796D01*
X114847501Y-86802799D01*
X114902685Y-86969331D01*
X114902687Y-86969336D01*
X114920761Y-86998638D01*
X114994596Y-87118345D01*
X114994789Y-87118657D01*
X115038451Y-87162320D01*
X115071935Y-87223643D01*
X115066950Y-87293335D01*
X115038451Y-87337680D01*
X114994789Y-87381342D01*
X114902687Y-87530663D01*
X114902685Y-87530668D01*
X114902615Y-87530880D01*
X114847501Y-87697203D01*
X114847501Y-87697204D01*
X114847500Y-87697204D01*
X114837000Y-87799983D01*
X114837000Y-89200001D01*
X114837001Y-89200018D01*
X114847500Y-89302796D01*
X114847501Y-89302799D01*
X114902685Y-89469331D01*
X114902687Y-89469336D01*
X114923258Y-89502687D01*
X114994596Y-89618345D01*
X114994789Y-89618657D01*
X115118846Y-89742714D01*
X115121682Y-89744463D01*
X115123217Y-89746170D01*
X115124511Y-89747193D01*
X115124336Y-89747414D01*
X115168405Y-89796411D01*
X115179626Y-89865374D01*
X115151782Y-89929456D01*
X115121682Y-89955537D01*
X115118846Y-89957285D01*
X114994789Y-90081342D01*
X114902687Y-90230663D01*
X114902685Y-90230668D01*
X114894499Y-90255372D01*
X114847501Y-90397203D01*
X114847501Y-90397204D01*
X114847500Y-90397204D01*
X114837000Y-90499983D01*
X114837000Y-91900001D01*
X114837001Y-91900018D01*
X114847500Y-92002796D01*
X114847501Y-92002799D01*
X114902685Y-92169331D01*
X114902687Y-92169336D01*
X114914398Y-92188323D01*
X114994788Y-92318656D01*
X115118844Y-92442712D01*
X115268166Y-92534814D01*
X115379002Y-92571541D01*
X115436445Y-92611312D01*
X115463268Y-92675828D01*
X115457702Y-92728249D01*
X115410001Y-92872200D01*
X115410000Y-92872204D01*
X115399500Y-92974983D01*
X115399500Y-93900001D01*
X115399501Y-93900019D01*
X115410000Y-94002796D01*
X115410001Y-94002799D01*
X115465185Y-94169331D01*
X115465187Y-94169336D01*
X115484100Y-94199999D01*
X115557288Y-94318656D01*
X115681344Y-94442712D01*
X115830666Y-94534814D01*
X115997203Y-94589999D01*
X116099991Y-94600500D01*
X117500008Y-94600499D01*
X117602797Y-94589999D01*
X117769334Y-94534814D01*
X117918656Y-94442712D01*
X118042712Y-94318656D01*
X118134814Y-94169334D01*
X118189999Y-94002797D01*
X118200500Y-93900009D01*
X118200499Y-92974992D01*
X118189999Y-92872203D01*
X118134814Y-92705666D01*
X118042712Y-92556344D01*
X117918656Y-92432288D01*
X117808308Y-92364225D01*
X117769336Y-92340187D01*
X117769331Y-92340185D01*
X117767379Y-92339538D01*
X117602797Y-92285001D01*
X117602795Y-92285000D01*
X117500016Y-92274500D01*
X117500009Y-92274500D01*
X117234185Y-92274500D01*
X117167146Y-92254815D01*
X117121391Y-92202011D01*
X117111447Y-92132853D01*
X117116477Y-92111502D01*
X117152499Y-92002797D01*
X117163000Y-91900009D01*
X117162999Y-90499992D01*
X117162903Y-90499056D01*
X117152499Y-90397203D01*
X117152498Y-90397200D01*
X117120196Y-90299719D01*
X117097314Y-90230666D01*
X117005212Y-90081344D01*
X116881156Y-89957288D01*
X116878319Y-89955538D01*
X116876783Y-89953830D01*
X116875489Y-89952807D01*
X116875663Y-89952585D01*
X116831596Y-89903594D01*
X116820372Y-89834632D01*
X116848213Y-89770549D01*
X116878320Y-89744461D01*
X116881156Y-89742712D01*
X117005212Y-89618656D01*
X117097314Y-89469334D01*
X117152499Y-89302797D01*
X117163000Y-89200009D01*
X117162999Y-88099986D01*
X119000001Y-88099986D01*
X119010494Y-88202697D01*
X119065641Y-88369119D01*
X119065643Y-88369124D01*
X119157684Y-88518345D01*
X119281654Y-88642315D01*
X119430875Y-88734356D01*
X119430880Y-88734358D01*
X119597302Y-88789505D01*
X119597309Y-88789506D01*
X119700019Y-88799999D01*
X120149999Y-88799999D01*
X120150000Y-88799998D01*
X120150000Y-87887500D01*
X119000001Y-87887500D01*
X119000001Y-88099986D01*
X117162999Y-88099986D01*
X117162999Y-87799992D01*
X117159867Y-87769336D01*
X117152499Y-87697203D01*
X117152498Y-87697200D01*
X117121215Y-87602795D01*
X117097314Y-87530666D01*
X117005212Y-87381344D01*
X116961548Y-87337680D01*
X116959107Y-87333210D01*
X116954843Y-87330419D01*
X116942528Y-87302847D01*
X116928064Y-87276358D01*
X116928427Y-87271276D01*
X116926349Y-87266623D01*
X116930894Y-87236777D01*
X116933048Y-87206666D01*
X116936310Y-87201220D01*
X116936869Y-87197550D01*
X116948179Y-87181404D01*
X116952007Y-87175013D01*
X119000000Y-87175013D01*
X119000000Y-87387500D01*
X120150000Y-87387500D01*
X120150000Y-86475000D01*
X119700028Y-86475000D01*
X119700012Y-86475001D01*
X119597302Y-86485494D01*
X119430880Y-86540641D01*
X119430875Y-86540643D01*
X119281654Y-86632684D01*
X119157684Y-86756654D01*
X119065643Y-86905875D01*
X119065641Y-86905880D01*
X119010494Y-87072302D01*
X119010493Y-87072309D01*
X119000000Y-87175013D01*
X116952007Y-87175013D01*
X116956197Y-87168019D01*
X116958778Y-87165089D01*
X117005212Y-87118656D01*
X117097314Y-86969334D01*
X117152499Y-86802797D01*
X117163000Y-86700009D01*
X117162999Y-85299992D01*
X117152499Y-85197203D01*
X117097314Y-85030666D01*
X117005212Y-84881344D01*
X116881156Y-84757288D01*
X116788388Y-84700069D01*
X116731836Y-84665187D01*
X116731831Y-84665185D01*
X116730362Y-84664698D01*
X116565297Y-84610001D01*
X116565295Y-84610000D01*
X116462510Y-84599500D01*
X115537498Y-84599500D01*
X115537480Y-84599501D01*
X115434703Y-84610000D01*
X115434700Y-84610001D01*
X115268168Y-84665185D01*
X115268163Y-84665187D01*
X115118842Y-84757289D01*
X114994789Y-84881342D01*
X114902687Y-85030663D01*
X114902685Y-85030668D01*
X114902615Y-85030880D01*
X114847501Y-85197203D01*
X114847501Y-85197204D01*
X114847500Y-85197204D01*
X114837000Y-85299983D01*
X114037495Y-85299983D01*
X114027005Y-85197302D01*
X113971858Y-85030880D01*
X113971856Y-85030875D01*
X113879815Y-84881654D01*
X113755845Y-84757684D01*
X113606624Y-84665643D01*
X113606619Y-84665641D01*
X113440197Y-84610494D01*
X113440190Y-84610493D01*
X113337486Y-84600000D01*
X113125000Y-84600000D01*
X113125000Y-85750000D01*
X112625000Y-85750000D01*
X112625000Y-84600000D01*
X112412529Y-84600000D01*
X112412512Y-84600001D01*
X112309802Y-84610494D01*
X112143380Y-84665641D01*
X112143375Y-84665643D01*
X111994154Y-84757684D01*
X111870184Y-84881654D01*
X111778143Y-85030875D01*
X111778141Y-85030880D01*
X111722994Y-85197302D01*
X111722993Y-85197309D01*
X111712500Y-85300013D01*
X101590686Y-85300013D01*
X101686237Y-85294081D01*
X101929614Y-85243050D01*
X101929621Y-85243046D01*
X101929625Y-85243046D01*
X102087746Y-85181347D01*
X102124338Y-85167067D01*
X102161273Y-85152656D01*
X102374894Y-85025366D01*
X102374898Y-85025361D01*
X102374902Y-85025360D01*
X102564649Y-84864651D01*
X102564651Y-84864649D01*
X102725360Y-84674902D01*
X102725361Y-84674898D01*
X102725366Y-84674894D01*
X102852656Y-84461273D01*
X102943050Y-84229614D01*
X102949259Y-84200000D01*
X105400000Y-84200000D01*
X108200000Y-84200000D01*
X108200000Y-83400000D01*
X105400000Y-83400000D01*
X105400000Y-84200000D01*
X102949259Y-84200000D01*
X102994081Y-83986237D01*
X103000500Y-83882842D01*
X103000500Y-83717158D01*
X102994081Y-83613763D01*
X102943050Y-83370386D01*
X102910378Y-83286654D01*
X111700001Y-83286654D01*
X111710319Y-83387652D01*
X111764546Y-83551300D01*
X111764551Y-83551311D01*
X111855052Y-83698034D01*
X111855055Y-83698038D01*
X111976961Y-83819944D01*
X111976965Y-83819947D01*
X112123688Y-83910448D01*
X112123699Y-83910453D01*
X112287347Y-83964680D01*
X112388351Y-83974999D01*
X112487500Y-83974998D01*
X112487500Y-83250000D01*
X111700001Y-83250000D01*
X111700001Y-83286654D01*
X102910378Y-83286654D01*
X102852656Y-83138727D01*
X102725366Y-82925106D01*
X102725360Y-82925099D01*
X102725359Y-82925097D01*
X102611223Y-82790337D01*
X102564651Y-82735350D01*
X102564649Y-82735348D01*
X102538670Y-82713345D01*
X111700000Y-82713345D01*
X111700000Y-82750000D01*
X112487500Y-82750000D01*
X112487500Y-82024999D01*
X112388360Y-82025000D01*
X112388344Y-82025001D01*
X112287347Y-82035319D01*
X112123699Y-82089546D01*
X112123688Y-82089551D01*
X111976965Y-82180052D01*
X111976961Y-82180055D01*
X111855055Y-82301961D01*
X111855052Y-82301965D01*
X111764551Y-82448688D01*
X111764546Y-82448699D01*
X111710319Y-82612347D01*
X111700000Y-82713345D01*
X102538670Y-82713345D01*
X102374902Y-82574639D01*
X102344315Y-82556413D01*
X102161273Y-82447344D01*
X102161271Y-82447343D01*
X102161269Y-82447342D01*
X101929625Y-82356953D01*
X101929615Y-82356950D01*
X101686238Y-82305919D01*
X101686235Y-82305918D01*
X101582850Y-82299500D01*
X101582842Y-82299500D01*
X101417158Y-82299500D01*
X101417149Y-82299500D01*
X101313764Y-82305918D01*
X101313761Y-82305919D01*
X101070384Y-82356950D01*
X101070374Y-82356953D01*
X100838730Y-82447342D01*
X100625097Y-82574639D01*
X100435350Y-82735348D01*
X100435348Y-82735350D01*
X100274639Y-82925097D01*
X100147342Y-83138730D01*
X100056953Y-83370374D01*
X100056950Y-83370384D01*
X100005919Y-83613761D01*
X100005918Y-83613764D01*
X99999500Y-83717149D01*
X97200000Y-83717149D01*
X97200000Y-83550000D01*
X98000000Y-83550000D01*
X98000000Y-82931947D01*
X97963065Y-82698752D01*
X97890102Y-82474197D01*
X97782914Y-82263828D01*
X97644133Y-82072813D01*
X97477186Y-81905866D01*
X97286171Y-81767085D01*
X97075802Y-81659897D01*
X96851247Y-81586934D01*
X96750000Y-81570897D01*
X96750000Y-82445879D01*
X96704182Y-82426901D01*
X96568944Y-82400000D01*
X96431056Y-82400000D01*
X96295818Y-82426901D01*
X96250000Y-82445879D01*
X96250000Y-81570897D01*
X96148752Y-81586934D01*
X95924197Y-81659897D01*
X95713828Y-81767085D01*
X95522813Y-81905866D01*
X95355866Y-82072813D01*
X95217085Y-82263828D01*
X95109897Y-82474197D01*
X95036934Y-82698752D01*
X95000000Y-82931947D01*
X94000500Y-82931947D01*
X94000500Y-80977648D01*
X112499500Y-80977648D01*
X112499500Y-81182351D01*
X112531522Y-81384534D01*
X112594781Y-81579223D01*
X112687715Y-81761613D01*
X112808028Y-81927213D01*
X112951181Y-82070366D01*
X112984666Y-82131689D01*
X112987500Y-82158047D01*
X112987500Y-83974999D01*
X113086640Y-83974999D01*
X113086654Y-83974998D01*
X113187652Y-83964680D01*
X113351300Y-83910453D01*
X113351311Y-83910448D01*
X113498035Y-83819947D01*
X113511960Y-83806021D01*
X113573282Y-83772533D01*
X113642973Y-83777514D01*
X113687327Y-83806017D01*
X113701650Y-83820340D01*
X113848484Y-83910908D01*
X114012247Y-83965174D01*
X114113323Y-83975500D01*
X114811676Y-83975499D01*
X114811684Y-83975498D01*
X114811687Y-83975498D01*
X114867030Y-83969844D01*
X114912753Y-83965174D01*
X115076516Y-83910908D01*
X115223350Y-83820340D01*
X115345340Y-83698350D01*
X115435908Y-83551516D01*
X115490174Y-83387753D01*
X115500500Y-83286677D01*
X115500500Y-83099986D01*
X117112501Y-83099986D01*
X117122994Y-83202697D01*
X117178141Y-83369119D01*
X117178143Y-83369124D01*
X117270184Y-83518345D01*
X117394154Y-83642315D01*
X117543375Y-83734356D01*
X117543380Y-83734358D01*
X117709802Y-83789505D01*
X117709809Y-83789506D01*
X117812519Y-83799999D01*
X118024999Y-83799999D01*
X118525000Y-83799999D01*
X118737472Y-83799999D01*
X118737486Y-83799998D01*
X118840197Y-83789505D01*
X119006619Y-83734358D01*
X119006624Y-83734356D01*
X119155845Y-83642315D01*
X119279815Y-83518345D01*
X119371856Y-83369124D01*
X119371858Y-83369119D01*
X119427005Y-83202697D01*
X119427006Y-83202690D01*
X119437499Y-83099986D01*
X119437500Y-83099973D01*
X119437500Y-82650000D01*
X118525000Y-82650000D01*
X118525000Y-83799999D01*
X118024999Y-83799999D01*
X118025000Y-83799998D01*
X118025000Y-82650000D01*
X117112501Y-82650000D01*
X117112501Y-83099986D01*
X115500500Y-83099986D01*
X115500499Y-82713324D01*
X115499010Y-82698752D01*
X115498422Y-82692995D01*
X115490174Y-82612247D01*
X115435908Y-82448484D01*
X115345340Y-82301650D01*
X115223350Y-82179660D01*
X115132129Y-82123395D01*
X115076518Y-82089093D01*
X115076517Y-82089092D01*
X115076516Y-82089092D01*
X114913411Y-82035044D01*
X114855967Y-81995271D01*
X114829144Y-81930755D01*
X114841459Y-81861979D01*
X114852091Y-81844462D01*
X114912287Y-81761610D01*
X114943673Y-81700013D01*
X117112500Y-81700013D01*
X117112500Y-82150000D01*
X118025000Y-82150000D01*
X118525000Y-82150000D01*
X119437499Y-82150000D01*
X119437499Y-81700028D01*
X119437498Y-81700013D01*
X119427005Y-81597302D01*
X119371858Y-81430880D01*
X119371856Y-81430875D01*
X119279815Y-81281654D01*
X119155845Y-81157684D01*
X119006624Y-81065643D01*
X119006619Y-81065641D01*
X118840197Y-81010494D01*
X118840190Y-81010493D01*
X118737486Y-81000000D01*
X118525000Y-81000000D01*
X118525000Y-82150000D01*
X118025000Y-82150000D01*
X118025000Y-81000000D01*
X117812529Y-81000000D01*
X117812512Y-81000001D01*
X117709802Y-81010494D01*
X117543380Y-81065641D01*
X117543375Y-81065643D01*
X117394154Y-81157684D01*
X117270184Y-81281654D01*
X117178143Y-81430875D01*
X117178141Y-81430880D01*
X117122994Y-81597302D01*
X117122993Y-81597309D01*
X117112500Y-81700013D01*
X114943673Y-81700013D01*
X114963665Y-81660776D01*
X114973961Y-81640569D01*
X114983689Y-81621475D01*
X115005220Y-81579219D01*
X115068477Y-81384534D01*
X115100500Y-81182352D01*
X115100500Y-80977648D01*
X115068477Y-80775466D01*
X115005220Y-80580781D01*
X115005218Y-80580778D01*
X115005218Y-80580776D01*
X114967079Y-80505925D01*
X114912287Y-80398390D01*
X114877130Y-80350000D01*
X114791971Y-80232786D01*
X114647213Y-80088028D01*
X114481613Y-79967715D01*
X114481612Y-79967714D01*
X114481610Y-79967713D01*
X114424653Y-79938691D01*
X114299223Y-79874781D01*
X114104534Y-79811522D01*
X113929995Y-79783878D01*
X113902352Y-79779500D01*
X113697648Y-79779500D01*
X113673329Y-79783351D01*
X113495465Y-79811522D01*
X113300776Y-79874781D01*
X113118386Y-79967715D01*
X112952786Y-80088028D01*
X112808028Y-80232786D01*
X112687715Y-80398386D01*
X112594781Y-80580776D01*
X112531522Y-80775465D01*
X112499500Y-80977648D01*
X94000500Y-80977648D01*
X94000500Y-78731947D01*
X99250000Y-78731947D01*
X99250000Y-78968052D01*
X99286934Y-79201247D01*
X99359897Y-79425802D01*
X99467085Y-79636171D01*
X99605866Y-79827186D01*
X99772821Y-79994141D01*
X99905737Y-80090709D01*
X99905739Y-80090708D01*
X100509218Y-79487228D01*
X100595818Y-79523099D01*
X100731056Y-79550000D01*
X101153551Y-79550000D01*
X100392512Y-80311037D01*
X100392512Y-80311038D01*
X100398750Y-80313065D01*
X100631948Y-80350000D01*
X102368052Y-80350000D01*
X102601247Y-80313065D01*
X102601253Y-80313064D01*
X102607485Y-80311037D01*
X101846448Y-79550000D01*
X102268944Y-79550000D01*
X102404182Y-79523099D01*
X102490780Y-79487228D01*
X103094260Y-80090708D01*
X103227186Y-79994133D01*
X103394133Y-79827186D01*
X103532914Y-79636171D01*
X103640102Y-79425802D01*
X103713065Y-79201247D01*
X103750000Y-78968052D01*
X103750000Y-78731947D01*
X103713065Y-78498752D01*
X103640102Y-78274197D01*
X103532914Y-78063828D01*
X103394133Y-77872813D01*
X103227186Y-77705866D01*
X103227180Y-77705861D01*
X103094261Y-77609289D01*
X103094260Y-77609289D01*
X102490779Y-78212770D01*
X102404182Y-78176901D01*
X102268944Y-78150000D01*
X101846448Y-78150000D01*
X102607486Y-77388961D01*
X102607486Y-77388960D01*
X102601256Y-77386936D01*
X102601246Y-77386934D01*
X102368052Y-77350000D01*
X100631948Y-77350000D01*
X100398756Y-77386933D01*
X100398744Y-77386936D01*
X100392512Y-77388961D01*
X101153552Y-78150000D01*
X100731056Y-78150000D01*
X100595818Y-78176901D01*
X100509219Y-78212770D01*
X99905738Y-77609289D01*
X99772814Y-77705866D01*
X99772813Y-77705866D01*
X99605866Y-77872813D01*
X99467085Y-78063828D01*
X99359897Y-78274197D01*
X99286934Y-78498752D01*
X99250000Y-78731947D01*
X94000500Y-78731947D01*
X94000500Y-74113315D01*
X106699500Y-74113315D01*
X106699500Y-74686669D01*
X106699501Y-74686687D01*
X106709825Y-74787752D01*
X106733509Y-74859223D01*
X106764092Y-74951516D01*
X106819662Y-75041610D01*
X106854661Y-75098351D01*
X106950681Y-75194371D01*
X106984166Y-75255694D01*
X106987000Y-75282052D01*
X106987000Y-75931418D01*
X106987000Y-75931420D01*
X106986999Y-75931420D01*
X107015840Y-76076407D01*
X107015843Y-76076417D01*
X107072412Y-76212988D01*
X107072414Y-76212992D01*
X107072416Y-76212995D01*
X107091519Y-76241584D01*
X107154548Y-76335916D01*
X107234098Y-76415466D01*
X107273526Y-76454893D01*
X107307011Y-76516216D01*
X107308318Y-76561972D01*
X107299500Y-76617647D01*
X107299500Y-76822351D01*
X107331522Y-77024534D01*
X107394781Y-77219223D01*
X107439100Y-77306202D01*
X107483048Y-77392455D01*
X107487715Y-77401613D01*
X107608028Y-77567213D01*
X107752786Y-77711971D01*
X107907749Y-77824556D01*
X107918390Y-77832287D01*
X107997927Y-77872813D01*
X108100776Y-77925218D01*
X108100778Y-77925218D01*
X108100781Y-77925220D01*
X108205137Y-77959127D01*
X108295465Y-77988477D01*
X108368218Y-78000000D01*
X108497648Y-78020500D01*
X108497649Y-78020500D01*
X108702351Y-78020500D01*
X108702352Y-78020500D01*
X108831782Y-78000000D01*
X116400000Y-78000000D01*
X117301945Y-78000000D01*
X117368984Y-78019685D01*
X117414739Y-78072489D01*
X117423561Y-78099804D01*
X117429560Y-78129964D01*
X117430263Y-78133497D01*
X117430263Y-78133498D01*
X117490602Y-78279172D01*
X117490609Y-78279185D01*
X117578210Y-78410288D01*
X117578213Y-78410292D01*
X117689707Y-78521786D01*
X117689711Y-78521789D01*
X117820814Y-78609390D01*
X117820827Y-78609397D01*
X117966498Y-78669735D01*
X117966503Y-78669737D01*
X118121153Y-78700499D01*
X118121156Y-78700500D01*
X118121158Y-78700500D01*
X118278844Y-78700500D01*
X118278845Y-78700499D01*
X118433497Y-78669737D01*
X118579179Y-78609394D01*
X118710289Y-78521789D01*
X118821789Y-78410289D01*
X118909394Y-78279179D01*
X118946684Y-78189150D01*
X118990523Y-78134751D01*
X119056817Y-78112685D01*
X119124516Y-78129964D01*
X119148925Y-78148925D01*
X121787819Y-80787819D01*
X121821304Y-80849142D01*
X121816320Y-80918834D01*
X121774448Y-80974767D01*
X121708984Y-80999184D01*
X121700138Y-80999500D01*
X120937498Y-80999500D01*
X120937480Y-80999501D01*
X120834703Y-81010000D01*
X120834700Y-81010001D01*
X120668168Y-81065185D01*
X120668163Y-81065187D01*
X120518842Y-81157289D01*
X120394789Y-81281342D01*
X120302687Y-81430663D01*
X120302685Y-81430668D01*
X120302615Y-81430880D01*
X120247501Y-81597203D01*
X120247501Y-81597204D01*
X120247500Y-81597204D01*
X120237000Y-81699983D01*
X120237000Y-83100001D01*
X120237001Y-83100018D01*
X120247500Y-83202796D01*
X120247501Y-83202799D01*
X120302685Y-83369331D01*
X120302687Y-83369336D01*
X120314047Y-83387753D01*
X120394788Y-83518656D01*
X120518844Y-83642712D01*
X120668166Y-83734814D01*
X120834703Y-83789999D01*
X120937491Y-83800500D01*
X121862508Y-83800499D01*
X121862516Y-83800498D01*
X121862519Y-83800498D01*
X121918802Y-83794748D01*
X121965297Y-83789999D01*
X122131834Y-83734814D01*
X122281156Y-83642712D01*
X122405212Y-83518656D01*
X122497314Y-83369334D01*
X122552499Y-83202797D01*
X122552642Y-83201398D01*
X122552970Y-83200591D01*
X122553917Y-83196173D01*
X122554705Y-83196341D01*
X122579037Y-83136706D01*
X122636218Y-83096554D01*
X122706029Y-83093690D01*
X122766306Y-83129023D01*
X122797911Y-83191336D01*
X122800000Y-83213999D01*
X122800000Y-85112205D01*
X122780315Y-85179244D01*
X122727511Y-85224999D01*
X122700192Y-85233822D01*
X122574361Y-85258851D01*
X122574351Y-85258854D01*
X122428680Y-85319192D01*
X122428667Y-85319199D01*
X122297564Y-85406800D01*
X122297560Y-85406803D01*
X122186066Y-85518297D01*
X122186063Y-85518301D01*
X122098462Y-85649404D01*
X122098455Y-85649417D01*
X122038117Y-85795088D01*
X122038113Y-85795101D01*
X122034794Y-85811787D01*
X122002406Y-85873696D01*
X122000867Y-85875263D01*
X121994790Y-85881340D01*
X121994786Y-85881345D01*
X121902689Y-86030659D01*
X121902685Y-86030668D01*
X121899612Y-86039942D01*
X121847501Y-86197203D01*
X121847501Y-86197204D01*
X121847500Y-86197204D01*
X121837000Y-86299983D01*
X121837000Y-86651977D01*
X121817315Y-86719016D01*
X121764511Y-86764771D01*
X121695353Y-86774715D01*
X121631797Y-86745690D01*
X121625319Y-86739658D01*
X121518345Y-86632684D01*
X121369124Y-86540643D01*
X121369119Y-86540641D01*
X121202697Y-86485494D01*
X121202690Y-86485493D01*
X121099986Y-86475000D01*
X120650000Y-86475000D01*
X120650000Y-88799999D01*
X121099972Y-88799999D01*
X121099986Y-88799998D01*
X121202697Y-88789505D01*
X121369119Y-88734358D01*
X121369124Y-88734356D01*
X121518345Y-88642315D01*
X121600000Y-88560660D01*
X121600000Y-89838632D01*
X121518657Y-89757289D01*
X121518656Y-89757288D01*
X121409921Y-89690220D01*
X121369336Y-89665187D01*
X121369331Y-89665185D01*
X121341425Y-89655938D01*
X121202797Y-89610001D01*
X121202795Y-89610000D01*
X121100010Y-89599500D01*
X119699998Y-89599500D01*
X119699981Y-89599501D01*
X119597203Y-89610000D01*
X119597200Y-89610001D01*
X119430668Y-89665185D01*
X119430663Y-89665187D01*
X119281342Y-89757289D01*
X119157289Y-89881342D01*
X119065187Y-90030663D01*
X119065185Y-90030668D01*
X119041193Y-90103073D01*
X119010001Y-90197203D01*
X119010001Y-90197204D01*
X119010000Y-90197204D01*
X118999500Y-90299983D01*
X118999500Y-91225001D01*
X118999501Y-91225019D01*
X119010000Y-91327796D01*
X119010001Y-91327799D01*
X119065185Y-91494331D01*
X119065189Y-91494340D01*
X119088789Y-91532601D01*
X119107229Y-91599993D01*
X119086306Y-91666656D01*
X119070932Y-91685378D01*
X118979659Y-91776651D01*
X118889093Y-91923481D01*
X118889091Y-91923486D01*
X118888424Y-91925499D01*
X118834826Y-92087247D01*
X118834826Y-92087248D01*
X118834825Y-92087248D01*
X118824500Y-92188315D01*
X118824500Y-92886669D01*
X118824501Y-92886687D01*
X118834825Y-92987752D01*
X118865340Y-93079839D01*
X118883817Y-93135598D01*
X118889092Y-93151515D01*
X118889093Y-93151518D01*
X118920322Y-93202148D01*
X118979659Y-93298349D01*
X118979661Y-93298351D01*
X118993982Y-93312672D01*
X119027467Y-93373995D01*
X119022483Y-93443687D01*
X118993985Y-93488032D01*
X118980052Y-93501965D01*
X118889551Y-93648688D01*
X118889546Y-93648699D01*
X118835319Y-93812347D01*
X118825000Y-93913345D01*
X118825000Y-94012500D01*
X120774999Y-94012500D01*
X120774999Y-93913360D01*
X120774998Y-93913345D01*
X120764680Y-93812347D01*
X120710453Y-93648699D01*
X120710448Y-93648688D01*
X120619947Y-93501965D01*
X120619944Y-93501961D01*
X120606017Y-93488034D01*
X120572532Y-93426711D01*
X120577516Y-93357019D01*
X120606017Y-93312672D01*
X120620340Y-93298350D01*
X120710908Y-93151516D01*
X120765174Y-92987753D01*
X120775500Y-92886677D01*
X120775499Y-92188324D01*
X120773559Y-92169336D01*
X120769659Y-92131157D01*
X120765174Y-92087247D01*
X120765172Y-92087241D01*
X120763757Y-92080630D01*
X120765307Y-92080298D01*
X120763189Y-92018671D01*
X120798923Y-91958630D01*
X120861444Y-91927440D01*
X120883296Y-91925499D01*
X121100002Y-91925499D01*
X121100008Y-91925499D01*
X121202797Y-91914999D01*
X121369334Y-91859814D01*
X121518656Y-91767712D01*
X121600000Y-91686368D01*
X121600000Y-95400000D01*
X121925000Y-95400000D01*
X121925000Y-96350000D01*
X122837499Y-96350000D01*
X122837499Y-95900028D01*
X122837498Y-95900013D01*
X122827005Y-95797302D01*
X122771858Y-95630880D01*
X122771856Y-95630875D01*
X122679815Y-95481654D01*
X122598161Y-95400000D01*
X123876131Y-95400000D01*
X123794789Y-95481342D01*
X123702687Y-95630663D01*
X123702685Y-95630668D01*
X123702615Y-95630880D01*
X123647501Y-95797203D01*
X123647501Y-95797204D01*
X123647500Y-95797204D01*
X123637000Y-95899983D01*
X123637000Y-97300001D01*
X123637001Y-97300018D01*
X123647500Y-97402796D01*
X123647501Y-97402799D01*
X123702017Y-97567315D01*
X123702686Y-97569334D01*
X123794788Y-97718656D01*
X123918844Y-97842712D01*
X124068166Y-97934814D01*
X124234703Y-97989999D01*
X124337491Y-98000500D01*
X125262508Y-98000499D01*
X125262516Y-98000498D01*
X125262519Y-98000498D01*
X125328812Y-97993726D01*
X125365297Y-97989999D01*
X125531834Y-97934814D01*
X125588300Y-97899986D01*
X128037501Y-97899986D01*
X128047994Y-98002697D01*
X128103141Y-98169119D01*
X128103143Y-98169124D01*
X128195184Y-98318345D01*
X128319154Y-98442315D01*
X128468375Y-98534356D01*
X128468380Y-98534358D01*
X128634802Y-98589505D01*
X128634809Y-98589506D01*
X128737519Y-98599999D01*
X128949999Y-98599999D01*
X129450000Y-98599999D01*
X129662472Y-98599999D01*
X129662486Y-98599998D01*
X129765197Y-98589505D01*
X129931619Y-98534358D01*
X129931624Y-98534356D01*
X130080845Y-98442315D01*
X130204815Y-98318345D01*
X130296856Y-98169124D01*
X130296858Y-98169119D01*
X130352005Y-98002697D01*
X130352006Y-98002690D01*
X130362499Y-97899986D01*
X130362500Y-97899973D01*
X130362500Y-97450000D01*
X129450000Y-97450000D01*
X129450000Y-98599999D01*
X128949999Y-98599999D01*
X128950000Y-98599998D01*
X128950000Y-97450000D01*
X128037501Y-97450000D01*
X128037501Y-97899986D01*
X125588300Y-97899986D01*
X125681156Y-97842712D01*
X125805212Y-97718656D01*
X125897314Y-97569334D01*
X125952499Y-97402797D01*
X125963000Y-97300009D01*
X125962999Y-96500013D01*
X128037500Y-96500013D01*
X128037500Y-96950000D01*
X128950000Y-96950000D01*
X129450000Y-96950000D01*
X130362499Y-96950000D01*
X130362499Y-96500024D01*
X130362498Y-96500016D01*
X130362495Y-96499983D01*
X131162000Y-96499983D01*
X131162000Y-97900001D01*
X131162001Y-97900018D01*
X131172500Y-98002796D01*
X131172501Y-98002799D01*
X131227685Y-98169331D01*
X131227687Y-98169336D01*
X131242313Y-98193049D01*
X131319788Y-98318656D01*
X131443844Y-98442712D01*
X131593166Y-98534814D01*
X131759703Y-98589999D01*
X131862491Y-98600500D01*
X132787508Y-98600499D01*
X132787516Y-98600498D01*
X132787519Y-98600498D01*
X132843802Y-98594748D01*
X132890297Y-98589999D01*
X133056834Y-98534814D01*
X133206156Y-98442712D01*
X133330212Y-98318656D01*
X133422314Y-98169334D01*
X133477499Y-98002797D01*
X133488000Y-97900009D01*
X133487999Y-96499992D01*
X133477499Y-96397203D01*
X133422314Y-96230666D01*
X133330212Y-96081344D01*
X133206156Y-95957288D01*
X133072917Y-95875106D01*
X133056836Y-95865187D01*
X133056831Y-95865185D01*
X132998385Y-95845818D01*
X132890297Y-95810001D01*
X132890295Y-95810000D01*
X132787510Y-95799500D01*
X131862498Y-95799500D01*
X131862480Y-95799501D01*
X131759703Y-95810000D01*
X131759700Y-95810001D01*
X131593168Y-95865185D01*
X131593163Y-95865187D01*
X131443842Y-95957289D01*
X131319789Y-96081342D01*
X131227687Y-96230663D01*
X131227685Y-96230668D01*
X131216326Y-96264949D01*
X131172501Y-96397203D01*
X131172501Y-96397204D01*
X131172500Y-96397204D01*
X131162000Y-96499983D01*
X130362495Y-96499983D01*
X130352005Y-96397302D01*
X130296858Y-96230880D01*
X130296856Y-96230875D01*
X130204815Y-96081654D01*
X130080845Y-95957684D01*
X129931624Y-95865643D01*
X129931619Y-95865641D01*
X129765197Y-95810494D01*
X129765190Y-95810493D01*
X129662486Y-95800000D01*
X129450000Y-95800000D01*
X129450000Y-96950000D01*
X128950000Y-96950000D01*
X128950000Y-95800000D01*
X128737529Y-95800000D01*
X128737512Y-95800001D01*
X128634802Y-95810494D01*
X128468380Y-95865641D01*
X128468375Y-95865643D01*
X128319154Y-95957684D01*
X128195184Y-96081654D01*
X128103143Y-96230875D01*
X128103141Y-96230880D01*
X128047994Y-96397302D01*
X128047993Y-96397309D01*
X128037500Y-96500013D01*
X125962999Y-96500013D01*
X125962999Y-95899992D01*
X125959443Y-95865185D01*
X125952499Y-95797203D01*
X125952498Y-95797200D01*
X125926395Y-95718426D01*
X125897314Y-95630666D01*
X125805212Y-95481344D01*
X125723868Y-95400000D01*
X129000000Y-95400000D01*
X129000000Y-94648161D01*
X129081654Y-94729815D01*
X129230875Y-94821856D01*
X129230880Y-94821858D01*
X129397302Y-94877005D01*
X129397309Y-94877006D01*
X129500019Y-94887499D01*
X129949999Y-94887499D01*
X130450000Y-94887499D01*
X130899972Y-94887499D01*
X130899986Y-94887498D01*
X131002697Y-94877005D01*
X131169119Y-94821858D01*
X131169124Y-94821856D01*
X131318345Y-94729815D01*
X131442315Y-94605845D01*
X131534356Y-94456624D01*
X131534358Y-94456619D01*
X131589505Y-94290197D01*
X131589506Y-94290190D01*
X131600000Y-94187477D01*
X131600000Y-93975000D01*
X130450000Y-93975000D01*
X130450000Y-94887499D01*
X129949999Y-94887499D01*
X129950000Y-94887498D01*
X129950000Y-93975000D01*
X129000000Y-93975000D01*
X129000000Y-93475000D01*
X129950000Y-93475000D01*
X130450000Y-93475000D01*
X131599999Y-93475000D01*
X131599999Y-93262528D01*
X131599998Y-93262513D01*
X131589505Y-93159802D01*
X131534358Y-92993380D01*
X131534356Y-92993375D01*
X131442315Y-92844154D01*
X131318345Y-92720184D01*
X131169124Y-92628143D01*
X131169119Y-92628141D01*
X131002697Y-92572994D01*
X131002690Y-92572993D01*
X130899986Y-92562500D01*
X130450000Y-92562500D01*
X130450000Y-93475000D01*
X129950000Y-93475000D01*
X129950000Y-92562500D01*
X129500028Y-92562500D01*
X129500012Y-92562501D01*
X129397302Y-92572994D01*
X129230880Y-92628141D01*
X129230875Y-92628143D01*
X129081654Y-92720184D01*
X129000000Y-92801838D01*
X129000000Y-92099983D01*
X132474500Y-92099983D01*
X132474500Y-93500001D01*
X132474501Y-93500018D01*
X132485000Y-93602796D01*
X132485001Y-93602799D01*
X132523999Y-93720486D01*
X132540186Y-93769334D01*
X132632288Y-93918656D01*
X132756344Y-94042712D01*
X132905666Y-94134814D01*
X133072203Y-94189999D01*
X133174991Y-94200500D01*
X134100008Y-94200499D01*
X134100016Y-94200498D01*
X134100019Y-94200498D01*
X134156302Y-94194748D01*
X134202797Y-94189999D01*
X134369334Y-94134814D01*
X134518656Y-94042712D01*
X134642712Y-93918656D01*
X134734814Y-93769334D01*
X134789999Y-93602797D01*
X134800500Y-93500009D01*
X134800500Y-93499986D01*
X135600001Y-93499986D01*
X135610494Y-93602697D01*
X135665641Y-93769119D01*
X135665643Y-93769124D01*
X135757684Y-93918345D01*
X135881654Y-94042315D01*
X136030875Y-94134356D01*
X136030880Y-94134358D01*
X136197302Y-94189505D01*
X136197309Y-94189506D01*
X136300019Y-94199999D01*
X136512499Y-94199999D01*
X137012500Y-94199999D01*
X137224972Y-94199999D01*
X137224986Y-94199998D01*
X137327697Y-94189505D01*
X137494119Y-94134358D01*
X137494124Y-94134356D01*
X137643345Y-94042315D01*
X137767315Y-93918345D01*
X137859356Y-93769124D01*
X137859358Y-93769119D01*
X137914505Y-93602697D01*
X137914506Y-93602690D01*
X137924999Y-93499986D01*
X137925000Y-93499973D01*
X137925000Y-93050000D01*
X137012500Y-93050000D01*
X137012500Y-94199999D01*
X136512499Y-94199999D01*
X136512500Y-94199998D01*
X136512500Y-93050000D01*
X135600001Y-93050000D01*
X135600001Y-93499986D01*
X134800500Y-93499986D01*
X134800499Y-92786434D01*
X134800499Y-92100013D01*
X135600000Y-92100013D01*
X135600000Y-92550000D01*
X136512500Y-92550000D01*
X137012500Y-92550000D01*
X137924999Y-92550000D01*
X137924999Y-92100028D01*
X137924998Y-92100013D01*
X137914505Y-91997302D01*
X137859358Y-91830880D01*
X137859356Y-91830875D01*
X137767315Y-91681654D01*
X137643345Y-91557684D01*
X137494124Y-91465643D01*
X137494119Y-91465641D01*
X137327697Y-91410494D01*
X137327690Y-91410493D01*
X137224986Y-91400000D01*
X137012500Y-91400000D01*
X137012500Y-92550000D01*
X136512500Y-92550000D01*
X136512500Y-91400000D01*
X136300029Y-91400000D01*
X136300012Y-91400001D01*
X136197302Y-91410494D01*
X136030880Y-91465641D01*
X136030875Y-91465643D01*
X135881654Y-91557684D01*
X135757684Y-91681654D01*
X135665643Y-91830875D01*
X135665641Y-91830880D01*
X135610494Y-91997302D01*
X135610493Y-91997309D01*
X135600000Y-92100013D01*
X134800499Y-92100013D01*
X134800499Y-92099998D01*
X134800498Y-92099981D01*
X134789999Y-91997203D01*
X134789998Y-91997200D01*
X134766882Y-91927440D01*
X134734814Y-91830666D01*
X134642712Y-91681344D01*
X134518656Y-91557288D01*
X134425888Y-91500069D01*
X134369336Y-91465187D01*
X134369331Y-91465185D01*
X134367862Y-91464698D01*
X134202797Y-91410001D01*
X134202795Y-91410000D01*
X134100010Y-91399500D01*
X133174998Y-91399500D01*
X133174980Y-91399501D01*
X133072203Y-91410000D01*
X133072200Y-91410001D01*
X132905668Y-91465185D01*
X132905663Y-91465187D01*
X132756342Y-91557289D01*
X132632289Y-91681342D01*
X132540187Y-91830663D01*
X132540185Y-91830668D01*
X132524385Y-91878349D01*
X132485001Y-91997203D01*
X132485001Y-91997204D01*
X132485000Y-91997204D01*
X132474500Y-92099983D01*
X129000000Y-92099983D01*
X129000000Y-91523868D01*
X129081344Y-91605212D01*
X129230666Y-91697314D01*
X129397203Y-91752499D01*
X129499991Y-91763000D01*
X130900008Y-91762999D01*
X131002797Y-91752499D01*
X131169334Y-91697314D01*
X131318656Y-91605212D01*
X131442712Y-91481156D01*
X131534814Y-91331834D01*
X131589999Y-91165297D01*
X131600500Y-91062509D01*
X131600499Y-90137492D01*
X131599995Y-90132563D01*
X131589999Y-90034703D01*
X131589998Y-90034700D01*
X131580493Y-90006017D01*
X131534814Y-89868166D01*
X131442712Y-89718844D01*
X131318656Y-89594788D01*
X131169334Y-89502686D01*
X131085495Y-89474904D01*
X131028051Y-89435132D01*
X131001228Y-89370616D01*
X131000500Y-89357199D01*
X131000500Y-89321155D01*
X131000499Y-89321153D01*
X130996848Y-89302797D01*
X130969737Y-89166503D01*
X130940627Y-89096224D01*
X130909397Y-89020827D01*
X130909390Y-89020814D01*
X130821789Y-88889711D01*
X130821786Y-88889707D01*
X130710292Y-88778213D01*
X130710288Y-88778210D01*
X130579185Y-88690609D01*
X130579172Y-88690602D01*
X130433501Y-88630264D01*
X130433489Y-88630261D01*
X130278845Y-88599500D01*
X130278842Y-88599500D01*
X130121158Y-88599500D01*
X130121155Y-88599500D01*
X129966510Y-88630261D01*
X129966498Y-88630264D01*
X129820827Y-88690602D01*
X129820814Y-88690609D01*
X129689711Y-88778210D01*
X129689707Y-88778213D01*
X129578213Y-88889707D01*
X129578210Y-88889711D01*
X129490609Y-89020814D01*
X129490602Y-89020827D01*
X129430264Y-89166498D01*
X129430261Y-89166510D01*
X129399500Y-89321153D01*
X129399500Y-89357199D01*
X129379815Y-89424238D01*
X129327011Y-89469993D01*
X129314507Y-89474903D01*
X129297679Y-89480480D01*
X129230668Y-89502685D01*
X129230663Y-89502687D01*
X129081342Y-89594789D01*
X129000000Y-89676131D01*
X129000000Y-88178499D01*
X129131834Y-88134814D01*
X129281156Y-88042712D01*
X129405212Y-87918656D01*
X129497314Y-87769334D01*
X129552499Y-87602797D01*
X129563000Y-87500009D01*
X129563000Y-87499986D01*
X130362501Y-87499986D01*
X130372994Y-87602697D01*
X130428141Y-87769119D01*
X130428143Y-87769124D01*
X130520184Y-87918345D01*
X130644154Y-88042315D01*
X130793375Y-88134356D01*
X130793380Y-88134358D01*
X130959802Y-88189505D01*
X130959809Y-88189506D01*
X131062519Y-88199999D01*
X131274999Y-88199999D01*
X131775000Y-88199999D01*
X131987472Y-88199999D01*
X131987486Y-88199998D01*
X132090197Y-88189505D01*
X132256619Y-88134358D01*
X132256624Y-88134356D01*
X132405845Y-88042315D01*
X132529815Y-87918345D01*
X132621856Y-87769124D01*
X132621858Y-87769119D01*
X132677005Y-87602697D01*
X132677006Y-87602690D01*
X132687499Y-87499986D01*
X132687500Y-87499973D01*
X132687500Y-87050000D01*
X131775000Y-87050000D01*
X131775000Y-88199999D01*
X131274999Y-88199999D01*
X131275000Y-88199998D01*
X131275000Y-87050000D01*
X130362501Y-87050000D01*
X130362501Y-87499986D01*
X129563000Y-87499986D01*
X129562999Y-86777648D01*
X129562999Y-86100013D01*
X130362500Y-86100013D01*
X130362500Y-86550000D01*
X132687499Y-86550000D01*
X132687499Y-86100028D01*
X132687498Y-86100013D01*
X132677005Y-85997302D01*
X132623718Y-85836493D01*
X132621316Y-85766665D01*
X132657048Y-85706623D01*
X132676328Y-85691950D01*
X132676876Y-85691612D01*
X132756156Y-85642712D01*
X132880212Y-85518656D01*
X132972314Y-85369334D01*
X133027499Y-85202797D01*
X133038000Y-85100009D01*
X133038000Y-85099986D01*
X133837501Y-85099986D01*
X133847994Y-85202697D01*
X133903141Y-85369119D01*
X133903142Y-85369121D01*
X133995184Y-85518345D01*
X134119154Y-85642315D01*
X134268375Y-85734356D01*
X134268380Y-85734358D01*
X134434802Y-85789505D01*
X134434809Y-85789506D01*
X134537519Y-85799999D01*
X134749999Y-85799999D01*
X135250000Y-85799999D01*
X135462472Y-85799999D01*
X135462486Y-85799998D01*
X135565197Y-85789505D01*
X135731619Y-85734358D01*
X135731624Y-85734356D01*
X135880845Y-85642315D01*
X136004815Y-85518345D01*
X136096858Y-85369121D01*
X136096858Y-85369119D01*
X136152005Y-85202697D01*
X136152006Y-85202690D01*
X136162499Y-85099986D01*
X136162500Y-85099973D01*
X136162500Y-84650000D01*
X135250000Y-84650000D01*
X135250000Y-85799999D01*
X134749999Y-85799999D01*
X134750000Y-85799998D01*
X134750000Y-84650000D01*
X133837501Y-84650000D01*
X133837501Y-85099986D01*
X133038000Y-85099986D01*
X133038000Y-84461269D01*
X133038000Y-84321153D01*
X137674500Y-84321153D01*
X137674500Y-84478846D01*
X137705261Y-84633489D01*
X137705264Y-84633501D01*
X137765602Y-84779172D01*
X137765609Y-84779185D01*
X137853210Y-84910288D01*
X137853213Y-84910292D01*
X137964707Y-85021786D01*
X137964711Y-85021789D01*
X138095814Y-85109390D01*
X138095827Y-85109397D01*
X138241498Y-85169735D01*
X138241503Y-85169737D01*
X138379568Y-85197200D01*
X138396153Y-85200499D01*
X138396156Y-85200500D01*
X138396158Y-85200500D01*
X138553844Y-85200500D01*
X138553845Y-85200499D01*
X138708497Y-85169737D01*
X138854179Y-85109394D01*
X138985289Y-85021789D01*
X139096789Y-84910289D01*
X139184394Y-84779179D01*
X139193462Y-84757288D01*
X139198067Y-84746166D01*
X139244737Y-84633497D01*
X139275500Y-84478842D01*
X139275500Y-84321158D01*
X139275500Y-84321155D01*
X139275499Y-84321153D01*
X139257291Y-84229615D01*
X139244737Y-84166503D01*
X139237901Y-84150000D01*
X139184397Y-84020827D01*
X139184390Y-84020814D01*
X139096789Y-83889711D01*
X139096786Y-83889707D01*
X138985292Y-83778213D01*
X138985288Y-83778210D01*
X138854185Y-83690609D01*
X138854172Y-83690602D01*
X138708501Y-83630264D01*
X138708489Y-83630261D01*
X138553845Y-83599500D01*
X138553842Y-83599500D01*
X138396158Y-83599500D01*
X138396155Y-83599500D01*
X138241510Y-83630261D01*
X138241498Y-83630264D01*
X138095827Y-83690602D01*
X138095814Y-83690609D01*
X137964711Y-83778210D01*
X137964707Y-83778213D01*
X137853213Y-83889707D01*
X137853210Y-83889711D01*
X137765609Y-84020814D01*
X137765602Y-84020827D01*
X137705264Y-84166498D01*
X137705261Y-84166510D01*
X137674500Y-84321153D01*
X133038000Y-84321153D01*
X133038000Y-84315066D01*
X133037999Y-83700013D01*
X133837500Y-83700013D01*
X133837500Y-84150000D01*
X134750000Y-84150000D01*
X135250000Y-84150000D01*
X136162499Y-84150000D01*
X136162499Y-83700028D01*
X136162498Y-83700013D01*
X136152005Y-83597302D01*
X136096858Y-83430880D01*
X136096856Y-83430875D01*
X136004815Y-83281654D01*
X135880845Y-83157684D01*
X135731624Y-83065643D01*
X135731619Y-83065641D01*
X135565197Y-83010494D01*
X135565190Y-83010493D01*
X135462486Y-83000000D01*
X135250000Y-83000000D01*
X135250000Y-84150000D01*
X134750000Y-84150000D01*
X134750000Y-83000000D01*
X134537529Y-83000000D01*
X134537512Y-83000001D01*
X134434802Y-83010494D01*
X134268380Y-83065641D01*
X134268375Y-83065643D01*
X134119154Y-83157684D01*
X133995184Y-83281654D01*
X133903143Y-83430875D01*
X133903141Y-83430880D01*
X133847994Y-83597302D01*
X133847993Y-83597309D01*
X133837500Y-83700013D01*
X133037999Y-83700013D01*
X133037999Y-83699998D01*
X133037998Y-83699981D01*
X133027499Y-83597203D01*
X133027498Y-83597200D01*
X133001368Y-83518345D01*
X132972314Y-83430666D01*
X132880212Y-83281344D01*
X132756156Y-83157288D01*
X132606834Y-83065186D01*
X132440297Y-83010001D01*
X132440295Y-83010000D01*
X132337510Y-82999500D01*
X131412498Y-82999500D01*
X131412480Y-82999501D01*
X131309703Y-83010000D01*
X131309700Y-83010001D01*
X131143168Y-83065185D01*
X131143163Y-83065187D01*
X130993842Y-83157289D01*
X130869789Y-83281342D01*
X130777687Y-83430663D01*
X130777685Y-83430668D01*
X130777615Y-83430880D01*
X130722501Y-83597203D01*
X130722501Y-83597204D01*
X130722500Y-83597204D01*
X130712000Y-83699983D01*
X130712000Y-85100001D01*
X130712001Y-85100018D01*
X130722500Y-85202796D01*
X130722501Y-85202799D01*
X130776006Y-85364263D01*
X130778408Y-85434091D01*
X130742676Y-85494133D01*
X130723398Y-85508805D01*
X130644156Y-85557682D01*
X130520184Y-85681654D01*
X130428143Y-85830875D01*
X130428141Y-85830880D01*
X130372994Y-85997302D01*
X130372993Y-85997309D01*
X130362500Y-86100013D01*
X129562999Y-86100013D01*
X129562999Y-86099998D01*
X129562998Y-86099981D01*
X129552499Y-85997203D01*
X129552498Y-85997200D01*
X129497314Y-85830666D01*
X129405212Y-85681344D01*
X129281156Y-85557288D01*
X129131834Y-85465186D01*
X128965297Y-85410001D01*
X128965295Y-85410000D01*
X128862510Y-85399500D01*
X127937498Y-85399500D01*
X127937480Y-85399501D01*
X127834703Y-85410000D01*
X127834700Y-85410001D01*
X127668168Y-85465185D01*
X127668163Y-85465187D01*
X127518842Y-85557289D01*
X127394789Y-85681342D01*
X127299613Y-85835648D01*
X127247665Y-85882372D01*
X127178702Y-85893595D01*
X127114620Y-85865751D01*
X127106393Y-85858232D01*
X127005845Y-85757684D01*
X126856624Y-85665643D01*
X126856619Y-85665641D01*
X126690197Y-85610494D01*
X126690190Y-85610493D01*
X126587486Y-85600000D01*
X126375000Y-85600000D01*
X126375000Y-88000000D01*
X125875000Y-88000000D01*
X125875000Y-87250000D01*
X124962501Y-87250000D01*
X124962501Y-87699986D01*
X124972994Y-87802697D01*
X125028141Y-87969119D01*
X125028145Y-87969128D01*
X125047187Y-88000000D01*
X124078399Y-88000000D01*
X124097314Y-87969334D01*
X124152499Y-87802797D01*
X124163000Y-87700009D01*
X124162999Y-86300013D01*
X124962500Y-86300013D01*
X124962500Y-86750000D01*
X125875000Y-86750000D01*
X125875000Y-85600000D01*
X125662529Y-85600000D01*
X125662512Y-85600001D01*
X125559802Y-85610494D01*
X125393380Y-85665641D01*
X125393375Y-85665643D01*
X125244154Y-85757684D01*
X125120184Y-85881654D01*
X125028143Y-86030875D01*
X125028141Y-86030880D01*
X124972994Y-86197302D01*
X124972993Y-86197309D01*
X124962500Y-86300013D01*
X124162999Y-86300013D01*
X124162999Y-86299992D01*
X124152499Y-86197203D01*
X124097314Y-86030666D01*
X124005212Y-85881344D01*
X123881156Y-85757288D01*
X123881153Y-85757285D01*
X123858901Y-85743560D01*
X123812178Y-85691612D01*
X123800000Y-85638023D01*
X123800000Y-82057648D01*
X137899500Y-82057648D01*
X137899500Y-82262351D01*
X137931522Y-82464534D01*
X137994781Y-82659223D01*
X138087715Y-82841613D01*
X138208028Y-83007213D01*
X138352786Y-83151971D01*
X138477936Y-83242896D01*
X138518390Y-83272287D01*
X138634607Y-83331503D01*
X138700776Y-83365218D01*
X138700778Y-83365218D01*
X138700781Y-83365220D01*
X138805137Y-83399127D01*
X138895465Y-83428477D01*
X138996557Y-83444488D01*
X139097648Y-83460500D01*
X139097649Y-83460500D01*
X139302351Y-83460500D01*
X139302352Y-83460500D01*
X139504534Y-83428477D01*
X139699219Y-83365220D01*
X139881610Y-83272287D01*
X139986373Y-83196173D01*
X140047213Y-83151971D01*
X140047215Y-83151968D01*
X140047219Y-83151966D01*
X140191966Y-83007219D01*
X140191968Y-83007215D01*
X140191971Y-83007213D01*
X140272903Y-82895818D01*
X140312287Y-82841610D01*
X140405220Y-82659219D01*
X140468477Y-82464534D01*
X140500500Y-82262352D01*
X140500500Y-82057648D01*
X140468477Y-81855466D01*
X140464898Y-81844452D01*
X140417960Y-81699991D01*
X140405220Y-81660781D01*
X140405218Y-81660778D01*
X140405218Y-81660776D01*
X140359422Y-81570897D01*
X140312287Y-81478390D01*
X140304556Y-81467749D01*
X140191971Y-81312786D01*
X140047213Y-81168028D01*
X139881613Y-81047715D01*
X139881612Y-81047714D01*
X139881610Y-81047713D01*
X139807594Y-81010000D01*
X139699223Y-80954781D01*
X139504534Y-80891522D01*
X139329995Y-80863878D01*
X139302352Y-80859500D01*
X139097648Y-80859500D01*
X139073329Y-80863351D01*
X138895465Y-80891522D01*
X138700776Y-80954781D01*
X138518386Y-81047715D01*
X138352786Y-81168028D01*
X138208028Y-81312786D01*
X138087715Y-81478386D01*
X137994781Y-81660776D01*
X137931522Y-81855465D01*
X137899500Y-82057648D01*
X123800000Y-82057648D01*
X123800000Y-78493713D01*
X124569500Y-78493713D01*
X124569500Y-78706287D01*
X124569700Y-78707547D01*
X124602691Y-78915850D01*
X124602754Y-78916243D01*
X124647573Y-79054182D01*
X124668444Y-79118414D01*
X124764951Y-79307820D01*
X124889890Y-79479786D01*
X125040213Y-79630109D01*
X125212179Y-79755048D01*
X125212181Y-79755049D01*
X125212184Y-79755051D01*
X125401588Y-79851557D01*
X125603757Y-79917246D01*
X125813713Y-79950500D01*
X125813714Y-79950500D01*
X126026286Y-79950500D01*
X126026287Y-79950500D01*
X126236243Y-79917246D01*
X126438412Y-79851557D01*
X126627816Y-79755051D01*
X126714138Y-79692335D01*
X126799786Y-79630109D01*
X126799788Y-79630106D01*
X126799792Y-79630104D01*
X126950104Y-79479792D01*
X126950106Y-79479788D01*
X126950109Y-79479786D01*
X127075048Y-79307820D01*
X127075047Y-79307820D01*
X127075051Y-79307816D01*
X127079514Y-79299054D01*
X127127488Y-79248259D01*
X127195308Y-79231463D01*
X127261444Y-79253999D01*
X127300486Y-79299056D01*
X127304951Y-79307820D01*
X127429890Y-79479786D01*
X127580213Y-79630109D01*
X127752179Y-79755048D01*
X127752181Y-79755049D01*
X127752184Y-79755051D01*
X127941588Y-79851557D01*
X128143757Y-79917246D01*
X128353713Y-79950500D01*
X128353714Y-79950500D01*
X128566286Y-79950500D01*
X128566287Y-79950500D01*
X128776243Y-79917246D01*
X128978412Y-79851557D01*
X129167816Y-79755051D01*
X129254147Y-79692328D01*
X129339784Y-79630110D01*
X129339784Y-79630109D01*
X129339792Y-79630104D01*
X129453329Y-79516566D01*
X129514648Y-79483084D01*
X129584340Y-79488068D01*
X129640274Y-79529939D01*
X129657189Y-79560917D01*
X129706202Y-79692328D01*
X129706206Y-79692335D01*
X129792452Y-79807544D01*
X129792455Y-79807547D01*
X129907664Y-79893793D01*
X129907671Y-79893797D01*
X130042517Y-79944091D01*
X130042516Y-79944091D01*
X130049444Y-79944835D01*
X130102127Y-79950500D01*
X131897872Y-79950499D01*
X131957483Y-79944091D01*
X132092331Y-79893796D01*
X132207546Y-79807546D01*
X132293796Y-79692331D01*
X132344091Y-79557483D01*
X132350500Y-79497873D01*
X132350499Y-77702128D01*
X132344091Y-77642517D01*
X132342810Y-77639083D01*
X132293797Y-77507671D01*
X132293793Y-77507664D01*
X132207547Y-77392455D01*
X132207544Y-77392452D01*
X132092335Y-77306206D01*
X132092328Y-77306202D01*
X131957482Y-77255908D01*
X131957483Y-77255908D01*
X131897883Y-77249501D01*
X131897881Y-77249500D01*
X131897873Y-77249500D01*
X131897864Y-77249500D01*
X130102129Y-77249500D01*
X130102123Y-77249501D01*
X130042516Y-77255908D01*
X129907671Y-77306202D01*
X129907664Y-77306206D01*
X129792455Y-77392452D01*
X129792452Y-77392455D01*
X129706206Y-77507664D01*
X129706203Y-77507669D01*
X129657189Y-77639083D01*
X129615317Y-77695016D01*
X129549853Y-77719433D01*
X129481580Y-77704581D01*
X129453326Y-77683430D01*
X129339786Y-77569890D01*
X129167820Y-77444951D01*
X128978414Y-77348444D01*
X128978413Y-77348443D01*
X128978412Y-77348443D01*
X128776243Y-77282754D01*
X128776241Y-77282753D01*
X128776240Y-77282753D01*
X128614957Y-77257208D01*
X128566287Y-77249500D01*
X128353713Y-77249500D01*
X128305042Y-77257208D01*
X128143760Y-77282753D01*
X127941585Y-77348444D01*
X127752179Y-77444951D01*
X127580213Y-77569890D01*
X127429890Y-77720213D01*
X127304949Y-77892182D01*
X127300484Y-77900946D01*
X127252509Y-77951742D01*
X127184688Y-77968536D01*
X127118553Y-77945998D01*
X127079516Y-77900946D01*
X127075050Y-77892182D01*
X126950109Y-77720213D01*
X126799786Y-77569890D01*
X126627820Y-77444951D01*
X126438414Y-77348444D01*
X126438413Y-77348443D01*
X126438412Y-77348443D01*
X126236243Y-77282754D01*
X126236241Y-77282753D01*
X126236240Y-77282753D01*
X126074957Y-77257208D01*
X126026287Y-77249500D01*
X125813713Y-77249500D01*
X125765042Y-77257208D01*
X125603760Y-77282753D01*
X125401585Y-77348444D01*
X125212179Y-77444951D01*
X125040213Y-77569890D01*
X124889890Y-77720213D01*
X124764951Y-77892179D01*
X124668444Y-78081585D01*
X124602753Y-78283760D01*
X124575238Y-78457482D01*
X124569500Y-78493713D01*
X123800000Y-78493713D01*
X123800000Y-76924000D01*
X123819685Y-76856961D01*
X123872489Y-76811206D01*
X123924000Y-76800000D01*
X128800000Y-76800000D01*
X128800000Y-76602135D01*
X141649500Y-76602135D01*
X141649500Y-78397870D01*
X141649501Y-78397876D01*
X141655908Y-78457483D01*
X141706202Y-78592328D01*
X141706206Y-78592335D01*
X141792452Y-78707544D01*
X141792455Y-78707547D01*
X141907664Y-78793793D01*
X141907671Y-78793797D01*
X141907674Y-78793798D01*
X142039598Y-78843002D01*
X142095531Y-78884873D01*
X142119949Y-78950337D01*
X142105098Y-79018610D01*
X142083947Y-79046865D01*
X141970271Y-79160541D01*
X141845379Y-79332442D01*
X141748904Y-79521782D01*
X141683242Y-79723870D01*
X141683242Y-79723873D01*
X141672769Y-79790000D01*
X142566988Y-79790000D01*
X142534075Y-79847007D01*
X142500000Y-79974174D01*
X142500000Y-80105826D01*
X142534075Y-80232993D01*
X142566988Y-80290000D01*
X141672769Y-80290000D01*
X141683242Y-80356126D01*
X141683242Y-80356129D01*
X141748904Y-80558217D01*
X141845379Y-80747557D01*
X141970272Y-80919459D01*
X141970276Y-80919464D01*
X142120535Y-81069723D01*
X142120540Y-81069727D01*
X142292442Y-81194620D01*
X142481782Y-81291095D01*
X142683871Y-81356757D01*
X142750000Y-81367231D01*
X142750000Y-80473012D01*
X142807007Y-80505925D01*
X142934174Y-80540000D01*
X143065826Y-80540000D01*
X143192993Y-80505925D01*
X143250000Y-80473012D01*
X143250000Y-81367230D01*
X143316126Y-81356757D01*
X143316129Y-81356757D01*
X143518217Y-81291095D01*
X143707557Y-81194620D01*
X143879459Y-81069727D01*
X143879464Y-81069723D01*
X144029723Y-80919464D01*
X144029727Y-80919459D01*
X144154620Y-80747557D01*
X144251095Y-80558217D01*
X144316757Y-80356129D01*
X144316757Y-80356126D01*
X144327231Y-80290000D01*
X143433012Y-80290000D01*
X143465925Y-80232993D01*
X143500000Y-80105826D01*
X143500000Y-79974174D01*
X143465925Y-79847007D01*
X143433012Y-79790000D01*
X144327231Y-79790000D01*
X144316757Y-79723873D01*
X144316757Y-79723870D01*
X144251095Y-79521782D01*
X144154620Y-79332442D01*
X144029727Y-79160540D01*
X144029723Y-79160535D01*
X143916053Y-79046865D01*
X143882568Y-78985542D01*
X143887552Y-78915850D01*
X143929424Y-78859917D01*
X143960400Y-78843002D01*
X144092331Y-78793796D01*
X144207546Y-78707546D01*
X144293796Y-78592331D01*
X144344091Y-78457483D01*
X144350500Y-78397873D01*
X144350499Y-76602128D01*
X144344091Y-76542517D01*
X144334281Y-76516216D01*
X144293797Y-76407671D01*
X144293793Y-76407664D01*
X144207547Y-76292455D01*
X144207544Y-76292452D01*
X144092335Y-76206206D01*
X144092328Y-76206202D01*
X143957482Y-76155908D01*
X143957483Y-76155908D01*
X143897883Y-76149501D01*
X143897881Y-76149500D01*
X143897873Y-76149500D01*
X143897864Y-76149500D01*
X142102129Y-76149500D01*
X142102123Y-76149501D01*
X142042516Y-76155908D01*
X141907671Y-76206202D01*
X141907664Y-76206206D01*
X141792455Y-76292452D01*
X141792452Y-76292455D01*
X141706206Y-76407664D01*
X141706202Y-76407671D01*
X141655908Y-76542517D01*
X141653817Y-76561972D01*
X141649501Y-76602123D01*
X141649500Y-76602135D01*
X128800000Y-76602135D01*
X128800000Y-72250000D01*
X130637501Y-72250000D01*
X130637501Y-72286654D01*
X130647819Y-72387652D01*
X130702046Y-72551300D01*
X130702051Y-72551311D01*
X130792552Y-72698034D01*
X130792555Y-72698038D01*
X130914461Y-72819944D01*
X130914465Y-72819947D01*
X131061188Y-72910448D01*
X131061199Y-72910453D01*
X131224847Y-72964680D01*
X131325846Y-72974999D01*
X131328435Y-72974999D01*
X131328980Y-72975158D01*
X131329001Y-72975160D01*
X131329000Y-72975165D01*
X131395478Y-72994672D01*
X131441242Y-73047468D01*
X131452428Y-73101703D01*
X131452191Y-73112551D01*
X131449500Y-73126082D01*
X131449500Y-73235956D01*
X131449471Y-73237286D01*
X131439284Y-73269373D01*
X131429815Y-73301621D01*
X131428656Y-73302847D01*
X131428329Y-73303880D01*
X131425345Y-73306353D01*
X131398385Y-73334900D01*
X131352787Y-73368028D01*
X131352782Y-73368032D01*
X131208028Y-73512786D01*
X131087715Y-73678386D01*
X130994781Y-73860776D01*
X130931522Y-74055465D01*
X130899500Y-74257648D01*
X130899500Y-74462351D01*
X130931522Y-74664534D01*
X130994781Y-74859223D01*
X131087715Y-75041613D01*
X131208028Y-75207213D01*
X131352786Y-75351971D01*
X131507749Y-75464556D01*
X131518390Y-75472287D01*
X131634607Y-75531503D01*
X131700776Y-75565218D01*
X131700778Y-75565218D01*
X131700781Y-75565220D01*
X131756481Y-75583318D01*
X131895465Y-75628477D01*
X131996557Y-75644488D01*
X132097648Y-75660500D01*
X132097649Y-75660500D01*
X132302351Y-75660500D01*
X132302352Y-75660500D01*
X132504534Y-75628477D01*
X132699219Y-75565220D01*
X132881610Y-75472287D01*
X132979196Y-75401387D01*
X133047213Y-75351971D01*
X133047215Y-75351968D01*
X133047219Y-75351966D01*
X133191966Y-75207219D01*
X133191968Y-75207215D01*
X133191971Y-75207213D01*
X133244732Y-75134590D01*
X133312287Y-75041610D01*
X133405220Y-74859219D01*
X133468477Y-74664534D01*
X133500500Y-74462352D01*
X133500500Y-74257648D01*
X133468477Y-74055466D01*
X133405220Y-73860781D01*
X133405218Y-73860778D01*
X133405218Y-73860776D01*
X133371503Y-73794607D01*
X133312287Y-73678390D01*
X133304556Y-73667749D01*
X133191971Y-73512786D01*
X133157957Y-73478772D01*
X133124472Y-73417449D01*
X133129456Y-73347757D01*
X133157957Y-73303410D01*
X133449549Y-73011818D01*
X133510872Y-72978333D01*
X133537230Y-72975499D01*
X133749170Y-72975499D01*
X133749176Y-72975499D01*
X133850253Y-72965174D01*
X134014016Y-72910908D01*
X134160850Y-72820340D01*
X134282840Y-72698350D01*
X134373408Y-72551516D01*
X134427674Y-72387753D01*
X134438000Y-72286677D01*
X134437999Y-71897648D01*
X137899500Y-71897648D01*
X137899500Y-72102351D01*
X137931522Y-72304534D01*
X137994781Y-72499223D01*
X138058691Y-72624653D01*
X138075452Y-72657547D01*
X138087715Y-72681613D01*
X138208028Y-72847213D01*
X138352786Y-72991971D01*
X138503822Y-73101703D01*
X138518390Y-73112287D01*
X138634607Y-73171503D01*
X138700776Y-73205218D01*
X138700778Y-73205218D01*
X138700781Y-73205220D01*
X138799470Y-73237286D01*
X138895465Y-73268477D01*
X138996557Y-73284488D01*
X139097648Y-73300500D01*
X139097649Y-73300500D01*
X139302351Y-73300500D01*
X139302352Y-73300500D01*
X139504534Y-73268477D01*
X139699219Y-73205220D01*
X139881610Y-73112287D01*
X139998123Y-73027636D01*
X140047213Y-72991971D01*
X140047215Y-72991968D01*
X140047219Y-72991966D01*
X140191966Y-72847219D01*
X140191968Y-72847215D01*
X140191971Y-72847213D01*
X140267106Y-72743797D01*
X140312287Y-72681610D01*
X140405220Y-72499219D01*
X140468477Y-72304534D01*
X140500500Y-72102352D01*
X140500500Y-71897648D01*
X140479841Y-71767213D01*
X140468477Y-71695465D01*
X140437981Y-71601610D01*
X140405220Y-71500781D01*
X140405218Y-71500778D01*
X140405218Y-71500776D01*
X140371503Y-71434607D01*
X140312287Y-71318390D01*
X140300123Y-71301648D01*
X140191971Y-71152786D01*
X140047213Y-71008028D01*
X139881613Y-70887715D01*
X139881612Y-70887714D01*
X139881610Y-70887713D01*
X139824653Y-70858691D01*
X139699223Y-70794781D01*
X139504534Y-70731522D01*
X139329995Y-70703878D01*
X139302352Y-70699500D01*
X139097648Y-70699500D01*
X139073329Y-70703351D01*
X138895465Y-70731522D01*
X138700776Y-70794781D01*
X138518386Y-70887715D01*
X138352786Y-71008028D01*
X138208028Y-71152786D01*
X138087715Y-71318386D01*
X137994781Y-71500776D01*
X137931522Y-71695465D01*
X137899500Y-71897648D01*
X134437999Y-71897648D01*
X134437999Y-71713324D01*
X134427674Y-71612247D01*
X134373408Y-71448484D01*
X134282840Y-71301650D01*
X134160850Y-71179660D01*
X134069629Y-71123395D01*
X134014018Y-71089093D01*
X134014013Y-71089091D01*
X134012569Y-71088612D01*
X133850253Y-71034826D01*
X133850251Y-71034825D01*
X133749178Y-71024500D01*
X133050830Y-71024500D01*
X133050812Y-71024501D01*
X132949747Y-71034825D01*
X132785984Y-71089092D01*
X132785981Y-71089093D01*
X132639148Y-71179661D01*
X132624825Y-71193984D01*
X132563501Y-71227468D01*
X132493809Y-71222482D01*
X132449465Y-71193982D01*
X132435538Y-71180055D01*
X132435534Y-71180052D01*
X132288811Y-71089551D01*
X132288800Y-71089546D01*
X132125152Y-71035319D01*
X132024154Y-71025000D01*
X131925000Y-71025000D01*
X131925000Y-71876000D01*
X131905315Y-71943039D01*
X131852511Y-71988794D01*
X131801000Y-72000000D01*
X131675000Y-72000000D01*
X131675000Y-72126000D01*
X131655315Y-72193039D01*
X131602511Y-72238794D01*
X131551000Y-72250000D01*
X130637501Y-72250000D01*
X128800000Y-72250000D01*
X128800000Y-71713345D01*
X130637500Y-71713345D01*
X130637500Y-71750000D01*
X131425000Y-71750000D01*
X131425000Y-71024999D01*
X131325860Y-71025000D01*
X131325844Y-71025001D01*
X131224847Y-71035319D01*
X131061199Y-71089546D01*
X131061188Y-71089551D01*
X130914465Y-71180052D01*
X130914461Y-71180055D01*
X130792555Y-71301961D01*
X130792552Y-71301965D01*
X130702051Y-71448688D01*
X130702046Y-71448699D01*
X130647819Y-71612347D01*
X130637500Y-71713345D01*
X128800000Y-71713345D01*
X128800000Y-70452135D01*
X142099500Y-70452135D01*
X142099500Y-72347870D01*
X142099501Y-72347876D01*
X142105908Y-72407483D01*
X142156202Y-72542328D01*
X142156206Y-72542335D01*
X142242452Y-72657544D01*
X142242455Y-72657547D01*
X142357664Y-72743793D01*
X142357671Y-72743797D01*
X142437580Y-72773601D01*
X142493514Y-72815472D01*
X142517931Y-72880936D01*
X142503080Y-72949209D01*
X142481929Y-72977463D01*
X142431756Y-73027636D01*
X142431752Y-73027641D01*
X142302187Y-73205974D01*
X142202104Y-73402393D01*
X142202103Y-73402396D01*
X142133985Y-73612047D01*
X142099500Y-73829778D01*
X142099500Y-74050222D01*
X142100331Y-74055466D01*
X142133985Y-74267952D01*
X142202103Y-74477603D01*
X142202104Y-74477606D01*
X142302187Y-74674025D01*
X142431752Y-74852358D01*
X142431756Y-74852363D01*
X142587636Y-75008243D01*
X142587641Y-75008247D01*
X142711224Y-75098034D01*
X142765978Y-75137815D01*
X142876974Y-75194371D01*
X142962393Y-75237895D01*
X142962396Y-75237896D01*
X143067221Y-75271955D01*
X143172049Y-75306015D01*
X143389778Y-75340500D01*
X143389779Y-75340500D01*
X143610221Y-75340500D01*
X143610222Y-75340500D01*
X143827951Y-75306015D01*
X144037606Y-75237895D01*
X144234022Y-75137815D01*
X144412365Y-75008242D01*
X144568242Y-74852365D01*
X144697815Y-74674022D01*
X144797895Y-74477606D01*
X144866015Y-74267951D01*
X144900500Y-74050222D01*
X144900500Y-73829778D01*
X144866015Y-73612049D01*
X144826065Y-73489093D01*
X144797896Y-73402396D01*
X144797895Y-73402393D01*
X144747699Y-73303880D01*
X144697815Y-73205978D01*
X144629743Y-73112284D01*
X144568247Y-73027641D01*
X144568243Y-73027636D01*
X144518071Y-72977464D01*
X144484586Y-72916141D01*
X144489570Y-72846449D01*
X144531442Y-72790516D01*
X144562420Y-72773601D01*
X144642326Y-72743798D01*
X144642326Y-72743797D01*
X144642331Y-72743796D01*
X144757546Y-72657546D01*
X144843796Y-72542331D01*
X144894091Y-72407483D01*
X144900500Y-72347873D01*
X144900499Y-70452128D01*
X144894091Y-70392517D01*
X144891614Y-70385877D01*
X144843797Y-70257671D01*
X144843793Y-70257664D01*
X144757547Y-70142455D01*
X144757544Y-70142452D01*
X144642335Y-70056206D01*
X144642328Y-70056202D01*
X144507482Y-70005908D01*
X144507483Y-70005908D01*
X144447883Y-69999501D01*
X144447881Y-69999500D01*
X144447873Y-69999500D01*
X144447864Y-69999500D01*
X142552129Y-69999500D01*
X142552123Y-69999501D01*
X142492516Y-70005908D01*
X142357671Y-70056202D01*
X142357664Y-70056206D01*
X142242455Y-70142452D01*
X142242452Y-70142455D01*
X142156206Y-70257664D01*
X142156202Y-70257671D01*
X142105908Y-70392517D01*
X142099501Y-70452116D01*
X142099501Y-70452123D01*
X142099500Y-70452135D01*
X128800000Y-70452135D01*
X128800000Y-67600000D01*
X116400000Y-67600000D01*
X116400000Y-78000000D01*
X108831782Y-78000000D01*
X108904534Y-77988477D01*
X109099219Y-77925220D01*
X109281610Y-77832287D01*
X109374590Y-77764732D01*
X109447213Y-77711971D01*
X109447215Y-77711968D01*
X109447219Y-77711966D01*
X109591966Y-77567219D01*
X109591968Y-77567215D01*
X109591971Y-77567213D01*
X109680798Y-77444951D01*
X109712287Y-77401610D01*
X109805220Y-77219219D01*
X109868477Y-77024534D01*
X109900500Y-76822352D01*
X109900500Y-76617648D01*
X109888600Y-76542516D01*
X109868477Y-76415465D01*
X109805218Y-76220776D01*
X109768900Y-76149500D01*
X109712287Y-76038390D01*
X109704556Y-76027749D01*
X109591971Y-75872786D01*
X109447213Y-75728028D01*
X109281614Y-75607715D01*
X109233732Y-75583318D01*
X109182936Y-75535343D01*
X109166141Y-75467522D01*
X109188678Y-75401387D01*
X109202347Y-75385151D01*
X109212499Y-75374999D01*
X109712500Y-75374999D01*
X109811640Y-75374999D01*
X109811654Y-75374998D01*
X109912652Y-75364680D01*
X110076300Y-75310453D01*
X110076311Y-75310448D01*
X110223034Y-75219947D01*
X110223038Y-75219944D01*
X110344944Y-75098038D01*
X110344947Y-75098034D01*
X110435448Y-74951311D01*
X110435453Y-74951300D01*
X110489680Y-74787652D01*
X110499999Y-74686654D01*
X110500000Y-74686641D01*
X110500000Y-74650000D01*
X109712500Y-74650000D01*
X109712500Y-75374999D01*
X109212499Y-75374999D01*
X109212500Y-75374998D01*
X109212500Y-74150000D01*
X109712500Y-74150000D01*
X110499999Y-74150000D01*
X110499999Y-74113360D01*
X110499998Y-74113345D01*
X110489680Y-74012347D01*
X110435453Y-73848699D01*
X110435448Y-73848688D01*
X110344947Y-73701965D01*
X110344944Y-73701961D01*
X110223038Y-73580055D01*
X110223034Y-73580052D01*
X110076311Y-73489551D01*
X110076300Y-73489546D01*
X109912652Y-73435319D01*
X109811654Y-73425000D01*
X109712500Y-73425000D01*
X109712500Y-74150000D01*
X109212500Y-74150000D01*
X109212500Y-73424999D01*
X109113360Y-73425000D01*
X109113344Y-73425001D01*
X109012347Y-73435319D01*
X108848699Y-73489546D01*
X108848688Y-73489551D01*
X108701965Y-73580052D01*
X108688032Y-73593985D01*
X108626708Y-73627468D01*
X108557016Y-73622482D01*
X108512672Y-73593982D01*
X108498351Y-73579661D01*
X108498350Y-73579660D01*
X108389922Y-73512781D01*
X108351518Y-73489093D01*
X108351513Y-73489091D01*
X108320372Y-73478772D01*
X108187753Y-73434826D01*
X108187751Y-73434825D01*
X108086678Y-73424500D01*
X107388330Y-73424500D01*
X107388312Y-73424501D01*
X107287247Y-73434825D01*
X107123484Y-73489092D01*
X107123481Y-73489093D01*
X106976648Y-73579661D01*
X106854661Y-73701648D01*
X106764093Y-73848481D01*
X106764091Y-73848486D01*
X106760019Y-73860776D01*
X106709826Y-74012247D01*
X106709826Y-74012248D01*
X106709825Y-74012248D01*
X106699500Y-74113315D01*
X94000500Y-74113315D01*
X94000500Y-69914270D01*
X106500000Y-69914270D01*
X106500000Y-70150375D01*
X106536934Y-70383570D01*
X106609897Y-70608125D01*
X106717087Y-70818497D01*
X106777338Y-70901427D01*
X106777340Y-70901428D01*
X107517037Y-70161731D01*
X107534075Y-70225316D01*
X107599901Y-70339330D01*
X107692993Y-70432422D01*
X107807007Y-70498248D01*
X107870590Y-70515285D01*
X107130893Y-71254981D01*
X107213828Y-71315237D01*
X107424197Y-71422425D01*
X107648752Y-71495388D01*
X107648751Y-71495388D01*
X107881948Y-71532323D01*
X108118052Y-71532323D01*
X108351247Y-71495388D01*
X108575802Y-71422425D01*
X108786163Y-71315241D01*
X108786169Y-71315237D01*
X108869104Y-71254981D01*
X108869105Y-71254981D01*
X108129408Y-70515285D01*
X108192993Y-70498248D01*
X108307007Y-70432422D01*
X108400099Y-70339330D01*
X108465925Y-70225316D01*
X108482962Y-70161732D01*
X109222658Y-70901428D01*
X109222658Y-70901427D01*
X109282914Y-70818492D01*
X109282918Y-70818486D01*
X109390102Y-70608125D01*
X109463065Y-70383570D01*
X109500000Y-70150375D01*
X109500000Y-69914270D01*
X109463065Y-69681075D01*
X109390102Y-69456520D01*
X109287389Y-69254933D01*
X109284875Y-69250000D01*
X112237501Y-69250000D01*
X112237501Y-69286654D01*
X112247819Y-69387652D01*
X112302046Y-69551300D01*
X112302051Y-69551311D01*
X112392552Y-69698034D01*
X112392555Y-69698038D01*
X112514461Y-69819944D01*
X112514465Y-69819947D01*
X112661188Y-69910448D01*
X112661199Y-69910453D01*
X112713575Y-69927809D01*
X112771020Y-69967582D01*
X112797843Y-70032098D01*
X112785528Y-70100873D01*
X112774890Y-70118400D01*
X112687712Y-70238390D01*
X112594781Y-70420776D01*
X112531522Y-70615465D01*
X112518202Y-70699569D01*
X112499500Y-70817648D01*
X112499500Y-71022352D01*
X112499920Y-71025001D01*
X112531522Y-71224534D01*
X112594781Y-71419223D01*
X112687715Y-71601613D01*
X112808028Y-71767213D01*
X112952786Y-71911971D01*
X113073950Y-72000000D01*
X113118390Y-72032287D01*
X113234607Y-72091503D01*
X113300776Y-72125218D01*
X113300778Y-72125218D01*
X113300781Y-72125220D01*
X113405137Y-72159127D01*
X113495465Y-72188477D01*
X113596557Y-72204488D01*
X113697648Y-72220500D01*
X113697649Y-72220500D01*
X113902351Y-72220500D01*
X113902352Y-72220500D01*
X114104534Y-72188477D01*
X114299219Y-72125220D01*
X114481610Y-72032287D01*
X114574590Y-71964732D01*
X114647213Y-71911971D01*
X114647215Y-71911968D01*
X114647219Y-71911966D01*
X114791966Y-71767219D01*
X114791968Y-71767215D01*
X114791971Y-71767213D01*
X114844732Y-71694590D01*
X114912287Y-71601610D01*
X115005220Y-71419219D01*
X115068477Y-71224534D01*
X115100500Y-71022352D01*
X115100500Y-70817648D01*
X115091681Y-70761971D01*
X115100635Y-70692679D01*
X115126468Y-70654897D01*
X115382952Y-70398415D01*
X115410205Y-70357627D01*
X115465084Y-70275495D01*
X115488518Y-70218920D01*
X115521659Y-70138912D01*
X115549388Y-69999502D01*
X115549395Y-69999503D01*
X115549397Y-69999458D01*
X115549956Y-69996647D01*
X115582368Y-69934752D01*
X115608668Y-69915994D01*
X115607869Y-69914699D01*
X115614014Y-69910908D01*
X115614016Y-69910908D01*
X115760850Y-69820340D01*
X115882840Y-69698350D01*
X115973408Y-69551516D01*
X116027674Y-69387753D01*
X116038000Y-69286677D01*
X116037999Y-68713324D01*
X116027674Y-68612247D01*
X115973408Y-68448484D01*
X115882840Y-68301650D01*
X115760850Y-68179660D01*
X115669629Y-68123395D01*
X115614018Y-68089093D01*
X115614013Y-68089091D01*
X115612569Y-68088612D01*
X115450253Y-68034826D01*
X115450251Y-68034825D01*
X115349178Y-68024500D01*
X114650830Y-68024500D01*
X114650812Y-68024501D01*
X114549747Y-68034825D01*
X114385984Y-68089092D01*
X114385981Y-68089093D01*
X114239148Y-68179661D01*
X114224825Y-68193984D01*
X114163501Y-68227468D01*
X114093809Y-68222482D01*
X114049465Y-68193982D01*
X114035538Y-68180055D01*
X114035534Y-68180052D01*
X113888811Y-68089551D01*
X113888800Y-68089546D01*
X113725152Y-68035319D01*
X113624154Y-68025000D01*
X113525000Y-68025000D01*
X113525000Y-68876000D01*
X113505315Y-68943039D01*
X113452511Y-68988794D01*
X113401000Y-69000000D01*
X113275000Y-69000000D01*
X113275000Y-69126000D01*
X113255315Y-69193039D01*
X113202511Y-69238794D01*
X113151000Y-69250000D01*
X112237501Y-69250000D01*
X109284875Y-69250000D01*
X109282914Y-69246151D01*
X109222658Y-69163217D01*
X109222658Y-69163216D01*
X108482962Y-69902913D01*
X108465925Y-69839330D01*
X108400099Y-69725316D01*
X108307007Y-69632224D01*
X108192993Y-69566398D01*
X108129409Y-69549360D01*
X108869105Y-68809663D01*
X108869104Y-68809661D01*
X108786175Y-68749410D01*
X108715393Y-68713345D01*
X112237500Y-68713345D01*
X112237500Y-68750000D01*
X113025000Y-68750000D01*
X113025000Y-68024999D01*
X112925860Y-68025000D01*
X112925844Y-68025001D01*
X112824847Y-68035319D01*
X112661199Y-68089546D01*
X112661188Y-68089551D01*
X112514465Y-68180052D01*
X112514461Y-68180055D01*
X112392555Y-68301961D01*
X112392552Y-68301965D01*
X112302051Y-68448688D01*
X112302046Y-68448699D01*
X112247819Y-68612347D01*
X112237500Y-68713345D01*
X108715393Y-68713345D01*
X108575802Y-68642220D01*
X108351247Y-68569257D01*
X108351248Y-68569257D01*
X108118052Y-68532323D01*
X107881948Y-68532323D01*
X107648752Y-68569257D01*
X107424197Y-68642220D01*
X107213830Y-68749407D01*
X107130894Y-68809663D01*
X107870591Y-69549360D01*
X107807007Y-69566398D01*
X107692993Y-69632224D01*
X107599901Y-69725316D01*
X107534075Y-69839330D01*
X107517037Y-69902914D01*
X106777340Y-69163217D01*
X106717084Y-69246153D01*
X106609897Y-69456520D01*
X106536934Y-69681075D01*
X106500000Y-69914270D01*
X94000500Y-69914270D01*
X94000500Y-63984458D01*
X106499500Y-63984458D01*
X106499500Y-66080193D01*
X106499501Y-66080199D01*
X106505908Y-66139806D01*
X106556202Y-66274651D01*
X106556206Y-66274658D01*
X106642452Y-66389867D01*
X106642455Y-66389870D01*
X106757664Y-66476116D01*
X106757671Y-66476120D01*
X106892517Y-66526414D01*
X106892516Y-66526414D01*
X106899444Y-66527158D01*
X106952127Y-66532823D01*
X109047872Y-66532822D01*
X109107483Y-66526414D01*
X109242331Y-66476119D01*
X109357546Y-66389869D01*
X109443796Y-66274654D01*
X109494091Y-66139806D01*
X109500500Y-66080196D01*
X109500499Y-63984451D01*
X109494091Y-63924840D01*
X109483135Y-63895466D01*
X109443797Y-63789994D01*
X109443793Y-63789987D01*
X109357547Y-63674778D01*
X109357544Y-63674775D01*
X109276803Y-63614332D01*
X109242335Y-63588529D01*
X109242328Y-63588525D01*
X109107482Y-63538231D01*
X109107483Y-63538231D01*
X109047883Y-63531824D01*
X109047881Y-63531823D01*
X109047873Y-63531823D01*
X109047864Y-63531823D01*
X106952129Y-63531823D01*
X106952123Y-63531824D01*
X106892516Y-63538231D01*
X106757671Y-63588525D01*
X106757664Y-63588529D01*
X106642455Y-63674775D01*
X106642452Y-63674778D01*
X106556206Y-63789987D01*
X106556202Y-63789994D01*
X106505908Y-63924840D01*
X106500066Y-63979185D01*
X106499501Y-63984446D01*
X106499500Y-63984458D01*
X94000500Y-63984458D01*
X94000500Y-63521153D01*
X116199500Y-63521153D01*
X116199500Y-63678846D01*
X116230261Y-63833489D01*
X116230264Y-63833501D01*
X116290602Y-63979172D01*
X116290609Y-63979185D01*
X116378210Y-64110288D01*
X116378213Y-64110292D01*
X116489707Y-64221786D01*
X116489711Y-64221789D01*
X116620814Y-64309390D01*
X116620827Y-64309397D01*
X116739519Y-64358560D01*
X116766503Y-64369737D01*
X116921153Y-64400499D01*
X116921156Y-64400500D01*
X116921158Y-64400500D01*
X117078844Y-64400500D01*
X117078845Y-64400499D01*
X117233497Y-64369737D01*
X117379179Y-64309394D01*
X117510289Y-64221789D01*
X117621789Y-64110289D01*
X117709394Y-63979179D01*
X117769737Y-63833497D01*
X117800500Y-63678842D01*
X117800500Y-63521158D01*
X117800500Y-63521155D01*
X117800499Y-63521153D01*
X126699500Y-63521153D01*
X126699500Y-63678846D01*
X126730261Y-63833489D01*
X126730264Y-63833501D01*
X126790602Y-63979172D01*
X126790609Y-63979185D01*
X126878210Y-64110288D01*
X126878213Y-64110292D01*
X126989707Y-64221786D01*
X126989711Y-64221789D01*
X127120814Y-64309390D01*
X127120827Y-64309397D01*
X127239519Y-64358560D01*
X127266503Y-64369737D01*
X127421153Y-64400499D01*
X127421156Y-64400500D01*
X127421158Y-64400500D01*
X127578844Y-64400500D01*
X127578845Y-64400499D01*
X127733497Y-64369737D01*
X127879179Y-64309394D01*
X128010289Y-64221789D01*
X128121789Y-64110289D01*
X128130235Y-64097648D01*
X130899500Y-64097648D01*
X130899500Y-64302351D01*
X130931522Y-64504534D01*
X130994781Y-64699223D01*
X131087715Y-64881613D01*
X131208028Y-65047213D01*
X131352786Y-65191971D01*
X131507749Y-65304556D01*
X131518390Y-65312287D01*
X131634607Y-65371503D01*
X131700776Y-65405218D01*
X131700778Y-65405218D01*
X131700781Y-65405220D01*
X131805137Y-65439127D01*
X131895465Y-65468477D01*
X131996557Y-65484488D01*
X132097648Y-65500500D01*
X132097649Y-65500500D01*
X132302351Y-65500500D01*
X132302352Y-65500500D01*
X132504534Y-65468477D01*
X132699219Y-65405220D01*
X132881610Y-65312287D01*
X132974590Y-65244732D01*
X133047213Y-65191971D01*
X133047215Y-65191968D01*
X133047219Y-65191966D01*
X133191966Y-65047219D01*
X133191968Y-65047215D01*
X133191971Y-65047213D01*
X133244732Y-64974590D01*
X133312287Y-64881610D01*
X133351431Y-64804786D01*
X137499500Y-64804786D01*
X137499500Y-66500521D01*
X137499501Y-66500527D01*
X137505908Y-66560134D01*
X137556202Y-66694979D01*
X137556206Y-66694986D01*
X137642452Y-66810195D01*
X137642455Y-66810198D01*
X137757664Y-66896444D01*
X137757671Y-66896448D01*
X137892517Y-66946742D01*
X137892516Y-66946742D01*
X137899444Y-66947486D01*
X137952127Y-66953151D01*
X139647872Y-66953150D01*
X139707483Y-66946742D01*
X139842331Y-66896447D01*
X139957546Y-66810197D01*
X140043796Y-66694982D01*
X140094091Y-66560134D01*
X140100500Y-66500524D01*
X140100499Y-64804779D01*
X140094091Y-64745168D01*
X140043796Y-64610320D01*
X140043795Y-64610319D01*
X140043793Y-64610315D01*
X139957547Y-64495106D01*
X139957544Y-64495103D01*
X139842335Y-64408857D01*
X139842328Y-64408853D01*
X139707482Y-64358559D01*
X139707483Y-64358559D01*
X139647883Y-64352152D01*
X139647881Y-64352151D01*
X139647873Y-64352151D01*
X139647864Y-64352151D01*
X137952129Y-64352151D01*
X137952123Y-64352152D01*
X137892516Y-64358559D01*
X137757671Y-64408853D01*
X137757664Y-64408857D01*
X137642455Y-64495103D01*
X137642452Y-64495106D01*
X137556206Y-64610315D01*
X137556202Y-64610322D01*
X137505908Y-64745168D01*
X137499501Y-64804767D01*
X137499501Y-64804774D01*
X137499500Y-64804786D01*
X133351431Y-64804786D01*
X133405220Y-64699219D01*
X133468477Y-64504534D01*
X133500500Y-64302352D01*
X133500500Y-64097648D01*
X133481735Y-63979172D01*
X133468477Y-63895465D01*
X133405218Y-63700776D01*
X133361172Y-63614332D01*
X133312287Y-63518390D01*
X133304556Y-63507749D01*
X133191971Y-63352786D01*
X133047213Y-63208028D01*
X132881613Y-63087715D01*
X132881612Y-63087714D01*
X132881610Y-63087713D01*
X132824653Y-63058691D01*
X132699223Y-62994781D01*
X132504534Y-62931522D01*
X132329995Y-62903878D01*
X132302352Y-62899500D01*
X132097648Y-62899500D01*
X132073329Y-62903351D01*
X131895465Y-62931522D01*
X131700776Y-62994781D01*
X131518386Y-63087715D01*
X131352786Y-63208028D01*
X131208028Y-63352786D01*
X131087715Y-63518386D01*
X130994781Y-63700776D01*
X130931522Y-63895465D01*
X130899500Y-64097648D01*
X128130235Y-64097648D01*
X128151553Y-64065742D01*
X128179523Y-64023885D01*
X128209390Y-63979185D01*
X128209390Y-63979184D01*
X128209394Y-63979179D01*
X128269737Y-63833497D01*
X128300500Y-63678842D01*
X128300500Y-63521158D01*
X128300500Y-63521155D01*
X128300499Y-63521153D01*
X128269738Y-63366510D01*
X128269737Y-63366503D01*
X128264053Y-63352781D01*
X128209397Y-63220827D01*
X128209390Y-63220814D01*
X128121789Y-63089711D01*
X128121786Y-63089707D01*
X128010292Y-62978213D01*
X128010288Y-62978210D01*
X127879185Y-62890609D01*
X127879172Y-62890602D01*
X127733501Y-62830264D01*
X127733489Y-62830261D01*
X127578845Y-62799500D01*
X127578842Y-62799500D01*
X127421158Y-62799500D01*
X127421155Y-62799500D01*
X127266510Y-62830261D01*
X127266498Y-62830264D01*
X127120827Y-62890602D01*
X127120814Y-62890609D01*
X126989711Y-62978210D01*
X126989707Y-62978213D01*
X126878213Y-63089707D01*
X126878210Y-63089711D01*
X126790609Y-63220814D01*
X126790602Y-63220827D01*
X126730264Y-63366498D01*
X126730261Y-63366510D01*
X126699500Y-63521153D01*
X117800499Y-63521153D01*
X117769738Y-63366510D01*
X117769737Y-63366503D01*
X117764053Y-63352781D01*
X117709397Y-63220827D01*
X117709390Y-63220814D01*
X117621789Y-63089711D01*
X117621786Y-63089707D01*
X117510292Y-62978213D01*
X117510288Y-62978210D01*
X117379185Y-62890609D01*
X117379172Y-62890602D01*
X117233501Y-62830264D01*
X117233489Y-62830261D01*
X117078845Y-62799500D01*
X117078842Y-62799500D01*
X116921158Y-62799500D01*
X116921155Y-62799500D01*
X116766510Y-62830261D01*
X116766498Y-62830264D01*
X116620827Y-62890602D01*
X116620814Y-62890609D01*
X116489711Y-62978210D01*
X116489707Y-62978213D01*
X116378213Y-63089707D01*
X116378210Y-63089711D01*
X116290609Y-63220814D01*
X116290602Y-63220827D01*
X116230264Y-63366498D01*
X116230261Y-63366510D01*
X116199500Y-63521153D01*
X94000500Y-63521153D01*
X94000500Y-61221153D01*
X126699500Y-61221153D01*
X126699500Y-61378846D01*
X126730261Y-61533489D01*
X126730264Y-61533501D01*
X126790602Y-61679172D01*
X126790609Y-61679185D01*
X126878210Y-61810288D01*
X126878213Y-61810292D01*
X126989707Y-61921786D01*
X126989711Y-61921789D01*
X127120814Y-62009390D01*
X127120827Y-62009397D01*
X127219657Y-62050333D01*
X127266503Y-62069737D01*
X127418594Y-62099990D01*
X127421153Y-62100499D01*
X127421156Y-62100500D01*
X127421158Y-62100500D01*
X127578844Y-62100500D01*
X127578845Y-62100499D01*
X127733497Y-62069737D01*
X127780343Y-62050333D01*
X137500000Y-62050333D01*
X137500000Y-62254968D01*
X137532009Y-62457068D01*
X137595244Y-62651682D01*
X137688141Y-62834001D01*
X137688147Y-62834010D01*
X137720523Y-62878572D01*
X137720524Y-62878573D01*
X138400000Y-62199097D01*
X138400000Y-62205312D01*
X138427259Y-62307045D01*
X138479920Y-62398257D01*
X138554394Y-62472731D01*
X138645606Y-62525392D01*
X138747339Y-62552651D01*
X138753553Y-62552651D01*
X138074076Y-63232125D01*
X138118650Y-63264510D01*
X138300968Y-63357406D01*
X138495582Y-63420641D01*
X138697683Y-63452651D01*
X138902317Y-63452651D01*
X139104417Y-63420641D01*
X139299031Y-63357406D01*
X139481349Y-63264510D01*
X139525921Y-63232125D01*
X138846447Y-62552651D01*
X138852661Y-62552651D01*
X138954394Y-62525392D01*
X139045606Y-62472731D01*
X139120080Y-62398257D01*
X139172741Y-62307045D01*
X139200000Y-62205312D01*
X139200000Y-62199099D01*
X139879474Y-62878573D01*
X139879474Y-62878572D01*
X139911859Y-62834000D01*
X140004755Y-62651682D01*
X140067990Y-62457068D01*
X140100000Y-62254968D01*
X140100000Y-62050333D01*
X140067990Y-61848233D01*
X140004755Y-61653619D01*
X139911859Y-61471301D01*
X139879474Y-61426728D01*
X139879474Y-61426727D01*
X139200000Y-62106202D01*
X139200000Y-62099990D01*
X139172741Y-61998257D01*
X139120080Y-61907045D01*
X139045606Y-61832571D01*
X138954394Y-61779910D01*
X138852661Y-61752651D01*
X138846446Y-61752651D01*
X139525922Y-61073175D01*
X139525921Y-61073174D01*
X139481359Y-61040798D01*
X139481350Y-61040792D01*
X139299031Y-60947895D01*
X139104417Y-60884660D01*
X138902317Y-60852651D01*
X138697683Y-60852651D01*
X138495582Y-60884660D01*
X138300968Y-60947895D01*
X138118644Y-61040794D01*
X138074077Y-61073174D01*
X138074077Y-61073175D01*
X138753554Y-61752651D01*
X138747339Y-61752651D01*
X138645606Y-61779910D01*
X138554394Y-61832571D01*
X138479920Y-61907045D01*
X138427259Y-61998257D01*
X138400000Y-62099990D01*
X138400000Y-62106204D01*
X137720524Y-61426728D01*
X137720523Y-61426728D01*
X137688143Y-61471295D01*
X137595244Y-61653619D01*
X137532009Y-61848233D01*
X137500000Y-62050333D01*
X127780343Y-62050333D01*
X127879179Y-62009394D01*
X128010289Y-61921789D01*
X128121789Y-61810289D01*
X128209394Y-61679179D01*
X128269737Y-61533497D01*
X128300500Y-61378842D01*
X128300500Y-61221158D01*
X128300500Y-61221155D01*
X128285277Y-61144626D01*
X128285277Y-61144625D01*
X128269738Y-61066510D01*
X128269737Y-61066503D01*
X128259087Y-61040792D01*
X128209397Y-60920827D01*
X128209390Y-60920814D01*
X128121789Y-60789711D01*
X128121786Y-60789707D01*
X128010292Y-60678213D01*
X128010288Y-60678210D01*
X127879185Y-60590609D01*
X127879172Y-60590602D01*
X127733501Y-60530264D01*
X127733489Y-60530261D01*
X127578845Y-60499500D01*
X127578842Y-60499500D01*
X127421158Y-60499500D01*
X127421155Y-60499500D01*
X127266510Y-60530261D01*
X127266498Y-60530264D01*
X127120827Y-60590602D01*
X127120814Y-60590609D01*
X126989711Y-60678210D01*
X126989707Y-60678213D01*
X126878213Y-60789707D01*
X126878210Y-60789711D01*
X126790609Y-60920814D01*
X126790602Y-60920827D01*
X126730264Y-61066498D01*
X126730261Y-61066510D01*
X126699500Y-61221153D01*
X94000500Y-61221153D01*
X94000500Y-60124500D01*
X94020185Y-60057461D01*
X94072989Y-60011706D01*
X94124500Y-60000500D01*
X146476000Y-60000500D01*
X146543039Y-60020185D01*
G37*
%TD.AperFunction*%
%TD*%
M02*
